<?xml version="1.0" encoding="UTF-8" standalone="no"?>
<!DOCTYPE svg PUBLIC "-//W3C//DTD SVG 1.1//EN" "http://www.w3.org/Graphics/SVG/1.1/DTD/svg11.dtd">
<svg width="100%" height="100%" viewBox="0 0 488 488" version="1.1" xmlns="http://www.w3.org/2000/svg" xmlns:xlink="http://www.w3.org/1999/xlink" xml:space="preserve" xmlns:serif="http://www.serif.com/" style="fill-rule:evenodd;clip-rule:evenodd;stroke-linejoin:round;stroke-miterlimit:2;">
    <g transform="matrix(0.870239,0,0,0.870239,29.9999,20.4178)">
        <path d="M94.15,429.562L71.487,425.745L66.302,456.531C63.91,470.313 69.571,484.095 80.896,492.241C87.076,496.766 94.664,499.193 102.254,499.193C108.265,499.193 113.999,497.811 119.469,494.836C119.43,494.857 146.325,480.607 146.325,480.607L135.565,460.299L108.554,474.611C106.554,475.711 104.454,476.211 102.254,476.211C99.454,476.211 96.654,475.311 94.354,473.611C90.154,470.611 88.054,465.511 88.954,460.411L94.15,429.562ZM298.192,430.889L287.551,451.259L369.893,494.276C375.387,497.022 380.977,498.293 386.554,498.293C406.552,498.293 423.036,481.809 423.036,461.811C423.036,458.981 422.748,456.373 422.124,453.796C422.128,453.813 419.808,440.534 419.808,440.534L397.169,444.49L399.654,458.711C399.954,459.711 400.054,460.711 400.054,461.811C400.054,469.211 393.954,475.311 386.554,475.311C384.454,475.311 382.354,474.811 380.354,473.811L298.192,430.889ZM196.489,428.019L155.873,449.539L166.633,469.847C179.784,462.879 194.072,455.309 207.249,448.327L196.489,428.019ZM277.822,420.247L244.254,402.711L196.489,428.019L207.249,448.327L244.33,428.68C244.33,428.68 267.181,440.617 267.181,440.617L277.822,420.247ZM101.784,384.236L79.121,380.419C76.419,396.46 73.713,412.529 71.487,425.745L94.15,429.562L101.784,384.236ZM389.439,292.434L373.354,308.211L393.213,421.851L415.852,417.895L398.073,316.157C398.073,316.157 405.532,308.841 405.532,308.841L389.439,292.434ZM114.454,309.011L53.71,250.14L37.716,266.643L89.785,317.107C89.785,317.107 82.938,357.756 82.938,357.756L105.601,361.573L114.454,309.011ZM399.505,166.79L475.654,177.611C480.754,178.411 484.954,181.911 486.554,186.811L487.156,186.614L486.554,186.811C488.154,191.711 486.854,197.111 482.954,200.711L405.847,276.341L421.94,292.748C432.229,282.656 443.783,271.323 454.754,260.562L440.324,245.85L454.754,260.562L498.857,217.305C509.248,207.514 512.728,192.93 508.401,179.677C504.107,166.527 492.903,157.053 479.215,154.906L479.052,154.881C478.887,154.857 440.788,149.443 402.738,144.036L399.505,166.79ZM72.714,170.018L69.334,147.285C51.756,149.899 35.281,152.348 23.869,154.045L27.145,176.079L23.869,154.045L8.083,156.392C-5.695,158.553 -16.899,168.027 -21.193,181.177C-25.542,194.495 -21.755,209.164 -11.74,218.711C-11.767,218.686 21.213,250.649 21.213,250.649L37.207,234.145L4.154,202.111C0.454,198.611 -0.946,193.211 0.654,188.311C2.254,183.411 6.454,179.911 11.554,179.111L72.714,170.018ZM193.905,94.504L173.263,84.4L148.224,135.556C148.224,135.556 92.066,143.905 92.066,143.905L95.446,166.638L163.554,156.511L173.697,135.788L170.73,134.336L173.697,135.788L193.905,94.504ZM286.124,80.567L323.654,156.011L331.244,157.09L331.276,156.863L331.244,157.09L376.751,163.556L379.984,140.803L338.849,134.957L306.701,70.331L286.124,80.567ZM204.009,73.862L231.054,18.611C233.354,13.911 238.054,11.011 243.154,11.011C248.254,11.011 252.954,13.911 255.254,18.511L275.888,59.99L296.465,49.754C285.815,28.346 277.26,11.149 275.993,8.601L275.401,8.895L275.993,8.601L275.805,8.241L275.81,8.233C269.606,-4.175 256.911,-11.971 243.154,-11.971C229.369,-11.971 216.628,-4.194 210.411,8.509C210.412,8.507 197.734,34.407 183.367,63.758L204.009,73.862Z"
              style="fill:#dbeafe;"/>
    </g>
</svg>
