<svg width="534" height="80" viewBox="0 0 534 80" fill="none" xmlns="http://www.w3.org/2000/svg">
<path d="M76.3999 31.2752L48.7245 3.59957C43.9251 -1.19986 36.0744 -1.19986 31.275 3.59957L3.59954 31.2752C-1.19985 36.0746 -1.19985 43.9254 3.59954 48.7248L31.275 76.4004C36.0744 81.1999 43.9295 81.1999 48.7289 76.4004L76.4044 48.7248C81.1993 43.9254 81.1993 36.0746 76.3999 31.2752ZM51.1531 51.1534L40.0019 62.3046L17.6997 40.0022L40.0019 17.6998L51.1531 28.851L40.0019 40.0022L51.1531 51.1534Z" fill="black"/>
<path d="M145.049 45.4804H135.308C134.149 51.7178 129.395 53.5323 125.104 53.5323C119.074 53.5323 114.494 48.8826 114.494 40.207C114.494 31.8149 119.074 26.9952 124.988 26.9952C129.684 26.9952 133.917 29.4334 135.018 35.047H144.759C143.309 25.691 135.888 19 125.336 19C112.233 19 104 27.222 104 40.207C104 53.3622 111.943 61.5275 125.046 61.5275C135.656 61.5275 143.541 55.0066 145.049 45.4804Z" fill="black"/>
<path d="M179.945 45.4237C179.945 34.3666 172.06 29.3767 163.421 29.3767C154.782 29.3767 146.897 34.3666 146.897 45.4237C146.897 56.4809 154.782 61.5275 163.421 61.5275C172.06 61.5275 179.945 56.4809 179.945 45.4237ZM156.638 45.4237C156.638 38.9596 159.652 36.6347 163.421 36.6347C167.19 36.6347 170.204 38.9596 170.204 45.4237C170.204 51.8312 167.306 54.2695 163.421 54.2695C159.536 54.2695 156.638 51.8312 156.638 45.4237Z" fill="black"/>
<path d="M193.339 60.7903V44.9134C193.339 39.5266 195.021 36.8615 198.905 36.8615C203.485 36.8615 203.717 40.4338 203.717 44.8V60.7903H213.284V44.9134C213.284 39.5266 214.965 36.8615 218.85 36.8615C223.43 36.8615 223.662 40.4338 223.662 44.8V60.7903H233.228V42.4752C233.228 34.1965 230.735 29.6035 222.734 29.6035C218.328 29.6035 214.443 31.3613 212.066 34.7635C210.617 31.418 207.776 29.6035 202.79 29.6035C198.093 29.6035 194.731 32.0418 193.339 34.3099V30.284H183.773V60.7903H193.339Z" fill="black"/>
<path d="M247.893 60.7903V44.9134C247.893 39.5266 249.575 36.8615 253.459 36.8615C258.039 36.8615 258.271 40.4338 258.271 44.8V60.7903H267.838V44.9134C267.838 39.5266 269.519 36.8615 273.404 36.8615C277.984 36.8615 278.216 40.4338 278.216 44.8V60.7903H287.782V42.4752C287.782 34.1965 285.289 29.6035 277.288 29.6035C272.882 29.6035 268.997 31.3613 266.62 34.7635C265.171 31.418 262.33 29.6035 257.344 29.6035C252.647 29.6035 249.285 32.0418 247.893 34.3099V30.284H238.327V60.7903H247.893Z" fill="black"/>
<path d="M324.073 45.4237C324.073 34.3666 316.188 29.3767 307.549 29.3767C298.91 29.3767 291.025 34.3666 291.025 45.4237C291.025 56.4809 298.91 61.5275 307.549 61.5275C316.188 61.5275 324.073 56.4809 324.073 45.4237ZM300.766 45.4237C300.766 38.9596 303.781 36.6347 307.549 36.6347C311.318 36.6347 314.333 38.9596 314.333 45.4237C314.333 51.8312 311.434 54.2695 307.549 54.2695C303.665 54.2695 300.766 51.8312 300.766 45.4237Z" fill="black"/>
<path d="M337.467 34.3099V30.284H327.901V60.7903H337.467V45.1402C337.467 39.5266 339.207 36.8615 343.265 36.8615C347.904 36.8615 348.077 40.4338 348.077 44.8V60.7903H357.644V42.4752C357.644 34.1965 355.151 29.6035 347.15 29.6035C342.28 29.6035 338.859 32.0418 337.467 34.3099Z" fill="black"/>
<path d="M391.094 45.3103L400.196 60.7903H411.85L401.472 43.7226C406.284 41.9081 409.705 38.4492 409.705 32.382C409.705 22.1754 401.53 19.6804 390.63 19.6804H374.454V60.7903H384.368V45.3103H391.094ZM384.368 27.8457H390.92C395.616 27.8457 399.211 28.6963 399.211 32.4954C399.211 36.3512 395.616 37.1451 390.92 37.1451H384.368V27.8457Z" fill="black"/>
<path d="M445.243 45.4237C445.243 34.3666 437.358 29.3767 428.719 29.3767C420.081 29.3767 412.196 34.3666 412.196 45.4237C412.196 56.4809 420.081 61.5275 428.719 61.5275C437.358 61.5275 445.243 56.4809 445.243 45.4237ZM421.936 45.4237C421.936 38.9596 424.951 36.6347 428.719 36.6347C432.488 36.6347 435.503 38.9596 435.503 45.4237C435.503 51.8312 432.604 54.2695 428.719 54.2695C424.835 54.2695 421.936 51.8312 421.936 45.4237Z" fill="black"/>
<path d="M480.717 45.4237C480.717 34.3666 472.831 29.3767 464.193 29.3767C455.554 29.3767 447.669 34.3666 447.669 45.4237C447.669 56.4809 455.554 61.5275 464.193 61.5275C472.831 61.5275 480.717 56.4809 480.717 45.4237ZM457.409 45.4237C457.409 38.9596 460.424 36.6347 464.193 36.6347C467.961 36.6347 470.976 38.9596 470.976 45.4237C470.976 51.8312 468.077 54.2695 464.193 54.2695C460.308 54.2695 457.409 51.8312 457.409 45.4237Z" fill="black"/>
<path d="M494.111 60.7903V44.9134C494.111 39.5266 495.792 36.8615 499.677 36.8615C504.257 36.8615 504.489 40.4338 504.489 44.8V60.7903H514.055V44.9134C514.055 39.5266 515.737 36.8615 519.621 36.8615C524.202 36.8615 524.434 40.4338 524.434 44.8V60.7903H534V42.4752C534 34.1965 531.507 29.6035 523.506 29.6035C519.1 29.6035 515.215 31.3613 512.838 34.7635C511.388 31.418 508.547 29.6035 503.561 29.6035C498.865 29.6035 495.502 32.0418 494.111 34.3099V30.284H484.544V60.7903H494.111Z" fill="black"/>
</svg>
