<svg width="88" height="34" viewBox="0 0 88 34" fill="none" xmlns="http://www.w3.org/2000/svg">
<path fill-rule="evenodd" clip-rule="evenodd" d="M44.7634 16.49H40.46V30.6532H44.7634V24.7443C44.7603 24.1015 44.7988 23.4592 44.8787 22.8216C44.9377 22.2905 45.1087 21.7785 45.3802 21.3201C45.6487 20.8947 46.032 20.5561 46.4848 20.3444C46.9638 20.1111 47.6125 19.9944 48.4308 19.9944C48.743 19.9934 49.0549 20.0177 49.3633 20.0671C49.6674 20.1183 49.9675 20.1912 50.2614 20.2853V16.2855C50.036 16.2251 49.8055 16.1861 49.5729 16.1688C49.3229 16.1506 49.0744 16.14 48.8244 16.14C47.8684 16.14 47.0746 16.3587 46.4429 16.796C45.8112 17.2334 45.2664 17.8899 44.8084 18.7657H44.75L44.7634 16.49ZM56.7384 8.62207H52.4379V30.6532H56.3971V28.7881H56.4555C56.6524 29.069 56.8782 29.328 57.129 29.5608C57.4251 29.8371 57.7528 30.0767 58.105 30.2744C58.491 30.4936 58.8996 30.6694 59.3234 30.7986C59.7798 30.9374 60.254 31.0063 60.7305 31.0031C61.6938 31.0164 62.6499 30.833 63.5416 30.4638C64.3616 30.1199 65.0999 29.6035 65.7076 28.9487C66.3213 28.2795 66.7949 27.4915 67.0996 26.6321C67.4332 25.6878 67.5984 24.691 67.5876 23.6882C67.5902 22.723 67.4386 21.7637 67.1386 20.8474C66.8603 19.9773 66.4332 19.1635 65.8767 18.443C65.3364 17.7476 64.6563 17.1764 63.8814 16.7673C63.0562 16.3392 62.1395 16.1238 61.2125 16.14C60.3579 16.1326 59.5085 16.2756 58.7022 16.5627C57.937 16.8378 57.2717 17.3406 56.7937 18.0051H56.7369L56.7384 8.62207ZM57.2982 26.1654C56.6994 25.5048 56.4001 24.6402 56.4001 23.5716C56.4001 22.5029 56.6994 21.6383 57.2982 20.9777C57.8969 20.3171 58.7452 19.9868 59.8429 19.9868C60.9406 19.9868 61.7888 20.3171 62.3875 20.9777C62.9863 21.6383 63.2856 22.5029 63.2856 23.5716C63.2856 24.6402 62.9863 25.5048 62.3875 26.1654C61.7888 26.826 60.9406 27.1563 59.8429 27.1563C58.7452 27.1563 57.8979 26.826 57.3012 26.1654H57.2982ZM83.4723 19.9868H87.2594V16.49H83.4723V12.2992H79.1704V16.4961H76.4161V19.9929H79.1704V26.7245C79.1515 27.4061 79.284 28.0833 79.558 28.7063C79.8017 29.2323 80.1717 29.688 80.6343 30.032C81.1164 30.3808 81.6608 30.6314 82.2374 30.7698C82.8951 30.9302 83.5697 31.0086 84.2462 31.0031C84.7544 31.0021 85.2621 30.9727 85.767 30.9153C86.2781 30.8598 86.7806 30.7423 87.2639 30.5653V26.929C87.0219 27.1246 86.727 27.2413 86.4182 27.2639C86.1205 27.3064 85.8206 27.3307 85.5201 27.3366C85.1404 27.3524 84.7616 27.2879 84.4079 27.1472C84.1503 27.0393 83.934 26.8501 83.7912 26.6078C83.6496 26.3519 83.5615 26.0693 83.5322 25.7776C83.4921 25.4255 83.4731 25.0714 83.4753 24.717L83.4723 19.9868ZM70.2371 10.2387C69.8311 10.6517 69.579 11.1944 69.5238 11.7743C69.4686 12.3543 69.6137 12.9357 69.9344 13.4196C70.2551 13.9034 70.7315 14.2598 71.2826 14.4281C71.8337 14.5964 72.4254 14.5662 72.957 14.3426C73.4885 14.119 73.9271 13.7158 74.198 13.2017C74.4689 12.6876 74.5554 12.0944 74.4428 11.523C74.3302 10.9516 74.0254 10.4374 73.5804 10.0679C73.1353 9.69833 72.5775 9.49634 72.0019 9.49628C71.6733 9.49222 71.3474 9.55595 71.044 9.68359C70.7405 9.81123 70.466 10.0001 70.2371 10.2387ZM74.1544 16.49H69.8494V30.6532H74.1544V16.49Z" fill="#1E2124"/>
<path fill-rule="evenodd" clip-rule="evenodd" d="M37.7684 14.8537C37.4213 12.198 36.4354 9.66903 34.8971 7.48905C33.3589 5.30906 31.3154 3.54468 28.946 2.35086C26.5767 1.15704 23.954 0.570279 21.3083 0.642116C18.6626 0.713952 16.0748 1.44218 13.7721 2.76286C11.4694 4.08354 9.52226 5.95627 8.10169 8.21659C6.68111 10.4769 5.83054 13.0557 5.62467 15.7265C5.4188 18.3973 5.86391 21.0784 6.92094 23.5344C7.97796 25.9904 9.61456 28.1461 11.687 29.8123C13.2737 29.0972 15.0086 28.2624 16.8512 27.3261C14.9875 26.4222 13.4039 25.0191 12.2723 23.2688C11.1407 21.5185 10.5043 19.4879 10.4322 17.3974C10.3601 15.307 10.8549 13.2364 11.8631 11.4105C12.8713 9.58452 14.3543 8.07292 16.1511 7.03969C17.948 6.00647 19.9901 5.49109 22.0559 5.54947C24.1217 5.60785 26.1322 6.23776 27.8693 7.37086C29.6064 8.50395 31.0037 10.097 31.9097 11.977C32.8157 13.857 33.1956 15.9523 33.0083 18.0355C34.7148 16.94 36.3104 15.8734 37.7684 14.8537ZM37.9046 16.7082C36.2715 17.9309 34.4618 19.1975 32.5159 20.4748C31.6467 23.2341 29.777 25.5577 27.2832 26.9776C24.7894 28.3976 21.8567 28.8085 19.0755 28.1275C16.9425 29.1654 14.9187 30.0638 13.0656 30.8078C15.5304 32.3944 18.3738 33.2754 21.2937 33.3572C24.2136 33.439 27.1008 32.7186 29.6485 31.2724C32.1962 29.8262 34.3092 27.7084 35.7629 25.144C37.2166 22.5795 37.9567 19.6643 37.9046 16.7082Z" fill="#1E2124"/>
<path fill-rule="evenodd" clip-rule="evenodd" d="M38.7251 3.39948C38.9439 3.39948 39.1577 3.33381 39.3396 3.21078C39.5216 3.08775 39.6633 2.91288 39.7471 2.70829C39.8308 2.5037 39.8527 2.27857 39.81 2.06138C39.7673 1.84419 39.662 1.64468 39.5073 1.4881C39.3526 1.33151 39.1555 1.22487 38.9409 1.18167C38.7263 1.13847 38.5039 1.16064 38.3018 1.24539C38.0996 1.33013 37.9269 1.47364 37.8053 1.65777C37.6838 1.84189 37.6189 2.05837 37.6189 2.27982C37.6187 2.42691 37.6472 2.57259 37.7027 2.70853C37.7582 2.84446 37.8397 2.96797 37.9424 3.07198C38.0452 3.17599 38.1672 3.25846 38.3015 3.31465C38.4358 3.37085 38.5798 3.39968 38.7251 3.39948Z" fill="#00CCF5"/>
<path fill-rule="evenodd" clip-rule="evenodd" d="M1.50396 22.4232C1.79576 22.4232 2.081 22.3356 2.32356 22.1714C2.56612 22.0072 2.7551 21.7739 2.86656 21.5009C2.97802 21.2279 3.00696 20.9276 2.9497 20.638C2.89245 20.3484 2.75158 20.0825 2.54493 19.874C2.33828 19.6654 2.07514 19.5237 1.78884 19.4666C1.50254 19.4095 1.20594 19.4397 0.936607 19.5534C0.667274 19.667 0.437314 19.859 0.275845 20.105C0.114376 20.3511 0.0286591 20.64 0.0295479 20.9354C0.0307365 21.3304 0.1866 21.7088 0.462977 21.9877C0.739354 22.2666 1.1137 22.4232 1.50396 22.4232Z" fill="#00CCF5"/>
<path fill-rule="evenodd" clip-rule="evenodd" d="M26.4044 13.6327C27.9971 12.7418 29.5478 11.8964 31.0447 11.1161C31.1001 11.207 31.1599 11.3146 31.2228 11.4358C29.7394 12.2206 28.1887 13.0691 26.596 13.9615L26.4044 13.6327ZM47.0911 5.68294C46.3801 4.43601 42.0691 5.76021 35.9679 8.64647C36.0248 8.74193 36.0816 8.84041 36.1355 8.9404C41.9808 6.12383 46.0597 4.76782 46.5776 5.85869C47.3919 7.28591 38.0455 14.2887 25.7114 21.4991C13.3772 28.7094 2.71055 33.3972 1.89625 31.9699C1.43223 31.1215 3.72692 28.8094 5.7881 26.9701C2.81982 29.3943 1.26308 31.2624 1.77501 32.1593C2.93657 34.1971 14.1795 30.1897 26.6948 22.8809C39.2101 15.572 48.2586 7.72075 47.0911 5.68294Z" fill="#00CCF5"/>
<path d="M24.9389 14.8173C24.6752 14.3592 24.5766 13.8227 24.66 13.2993C24.7433 12.7758 25.0035 12.2979 25.3961 11.9469C25.7887 11.5959 26.2894 11.3936 26.8129 11.3745C27.3364 11.3554 27.8502 11.5207 28.2667 11.8422C28.6832 12.1637 28.9767 12.6215 29.0971 13.1375C29.2174 13.6535 29.1572 14.1958 28.9267 14.6719C28.6963 15.148 28.3098 15.5284 27.8331 15.7484C27.3565 15.9683 26.8193 16.014 26.313 15.8779C26.0247 15.805 25.7542 15.6733 25.5179 15.491C25.2816 15.3086 25.0846 15.0794 24.9389 14.8173Z" fill="#FA00E9"/>
</svg>
