<?xml version="1.0" encoding="iso-8859-1"?>
<!-- Generator: Adobe Illustrator 23.0.5, SVG Export Plug-In . SVG Version: 6.00 Build 0)  -->
<svg version="1.1" xmlns="http://www.w3.org/2000/svg" xmlns:xlink="http://www.w3.org/1999/xlink" x="0px" y="0px"
	 viewBox="0 0 492 492" style="enable-background:new 0 0 492 492;" xml:space="preserve">
<g id="Master_Layer_2">
</g>
<g id="Layer_1">
	<g>
		<g>
			<g>
				<g>
					<g>
						<g>
							<g>
								<path style="fill-rule:evenodd;clip-rule:evenodd;fill:#212121;" d="M229.877,386.468h-0.024l-97.464-0.024
									c-3.288,0-5.952-2.664-5.952-5.952s2.664-5.952,5.952-5.952l0,0l97.464,0.024h0.024c21.48,0,42.456-5.976,60.696-17.304
									l122.112-75.84c3.432-2.568,5.352-5.448,5.856-8.808c0.552-3.624-0.936-7.056-3.96-9.168
									c-6.504-4.536-18.552-2.712-32.232,4.848c-0.984,0.576-9.552,5.976-23.736,14.904c-13.44,8.472-33.744,21.264-60.696,38.208
									c-2.784,1.752-6.456,0.912-8.208-1.872c-1.752-2.784-0.912-6.456,1.872-8.208c26.952-16.944,47.256-29.736,60.696-38.208
									c18.12-11.424,23.376-14.736,24.288-15.24c9.36-5.184,18.072-8.112,25.92-8.712c7.368-0.552,13.896,0.984,18.912,4.488
									c6.744,4.704,10.176,12.648,8.952,20.76c-1.008,6.624-4.632,12.24-10.776,16.752c-0.12,0.096-0.24,0.168-0.384,0.264
									l-122.304,75.96C276.726,379.868,253.565,386.468,229.877,386.468z"/>
							</g>
						</g>
					</g>
					<g>
						<g>
							<g>
								<path style="fill-rule:evenodd;clip-rule:evenodd;fill:#212121;" d="M274.638,338.876H216.51
									c-3.288,0-5.952-2.664-5.952-5.952c0-3.288,2.664-5.952,5.952-5.952l58.128,0c7.776,0,14.136-6.072,14.496-13.824
									c0.192-3.936-1.224-7.704-3.984-10.584c-2.832-2.976-6.672-4.608-10.8-4.608l-71.88,0c-0.024,0-0.024,0-0.048,0
									c-4.944-0.048-16.536-0.144-28.584,2.52c-13.296,2.928-23.976,8.472-31.728,16.44c-1.752,1.8-3.408,3.768-4.92,5.832
									c-1.944,2.664-5.664,3.24-8.328,1.296s-3.24-5.664-1.296-8.328c1.824-2.52,3.864-4.92,6-7.128
									c9.408-9.672,22.104-16.32,37.704-19.752c11.832-2.616,22.92-2.856,31.224-2.784l71.856,0
									c7.296,0,14.376,3.024,19.416,8.304c5.04,5.28,7.608,12.144,7.272,19.368C300.39,327.812,288.798,338.876,274.638,338.876z"
									/>
							</g>
						</g>
					</g>
				</g>
				<g>
					<g>
						<g>
							<path style="fill-rule:evenodd;clip-rule:evenodd;fill:#212121;" d="M132.342,394.676h-64.44
								c-3.288,0-5.976-2.688-5.976-5.976v-86.688c0-3.288,2.688-5.976,5.976-5.976h64.44c3.288,0,5.976,2.688,5.976,5.976V388.7
								C138.318,391.988,135.654,394.676,132.342,394.676L132.342,394.676z M73.854,382.748h52.56V307.94h-52.56V382.748z"/>
						</g>
					</g>
				</g>
				<g>
					<g>
						<g>
							<g>
								<path style="fill-rule:evenodd;clip-rule:evenodd;fill:#212121;" d="M116.742,324.788c0-3.715-3.029-6.744-6.744-6.744
									s-6.744,3.029-6.744,6.744s3.03,6.744,6.744,6.744S116.742,328.502,116.742,324.788z"/>
							</g>
						</g>
						<g>
							<g>
								<path style="fill-rule:evenodd;clip-rule:evenodd;fill:#212121;" d="M109.998,331.652c-3.792,0-6.864-3.072-6.864-6.864
									s3.072-6.864,6.864-6.864c3.792,0,6.864,3.072,6.864,6.864S113.79,331.652,109.998,331.652L109.998,331.652z
									 M109.998,318.164c-3.648,0-6.624,2.976-6.624,6.624s2.976,6.624,6.624,6.624c3.648,0,6.624-2.976,6.624-6.624
									C116.622,321.14,113.646,318.164,109.998,318.164z"/>
							</g>
						</g>
					</g>
					<g>
						<g>
							<g>
								<path style="fill-rule:evenodd;clip-rule:evenodd;fill:#212121;" d="M116.742,343.772c0-3.715-3.029-6.744-6.744-6.744
									s-6.744,3.029-6.744,6.744c0,3.714,3.03,6.744,6.744,6.744S116.742,347.486,116.742,343.772z"/>
							</g>
						</g>
						<g>
							<g>
								<path style="fill-rule:evenodd;clip-rule:evenodd;fill:#212121;" d="M109.998,350.636c-3.792,0-6.864-3.072-6.864-6.864
									c0-3.792,3.072-6.864,6.864-6.864c3.792,0,6.864,3.072,6.864,6.864C116.862,347.564,113.79,350.636,109.998,350.636
									L109.998,350.636z M109.998,337.172c-3.648,0-6.624,2.976-6.624,6.624c0,3.648,2.976,6.624,6.624,6.624
									c3.648,0,6.624-2.976,6.624-6.624C116.622,340.124,113.646,337.172,109.998,337.172z"/>
							</g>
						</g>
					</g>
				</g>
				<g>
					<g>
						<g>
							<rect x="67.878" y="360.62" style="fill-rule:evenodd;clip-rule:evenodd;fill:#212121;" width="64.488" height="11.928"/>
						</g>
					</g>
				</g>
			</g>
			<path style="fill-rule:evenodd;clip-rule:evenodd;fill:#212121;" d="M346.254,112.652L346.254,112.652
				c-8.928-8.928-20.808-13.848-33.432-13.848c-12.624,0-24.504,4.92-33.432,13.848l-0.912,0.912l-0.912-0.912
				c-8.928-8.928-20.808-13.848-33.432-13.848s-24.504,4.92-33.432,13.848c-8.928,8.928-13.848,20.808-13.848,33.432
				s4.92,24.504,13.848,33.432l63.552,63.552c1.152,1.152,2.688,1.752,4.224,1.752c1.536,0,3.048-0.576,4.224-1.752l63.552-63.552
				C364.686,161.084,364.686,131.084,346.254,112.652L346.254,112.652z M337.83,171.068l-59.352,59.352l-59.328-59.352
				c-6.672-6.672-10.344-15.552-10.344-25.008c0-9.432,3.672-18.312,10.344-25.008c6.672-6.672,15.552-10.344,25.008-10.344
				s18.312,3.672,25.008,10.344l5.136,5.136c1.128,1.128,2.64,1.752,4.224,1.752c1.584,0,3.096-0.624,4.224-1.752l5.136-5.136
				c13.776-13.776,36.216-13.776,49.992,0c6.672,6.672,10.344,15.552,10.344,25.008C348.173,155.516,344.501,164.396,337.83,171.068
				z"/>
		</g>
	</g>
</g>
</svg>
