<?xml version="1.0" encoding="UTF-8"?>
<svg version="1.1" xmlns="http://www.w3.org/2000/svg" width="512" height="512">
<path d="M0 0 C2.11578348 -0.00543138 4.23156317 -0.01255969 6.34733582 -0.02124023 C12.05191397 -0.03935565 17.75620025 -0.03245498 23.460783 -0.01972389 C29.45551159 -0.00953483 35.45021663 -0.01900587 41.44494629 -0.02526855 C51.50842739 -0.03252784 61.57179072 -0.02300245 71.63525391 -0.00390625 C83.23866098 0.01785907 94.84178682 0.01080648 106.44518709 -0.01121187 C116.4414193 -0.02941494 126.43756727 -0.03190025 136.43381071 -0.0214572 C142.38933637 -0.0152492 148.34473022 -0.01431205 154.30024719 -0.02760315 C159.90159967 -0.03923264 165.50259263 -0.03100706 171.10390663 -0.00802612 C173.14878559 -0.00277676 175.19369526 -0.00418734 177.23856163 -0.01307678 C192.1380712 -0.07183279 205.58121331 1.18302861 218.99023438 8.33007812 C219.65450439 8.67337158 220.31877441 9.01666504 221.00317383 9.37036133 C228.48698394 13.34399301 234.84153488 18.31085117 240.61523438 24.51757812 C241.28167969 25.17886719 241.948125 25.84015625 242.63476562 26.52148438 C254.24780091 38.53019377 262.71549804 55.79042863 262.74945545 72.72927666 C262.7539133 73.7645499 262.75837114 74.79982315 262.76296407 75.86646831 C262.76268753 77.56269177 262.76268753 77.56269177 262.7624054 79.29318237 C262.76608208 80.49968606 262.76975877 81.70618975 262.77354687 82.94925416 C262.78265666 86.29527935 262.78727967 89.64125556 262.78993618 92.98728848 C262.79384674 96.59761755 262.80342471 100.20793252 262.81214905 103.81825256 C262.83189468 112.53711539 262.84197833 121.25597935 262.85087684 129.97485894 C262.85526381 134.0852209 262.86062964 138.19558158 262.86586571 142.30594254 C262.88287788 155.97830119 262.8973699 169.65065905 262.90461445 183.32302666 C262.90652421 186.86964799 262.90844456 190.41626932 262.91040039 193.96289062 C262.91088413 194.84434105 262.91136787 195.72579147 262.91186627 196.63395251 C262.92015851 210.89839856 262.94548184 225.16276053 262.97798107 239.4271699 C263.01110768 254.08705318 263.02906836 268.74689381 263.03225869 283.40681469 C263.03441886 291.63168433 263.04309478 299.85643145 263.06871986 308.0812645 C263.09050374 315.08923423 263.09843981 322.09705169 263.08875308 329.10505144 C263.08423017 332.67558339 263.08597585 336.24580166 263.10551453 339.8162899 C263.19425976 356.97952859 263.05755684 372.41608003 254.80273438 387.89257812 C254.28126831 388.89550903 254.28126831 388.89550903 253.74926758 389.91870117 C250.89569924 395.26889799 247.71622838 400.03186013 243.61523438 404.51757812 C242.81472656 405.40960938 242.01421875 406.30164063 241.18945312 407.22070312 C231.79596949 417.17154252 220.64918736 424.20341591 207.61523438 428.51757812 C206.52063007 428.8888286 206.52063007 428.8888286 205.40391254 429.26757908 C195.22536145 432.28012359 185.08173793 431.94733036 174.57104492 431.92163086 C172.45570517 431.92734142 170.3403685 431.93430832 168.22503662 431.94242859 C162.50793543 431.96030068 156.79098824 431.95920263 151.07386756 431.9534862 C146.28792599 431.95038528 141.5020136 431.95649695 136.7160762 431.96252495 C125.41787027 431.97654948 114.11973998 431.97502655 102.8215332 431.96362305 C91.1960442 431.95214793 79.57078605 431.9662122 67.94532746 431.99301952 C57.93642488 432.01522845 47.9275945 432.02180209 37.91866904 432.01594311 C31.95302888 432.01258427 25.98753661 432.01491687 20.02191734 432.03219414 C14.40830799 432.04774374 8.79503858 432.04361916 3.18144226 432.02488899 C1.13172276 432.02122502 -0.91802238 432.02424689 -2.96771812 432.03477478 C-17.88387152 432.10548685 -31.33618571 430.86491935 -44.75976562 423.70507812 C-45.42838623 423.35743408 -46.09700684 423.00979004 -46.78588867 422.65161133 C-52.13608549 419.79804299 -56.89904763 416.61857213 -61.38476562 412.51757812 C-62.27679688 411.71707031 -63.16882813 410.9165625 -64.08789062 410.09179688 C-78.12502138 396.84089885 -88.1218669 378.02576132 -88.76508236 358.44454479 C-88.78262958 356.26316314 -88.78425235 354.08161253 -88.77244568 351.90019226 C-88.77783122 350.6877076 -88.78321675 349.47522294 -88.78876549 348.22599632 C-88.80051124 344.89562439 -88.79901477 341.56575909 -88.79159868 338.23540843 C-88.78683828 334.62995878 -88.79940212 331.02456103 -88.80961609 327.41912842 C-88.8267541 320.36912952 -88.82765445 313.31921996 -88.82240319 306.26920565 C-88.81835056 300.53448561 -88.81981798 294.79979182 -88.82515144 289.06507301 C-88.82589987 288.24674745 -88.82664829 287.42842188 -88.82741939 286.58529857 C-88.82895098 284.92249394 -88.83048933 283.25968932 -88.83203436 281.59688471 C-88.84574156 266.02628032 -88.84033446 250.45572627 -88.82884914 234.88512305 C-88.81892078 220.66637787 -88.83185372 206.44776289 -88.85578334 192.22903778 C-88.88021549 177.60056141 -88.88977198 162.97214557 -88.88313061 148.34364921 C-88.87964724 140.14237259 -88.88181178 131.94119602 -88.89938164 123.73993492 C-88.91415531 116.7577362 -88.91467211 109.77570798 -88.89731073 102.79351243 C-88.88884017 99.23712104 -88.88655324 95.68103355 -88.90196228 92.12465858 C-88.97089922 74.99729884 -88.80237759 59.5874792 -80.57226562 44.14257812 C-80.05841309 43.1461731 -80.05841309 43.1461731 -79.53417969 42.12963867 C-76.70097194 36.78505991 -73.34455997 32.09019779 -69.38476562 27.51757812 C-68.78792969 26.72480469 -68.19109375 25.93203125 -67.57617188 25.11523438 C-50.45429439 4.81924769 -25.13551276 -0.10926911 0 0 Z M-39.38476562 55.51757812 C-47.57313995 66.7042651 -48.53880264 78.26150384 -48.51847839 91.68707275 C-48.52074395 92.79208405 -48.52300951 93.89709535 -48.52534372 95.03559184 C-48.53165949 98.72784017 -48.5308559 102.42005156 -48.5300293 106.11230469 C-48.5330223 108.76393266 -48.53639703 111.41555777 -48.54020691 114.06718445 C-48.54849565 120.51645185 -48.55126095 126.96571012 -48.55181929 133.41498241 C-48.5522953 138.66020881 -48.55435433 143.9054322 -48.55751991 149.15065765 C-48.56632175 164.03907623 -48.57094004 178.92748762 -48.57018944 193.81590882 C-48.57014948 194.61770871 -48.57010953 195.41950861 -48.57006836 196.24560547 C-48.57002748 197.04839033 -48.5699866 197.8511752 -48.56994448 198.67828688 C-48.56953817 211.68356844 -48.57910504 224.68882103 -48.59320673 237.69409421 C-48.60758955 251.06471421 -48.61447586 264.43532009 -48.61361295 277.80594802 C-48.61328163 285.30572595 -48.61600006 292.80547351 -48.626791 300.30524445 C-48.63592113 306.6914033 -48.6380507 313.07751802 -48.63128158 319.4636806 C-48.62802896 322.71783649 -48.62901272 325.97189074 -48.63663483 329.22604179 C-48.64438315 332.76415223 -48.63969103 336.30204302 -48.63200378 339.84014893 C-48.63714735 340.85418486 -48.64229091 341.86822079 -48.64759034 342.91298509 C-48.57749202 357.5911368 -45.86847057 369.55676531 -35.62695312 380.47460938 C-25.46723256 389.731637 -13.5602911 391.68024853 -0.25238037 391.65129089 C0.52594674 391.65355645 1.30427385 391.65582201 2.10618663 391.65815622 C4.69287684 391.66444476 7.27951397 391.66367018 9.86621094 391.6628418 C11.72967089 391.66583652 13.59313022 391.66923977 15.45658875 391.67301941 C20.50428375 391.68183212 25.55196178 391.68419638 30.59966373 391.6848352 C33.75769539 391.68554729 36.91572277 391.68768464 40.07375336 391.69033241 C51.10369642 391.69957707 62.13362741 391.70366843 73.16357422 391.70288086 C83.42454891 391.70228042 93.68547097 391.71282784 103.94643235 391.72862452 C112.77303763 391.74172594 121.59962576 391.74706366 130.42624068 391.74642545 C135.69037081 391.74617121 140.95445414 391.74898128 146.21857452 391.7596035 C151.17295012 391.76932825 156.12723461 391.7693338 161.08161354 391.76208687 C162.89232072 391.76104643 164.70303371 391.76337154 166.513731 391.76944733 C183.66718437 391.82324391 198.42027604 391.09703019 211.57226562 378.75976562 C221.69358044 367.65147747 222.77065825 354.6897705 222.74894714 340.3480835 C222.7512127 339.2430722 222.75347826 338.1380609 222.75581247 336.99956441 C222.76212824 333.30731608 222.76132465 329.61510469 222.76049805 325.92285156 C222.76349105 323.27122359 222.76686578 320.61959848 222.77067566 317.9679718 C222.7789644 311.5187044 222.7817297 305.06944613 222.78228804 298.62017384 C222.78276405 293.37494744 222.78482308 288.12972405 222.78798866 282.8844986 C222.7967905 267.99608002 222.80140879 253.10766863 222.80065819 238.21924743 C222.80061823 237.41744754 222.80057828 236.61564764 222.80053711 235.78955078 C222.80049623 234.98676592 222.80045535 234.18398105 222.80041323 233.35686937 C222.80000692 220.35158781 222.80957379 207.34633522 222.82367548 194.34106204 C222.8380583 180.97044204 222.84494461 167.59983616 222.8440817 154.22920823 C222.84375038 146.7294303 222.84646881 139.22968274 222.85725975 131.7299118 C222.86638988 125.34375295 222.86851945 118.95763823 222.86175033 112.57147565 C222.85849771 109.31731976 222.85948147 106.06326551 222.86710358 102.80911446 C222.8748519 99.27100402 222.87015978 95.73311323 222.86247253 92.19500732 C222.87018788 90.67395342 222.87018788 90.67395342 222.87805909 89.12217116 C222.80796077 74.44401945 220.09893932 62.47839094 209.85742188 51.56054688 C199.69770131 42.30351925 187.79075985 40.35490772 174.48284912 40.38386536 C173.31535846 40.38046702 173.31535846 40.38046702 172.12428212 40.37700003 C169.53759191 40.37071149 166.95095478 40.37148607 164.36425781 40.37231445 C162.50079786 40.36931973 160.63733853 40.36591648 158.77388 40.36213684 C153.726185 40.35332413 148.67850697 40.35095987 143.63080502 40.35032105 C140.47277336 40.34960896 137.31474598 40.34747161 134.15671539 40.34482384 C123.12677233 40.33557918 112.09684134 40.33148782 101.06689453 40.33227539 C90.80591984 40.33287583 80.54499778 40.32232841 70.2840364 40.30653173 C61.45743112 40.29343031 52.63084299 40.28809259 43.80422807 40.2887308 C38.54009794 40.28898504 33.27601461 40.28617497 28.01189423 40.27555275 C23.05751863 40.265828 18.10323414 40.26582245 13.14885521 40.27306938 C11.33814803 40.27410982 9.52743504 40.27178471 7.71673775 40.26570892 C-10.49905984 40.20858062 -26.34004741 41.20081282 -39.38476562 55.51757812 Z " fill="#000000" transform="translate(128.384765625,80.482421875)"/>
<path d="M0 0 C0.98361716 -0.00623996 1.96723432 -0.01247993 2.98065805 -0.01890898 C6.26847895 -0.03483169 9.55555772 -0.02223679 12.84338379 -0.00964355 C15.20428906 -0.01506525 17.56519094 -0.02218817 19.92608643 -0.03088379 C26.3356499 -0.04912217 32.74495586 -0.04204515 39.15452385 -0.02936745 C43.16302335 -0.02224902 47.17150529 -0.02360033 51.18000793 -0.02732849 C51.84636608 -0.02794142 52.51272423 -0.02855436 53.19927505 -0.02918586 C54.55325236 -0.03046485 55.90722965 -0.0317617 57.26120692 -0.03307623 C69.95376763 -0.04447798 82.64621274 -0.03137839 95.33875448 -0.00987476 C106.2029859 0.00796298 117.06704615 0.00491888 127.93127441 -0.0135498 C140.56730797 -0.03502065 153.20323993 -0.04334482 165.83928919 -0.03110075 C167.19061437 -0.02982668 168.54193956 -0.02856919 169.89326477 -0.02732849 C170.55800386 -0.02671139 171.22274295 -0.02609429 171.90762565 -0.02545848 C176.56593822 -0.02202169 181.22418412 -0.02799629 185.88249207 -0.0372467 C192.17317583 -0.04886529 198.46353912 -0.04066988 204.75418854 -0.01766968 C207.05384542 -0.01241278 209.3535296 -0.0138441 211.65317535 -0.02272034 C227.30627874 -0.07753224 241.34642213 0.79955124 255.44689941 8.32043457 C256.11552002 8.66807861 256.78414063 9.01572266 257.47302246 9.37390137 C262.82321928 12.2274697 267.58618142 15.40694057 272.07189941 19.50793457 C273.40994629 20.70869629 273.40994629 20.70869629 274.77502441 21.93371582 C288.97050275 35.33409223 298.83582479 54.22111685 299.45780277 73.98816204 C299.47795957 76.36362523 299.4821451 78.73926062 299.47303772 81.11479187 C299.47983439 82.43359874 299.48663106 83.7524056 299.49363369 85.11117631 C299.51183111 88.73805328 299.51160574 92.3647212 299.50805056 95.9916333 C299.50743458 99.91599846 299.52403164 103.84029879 299.53822327 107.76463318 C299.5630537 115.43825495 299.57138356 123.11180755 299.5730604 130.78546616 C299.57448925 137.02319439 299.5806702 143.26089994 299.59016228 149.49862099 C299.6165505 167.20082791 299.63042426 184.90298044 299.62817086 202.60520717 C299.62805099 203.55787039 299.62793112 204.51053362 299.62780762 205.49206543 C299.62768498 206.44589657 299.62756233 207.39972772 299.62743597 208.38246284 C299.62621539 223.85657812 299.65496234 239.33047485 299.69722272 254.80452689 C299.74031727 270.70989038 299.7610334 286.61514722 299.75844139 302.52057058 C299.75744603 311.44382782 299.76566384 320.36685549 299.79797554 329.29006004 C299.82529411 336.88255978 299.83181318 344.4747257 299.81144727 352.06725331 C299.80165544 355.93896993 299.80146561 359.81004607 299.82750702 363.68170166 C299.85547038 367.88229467 299.83676701 372.08140622 299.81361389 376.2820282 C299.82904458 377.50051254 299.84447527 378.71899688 299.86037356 379.97440499 C299.7660226 387.71712418 298.30606932 392.69504055 293.07189941 398.50793457 C287.70459211 403.09250956 282.48053501 403.23423822 275.52502441 403.01965332 C270.3443151 402.25192377 266.64701125 400.32986375 263.07189941 396.50793457 C258.43165758 390.17879531 258.50661583 384.70313467 258.56637573 377.0160675 C258.56028561 375.75673564 258.55419549 374.49740378 258.54792082 373.19991034 C258.53157031 369.71566173 258.53994677 366.23184836 258.55241203 362.74759996 C258.56148452 358.98532751 258.54743891 355.22313297 258.53614807 351.46087646 C258.51965674 344.94357073 258.51750688 338.42638772 258.52491379 331.90906715 C258.53544111 322.47311529 258.52202506 313.03731322 258.50244923 303.60138126 C258.47111572 288.27425206 258.45610473 272.94715452 258.45275879 257.61999512 C258.45245281 256.24450452 258.45245281 256.24450452 258.45214064 254.84122624 C258.45193728 253.92311855 258.45173391 253.00501087 258.45152438 252.05908173 C258.448607 239.05529284 258.44180865 226.05151375 258.43029785 213.04772949 C258.42949256 212.13337176 258.42868726 211.21901403 258.42785756 210.27694849 C258.41408585 195.0124503 258.39228299 179.7479695 258.36642802 164.48348731 C258.35101172 155.0759655 258.34376661 145.66850071 258.34722294 136.2609665 C258.34926863 129.80959687 258.3445777 123.35825553 258.33467959 116.90689323 C258.32926594 113.18896913 258.32714053 109.47111841 258.33385277 105.75319481 C258.34110895 101.71364439 258.33292445 97.67426565 258.32345581 93.63471985 C258.32811902 92.47214576 258.33278224 91.30957167 258.33758676 90.11176807 C258.27186572 75.70268426 256.18459167 63.19103908 246.09143066 52.32824707 C235.5362722 42.81431314 223.10184086 41.34083637 209.47669983 41.39009094 C208.54108103 41.38938636 207.60546224 41.38868178 206.64149135 41.38795584 C203.52265351 41.38665285 200.40386682 41.39230938 197.28503418 41.39782715 C195.04232788 41.39806943 192.79962147 41.39779163 190.55691528 41.39703369 C185.73503337 41.39592935 180.913161 41.39735553 176.09127998 41.40040016 C168.46402636 41.40403769 160.8368222 41.39488407 153.20957947 41.38261414 C151.92120873 41.38059221 150.63283798 41.37857028 149.3054257 41.37648708 C146.67145088 41.37231871 144.03747611 41.36811596 141.40350139 41.36387956 C134.6434732 41.35316594 127.88344452 41.34327726 121.12341309 41.33483887 C120.10646412 41.33356199 120.10646412 41.33356199 119.06897073 41.33225932 C108.07920674 41.31903489 97.08951528 41.32406168 86.09975208 41.33491043 C74.80039288 41.34555069 63.50121143 41.33291806 52.20187992 41.30082816 C45.86405786 41.28367595 39.52663797 41.27738122 33.18881416 41.29694557 C27.22877629 41.31517869 21.26943169 41.30555235 15.30945206 41.27468872 C13.12499074 41.26832595 10.94047168 41.27216862 8.75605202 41.28708458 C5.76790052 41.30597133 2.78212097 41.2878117 -0.20591736 41.26069641 C-1.4949493 41.28209874 -1.4949493 41.28209874 -2.81002229 41.30393344 C-9.50369331 41.1816252 -13.83960672 38.78811803 -18.92810059 34.50793457 C-23.51267558 29.14062726 -23.65440424 23.91657016 -23.43981934 16.96105957 C-22.67208979 11.78035026 -20.75002976 8.0830464 -16.92810059 4.50793457 C-11.16378815 0.50749387 -6.92661719 -0.0678444 0 0 Z " fill="#000000" transform="translate(171.9281005859375,-0.5079345703125)"/>
</svg>
