<svg fill="currentColor" viewBox="0 0 32 32" width="22" height="20" id="icon" xmlns="http://www.w3.org/2000/svg" ><g id="SVGRepo_bgCarrier" stroke-width="5"></g><g id="SVGRepo_tracerCarrier" stroke-linecap="round" stroke-linejoin="round"></g><g id="SVGRepo_iconCarrier"> <defs> <style> .cls-1 { fill: none; } </style> </defs> <path d="M16,2V4H26V19h2V4a2.0023,2.0023,0,0,0-2-2Z" transform="translate(0 0)"></path> <path d="M11,7V9H21V24h2V9a2.0023,2.0023,0,0,0-2-2Z" transform="translate(0 0)"></path> <path d="M6,12H16a2.0023,2.0023,0,0,1,2,2V28a2.0023,2.0023,0,0,1-2,2H6a2.0023,2.0023,0,0,1-2-2V14A2.0023,2.0023,0,0,1,6,12Zm10,2L6,13.9988V28H16Z" transform="translate(0 0)"></path> <rect id="_Transparent_Rectangle_" data-name="<Transparent Rectangle>" class="cls-1" width="32" height="32"></rect> </g></svg>
