<svg height="394pt" viewBox="-5 0 394 394.00003" width="394pt" xmlns="http://www.w3.org/2000/svg"><path d="m367.820312 0h-351.261718c-6.199219-.0117188-11.878906 3.449219-14.710938 8.960938-2.871094 5.585937-2.367187 12.3125 1.300782 17.414062l128.6875 181.285156c.042968.0625.089843.121094.132812.183594 4.675781 6.3125 7.207031 13.960938 7.21875 21.816406v147.800782c-.027344 4.375 1.691406 8.582031 4.773438 11.6875 3.085937 3.101562 7.28125 4.851562 11.65625 4.851562 2.222656-.003906 4.425781-.445312 6.480468-1.300781l72.3125-27.570313c6.476563-1.980468 10.777344-8.09375 10.777344-15.453125v-120.015625c.011719-7.855468 2.542969-15.503906 7.214844-21.816406.042968-.0625.089844-.121094.132812-.183594l128.691406-181.289062c3.667969-5.097656 4.171876-11.820313 1.300782-17.40625-2.828125-5.515625-8.511719-8.9765628-14.707032-8.964844zm0 0"/></svg>