<svg width="24" height="24" viewBox="0 0 24 24" fill="none" xmlns="http://www.w3.org/2000/svg">
<g clip-path="url(#clip0_13_2)">
<path d="M5.21277 10.8889L12.0196 14.1204C12.1553 14.1848 12.3128 14.1848 12.4485 14.1204L19.2553 10.8889M5.21277 10.8889L1.78972 9.08324C1.4441 8.90093 1.4318 8.41042 1.76783 8.21101L11.9734 2.1547C12.1336 2.05962 12.3334 2.06151 12.4918 2.15959L22.2988 8.23247C22.618 8.43013 22.6136 8.89595 22.2908 9.08756L19.2553 10.8889M5.21277 10.8889V17.9019C5.21277 18.0357 5.26436 18.162 5.36198 18.2536C6.10871 18.9542 9.51175 22 12.234 22C14.9563 22 18.3594 18.9542 19.1061 18.2536C19.2037 18.162 19.2553 18.0357 19.2553 17.9019V10.8889" stroke="black" stroke-width="2"/>
<g filter="url(#filter0_d_13_2)">
<path d="M1.97918 9L2 18.8833M2 18.8833C2 18.8833 1 20.4667 1 21.3429C1 22.219 3 22.219 3 21.3429C3 20.4667 2 18.8833 2 18.8833Z" stroke="black" stroke-width="2" shape-rendering="crispEdges"/>
</g>
</g>
<defs>
<filter id="filter0_d_13_2" x="-4" y="8.99786" width="12" height="22.0021" filterUnits="userSpaceOnUse" color-interpolation-filters="sRGB">
<feFlood flood-opacity="0" result="BackgroundImageFix"/>
<feColorMatrix in="SourceAlpha" type="matrix" values="0 0 0 0 0 0 0 0 0 0 0 0 0 0 0 0 0 0 127 0" result="hardAlpha"/>
<feOffset dy="4"/>
<feGaussianBlur stdDeviation="2"/>
<feComposite in2="hardAlpha" operator="out"/>
<feColorMatrix type="matrix" values="0 0 0 0 0 0 0 0 0 0 0 0 0 0 0 0 0 0 0.25 0"/>
<feBlend mode="normal" in2="BackgroundImageFix" result="effect1_dropShadow_13_2"/>
<feBlend mode="normal" in="SourceGraphic" in2="effect1_dropShadow_13_2" result="shape"/>
</filter>
<clipPath id="clip0_13_2">
<rect width="24" height="24" fill="white"/>
</clipPath>
</defs>
</svg>
