<svg fill="currentcolor" width="22" height="20" version="1.1" id="Layer_1" xmlns="http://www.w3.org/2000/svg" xmlns:xlink="http://www.w3.org/1999/xlink" viewBox="0 0 305.406 305.406" xml:space="preserve"><g id="SVGRepo_bgCarrier" stroke-width="0"></g><g id="SVGRepo_tracerCarrier" stroke-linecap="round" stroke-linejoin="round"></g><g id="SVGRepo_iconCarrier"> <g> <g> <g> <path d="M77.202,127.888c0,4.971,4.029,9,9,9h130.575c4.971,0,9-4.029,9-9s-4.029-9-9-9H86.202 C81.231,118.888,77.202,122.917,77.202,127.888z"></path> <path d="M86.202,168.538h130.575c4.971,0,9-4.029,9-9c0-4.971-4.029-9-9-9H86.202c-4.971,0-9,4.029-9,9 C77.202,164.509,81.231,168.538,86.202,168.538z"></path> <path d="M86.202,60.538h44.341c4.971,0,9-4.029,9-9c0-4.971-4.029-9-9-9H86.202c-4.971,0-9,4.029-9,9 C77.202,56.509,81.231,60.538,86.202,60.538z"></path> <path d="M149.503,242.374H86.202c-4.971,0-9,4.029-9,9c0,4.971,4.029,9,9,9h63.301c4.971,0,9-4.029,9-9 S154.474,242.374,149.503,242.374z"></path> <path d="M149.503,214.512H86.202c-4.971,0-9,4.029-9,9c0,4.971,4.029,9,9,9h63.301c4.971,0,9-4.029,9-9 C158.503,218.541,154.474,214.512,149.503,214.512z"></path> <path d="M267.067,70.613L199.091,2.636C197.402,0.948,195.113,0,192.727,0H44.703c-4.971,0-9,4.029-9,9v287.406 c0,4.971,4.029,9,9,9h216c4.971,0,9-4.029,9-9V76.977C269.703,74.59,268.755,72.301,267.067,70.613z M199.727,28.728 l41.249,41.249h-41.249V28.728z M251.703,287.406h-198V18h128.023v60.977c0,4.971,4.029,9,9,9h60.977V287.406z"></path> <path d="M199.976,208.512c-16.078,0-29.158,13.081-29.158,29.159s13.08,29.158,29.158,29.158s29.158-13.08,29.158-29.158 S216.054,208.512,199.976,208.512z M199.976,248.829c-6.152,0-11.158-5.005-11.158-11.158c0-6.153,5.006-11.159,11.158-11.159 c6.152,0,11.158,5.006,11.158,11.159C211.134,243.824,206.128,248.829,199.976,248.829z"></path> </g> </g> </g> </g></svg>

