<svg width="1007" height="661" viewBox="0 0 1007 661" fill="none" xmlns="http://www.w3.org/2000/svg">
<g clip-path="url(#clip0_201_2)">
<rect width="1007" height="661" fill="white"/>
<path d="M914.666 280.077V210.555C914.666 177.717 887.975 151 855.166 151H824C814.611 151 807 158.618 807 168.016C807 177.413 814.611 185.031 824 185.031H855.166C869.228 185.031 880.666 196.481 880.666 210.555V287.125C880.666 291.638 882.458 295.966 885.645 299.157L918.958 332.5L885.646 365.843C882.458 369.034 880.666 373.362 880.666 377.875V454.445C880.666 468.519 869.228 479.969 855.166 479.969H824C814.611 479.969 807 487.587 807 496.984C807 506.382 814.611 514 824 514H855.166C887.975 514 914.666 487.283 914.666 454.445V384.923L955.021 344.531C961.66 337.886 961.66 327.113 955.021 320.468L914.666 280.077Z" fill="#DBEAFE"/>
<path d="M759.963 79.5789V71.7266C759.963 68.0176 756.997 65 753.352 65H749.889C748.846 65 748 65.8604 748 66.9219C748 67.9833 748.846 68.8438 749.889 68.8438H753.352C754.914 68.8438 756.185 70.1369 756.185 71.7266V80.375C756.185 80.8847 756.384 81.3736 756.738 81.734L760.44 85.5L756.738 89.266C756.384 89.6264 756.185 90.1153 756.185 90.625V99.2734C756.185 100.863 754.914 102.156 753.352 102.156H749.889C748.846 102.156 748 103.017 748 104.078C748 105.14 748.846 106 749.889 106H753.352C756.997 106 759.963 102.982 759.963 99.2734V91.4211L764.447 86.8589C765.184 86.1084 765.184 84.8916 764.447 84.141L759.963 79.5789Z" fill="#EFF6FF"/>
<path d="M276.963 52.5789V44.7266C276.963 41.0176 273.997 38 270.352 38H266.889C265.846 38 265 38.8604 265 39.9219C265 40.9833 265.846 41.8438 266.889 41.8438H270.352C271.914 41.8438 273.185 43.1369 273.185 44.7266V53.375C273.185 53.8847 273.384 54.3736 273.738 54.734L277.44 58.5L273.738 62.266C273.384 62.6264 273.185 63.1153 273.185 63.625V72.2734C273.185 73.8631 271.914 75.1562 270.352 75.1562H266.889C265.846 75.1562 265 76.0167 265 77.0781C265 78.1396 265.846 79 266.889 79H270.352C273.997 79 276.963 75.9824 276.963 72.2734V64.4211L281.447 59.8589C282.184 59.1084 282.184 57.8916 281.447 57.141L276.963 52.5789Z" fill="#EFF6FF"/>
<path d="M148.963 548.579V540.727C148.963 537.018 145.997 534 142.352 534H138.889C137.846 534 137 534.86 137 535.922C137 536.983 137.846 537.844 138.889 537.844H142.352C143.914 537.844 145.185 539.137 145.185 540.727V549.375C145.185 549.885 145.384 550.374 145.738 550.734L149.44 554.5L145.738 558.266C145.384 558.626 145.185 559.115 145.185 559.625V568.273C145.185 569.863 143.914 571.156 142.352 571.156H138.889C137.846 571.156 137 572.017 137 573.078C137 574.14 137.846 575 138.889 575H142.352C145.997 575 148.963 571.982 148.963 568.273V560.421L153.447 555.859C154.184 555.108 154.184 553.892 153.447 553.141L148.963 548.579Z" fill="#EFF6FF"/>
<path d="M116.741 548.579V540.727C116.741 537.018 119.532 534 122.963 534H126.222C127.204 534 128 534.86 128 535.922C128 536.983 127.204 537.844 126.222 537.844H122.963C121.493 537.844 120.296 539.137 120.296 540.727V549.375C120.296 549.885 120.109 550.374 119.776 550.734L116.292 554.5L119.776 558.266C120.109 558.626 120.296 559.115 120.296 559.625V568.273C120.296 569.863 121.493 571.156 122.963 571.156H126.222C127.204 571.156 128 572.017 128 573.078C128 574.14 127.204 575 126.222 575H122.963C119.532 575 116.741 571.982 116.741 568.273V560.421L112.521 555.859C111.826 555.108 111.826 553.892 112.521 553.141L116.741 548.579Z" fill="#EFF6FF"/>
<path d="M295.741 576.579V568.727C295.741 565.018 298.532 562 301.963 562H305.222C306.204 562 307 562.86 307 563.922C307 564.983 306.204 565.844 305.222 565.844H301.963C300.493 565.844 299.296 567.137 299.296 568.727V577.375C299.296 577.885 299.109 578.374 298.776 578.734L295.292 582.5L298.776 586.266C299.109 586.626 299.296 587.115 299.296 587.625V596.273C299.296 597.863 300.493 599.156 301.963 599.156H305.222C306.204 599.156 307 600.017 307 601.078C307 602.14 306.204 603 305.222 603H301.963C298.532 603 295.741 599.982 295.741 596.273V588.421L291.521 583.859C290.826 583.108 290.826 581.892 291.521 581.141L295.741 576.579Z" fill="#EFF6FF"/>
<path d="M633.741 509.579V501.727C633.741 498.018 636.532 495 639.963 495H643.222C644.204 495 645 495.86 645 496.922C645 497.983 644.204 498.844 643.222 498.844H639.963C638.493 498.844 637.296 500.137 637.296 501.727V510.375C637.296 510.885 637.109 511.374 636.776 511.734L633.292 515.5L636.776 519.266C637.109 519.626 637.296 520.115 637.296 520.625V529.273C637.296 530.863 638.493 532.156 639.963 532.156H643.222C644.204 532.156 645 533.017 645 534.078C645 535.14 644.204 536 643.222 536H639.963C636.532 536 633.741 532.982 633.741 529.273V521.421L629.521 516.859C628.826 516.108 628.826 514.892 629.521 514.141L633.741 509.579Z" fill="#EFF6FF"/>
<path d="M39.7408 247.579V239.727C39.7408 236.018 42.532 233 45.963 233H49.2222C50.2041 233 51 233.86 51 234.922C51 235.983 50.2041 236.844 49.2222 236.844H45.963C44.4925 236.844 43.2963 238.137 43.2963 239.727V248.375C43.2963 248.885 43.109 249.374 42.7757 249.734L39.292 253.5L42.7756 257.266C43.109 257.626 43.2963 258.115 43.2963 258.625V267.273C43.2963 268.863 44.4925 270.156 45.963 270.156H49.2222C50.2041 270.156 51 271.017 51 272.078C51 273.14 50.2041 274 49.2222 274H45.963C42.532 274 39.7408 270.982 39.7408 267.273V259.421L35.5207 254.859C34.8264 254.108 34.8264 252.892 35.5207 252.141L39.7408 247.579Z" fill="#EFF6FF"/>
<path d="M948.741 239.579V231.727C948.741 228.018 951.532 225 954.963 225H958.222C959.204 225 960 225.86 960 226.922C960 227.983 959.204 228.844 958.222 228.844H954.963C953.493 228.844 952.296 230.137 952.296 231.727V240.375C952.296 240.885 952.109 241.374 951.776 241.734L948.292 245.5L951.776 249.266C952.109 249.626 952.296 250.115 952.296 250.625V259.273C952.296 260.863 953.493 262.156 954.963 262.156H958.222C959.204 262.156 960 263.017 960 264.078C960 265.14 959.204 266 958.222 266H954.963C951.532 266 948.741 262.982 948.741 259.273V251.421L944.521 246.859C943.826 246.108 943.826 244.892 944.521 244.141L948.741 239.579Z" fill="#EFF6FF"/>
<path d="M729.741 100.579V92.7266C729.741 89.0176 732.532 86 735.963 86H739.222C740.204 86 741 86.8604 741 87.9219C741 88.9833 740.204 89.8438 739.222 89.8438H735.963C734.493 89.8438 733.296 91.1369 733.296 92.7266V101.375C733.296 101.885 733.109 102.374 732.776 102.734L729.292 106.5L732.776 110.266C733.109 110.626 733.296 111.115 733.296 111.625V120.273C733.296 121.863 734.493 123.156 735.963 123.156H739.222C740.204 123.156 741 124.017 741 125.078C741 126.14 740.204 127 739.222 127H735.963C732.532 127 729.741 123.982 729.741 120.273V112.421L725.521 107.859C724.826 107.108 724.826 105.892 725.521 105.141L729.741 100.579Z" fill="#EFF6FF"/>
<path d="M106.963 100.579V92.7266C106.963 89.0176 103.997 86 100.352 86H96.8889C95.8457 86 95 86.8604 95 87.9219C95 88.9833 95.8457 89.8438 96.8889 89.8438H100.352C101.914 89.8438 103.185 91.1369 103.185 92.7266V101.375C103.185 101.885 103.384 102.374 103.738 102.734L107.44 106.5L103.738 110.266C103.384 110.626 103.185 111.115 103.185 111.625V120.273C103.185 121.863 101.914 123.156 100.352 123.156H96.8889C95.8457 123.156 95 124.017 95 125.078C95 126.14 95.8457 127 96.8889 127H100.352C103.997 127 106.963 123.982 106.963 120.273V112.421L111.447 107.859C112.184 107.108 112.184 105.892 111.447 105.141L106.963 100.579Z" fill="#EFF6FF"/>
<path d="M541.963 38.5789V30.7266C541.963 27.0176 538.997 24 535.352 24H531.889C530.846 24 530 24.8604 530 25.9219C530 26.9833 530.846 27.8438 531.889 27.8438H535.352C536.914 27.8438 538.185 29.1369 538.185 30.7266V39.375C538.185 39.8847 538.384 40.3736 538.738 40.734L542.44 44.5L538.738 48.266C538.384 48.6264 538.185 49.1153 538.185 49.625V58.2734C538.185 59.8631 536.914 61.1562 535.352 61.1562H531.889C530.846 61.1562 530 62.0167 530 63.0781C530 64.1396 530.846 65 531.889 65H535.352C538.997 65 541.963 61.9824 541.963 58.2734V50.4211L546.447 45.8589C547.184 45.1084 547.184 43.8916 546.447 43.141L541.963 38.5789Z" fill="#EFF6FF"/>
<path d="M558.963 528.579V520.727C558.963 517.018 555.997 514 552.352 514H548.889C547.846 514 547 514.86 547 515.922C547 516.983 547.846 517.844 548.889 517.844H552.352C553.914 517.844 555.185 519.137 555.185 520.727V529.375C555.185 529.885 555.384 530.374 555.738 530.734L559.44 534.5L555.738 538.266C555.384 538.626 555.185 539.115 555.185 539.625V548.273C555.185 549.863 553.914 551.156 552.352 551.156H548.889C547.846 551.156 547 552.017 547 553.078C547 554.14 547.846 555 548.889 555H552.352C555.997 555 558.963 551.982 558.963 548.273V540.421L563.447 535.859C564.184 535.108 564.184 533.892 563.447 533.141L558.963 528.579Z" fill="#EFF6FF"/>
<path d="M276.963 576.579V568.727C276.963 565.018 273.997 562 270.352 562H266.889C265.846 562 265 562.86 265 563.922C265 564.983 265.846 565.844 266.889 565.844H270.352C271.914 565.844 273.185 567.137 273.185 568.727V577.375C273.185 577.885 273.384 578.374 273.738 578.734L277.44 582.5L273.738 586.266C273.384 586.626 273.185 587.115 273.185 587.625V596.273C273.185 597.863 271.914 599.156 270.352 599.156H266.889C265.846 599.156 265 600.017 265 601.078C265 602.14 265.846 603 266.889 603H270.352C273.997 603 276.963 599.982 276.963 596.273V588.421L281.447 583.859C282.184 583.108 282.184 581.892 281.447 581.141L276.963 576.579Z" fill="#EFF6FF"/>
<path d="M913.963 528.579V520.727C913.963 517.018 910.997 514 907.352 514H903.889C902.846 514 902 514.86 902 515.922C902 516.983 902.846 517.844 903.889 517.844H907.352C908.914 517.844 910.185 519.137 910.185 520.727V529.375C910.185 529.885 910.384 530.374 910.738 530.734L914.44 534.5L910.738 538.266C910.384 538.626 910.185 539.115 910.185 539.625V548.273C910.185 549.863 908.914 551.156 907.352 551.156H903.889C902.846 551.156 902 552.017 902 553.078C902 554.14 902.846 555 903.889 555H907.352C910.997 555 913.963 551.982 913.963 548.273V540.421L918.447 535.859C919.184 535.108 919.184 533.892 918.447 533.141L913.963 528.579Z" fill="#EFF6FF"/>
<path d="M400.167 633H392.833C392.347 633 391.881 632.808 391.537 632.467C391.193 632.126 391 631.664 391 631.182C391 630.7 391.193 630.237 391.537 629.896C391.881 629.555 392.347 629.364 392.833 629.364H398.333V596.636H392.833C392.347 596.636 391.881 596.445 391.537 596.104C391.193 595.763 391 595.3 391 594.818C391 594.336 391.193 593.874 391.537 593.533C391.881 593.192 392.347 593 392.833 593H400.167C400.653 593 401.119 593.192 401.463 593.533C401.807 593.874 402 594.336 402 594.818V631.182C402 631.664 401.807 632.126 401.463 632.467C401.119 632.808 400.653 633 400.167 633Z" fill="#EFF6FF"/>
<path d="M80.63 453.953C80.63 487.063 107.496 514 140.519 514H171.889C181.339 514 189 506.319 189 496.844C189 487.368 181.339 479.688 171.889 479.688H140.519C126.366 479.688 114.852 468.143 114.852 453.953V376.75C114.852 372.2 113.049 367.836 109.841 364.618L76.3102 331L109.84 297.382C113.049 294.164 114.852 289.8 114.852 285.25V208.047C114.852 193.857 126.366 182.312 140.519 182.312H171.889C181.339 182.312 189 174.632 189 165.156C189 155.681 181.339 148 171.889 148H140.519C107.496 148 80.63 174.937 80.63 208.047V278.144L40.0119 318.868C33.3294 325.569 33.3294 336.431 40.0119 343.131L80.63 383.856V453.953Z" fill="#DBEAFE"/>
<path d="M518.167 555H510.833C510.347 555 509.881 554.808 509.537 554.467C509.193 554.126 509 553.664 509 553.182C509 552.7 509.193 552.237 509.537 551.896C509.881 551.555 510.347 551.364 510.833 551.364H516.333V518.636H510.833C510.347 518.636 509.881 518.445 509.537 518.104C509.193 517.763 509 517.3 509 516.818C509 516.336 509.193 515.874 509.537 515.533C509.881 515.192 510.347 515 510.833 515H518.167C518.653 515 519.119 515.192 519.463 515.533C519.807 515.874 520 516.336 520 516.818V553.182C520 553.664 519.807 554.126 519.463 554.467C519.119 554.808 518.653 555 518.167 555Z" fill="#EFF6FF"/>
<path d="M377.167 633H369.833C369.347 633 368.881 632.808 368.537 632.467C368.193 632.126 368 631.664 368 631.182C368 630.7 368.193 630.237 368.537 629.896C368.881 629.555 369.347 629.364 369.833 629.364H375.333V596.636H369.833C369.347 596.636 368.881 596.445 368.537 596.104C368.193 595.763 368 595.3 368 594.818C368 594.336 368.193 593.874 368.537 593.533C368.881 593.192 369.347 593 369.833 593H377.167C377.653 593 378.119 593.192 378.463 593.533C378.807 593.874 379 594.336 379 594.818V631.182C379 631.664 378.807 632.126 378.463 632.467C378.119 632.808 377.653 633 377.167 633Z" fill="#EFF6FF"/>
<path d="M502.167 65H494.833C494.347 65 493.881 64.8084 493.537 64.4675C493.193 64.1265 493 63.664 493 63.1818C493 62.6996 493.193 62.2371 493.537 61.8962C493.881 61.5552 494.347 61.3636 494.833 61.3636H500.333V28.6364H494.833C494.347 28.6364 493.881 28.4448 493.537 28.1038C493.193 27.7629 493 27.3004 493 26.8182C493 26.336 493.193 25.8735 493.537 25.5325C493.881 25.1916 494.347 25 494.833 25H502.167C502.653 25 503.119 25.1916 503.463 25.5325C503.807 25.8735 504 26.336 504 26.8182V63.1818C504 63.664 503.807 64.1265 503.463 64.4675C503.119 64.8084 502.653 65 502.167 65Z" fill="#EFF6FF"/>
<path d="M929.167 171H921.833C921.347 171 920.881 170.808 920.537 170.467C920.193 170.126 920 169.664 920 169.182C920 168.7 920.193 168.237 920.537 167.896C920.881 167.555 921.347 167.364 921.833 167.364H927.333V134.636H921.833C921.347 134.636 920.881 134.445 920.537 134.104C920.193 133.763 920 133.3 920 132.818C920 132.336 920.193 131.874 920.537 131.533C920.881 131.192 921.347 131 921.833 131H929.167C929.653 131 930.119 131.192 930.463 131.533C930.807 131.874 931 132.336 931 132.818V169.182C931 169.664 930.807 170.126 930.463 170.467C930.119 170.808 929.653 171 929.167 171Z" fill="#EFF6FF"/>
<path d="M244.167 105H236.833C236.347 105 235.881 104.808 235.537 104.467C235.193 104.126 235 103.664 235 103.182C235 102.7 235.193 102.237 235.537 101.896C235.881 101.555 236.347 101.364 236.833 101.364H242.333V68.6364H236.833C236.347 68.6364 235.881 68.4448 235.537 68.1038C235.193 67.7629 235 67.3004 235 66.8182C235 66.336 235.193 65.8735 235.537 65.5325C235.881 65.1916 236.347 65 236.833 65H244.167C244.653 65 245.119 65.1916 245.463 65.5325C245.807 65.8735 246 66.336 246 66.8182V103.182C246 103.664 245.807 104.126 245.463 104.467C245.119 104.808 244.653 105 244.167 105Z" fill="#EFF6FF"/>
<path d="M55.1667 441H47.8333C47.3471 441 46.8808 440.808 46.537 440.467C46.1932 440.126 46 439.664 46 439.182C46 438.7 46.1932 438.237 46.537 437.896C46.8808 437.555 47.3471 437.364 47.8333 437.364H53.3333V404.636H47.8333C47.3471 404.636 46.8808 404.445 46.537 404.104C46.1932 403.763 46 403.3 46 402.818C46 402.336 46.1932 401.874 46.537 401.533C46.8808 401.192 47.3471 401 47.8333 401H55.1667C55.6529 401 56.1192 401.192 56.463 401.533C56.8068 401.874 57 402.336 57 402.818V439.182C57 439.664 56.8068 440.126 56.463 440.467C56.1192 440.808 55.6529 441 55.1667 441Z" fill="#EFF6FF"/>
<path d="M810.167 595H802.833C802.347 595 801.881 594.808 801.537 594.467C801.193 594.126 801 593.664 801 593.182C801 592.7 801.193 592.237 801.537 591.896C801.881 591.555 802.347 591.364 802.833 591.364H808.333V558.636H802.833C802.347 558.636 801.881 558.445 801.537 558.104C801.193 557.763 801 557.3 801 556.818C801 556.336 801.193 555.874 801.537 555.533C801.881 555.192 802.347 555 802.833 555H810.167C810.653 555 811.119 555.192 811.463 555.533C811.807 555.874 812 556.336 812 556.818V593.182C812 593.664 811.807 594.126 811.463 594.467C811.119 594.808 810.653 595 810.167 595Z" fill="#EFF6FF"/>
<path d="M195.6 99V95.72H203.52V72.8L195.6 78.72V74.72L202.2 69.8H207.12V95.72H213.6V99H195.6Z" fill="#EFF6FF"/>
<path d="M624.15 571.05L628.05 561.72H630.45L628.05 571.05H624.15ZM617.25 571.05L621.15 561.72H623.55L621.15 571.05H617.25ZM635.748 590.4V568.5H638.448V571.65H638.988L638.448 572.28C638.448 571.02 638.858 570.03 639.678 569.31C640.518 568.57 641.618 568.2 642.978 568.2C644.638 568.2 645.958 568.75 646.938 569.85C647.938 570.93 648.438 572.42 648.438 574.32V579.15C648.438 580.41 648.208 581.5 647.748 582.42C647.308 583.34 646.678 584.05 645.858 584.55C645.058 585.05 644.098 585.3 642.978 585.3C641.638 585.3 640.548 584.93 639.708 584.19C638.868 583.45 638.448 582.46 638.448 581.22L638.988 581.85H638.388L638.448 585.6V590.4H635.748ZM642.078 582.96C643.218 582.96 644.108 582.62 644.748 581.94C645.408 581.26 645.738 580.28 645.738 579V574.5C645.738 573.22 645.408 572.24 644.748 571.56C644.108 570.88 643.218 570.54 642.078 570.54C640.978 570.54 640.098 570.89 639.438 571.59C638.778 572.29 638.448 573.26 638.448 574.5V579C638.448 580.24 638.778 581.21 639.438 581.91C640.098 582.61 640.978 582.96 642.078 582.96ZM654.307 585V568.5H656.947V571.65H657.577L656.707 573.6C656.707 571.82 657.087 570.48 657.847 569.58C658.627 568.66 659.777 568.2 661.297 568.2C663.037 568.2 664.417 568.75 665.437 569.85C666.477 570.93 666.997 572.4 666.997 574.26V575.25H664.297V574.5C664.297 573.2 663.977 572.21 663.337 571.53C662.717 570.83 661.827 570.48 660.667 570.48C659.527 570.48 658.627 570.83 657.967 571.53C657.327 572.23 657.007 573.22 657.007 574.5V585H654.307ZM677.965 585.24C676.645 585.24 675.505 584.99 674.545 584.49C673.585 583.99 672.835 583.27 672.295 582.33C671.775 581.37 671.515 580.24 671.515 578.94V574.56C671.515 573.24 671.775 572.11 672.295 571.17C672.835 570.23 673.585 569.51 674.545 569.01C675.505 568.51 676.645 568.26 677.965 568.26C679.285 568.26 680.425 568.51 681.385 569.01C682.345 569.51 683.085 570.23 683.605 571.17C684.145 572.11 684.415 573.23 684.415 574.53V578.94C684.415 580.24 684.145 581.37 683.605 582.33C683.085 583.27 682.345 583.99 681.385 584.49C680.425 584.99 679.285 585.24 677.965 585.24ZM677.965 582.84C679.145 582.84 680.065 582.51 680.725 581.85C681.385 581.19 681.715 580.22 681.715 578.94V574.56C681.715 573.28 681.385 572.31 680.725 571.65C680.065 570.99 679.145 570.66 677.965 570.66C676.805 570.66 675.885 570.99 675.205 571.65C674.545 572.31 674.215 573.28 674.215 574.56V578.94C674.215 580.22 674.545 581.19 675.205 581.85C675.885 582.51 676.805 582.84 677.965 582.84ZM689.713 590.4V568.5H692.413V571.65H692.953L692.413 572.28C692.413 571.02 692.823 570.03 693.643 569.31C694.483 568.57 695.583 568.2 696.943 568.2C698.603 568.2 699.923 568.75 700.903 569.85C701.903 570.93 702.403 572.42 702.403 574.32V579.15C702.403 580.41 702.173 581.5 701.713 582.42C701.273 583.34 700.643 584.05 699.823 584.55C699.023 585.05 698.063 585.3 696.943 585.3C695.603 585.3 694.513 584.93 693.673 584.19C692.833 583.45 692.413 582.46 692.413 581.22L692.953 581.85H692.353L692.413 585.6V590.4H689.713ZM696.043 582.96C697.183 582.96 698.073 582.62 698.713 581.94C699.373 581.26 699.703 580.28 699.703 579V574.5C699.703 573.22 699.373 572.24 698.713 571.56C698.073 570.88 697.183 570.54 696.043 570.54C694.943 570.54 694.063 570.89 693.403 571.59C692.743 572.29 692.413 573.26 692.413 574.5V579C692.413 580.24 692.743 581.21 693.403 581.91C694.063 582.61 694.943 582.96 696.043 582.96ZM713.941 585.3C712.641 585.3 711.501 585.04 710.521 584.52C709.561 584 708.811 583.27 708.271 582.33C707.751 581.37 707.491 580.26 707.491 579V574.5C707.491 573.22 707.751 572.11 708.271 571.17C708.811 570.23 709.561 569.5 710.521 568.98C711.501 568.46 712.641 568.2 713.941 568.2C715.241 568.2 716.371 568.46 717.331 568.98C718.311 569.5 719.061 570.23 719.581 571.17C720.121 572.11 720.391 573.22 720.391 574.5V577.41H710.131V579C710.131 580.3 710.461 581.3 711.121 582C711.781 582.68 712.721 583.02 713.941 583.02C714.981 583.02 715.821 582.84 716.461 582.48C717.101 582.1 717.491 581.54 717.631 580.8H720.331C720.151 582.18 719.471 583.28 718.291 584.1C717.131 584.9 715.681 585.3 713.941 585.3ZM717.751 575.61V574.5C717.751 573.2 717.421 572.2 716.761 571.5C716.121 570.8 715.181 570.45 713.941 570.45C712.721 570.45 711.781 570.8 711.121 571.5C710.461 572.2 710.131 573.2 710.131 574.5V575.37H717.961L717.751 575.61ZM726.26 585V568.5H728.9V571.65H729.53L728.66 573.6C728.66 571.82 729.04 570.48 729.8 569.58C730.58 568.66 731.73 568.2 733.25 568.2C734.99 568.2 736.37 568.75 737.39 569.85C738.43 570.93 738.95 572.4 738.95 574.26V575.25H736.25V574.5C736.25 573.2 735.93 572.21 735.29 571.53C734.67 570.83 733.78 570.48 732.62 570.48C731.48 570.48 730.58 570.83 729.92 571.53C729.28 572.23 728.96 573.22 728.96 574.5V585H726.26ZM751.718 585C750.298 585 749.188 584.62 748.388 583.86C747.608 583.1 747.218 582.03 747.218 580.65V570.96H742.568V568.5H747.218V563.85H749.918V568.5H756.518V570.96H749.918V580.65C749.918 581.91 750.518 582.54 751.718 582.54H756.218V585H751.718ZM764.246 590.4L766.676 583.98L760.556 568.5H763.556L767.396 578.7C767.536 579.04 767.666 579.45 767.786 579.93C767.906 580.39 768.006 580.78 768.086 581.1C768.166 580.78 768.266 580.39 768.386 579.93C768.506 579.45 768.626 579.04 768.746 578.7L772.346 568.5H775.256L767.126 590.4H764.246ZM786.345 571.05L788.745 561.72H792.645L788.745 571.05H786.345ZM779.445 571.05L781.845 561.72H785.745L781.845 571.05H779.445Z" fill="#EFF6FF"/>
<path d="M357.15 44.05L361.05 34.72H363.45L361.05 44.05H357.15ZM350.25 44.05L354.15 34.72H356.55L354.15 44.05H350.25ZM373.158 58L367.638 41.5H370.398L374.058 52.6C374.278 53.26 374.478 53.9 374.658 54.52C374.838 55.12 374.968 55.59 375.048 55.93C375.148 55.59 375.288 55.12 375.468 54.52C375.648 53.9 375.838 53.26 376.038 52.6L379.608 41.5H382.338L376.818 58H373.158ZM391.537 58.3C389.797 58.3 388.427 57.86 387.427 56.98C386.427 56.08 385.927 54.87 385.927 53.35C385.927 51.81 386.427 50.6 387.427 49.72C388.427 48.84 389.777 48.4 391.477 48.4H396.577V46.75C396.577 45.73 396.267 44.95 395.647 44.41C395.047 43.85 394.187 43.57 393.067 43.57C392.087 43.57 391.267 43.78 390.607 44.2C389.947 44.6 389.567 45.15 389.467 45.85H386.767C386.947 44.43 387.617 43.3 388.777 42.46C389.937 41.62 391.387 41.2 393.127 41.2C395.027 41.2 396.527 41.69 397.627 42.67C398.727 43.65 399.277 44.98 399.277 46.66V58H396.637V54.85H396.187L396.637 54.4C396.637 55.6 396.167 56.55 395.227 57.25C394.307 57.95 393.077 58.3 391.537 58.3ZM392.197 56.17C393.477 56.17 394.527 55.85 395.347 55.21C396.167 54.57 396.577 53.75 396.577 52.75V50.41H391.537C390.637 50.41 389.927 50.66 389.407 51.16C388.887 51.66 388.627 52.34 388.627 53.2C388.627 54.12 388.937 54.85 389.557 55.39C390.197 55.91 391.077 56.17 392.197 56.17ZM413.215 58C412.255 58 411.415 57.81 410.695 57.43C409.975 57.05 409.415 56.51 409.015 55.81C408.615 55.11 408.415 54.29 408.415 53.35V38.56H402.865V36.1H411.115V53.35C411.115 54.03 411.305 54.57 411.685 54.97C412.065 55.35 412.575 55.54 413.215 55.54H418.465V58H413.215ZM428.923 58.3C427.023 58.3 425.503 57.74 424.363 56.62C423.223 55.48 422.653 53.94 422.653 52V41.5H425.353V52C425.353 53.24 425.673 54.21 426.313 54.91C426.953 55.59 427.823 55.93 428.923 55.93C430.043 55.93 430.923 55.59 431.563 54.91C432.223 54.21 432.553 53.24 432.553 52V41.5H435.253V52C435.253 53.94 434.673 55.48 433.513 56.62C432.353 57.74 430.823 58.3 428.923 58.3ZM446.941 58.3C445.641 58.3 444.501 58.04 443.521 57.52C442.561 57 441.811 56.27 441.271 55.33C440.751 54.37 440.491 53.26 440.491 52V47.5C440.491 46.22 440.751 45.11 441.271 44.17C441.811 43.23 442.561 42.5 443.521 41.98C444.501 41.46 445.641 41.2 446.941 41.2C448.241 41.2 449.371 41.46 450.331 41.98C451.311 42.5 452.061 43.23 452.581 44.17C453.121 45.11 453.391 46.22 453.391 47.5V50.41H443.131V52C443.131 53.3 443.461 54.3 444.121 55C444.781 55.68 445.721 56.02 446.941 56.02C447.981 56.02 448.821 55.84 449.461 55.48C450.101 55.1 450.491 54.54 450.631 53.8H453.331C453.151 55.18 452.471 56.28 451.291 57.1C450.131 57.9 448.681 58.3 446.941 58.3ZM450.751 48.61V47.5C450.751 46.2 450.421 45.2 449.761 44.5C449.121 43.8 448.181 43.45 446.941 43.45C445.721 43.45 444.781 43.8 444.121 44.5C443.461 45.2 443.131 46.2 443.131 47.5V48.37H450.961L450.751 48.61ZM465.38 44.05L467.78 34.72H471.68L467.78 44.05H465.38ZM458.48 44.05L460.88 34.72H464.78L460.88 44.05H458.48Z" fill="#EFF6FF"/>
<path d="M578.625 106.375L581.875 98.6H583.875L581.875 106.375H578.625ZM572.875 106.375L576.125 98.6H578.125L576.125 106.375H572.875ZM588.115 118V115.95H592.99V106.3H588.74V104.25H595.24V115.95H599.865V118H588.115ZM593.865 101.775C593.315 101.775 592.882 101.633 592.565 101.35C592.249 101.067 592.09 100.683 592.09 100.2C592.09 99.7 592.249 99.3083 592.565 99.025C592.882 98.725 593.315 98.575 593.865 98.575C594.415 98.575 594.849 98.725 595.165 99.025C595.482 99.3083 595.64 99.7 595.64 100.2C595.64 100.683 595.482 101.067 595.165 101.35C594.849 101.633 594.415 101.775 593.865 101.775ZM603.28 118V104.25H605.53V106.875H606.005L605.53 107.4C605.53 106.317 605.855 105.483 606.505 104.9C607.155 104.3 608.055 104 609.205 104C610.589 104 611.689 104.425 612.505 105.275C613.322 106.125 613.73 107.283 613.73 108.75V118H611.48V109C611.48 108.017 611.214 107.267 610.68 106.75C610.164 106.217 609.455 105.95 608.555 105.95C607.622 105.95 606.88 106.233 606.33 106.8C605.797 107.367 605.53 108.183 605.53 109.25V118H603.28ZM621.946 118L617.346 104.25H619.646L622.696 113.5C622.879 114.05 623.046 114.583 623.196 115.1C623.346 115.6 623.454 115.992 623.521 116.275C623.604 115.992 623.721 115.6 623.871 115.1C624.021 114.583 624.179 114.05 624.346 113.5L627.321 104.25H629.596L624.996 118H621.946ZM637.261 118.25C635.811 118.25 634.669 117.883 633.836 117.15C633.003 116.4 632.586 115.392 632.586 114.125C632.586 112.842 633.003 111.833 633.836 111.1C634.669 110.367 635.794 110 637.211 110H641.461V108.625C641.461 107.775 641.203 107.125 640.686 106.675C640.186 106.208 639.469 105.975 638.536 105.975C637.719 105.975 637.036 106.15 636.486 106.5C635.936 106.833 635.619 107.292 635.536 107.875H633.286C633.436 106.692 633.994 105.75 634.961 105.05C635.928 104.35 637.136 104 638.586 104C640.169 104 641.419 104.408 642.336 105.225C643.253 106.042 643.711 107.15 643.711 108.55V118H641.511V115.375H641.136L641.511 115C641.511 116 641.119 116.792 640.336 117.375C639.569 117.958 638.544 118.25 637.261 118.25ZM637.811 116.475C638.878 116.475 639.753 116.208 640.436 115.675C641.119 115.142 641.461 114.458 641.461 113.625V111.675H637.261C636.511 111.675 635.919 111.883 635.486 112.3C635.053 112.717 634.836 113.283 634.836 114C634.836 114.767 635.094 115.375 635.611 115.825C636.144 116.258 636.878 116.475 637.811 116.475ZM655.326 118C654.526 118 653.826 117.842 653.226 117.525C652.626 117.208 652.16 116.758 651.826 116.175C651.493 115.592 651.326 114.908 651.326 114.125V101.8H646.701V99.75H653.576V114.125C653.576 114.692 653.735 115.142 654.051 115.475C654.368 115.792 654.793 115.95 655.326 115.95H659.701V118H655.326ZM663.066 118V115.95H667.941V106.3H663.691V104.25H670.191V115.95H674.816V118H663.066ZM668.816 101.775C668.266 101.775 667.833 101.633 667.516 101.35C667.2 101.067 667.041 100.683 667.041 100.2C667.041 99.7 667.2 99.3083 667.516 99.025C667.833 98.725 668.266 98.575 668.816 98.575C669.366 98.575 669.8 98.725 670.116 99.025C670.433 99.3083 670.591 99.7 670.591 100.2C670.591 100.683 670.433 101.067 670.116 101.35C669.8 101.633 669.366 101.775 668.816 101.775ZM682.632 118.25C681.265 118.25 680.157 117.792 679.307 116.875C678.473 115.958 678.057 114.717 678.057 113.15V109.125C678.057 107.542 678.473 106.292 679.307 105.375C680.14 104.458 681.248 104 682.632 104C683.765 104 684.673 104.308 685.357 104.925C686.04 105.542 686.382 106.367 686.382 107.4L685.932 106.875H686.432L686.382 103.75V99.75H688.632V118H686.382V115.375H685.932L686.382 114.85C686.382 115.9 686.04 116.733 685.357 117.35C684.673 117.95 683.765 118.25 682.632 118.25ZM683.382 116.3C684.315 116.3 685.048 116.008 685.582 115.425C686.115 114.842 686.382 114.033 686.382 113V109.25C686.382 108.217 686.115 107.408 685.582 106.825C685.048 106.242 684.315 105.95 683.382 105.95C682.432 105.95 681.682 106.233 681.132 106.8C680.582 107.367 680.307 108.183 680.307 109.25V113C680.307 114.067 680.582 114.883 681.132 115.45C681.682 116.017 682.432 116.3 683.382 116.3ZM698.797 106.375L700.797 98.6H704.047L700.797 106.375H698.797ZM693.047 106.375L695.047 98.6H698.297L695.047 106.375H693.047Z" fill="#EFF6FF"/>
<path d="M121.164 122.375L124.414 114.6H126.414L124.414 122.375H121.164ZM115.414 122.375L118.664 114.6H120.664L118.664 122.375H115.414ZM130.829 134V120.25H133.079V122.875H133.554L133.079 123.4C133.079 122.317 133.404 121.483 134.054 120.9C134.704 120.3 135.604 120 136.754 120C138.138 120 139.238 120.425 140.054 121.275C140.871 122.125 141.279 123.283 141.279 124.75V134H139.029V125C139.029 124.017 138.763 123.267 138.229 122.75C137.713 122.217 137.004 121.95 136.104 121.95C135.171 121.95 134.429 122.233 133.879 122.8C133.346 123.367 133.079 124.183 133.079 125.25V134H130.829ZM150.995 134.25C149.411 134.25 148.145 133.783 147.195 132.85C146.245 131.9 145.77 130.617 145.77 129V120.25H148.02V129C148.02 130.033 148.286 130.842 148.82 131.425C149.353 131.992 150.078 132.275 150.995 132.275C151.928 132.275 152.661 131.992 153.195 131.425C153.745 130.842 154.02 130.033 154.02 129V120.25H156.27V129C156.27 130.617 155.786 131.9 154.82 132.85C153.853 133.783 152.578 134.25 150.995 134.25ZM160.16 134V120.25H162.135V121.9H162.585L162.235 122.5C162.235 121.733 162.435 121.125 162.835 120.675C163.251 120.225 163.81 120 164.51 120C165.276 120 165.868 120.283 166.285 120.85C166.701 121.417 166.91 122.217 166.91 123.25L166.235 121.9H167.285L166.81 122.5C166.81 121.733 167.018 121.125 167.435 120.675C167.868 120.225 168.435 120 169.135 120C170.001 120 170.668 120.325 171.135 120.975C171.618 121.625 171.86 122.483 171.86 123.55V134H169.785V123.525C169.785 122.958 169.66 122.517 169.41 122.2C169.176 121.883 168.826 121.725 168.36 121.725C167.91 121.725 167.551 121.883 167.285 122.2C167.035 122.5 166.91 122.933 166.91 123.5V134H165.11V123.525C165.11 122.942 164.976 122.5 164.71 122.2C164.46 121.883 164.101 121.725 163.635 121.725C163.168 121.725 162.818 121.883 162.585 122.2C162.351 122.5 162.235 122.933 162.235 123.5V134H160.16ZM181.8 134.25C180.667 134.25 179.758 133.95 179.075 133.35C178.392 132.733 178.05 131.9 178.05 130.85L178.5 131.375H178.05V134H175.8V115.75H178.05V119.75L178 122.875H178.5L178.05 123.4C178.05 122.367 178.392 121.542 179.075 120.925C179.775 120.308 180.683 120 181.8 120C183.183 120 184.292 120.458 185.125 121.375C185.958 122.292 186.375 123.542 186.375 125.125V129.15C186.375 130.717 185.958 131.958 185.125 132.875C184.292 133.792 183.183 134.25 181.8 134.25ZM181.05 132.3C182 132.3 182.75 132.017 183.3 131.45C183.85 130.883 184.125 130.067 184.125 129V125.25C184.125 124.183 183.85 123.367 183.3 122.8C182.75 122.233 182 121.95 181.05 121.95C180.133 121.95 179.4 122.242 178.85 122.825C178.317 123.408 178.05 124.217 178.05 125.25V129C178.05 130.033 178.317 130.842 178.85 131.425C179.4 132.008 180.133 132.3 181.05 132.3ZM195.99 134.25C194.907 134.25 193.957 134.033 193.14 133.6C192.34 133.167 191.715 132.558 191.265 131.775C190.832 130.975 190.615 130.05 190.615 129V125.25C190.615 124.183 190.832 123.258 191.265 122.475C191.715 121.692 192.34 121.083 193.14 120.65C193.957 120.217 194.907 120 195.99 120C197.074 120 198.015 120.217 198.815 120.65C199.632 121.083 200.257 121.692 200.69 122.475C201.14 123.258 201.365 124.183 201.365 125.25V127.675H192.815V129C192.815 130.083 193.09 130.917 193.64 131.5C194.19 132.067 194.974 132.35 195.99 132.35C196.857 132.35 197.557 132.2 198.09 131.9C198.624 131.583 198.949 131.117 199.065 130.5H201.315C201.165 131.65 200.599 132.567 199.615 133.25C198.649 133.917 197.44 134.25 195.99 134.25ZM199.165 126.175V125.25C199.165 124.167 198.89 123.333 198.34 122.75C197.807 122.167 197.024 121.875 195.99 121.875C194.974 121.875 194.19 122.167 193.64 122.75C193.09 123.333 192.815 124.167 192.815 125.25V125.975H199.34L199.165 126.175ZM206.255 134V120.25H208.455V122.875H208.98L208.255 124.5C208.255 123.017 208.572 121.9 209.205 121.15C209.855 120.383 210.814 120 212.08 120C213.53 120 214.68 120.458 215.53 121.375C216.397 122.275 216.83 123.5 216.83 125.05V125.875H214.58V125.25C214.58 124.167 214.314 123.342 213.78 122.775C213.264 122.192 212.522 121.9 211.555 121.9C210.605 121.9 209.855 122.192 209.305 122.775C208.772 123.358 208.505 124.183 208.505 125.25V134H206.255ZM226.346 122.375L228.346 114.6H231.596L228.346 122.375H226.346ZM220.596 122.375L222.596 114.6H225.846L222.596 122.375H220.596Z" fill="#EFF6FF"/>
<path d="M850.829 109C849.409 109 848.299 108.62 847.499 107.86C846.719 107.1 846.329 106.03 846.329 104.65V94.96H841.679V92.5H846.329V87.85H849.029V92.5H855.629V94.96H849.029V104.65C849.029 105.91 849.629 106.54 850.829 106.54H855.329V109H850.829ZM861.348 109V92.5H863.988V95.65H864.618L863.748 97.6C863.748 95.82 864.128 94.48 864.888 93.58C865.668 92.66 866.818 92.2 868.338 92.2C870.078 92.2 871.458 92.75 872.478 93.85C873.518 94.93 874.038 96.4 874.038 98.26V99.25H871.338V98.5C871.338 97.2 871.018 96.21 870.378 95.53C869.758 94.83 868.868 94.48 867.708 94.48C866.568 94.48 865.668 94.83 865.008 95.53C864.368 96.23 864.048 97.22 864.048 98.5V109H861.348ZM884.976 109.3C883.076 109.3 881.556 108.74 880.416 107.62C879.276 106.48 878.706 104.94 878.706 103V92.5H881.406V103C881.406 104.24 881.726 105.21 882.366 105.91C883.006 106.59 883.876 106.93 884.976 106.93C886.096 106.93 886.976 106.59 887.616 105.91C888.276 105.21 888.606 104.24 888.606 103V92.5H891.306V103C891.306 104.94 890.726 106.48 889.566 107.62C888.406 108.74 886.876 109.3 884.976 109.3ZM902.994 109.3C901.694 109.3 900.554 109.04 899.574 108.52C898.614 108 897.864 107.27 897.324 106.33C896.804 105.37 896.544 104.26 896.544 103V98.5C896.544 97.22 896.804 96.11 897.324 95.17C897.864 94.23 898.614 93.5 899.574 92.98C900.554 92.46 901.694 92.2 902.994 92.2C904.294 92.2 905.424 92.46 906.384 92.98C907.364 93.5 908.114 94.23 908.634 95.17C909.174 96.11 909.444 97.22 909.444 98.5V101.41H899.184V103C899.184 104.3 899.514 105.3 900.174 106C900.834 106.68 901.774 107.02 902.994 107.02C904.034 107.02 904.874 106.84 905.514 106.48C906.154 106.1 906.544 105.54 906.684 104.8H909.384C909.204 106.18 908.524 107.28 907.344 108.1C906.184 108.9 904.734 109.3 902.994 109.3ZM906.804 99.61V98.5C906.804 97.2 906.474 96.2 905.814 95.5C905.174 94.8 904.234 94.45 902.994 94.45C901.774 94.45 900.834 94.8 900.174 95.5C899.514 96.2 899.184 97.2 899.184 98.5V99.37H907.014L906.804 99.61ZM916.932 113.8L919.332 104.47H923.232L919.332 113.8H916.932Z" fill="#EFF6FF"/>
<path d="M878.266 545V542.24L884.956 535.13C886.096 533.91 886.926 532.83 887.446 531.89C887.966 530.93 888.226 530.01 888.226 529.13C888.226 527.91 887.886 526.95 887.206 526.25C886.546 525.55 885.636 525.2 884.476 525.2C883.196 525.2 882.186 525.56 881.446 526.28C880.726 527 880.366 527.99 880.366 529.25H877.666C877.706 527.93 878.006 526.79 878.566 525.83C879.146 524.85 879.936 524.1 880.936 523.58C881.956 523.06 883.136 522.8 884.476 522.8C885.796 522.8 886.936 523.06 887.896 523.58C888.876 524.08 889.626 524.8 890.146 525.74C890.666 526.68 890.926 527.8 890.926 529.1C890.926 530.34 890.596 531.57 889.936 532.79C889.276 534.01 888.196 535.4 886.696 536.96L881.296 542.54H891.286V545H878.266Z" fill="#EFF6FF"/>
<path d="M26.1759 431.3C24.8559 431.3 23.6959 431.04 22.6959 430.52C21.7159 429.98 20.9559 429.24 20.4159 428.3C19.8759 427.36 19.6059 426.26 19.6059 425H22.3059C22.3059 426.22 22.6459 427.18 23.3259 427.88C24.0259 428.56 24.9859 428.9 26.2059 428.9C27.4459 428.9 28.4059 428.54 29.0859 427.82C29.7659 427.1 30.1059 426.16 30.1059 425V423.44C30.1059 422.2 29.7659 421.24 29.0859 420.56C28.4059 419.88 27.4459 419.54 26.2059 419.54H23.9559V416.84L29.3859 411.56H20.5059V409.1H32.1159V411.8L26.2659 417.47V417.14C28.2659 417.14 29.8559 417.71 31.0359 418.85C32.2159 419.99 32.8059 421.52 32.8059 423.44V425C32.8059 426.26 32.5259 427.36 31.9659 428.3C31.4259 429.24 30.6559 429.98 29.6559 430.52C28.6559 431.04 27.4959 431.3 26.1759 431.3Z" fill="#EFF6FF"/>
<path d="M906.806 159V154.2H896.906V149.97L905.576 137.1H908.516L899.606 150.54V151.74H906.806V146.4H909.506V159H906.806Z" fill="#EFF6FF"/>
<path d="M422.712 618.3V615.9H432.312V618.3H422.712ZM442.11 627L448.32 617.04L448.2 616.95C447.82 617.51 447.3 617.94 446.64 618.24C445.98 618.54 445.24 618.69 444.42 618.69C443.24 618.69 442.2 618.41 441.3 617.85C440.42 617.29 439.74 616.5 439.26 615.48C438.78 614.44 438.54 613.23 438.54 611.85C438.54 610.43 438.83 609.2 439.41 608.16C439.99 607.1 440.8 606.28 441.84 605.7C442.88 605.1 444.09 604.8 445.47 604.8C446.87 604.8 448.09 605.1 449.13 605.7C450.19 606.28 451.01 607.1 451.59 608.16C452.17 609.2 452.46 610.43 452.46 611.85C452.46 612.95 452.3 614.03 451.98 615.09C451.68 616.15 451.22 617.17 450.6 618.15L445.11 627H442.11ZM445.5 616.5C446.78 616.5 447.81 616.08 448.59 615.24C449.37 614.38 449.76 613.25 449.76 611.85C449.76 610.45 449.37 609.33 448.59 608.49C447.81 607.63 446.78 607.2 445.5 607.2C444.22 607.2 443.19 607.63 442.41 608.49C441.63 609.33 441.24 610.45 441.24 611.85C441.24 613.25 441.63 614.38 442.41 615.24C443.19 616.08 444.22 616.5 445.5 616.5Z" fill="#EFF6FF"/>
<path d="M604.068 58L611.898 38.56H603.618V41.8H600.918V36.1H614.568V38.74L606.978 58H604.068ZM625.506 58.3C624.746 58.3 624.136 58.08 623.676 57.64C623.236 57.2 623.016 56.61 623.016 55.87C623.016 55.09 623.236 54.47 623.676 54.01C624.136 53.55 624.746 53.32 625.506 53.32C626.266 53.32 626.866 53.55 627.306 54.01C627.766 54.47 627.996 55.09 627.996 55.87C627.996 56.61 627.766 57.2 627.306 57.64C626.866 58.08 626.266 58.3 625.506 58.3ZM643.494 58.3C642.154 58.3 640.984 58.07 639.984 57.61C639.004 57.13 638.244 56.45 637.704 55.57C637.164 54.69 636.894 53.66 636.894 52.48C636.894 51.18 637.244 50.06 637.944 49.12C638.664 48.18 639.794 47.34 641.334 46.6L644.244 45.19C645.124 44.77 645.804 44.22 646.284 43.54C646.764 42.86 647.004 42.11 647.004 41.29C647.004 40.33 646.684 39.57 646.044 39.01C645.424 38.45 644.574 38.17 643.494 38.17C642.414 38.17 641.554 38.46 640.914 39.04C640.294 39.6 639.984 40.36 639.984 41.32C639.984 42.12 640.214 42.86 640.674 43.54C641.154 44.22 641.804 44.76 642.624 45.16L645.534 46.54C647.134 47.28 648.294 48.13 649.014 49.09C649.734 50.03 650.094 51.16 650.094 52.48C650.094 54.26 649.494 55.68 648.294 56.74C647.114 57.78 645.514 58.3 643.494 58.3ZM643.494 55.9C644.714 55.9 645.674 55.59 646.374 54.97C647.094 54.33 647.454 53.48 647.454 52.42C647.454 51.56 647.224 50.78 646.764 50.08C646.304 49.38 645.644 48.82 644.784 48.4L641.904 46.99C640.304 46.21 639.144 45.37 638.424 44.47C637.704 43.57 637.344 42.49 637.344 41.23C637.344 40.11 637.594 39.14 638.094 38.32C638.594 37.5 639.304 36.87 640.224 36.43C641.144 35.99 642.234 35.77 643.494 35.77C644.754 35.77 645.844 35.99 646.764 36.43C647.684 36.87 648.394 37.5 648.894 38.32C649.394 39.14 649.644 40.11 649.644 41.23C649.644 42.49 649.284 43.57 648.564 44.47C647.844 45.35 646.654 46.2 644.994 47.02L642.114 48.43C641.294 48.83 640.654 49.38 640.194 50.08C639.754 50.76 639.534 51.52 639.534 52.36C639.534 53.44 639.884 54.3 640.584 54.94C641.304 55.58 642.274 55.9 643.494 55.9Z" fill="#EFF6FF"/>
<path d="M663.536 526.3C662.136 526.3 660.906 526.01 659.846 525.43C658.806 524.83 657.996 524 657.416 522.94C656.836 521.88 656.546 520.65 656.546 519.25C656.546 518.15 656.696 517.07 656.996 516.01C657.316 514.95 657.786 513.93 658.406 512.95L663.896 504.1H666.896L660.686 514.06L660.806 514.15C661.186 513.59 661.706 513.16 662.366 512.86C663.026 512.56 663.766 512.41 664.586 512.41C665.786 512.41 666.826 512.69 667.706 513.25C668.586 513.81 669.266 514.6 669.746 515.62C670.226 516.64 670.466 517.85 670.466 519.25C670.466 520.65 670.176 521.88 669.596 522.94C669.016 524 668.206 524.83 667.166 525.43C666.146 526.01 664.936 526.3 663.536 526.3ZM663.506 523.9C664.786 523.9 665.816 523.48 666.596 522.64C667.376 521.78 667.766 520.65 667.766 519.25C667.766 517.85 667.376 516.73 666.596 515.89C665.816 515.03 664.786 514.6 663.506 514.6C662.226 514.6 661.196 515.03 660.416 515.89C659.636 516.73 659.246 517.85 659.246 519.25C659.246 520.65 659.636 521.78 660.416 522.64C661.196 523.48 662.226 523.9 663.506 523.9Z" fill="#EFF6FF"/>
<path d="M72.4459 118.3C70.6659 118.3 69.2059 117.84 68.0659 116.92C66.9259 116 66.2559 114.76 66.0559 113.2H68.7559C68.8559 114.06 69.2259 114.73 69.8659 115.21C70.5059 115.67 71.3759 115.9 72.4759 115.9C73.7359 115.9 74.6759 115.56 75.2959 114.88C75.9359 114.2 76.2559 113.24 76.2559 112V109.87C76.2559 108.63 75.9359 107.67 75.2959 106.99C74.6759 106.31 73.7459 105.97 72.5059 105.97C71.7259 105.97 71.0459 106.18 70.4659 106.6C69.8859 107 69.4659 107.54 69.2059 108.22H66.5059L66.6559 96.1H78.1759V98.56H69.2659L69.1759 105.85H70.0159L69.1759 106.63C69.1759 105.69 69.5459 104.95 70.2859 104.41C71.0459 103.87 72.0559 103.6 73.3159 103.6C75.0959 103.58 76.4759 104.13 77.4559 105.25C78.4559 106.35 78.9559 107.89 78.9559 109.87V112C78.9559 113.94 78.3859 115.48 77.2459 116.62C76.1059 117.74 74.5059 118.3 72.4459 118.3Z" fill="#EFF6FF"/>
<path d="M188.783 593V576.5H191.483V579.65H192.053L191.483 580.28C191.483 578.98 191.873 577.98 192.653 577.28C193.433 576.56 194.513 576.2 195.893 576.2C197.553 576.2 198.873 576.71 199.853 577.73C200.833 578.75 201.323 580.14 201.323 581.9V593H198.623V582.2C198.623 581.02 198.303 580.12 197.663 579.5C197.043 578.86 196.193 578.54 195.113 578.54C193.993 578.54 193.103 578.88 192.443 579.56C191.803 580.24 191.483 581.22 191.483 582.5V593H188.783ZM212.982 593.3C211.082 593.3 209.562 592.74 208.422 591.62C207.282 590.48 206.712 588.94 206.712 587V576.5H209.412V587C209.412 588.24 209.732 589.21 210.372 589.91C211.012 590.59 211.882 590.93 212.982 590.93C214.102 590.93 214.982 590.59 215.622 589.91C216.282 589.21 216.612 588.24 216.612 587V576.5H219.312V587C219.312 588.94 218.732 590.48 217.572 591.62C216.412 592.74 214.882 593.3 212.982 593.3ZM233.25 593C232.29 593 231.45 592.81 230.73 592.43C230.01 592.05 229.45 591.51 229.05 590.81C228.65 590.11 228.45 589.29 228.45 588.35V573.56H222.9V571.1H231.15V588.35C231.15 589.03 231.34 589.57 231.72 589.97C232.1 590.35 232.61 590.54 233.25 590.54H238.5V593H233.25ZM251.238 593C250.278 593 249.438 592.81 248.718 592.43C247.998 592.05 247.438 591.51 247.038 590.81C246.638 590.11 246.438 589.29 246.438 588.35V573.56H240.888V571.1H249.138V588.35C249.138 589.03 249.328 589.57 249.708 589.97C250.088 590.35 250.598 590.54 251.238 590.54H256.488V593H251.238Z" fill="#EFF6FF"/>
<path d="M411.629 546V533.61H406.829V531.15H411.629V528.3C411.629 527 412.039 525.98 412.859 525.24C413.679 524.48 414.809 524.1 416.249 524.1H421.079V526.56H416.249C415.629 526.56 415.149 526.71 414.809 527.01C414.489 527.29 414.329 527.72 414.329 528.3V531.15H421.079V533.61H414.329V546H411.629ZM430.578 546.3C428.838 546.3 427.468 545.86 426.468 544.98C425.468 544.08 424.968 542.87 424.968 541.35C424.968 539.81 425.468 538.6 426.468 537.72C427.468 536.84 428.818 536.4 430.518 536.4H435.618V534.75C435.618 533.73 435.308 532.95 434.688 532.41C434.088 531.85 433.228 531.57 432.108 531.57C431.128 531.57 430.308 531.78 429.648 532.2C428.988 532.6 428.608 533.15 428.508 533.85H425.808C425.988 532.43 426.658 531.3 427.818 530.46C428.978 529.62 430.428 529.2 432.168 529.2C434.068 529.2 435.568 529.69 436.668 530.67C437.768 531.65 438.318 532.98 438.318 534.66V546H435.678V542.85H435.228L435.678 542.4C435.678 543.6 435.208 544.55 434.268 545.25C433.348 545.95 432.118 546.3 430.578 546.3ZM431.238 544.17C432.518 544.17 433.568 543.85 434.388 543.21C435.208 542.57 435.618 541.75 435.618 540.75V538.41H430.578C429.678 538.41 428.968 538.66 428.448 539.16C427.928 539.66 427.668 540.34 427.668 541.2C427.668 542.12 427.978 542.85 428.598 543.39C429.238 543.91 430.118 544.17 431.238 544.17ZM452.256 546C451.296 546 450.456 545.81 449.736 545.43C449.016 545.05 448.456 544.51 448.056 543.81C447.656 543.11 447.456 542.29 447.456 541.35V526.56H441.906V524.1H450.156V541.35C450.156 542.03 450.346 542.57 450.726 542.97C451.106 543.35 451.616 543.54 452.256 543.54H457.506V546H452.256ZM467.484 546.24C466.364 546.24 465.384 546.07 464.544 545.73C463.724 545.37 463.064 544.87 462.564 544.23C462.084 543.59 461.794 542.83 461.694 541.95H464.394C464.514 542.53 464.834 542.99 465.354 543.33C465.894 543.67 466.604 543.84 467.484 543.84H468.744C469.804 543.84 470.594 543.63 471.114 543.21C471.634 542.77 471.894 542.19 471.894 541.47C471.894 540.77 471.654 540.22 471.174 539.82C470.714 539.4 470.024 539.12 469.104 538.98L466.884 538.62C465.264 538.34 464.054 537.84 463.254 537.12C462.474 536.38 462.084 535.31 462.084 533.91C462.084 532.43 462.554 531.29 463.494 530.49C464.434 529.67 465.844 529.26 467.724 529.26H468.864C470.444 529.26 471.714 529.63 472.674 530.37C473.634 531.11 474.214 532.11 474.414 533.37H471.714C471.594 532.85 471.294 532.44 470.814 532.14C470.334 531.82 469.684 531.66 468.864 531.66H467.724C466.704 531.66 465.954 531.85 465.474 532.23C465.014 532.61 464.784 533.18 464.784 533.94C464.784 534.62 464.984 535.12 465.384 535.44C465.784 535.76 466.414 535.99 467.274 536.13L469.494 536.49C471.274 536.77 472.564 537.29 473.364 538.05C474.184 538.81 474.594 539.91 474.594 541.35C474.594 542.87 474.104 544.07 473.124 544.95C472.164 545.81 470.704 546.24 468.744 546.24H467.484ZM485.982 546.3C484.682 546.3 483.542 546.04 482.562 545.52C481.602 545 480.852 544.27 480.312 543.33C479.792 542.37 479.532 541.26 479.532 540V535.5C479.532 534.22 479.792 533.11 480.312 532.17C480.852 531.23 481.602 530.5 482.562 529.98C483.542 529.46 484.682 529.2 485.982 529.2C487.282 529.2 488.412 529.46 489.372 529.98C490.352 530.5 491.102 531.23 491.622 532.17C492.162 533.11 492.432 534.22 492.432 535.5V538.41H482.172V540C482.172 541.3 482.502 542.3 483.162 543C483.822 543.68 484.762 544.02 485.982 544.02C487.022 544.02 487.862 543.84 488.502 543.48C489.142 543.1 489.532 542.54 489.672 541.8H492.372C492.192 543.18 491.512 544.28 490.332 545.1C489.172 545.9 487.722 546.3 485.982 546.3ZM489.792 536.61V535.5C489.792 534.2 489.462 533.2 488.802 532.5C488.162 531.8 487.222 531.45 485.982 531.45C484.762 531.45 483.822 531.8 483.162 532.5C482.502 533.2 482.172 534.2 482.172 535.5V536.37H490.002L489.792 536.61Z" fill="#EFF6FF"/>
</g>
<defs>
<clipPath id="clip0_201_2">
<rect width="1007" height="661" fill="white"/>
</clipPath>
</defs>
</svg>
