<?xml version="1.0" standalone="no"?>
<!DOCTYPE svg PUBLIC "-//W3C//DTD SVG 20010904//EN"
 "http://www.w3.org/TR/2001/REC-SVG-20010904/DTD/svg10.dtd">
<svg version="1.0" xmlns="http://www.w3.org/2000/svg"
 width="616.000000pt" height="140.000000pt" viewBox="0 0 616.000000 140.000000"
 preserveAspectRatio="xMidYMid meet">

<g transform="translate(0.000000,140.000000) scale(0.100000,-0.100000)"
fill="#000000" stroke="none">
<path d="M557 1394 c-4 -4 -7 -63 -7 -131 0 -104 3 -125 16 -130 28 -10 34 18
32 142 -3 99 -6 120 -18 123 -9 1 -19 0 -23 -4z"/>
<path d="M1018 1032 c-66 -38 -98 -63 -98 -75 0 -34 27 -28 118 27 112 66 122
74 115 92 -9 23 -33 15 -135 -44z"/>
<path d="M7 1063 c-4 -3 -7 -12 -7 -19 0 -17 208 -137 226 -130 33 13 9 38
-88 96 -101 59 -118 66 -131 53z"/>
<path d="M526 987 c-111 -63 -149 -308 -70 -445 45 -76 139 -103 213 -61 63
35 76 63 76 156 0 77 -2 84 -30 113 -54 56 -134 60 -205 10 l-30 -21 0 24 c0
46 32 131 60 159 34 33 95 38 140 11 24 -14 31 -14 44 -4 25 21 19 36 -23 59
-52 29 -123 29 -175 -1z m134 -272 c35 -37 39 -110 8 -155 -20 -30 -30 -35
-70 -38 -40 -3 -48 0 -71 28 -24 27 -47 86 -47 116 0 7 16 26 35 43 47 41 110
44 145 6z"/>
<path d="M3533 871 c-39 -24 -52 -71 -29 -106 9 -14 43 -39 76 -55 40 -20 60
-36 60 -48 0 -42 -47 -54 -102 -26 -28 15 -32 14 -47 -1 -15 -15 -15 -17 4
-31 80 -59 199 -23 199 61 0 44 -17 63 -86 93 -47 20 -58 29 -58 48 0 29 36
41 81 25 58 -20 71 21 14 45 -46 19 -74 18 -112 -5z"/>
<path d="M4294 876 c-18 -8 -36 -27 -44 -46 -19 -47 1 -78 75 -116 61 -31 76
-53 55 -79 -16 -20 -53 -19 -92 1 -30 15 -32 15 -45 -2 -12 -16 -9 -20 18 -38
21 -13 49 -20 82 -20 43 0 53 4 78 32 52 58 32 106 -62 151 -38 18 -55 33 -57
48 -4 28 38 41 81 25 56 -21 68 20 12 44 -42 17 -61 17 -101 0z"/>
<path d="M5943 874 c-19 -10 -36 -28 -42 -46 -17 -47 4 -78 74 -114 61 -31 76
-53 55 -79 -16 -20 -53 -19 -92 1 -30 15 -32 15 -45 -2 -12 -16 -9 -20 18 -38
21 -13 49 -20 82 -20 43 0 53 4 78 32 52 58 32 109 -58 148 -29 13 -56 31 -59
39 -14 36 43 58 88 34 16 -9 24 -8 36 4 13 14 11 18 -19 36 -40 25 -73 26
-116 5z"/>
<path d="M1380 731 l0 -151 25 0 c22 0 24 4 27 58 3 49 6 57 24 60 16 2 27
-10 53 -58 28 -52 36 -60 62 -60 16 0 29 2 29 5 0 2 -15 30 -34 62 -31 52 -33
59 -18 67 45 25 57 96 23 137 -17 21 -29 24 -105 28 l-86 3 0 -151z m144 93
c36 -36 5 -84 -56 -84 l-38 0 0 50 0 50 39 0 c23 0 46 -7 55 -16z"/>
<path d="M1800 730 l0 -150 25 0 25 0 0 150 0 150 -25 0 -25 0 0 -150z"/>
<path d="M2030 876 c0 -1 4 -16 9 -32 6 -16 26 -82 46 -146 l36 -118 33 0 c31
0 34 3 49 53 8 28 29 96 45 150 l30 97 -27 0 c-26 0 -28 -5 -55 -102 -15 -57
-30 -112 -33 -122 -8 -28 -15 -10 -49 117 -27 104 -29 107 -56 107 -15 0 -28
-2 -28 -4z"/>
<path d="M2460 730 l0 -150 90 0 c83 0 90 1 90 20 0 18 -7 20 -65 20 l-65 0 0
45 0 45 55 0 c52 0 55 1 55 25 0 24 -3 25 -55 25 l-55 0 0 40 0 40 65 0 c58 0
65 2 65 20 0 19 -7 20 -90 20 l-90 0 0 -150z"/>
<path d="M2840 730 l0 -150 30 0 30 0 0 61 c0 56 1 60 22 57 14 -2 33 -22 55
-60 29 -50 38 -58 64 -58 l30 0 -27 48 c-15 26 -31 52 -36 58 -6 8 2 23 22 42
32 32 38 64 19 105 -16 35 -50 47 -134 47 l-75 0 0 -150z m141 100 c12 -7 19
-21 19 -40 0 -34 -23 -50 -69 -50 -30 0 -31 1 -31 50 0 49 1 50 31 50 17 0 39
-5 50 -10z"/>
<path d="M3850 875 c0 -3 20 -46 45 -95 37 -74 45 -99 45 -145 0 -52 1 -55 25
-55 24 0 25 3 25 55 0 44 8 71 45 146 25 51 45 93 45 95 0 2 -12 4 -27 4 -25
0 -31 -7 -57 -72 l-30 -72 -27 60 c-15 32 -28 65 -28 72 -1 11 -61 18 -61 7z"/>
<path d="M4610 861 c0 -16 8 -20 43 -23 l42 -3 3 -127 3 -128 24 0 25 0 0 130
0 130 45 0 c38 0 45 3 45 20 0 19 -7 20 -115 20 -107 0 -115 -1 -115 -19z"/>
<path d="M5030 730 l0 -150 90 0 c83 0 90 2 90 20 0 16 -8 19 -62 22 l-63 3
-3 43 -3 42 55 0 c53 0 56 1 56 25 0 24 -3 25 -55 25 l-55 0 0 40 0 40 65 0
c58 0 65 2 65 20 0 19 -7 20 -90 20 l-90 0 0 -150z"/>
<path d="M5420 729 c0 -150 0 -150 23 -147 21 3 22 6 20 113 l-1 110 36 -97
c27 -72 42 -98 55 -98 9 0 17 6 18 13 0 6 15 50 33 97 l34 85 -6 -112 -5 -113
27 0 26 0 0 150 0 150 -29 0 c-28 0 -31 -4 -61 -95 -17 -52 -35 -95 -39 -95
-3 0 -22 43 -40 95 -32 90 -35 95 -62 95 l-29 0 0 -151z"/>
<path d="M937 553 c-18 -18 2 -36 100 -93 93 -53 108 -59 121 -46 8 8 12 19 8
24 -7 12 -200 122 -213 122 -5 0 -13 -3 -16 -7z"/>
<path d="M113 480 c-57 -33 -103 -64 -103 -69 0 -5 6 -14 14 -20 20 -17 221
98 221 125 0 33 -28 25 -132 -36z"/>
<path d="M577 334 c-4 -4 -7 -62 -7 -130 0 -93 3 -123 13 -127 32 -12 38 8 35
134 -3 102 -6 124 -18 127 -9 1 -19 0 -23 -4z"/>
<path d="M3600 280 c0 -57 -1 -60 -19 -50 -32 17 -91 12 -122 -10 -55 -40 -57
-137 -2 -180 28 -22 91 -27 124 -10 13 7 19 7 19 0 0 -5 9 -10 20 -10 19 0 20
7 20 160 0 153 -1 160 -20 160 -18 0 -20 -7 -20 -60z m-20 -100 c24 -24 26
-67 4 -98 -21 -31 -87 -31 -108 0 -36 51 -5 118 54 118 17 0 39 -9 50 -20z"/>
<path d="M1370 130 c0 -91 3 -110 15 -110 11 0 15 12 15 45 0 45 0 45 34 45
48 0 66 9 77 37 22 58 -15 93 -96 93 l-45 0 0 -110z m88 84 c26 -8 39 -48 22
-69 -7 -8 -28 -15 -46 -15 -34 0 -34 1 -34 45 0 48 7 52 58 39z"/>
<path d="M1573 153 c-46 -132 -46 -133 -30 -133 8 0 18 15 23 33 9 28 14 32
50 35 37 3 40 1 49 -30 6 -18 17 -34 26 -36 13 -2 9 18 -21 105 -23 66 -43
109 -52 111 -11 2 -24 -22 -45 -85z m61 4 l14 -47 -29 0 c-16 0 -29 5 -29 11
0 17 23 90 27 86 1 -2 9 -25 17 -50z"/>
<path d="M1750 130 c0 -91 3 -110 15 -110 11 0 15 12 15 45 0 37 3 45 19 45
11 0 27 -16 42 -45 14 -26 31 -45 41 -45 14 0 13 6 -8 44 l-25 45 20 20 c28
28 27 75 -1 95 -13 9 -43 16 -70 16 l-48 0 0 -110z m94 77 c11 -8 17 -23 14
-38 -2 -20 -9 -25 -40 -27 l-38 -3 0 40 c0 36 3 41 23 41 13 0 31 -6 41 -13z"/>
<path d="M1930 225 c0 -10 10 -15 30 -15 l30 0 0 -95 c0 -78 3 -95 15 -95 12
0 15 17 15 95 l0 95 30 0 c20 0 30 5 30 15 0 12 -15 15 -75 15 -60 0 -75 -3
-75 -15z"/>
<path d="M2235 216 c-30 -30 -40 -84 -25 -130 14 -43 44 -66 85 -66 41 0 71
23 85 66 26 77 -17 154 -85 154 -25 0 -43 -8 -60 -24z m100 -21 c35 -34 35
-96 0 -130 -31 -31 -49 -31 -80 0 -19 18 -25 35 -25 65 0 44 33 90 65 90 9 0
27 -11 40 -25z"/>
<path d="M2450 130 c0 -62 4 -110 9 -110 6 0 11 21 13 48 l3 47 43 3 c56 4 54
22 -3 22 -45 0 -45 0 -45 35 l0 35 50 0 c38 0 50 4 50 15 0 12 -13 15 -60 15
l-60 0 0 -110z"/>
<path d="M2724 206 c-28 -28 -34 -42 -34 -76 0 -34 6 -48 34 -76 84 -84 217
-8 186 106 -14 50 -54 80 -110 80 -34 0 -48 -6 -76 -34z m131 -26 c41 -45 10
-120 -49 -120 -37 0 -49 7 -65 37 -16 31 -14 47 10 77 26 33 77 36 104 6z"/>
<path d="M2984 206 c-26 -26 -34 -42 -34 -70 0 -74 43 -116 118 -116 49 0 66
12 57 40 -5 16 -10 19 -18 11 -20 -20 -84 -13 -101 11 -47 67 23 146 94 108
14 -7 20 -6 24 6 10 27 -13 44 -61 44 -38 0 -50 -5 -79 -34z"/>
<path d="M3190 211 c-52 -51 -52 -111 0 -162 23 -23 37 -29 72 -29 24 0 50 6
57 12 11 10 14 10 18 1 3 -7 13 -13 24 -13 18 0 19 8 19 110 0 103 -1 110 -20
110 -12 0 -20 -7 -20 -17 0 -15 -1 -15 -18 0 -11 10 -36 17 -61 17 -34 0 -49
-6 -71 -29z m133 -43 c22 -29 18 -65 -9 -92 -20 -21 -73 -20 -96 1 -23 21 -24
80 -1 105 25 28 80 20 106 -14z"/>
<path d="M3714 206 c-75 -75 -24 -186 84 -186 49 0 88 29 101 75 21 78 -29
145 -109 145 -34 0 -48 -6 -76 -34z m111 -12 c22 -9 46 -59 38 -81 -19 -54
-84 -72 -123 -33 -54 54 11 142 85 114z"/>
<path d="M4055 216 c-45 -45 -41 -147 8 -181 25 -17 80 -20 108 -5 14 8 19 21
19 55 0 45 0 45 -35 45 -19 0 -35 -4 -35 -10 0 -5 9 -10 20 -10 16 0 20 -7 20
-30 0 -62 -91 -45 -105 20 -17 76 29 134 88 112 36 -13 45 -9 27 13 -20 24
-87 19 -115 -9z"/>
<path d="M4250 130 c0 -91 3 -110 15 -110 11 0 15 12 15 45 0 38 3 45 19 45
12 0 29 -17 45 -45 15 -25 34 -45 42 -45 13 0 10 9 -11 46 l-27 46 21 14 c14
10 21 26 21 49 0 44 -29 65 -92 65 l-48 0 0 -110z m87 84 c27 -7 39 -40 23
-59 -7 -8 -28 -15 -46 -15 -33 0 -34 1 -34 40 0 42 8 47 57 34z"/>
<path d="M4475 216 c-30 -30 -40 -84 -25 -130 27 -82 126 -91 165 -16 28 54
11 136 -34 160 -34 18 -80 12 -106 -14z m100 -21 c32 -31 34 -91 4 -129 -24
-31 -48 -33 -80 -7 -20 16 -24 29 -24 71 0 42 4 55 24 71 31 25 47 24 76 -6z"/>
<path d="M4690 152 c0 -108 13 -132 71 -132 65 0 79 23 79 130 0 53 -4 90 -10
90 -6 0 -10 -30 -11 -67 -1 -91 -9 -116 -42 -127 -45 -16 -60 9 -65 109 -2 47
-8 85 -13 85 -5 0 -9 -39 -9 -88z"/>
<path d="M4910 130 c0 -91 3 -110 15 -110 11 0 15 12 15 45 l0 45 40 0 c47 0
80 27 80 65 0 43 -33 65 -95 65 l-55 0 0 -110z m94 80 c18 -6 26 -17 26 -33 0
-32 -18 -47 -57 -47 -32 0 -33 1 -33 45 0 49 11 55 64 35z"/>
</g>
</svg>
