<?xml version="1.0" encoding="UTF-8"?>
<svg id="Layer_2" data-name="Layer 2" xmlns="http://www.w3.org/2000/svg" viewBox="0 0 127.56 141.73">
  <defs>
    <style>
      .cls-1 {
        fill: #fff;
      }

      .cls-1, .cls-2 {
        stroke-width: 0px;
      }

      .cls-2 {
        fill: #f05f80;
      }
    </style>
  </defs>
  <g id="Layer_1-2" data-name="Layer 1">
    <g>
      <rect class="cls-2" width="127.56" height="141.73" rx="5" ry="5"/>
      <g>
        <path class="cls-1" d="M14.13,119.53v-18.56h7.43c1.37,0,2.5.2,3.42.61s1.6.97,2.06,1.68.69,1.54.69,2.47c0,.72-.14,1.36-.43,1.91-.29.55-.69.99-1.19,1.34-.5.35-1.08.59-1.73.74v.18c.71.03,1.37.23,1.99.6.62.37,1.12.88,1.51,1.55.39.66.58,1.45.58,2.36,0,.98-.24,1.86-.73,2.63-.49.77-1.2,1.38-2.15,1.83-.95.45-2.12.67-3.51.67h-7.93ZM18.05,108.74h2.91c.54,0,1.02-.1,1.44-.29.42-.19.75-.46,1-.81.24-.35.37-.77.37-1.26,0-.67-.24-1.21-.71-1.62-.47-.41-1.15-.62-2.02-.62h-2.98v4.59ZM18.05,116.32h3.2c1.09,0,1.89-.21,2.39-.63.5-.42.75-.98.75-1.68,0-.51-.12-.97-.37-1.36-.25-.39-.6-.7-1.06-.92-.46-.22-1-.33-1.63-.33h-3.29v4.93Z"/>
        <path class="cls-1" d="M48.04,110.25c0,2.02-.38,3.75-1.15,5.17-.76,1.42-1.8,2.5-3.12,3.25-1.31.75-2.79,1.12-4.43,1.12s-3.13-.37-4.44-1.12c-1.31-.75-2.35-1.83-3.11-3.25-.76-1.42-1.14-3.14-1.14-5.16s.38-3.75,1.14-5.17c.76-1.42,1.8-2.5,3.11-3.25,1.31-.75,2.79-1.12,4.44-1.12s3.11.37,4.43,1.12c1.31.75,2.35,1.83,3.12,3.25.76,1.42,1.15,3.14,1.15,5.17ZM44.07,110.25c0-1.31-.19-2.42-.58-3.32-.39-.9-.94-1.58-1.64-2.05s-1.54-.7-2.48-.7-1.78.23-2.48.7-1.25,1.15-1.64,2.05c-.39.9-.58,2.01-.58,3.32s.2,2.42.58,3.32c.39.9.94,1.58,1.64,2.05s1.53.7,2.48.7,1.78-.23,2.48-.7,1.25-1.15,1.64-2.05c.39-.9.58-2.01.58-3.32Z"/>
        <path class="cls-1" d="M54.42,119.53l-5.31-18.56h4.29l3.07,12.89h.15l3.39-12.89h3.67l3.38,12.92h.16l3.07-12.92h4.29l-5.31,18.56h-3.82l-3.53-12.13h-.14l-3.53,12.13h-3.82Z"/>
        <path class="cls-1" d="M75.97,104.21v-3.23h15.24v3.23h-5.68v15.32h-3.88v-15.32h-5.68Z"/>
        <path class="cls-1" d="M97.66,100.97v18.56h-3.92v-18.56h3.92Z"/>
        <path class="cls-1" d="M100.89,119.53v-18.56h12.5v3.23h-8.58v4.42h7.94v3.24h-7.94v4.43h8.62v3.23h-12.54Z"/>
      </g>
      <path class="cls-1" d="M113.09,96.74l-58.73-39.87-5.5-3.51-34.4,16.83V24.3l31.2,18.62,3.65,2.33,63.77-31.21v27.77l-13.25,11.9,13.25,12.13v30.9ZM56.32,49.72l1.98,1.27,47.7,32.38v-14.4l-16.72-15.3,16.72-15.01v-13.25l-49.68,24.31ZM21.56,36.79v22.05l20.31-9.94-20.31-12.12Z"/>
    </g>
  </g>
</svg>
