<svg width="16" height="17" viewBox="0 0 16 17" fill="none" xmlns="http://www.w3.org/2000/svg">
<path d="M5.99992 13.1668C2.66659 14.1668 2.66659 11.5001 1.33325 11.1668M10.6666 15.1668V12.5868C10.6916 12.2689 10.6486 11.9493 10.5406 11.6493C10.4325 11.3493 10.2619 11.0757 10.0399 10.8468C12.1333 10.6135 14.3333 9.82012 14.3333 6.18012C14.3331 5.24934 13.975 4.35425 13.3333 3.68012C13.6372 2.86579 13.6157 1.96569 13.2733 1.16679C13.2733 1.16679 12.4866 0.933455 10.6666 2.15345C9.13859 1.73934 7.52791 1.73934 5.99992 2.15345C4.17992 0.933455 3.39325 1.16679 3.39325 1.16679C3.05084 1.96569 3.02935 2.86579 3.33325 3.68012C2.68667 4.35925 2.32827 5.26243 2.33325 6.20012C2.33325 9.81345 4.53325 10.6068 6.62659 10.8668C6.40725 11.0934 6.23809 11.3637 6.13012 11.6601C6.02215 11.9564 5.97779 12.2722 5.99992 12.5868V15.1668" stroke="white" stroke-width="2" stroke-linecap="round" stroke-linejoin="round"/>
</svg>
