<?xml version="1.0" encoding="UTF-8"?>
<!DOCTYPE svg PUBLIC "-//W3C//DTD SVG 1.1//EN" "http://www.w3.org/Graphics/SVG/1.1/DTD/svg11.dtd">
<svg xmlns="http://www.w3.org/2000/svg" version="1.1" width="1000px" height="410px" style="shape-rendering:geometricPrecision; text-rendering:geometricPrecision; image-rendering:optimizeQuality; fill-rule:evenodd; clip-rule:evenodd" xmlns:xlink="http://www.w3.org/1999/xlink">
<g><path style="opacity:0.979" fill="#141012" d="M 147.5,85.5 C 164.199,85.1471 180.866,85.6471 197.5,87C 208.319,88.1623 218.485,91.329 228,96.5C 228.667,98.8333 228.667,101.167 228,103.5C 225.628,114.655 222.795,125.655 219.5,136.5C 218.707,136.931 217.873,137.265 217,137.5C 195.129,130.177 172.963,129.011 150.5,134C 132.256,141.268 121.756,154.768 119,174.5C 114.972,197.077 115.972,219.411 122,241.5C 129.555,262.87 144.722,273.203 167.5,272.5C 174.853,271.965 182.186,271.298 189.5,270.5C 189.5,256.167 189.5,241.833 189.5,227.5C 179.494,227.666 169.494,227.5 159.5,227C 159,226.5 158.5,226 158,225.5C 157.178,211.925 157.344,198.425 158.5,185C 184.739,184.172 210.906,184.339 237,185.5C 237.667,223.833 237.667,262.167 237,300.5C 222.488,309.561 206.655,315.061 189.5,317C 166.301,319.43 143.635,317.097 121.5,310C 96.0238,299.188 79.8572,280.355 73,253.5C 70.4701,244.321 68.8035,234.988 68,225.5C 66.654,203.706 67.654,182.039 71,160.5C 78.9746,117.356 104.475,92.3565 147.5,85.5 Z"/></g>
<g><path style="opacity:0.975" fill="#141012" d="M 450.5,93.5 C 465.504,93.3334 480.504,93.5001 495.5,94C 496,94.5 496.5,95 497,95.5C 497.5,122.165 497.667,148.831 497.5,175.5C 518.167,175.5 538.833,175.5 559.5,175.5C 559.018,148.411 559.518,121.411 561,94.5C 576.426,93.3429 591.926,93.1762 607.5,94C 608.165,130.429 608.498,166.929 608.5,203.5C 608.498,240.071 608.165,276.571 607.5,313C 592.167,313.667 576.833,313.667 561.5,313C 561,312.5 560.5,312 560,311.5C 559.5,280.835 559.333,250.168 559.5,219.5C 538.833,219.5 518.167,219.5 497.5,219.5C 497.667,250.168 497.5,280.835 497,311.5C 496.5,312 496,312.5 495.5,313C 480.5,313.667 465.5,313.667 450.5,313C 450,312.5 449.5,312 449,311.5C 448.333,239.5 448.333,167.5 449,95.5C 449.717,94.9558 450.217,94.2891 450.5,93.5 Z"/></g>
<g><path style="opacity:0.977" fill="#141012" d="M 788.5,93.5 C 803.837,93.3334 819.17,93.5001 834.5,94C 835,94.5 835.5,95 836,95.5C 836.167,119.507 836.667,143.507 837.5,167.5C 857.552,157.479 878.218,155.979 899.5,163C 914.472,170.318 923.972,182.152 928,198.5C 929.385,203.761 930.385,209.094 931,214.5C 931.872,231.199 931.539,247.865 930,264.5C 924.418,305.065 901.251,322.565 860.5,317C 847.314,315.319 835.48,310.485 825,302.5C 824.699,305.974 823.866,309.308 822.5,312.5C 810.938,313.82 799.438,313.82 788,312.5C 787.17,239.43 787.337,166.43 788.5,93.5 Z M 851.5,198.5 C 870.218,195.771 880.718,203.771 883,222.5C 883.667,232.833 883.667,243.167 883,253.5C 881.306,274.5 870.14,282.333 849.5,277C 844.597,276.131 840.097,274.298 836,271.5C 835.167,249.159 835.334,226.826 836.5,204.5C 841.452,202.079 846.452,200.079 851.5,198.5 Z"/></g>
<g><path style="opacity:0.956" fill="#141012" d="M 278.5,98.5 C 295.22,96.5994 306.053,103.599 311,119.5C 311.897,143.604 300.397,154.104 276.5,151C 260.991,144.483 255.158,132.983 259,116.5C 262.545,107.116 269.045,101.116 278.5,98.5 Z"/></g>
<g><path style="opacity:0.971" fill="#141012" d="M 348.5,120.5 C 363.837,120.333 379.17,120.5 394.5,121C 395.49,134.754 395.823,148.588 395.5,162.5C 406.603,162.046 417.603,162.546 428.5,164C 429.655,176.424 429.821,188.924 429,201.5C 428.5,202 428,202.5 427.5,203C 416.839,203.5 406.172,203.667 395.5,203.5C 395.333,224.503 395.5,245.503 396,266.5C 397.01,270.843 399.51,274.01 403.5,276C 407.427,277.155 411.427,277.988 415.5,278.5C 420.06,277.321 424.56,277.321 429,278.5C 430.815,290.103 430.982,301.77 429.5,313.5C 414.696,317.624 399.696,318.457 384.5,316C 362.551,311.381 350.384,297.881 348,275.5C 347.5,251.502 347.333,227.502 347.5,203.5C 339.826,203.666 332.159,203.5 324.5,203C 324,202.5 323.5,202 323,201.5C 322.333,191.5 322.333,181.5 323,171.5C 330.854,168.326 339.021,165.992 347.5,164.5C 347.184,149.755 347.517,135.088 348.5,120.5 Z"/></g>
<g><path style="opacity:0.967" fill="#141012" d="M 263.5,162.5 C 277.504,162.333 291.504,162.5 305.5,163C 306.416,163.374 307.25,163.874 308,164.5C 308.667,213.5 308.667,262.5 308,311.5C 307.5,312 307,312.5 306.5,313C 291.833,313.667 277.167,313.667 262.5,313C 261.107,311.829 260.273,310.329 260,308.5C 259.333,261.167 259.333,213.833 260,166.5C 260.69,164.65 261.856,163.316 263.5,162.5 Z"/></g>
<g><path style="opacity:0.978" fill="#141012" d="M 628.5,163.5 C 644.411,163.175 660.244,163.509 676,164.5C 676.333,197.833 676.667,231.167 677,264.5C 678.867,274.358 684.867,279.025 695,278.5C 703.818,278.133 711.818,275.466 719,270.5C 719.333,235.167 719.667,199.833 720,164.5C 735.436,163.177 750.936,163.177 766.5,164.5C 767.662,213.459 767.828,262.459 767,311.5C 766.5,312 766,312.5 765.5,313C 755.167,313.667 744.833,313.667 734.5,313C 733.58,310.159 732.58,307.326 731.5,304.5C 705.587,318.889 678.587,321.389 650.5,312C 635.711,303.608 628.211,290.775 628,273.5C 627.18,236.792 627.346,200.125 628.5,163.5 Z"/></g>
</svg>
