<svg width="16" height="17" viewBox="0 0 16 17" fill="none" xmlns="http://www.w3.org/2000/svg">
<g clip-path="url(#clip0_51_13164)">
<path d="M7.99992 15.1668C11.6818 15.1668 14.6666 12.1821 14.6666 8.50016C14.6666 4.81826 11.6818 1.8335 7.99992 1.8335C4.31802 1.8335 1.33325 4.81826 1.33325 8.50016C1.33325 12.1821 4.31802 15.1668 7.99992 15.1668Z" stroke="white" stroke-width="2" stroke-linecap="round" stroke-linejoin="round"/>
<path d="M1.33325 8.5H14.6666" stroke="white" stroke-width="2" stroke-linecap="round" stroke-linejoin="round"/>
<path d="M7.99992 1.8335C9.66744 3.65906 10.6151 6.02819 10.6666 8.50016C10.6151 10.9721 9.66744 13.3413 7.99992 15.1668C6.3324 13.3413 5.38475 10.9721 5.33325 8.50016C5.38475 6.02819 6.3324 3.65906 7.99992 1.8335V1.8335Z" stroke="white" stroke-width="2" stroke-linecap="round" stroke-linejoin="round"/>
</g>
<defs>
<clipPath id="clip0_51_13164">
<rect width="16" height="16" fill="white" transform="translate(0 0.5)"/>
</clipPath>
</defs>
</svg>
