<svg width="1161" height="341" viewBox="0 0 1161 341" fill="none" xmlns="http://www.w3.org/2000/svg">
<path d="M341.703 74.0137V68.0167C341.703 65.9808 342.392 64.3151 343.769 63.0195C345.147 61.724 346.754 61.0762 348.591 61.0762H379.728C381.749 61.0762 383.402 61.724 384.688 63.0195C385.974 64.3151 386.617 65.9808 386.617 68.0167V199.31C386.617 201.16 385.974 202.78 384.688 204.168C383.402 205.556 381.749 206.25 379.728 206.25H348.591C346.754 206.25 345.147 205.556 343.769 204.168C342.392 202.78 341.703 201.16 341.703 199.31V192.146C331.63 202.858 322.539 208.214 303.702 208.214C284.694 208.214 270.099 202.76 259.916 191.853C249.733 180.945 244.189 165.422 243.284 145.285C243.133 142.861 243.058 138.665 243.058 132.699C243.058 126.732 243.133 122.537 243.284 120.113C244.189 100.348 249.884 84.919 260.369 73.8247C270.853 62.7304 285.298 57.1833 303.702 57.1833C322.107 57.1833 331.04 62.7304 341.525 73.8247C341.584 73.8876 341.644 73.9506 341.703 74.0137ZM0.0278931 140.26V68.0167C0.0278931 65.9808 0.716747 64.3151 2.09448 63.0195C3.4722 61.724 5.07953 61.0762 6.9165 61.0762H38.8796C40.9003 61.0762 42.5536 61.724 43.8394 63.0195C45.1253 64.3151 45.7682 65.9808 45.7682 68.0167V77.4557C50.177 72.0884 55.8715 67.554 62.852 63.8524C69.8325 60.1508 77.7313 58.3 86.5488 58.3C106.755 58.3 120.624 66.2583 128.156 82.1752C132.565 75.1422 138.718 69.4048 146.617 64.9629C154.516 60.5209 162.966 58.3 171.968 58.3C187.031 58.3 199.292 63.4359 208.753 73.7079C218.213 83.9798 222.943 99.295 222.943 119.654V199.31C222.943 201.16 222.3 202.78 221.014 204.168C219.729 205.556 218.075 206.25 216.055 206.25H182.163C180.142 206.25 178.443 205.602 177.065 204.307C175.687 203.011 174.999 201.345 174.999 199.31V121.597C174.999 113.083 173.208 106.837 169.625 102.858C166.043 98.8786 161.221 96.889 155.159 96.889C149.465 96.889 144.826 98.8786 141.244 102.858C137.662 106.837 135.871 113.083 135.871 121.597V140.26C135.871 143.292 133.427 145.75 130.412 145.75H93.3854C90.3706 145.75 87.9265 143.292 87.9265 140.26V121.597C87.9265 113.083 86.0896 106.837 82.4156 102.858C78.7417 98.8786 73.9656 96.889 68.0873 96.889C62.3927 96.889 57.7085 98.8786 54.0346 102.858C50.3606 106.837 48.5237 112.991 48.5237 121.32V140.26C48.5237 143.292 46.0797 145.75 43.0648 145.75H5.48679C2.47192 145.75 0.0278931 143.292 0.0278931 140.26ZM311.943 172.974C319.531 172.974 325.175 170.596 328.876 165.842C332.578 161.087 334.706 153.769 335.261 143.886C335.446 142.022 335.539 138.293 335.539 132.699C335.539 127.105 335.446 123.376 335.261 121.511C334.706 111.815 332.578 104.544 328.876 99.6957C325.175 94.8478 319.531 92.4239 311.943 92.4239C304.355 92.4239 298.711 94.8478 295.01 99.6957C291.308 104.544 289.18 111.815 288.625 121.511L288.347 132.699L288.625 143.886C289.18 153.769 291.308 161.087 295.01 165.842C298.711 170.596 304.355 172.974 311.943 172.974ZM418.855 140.26V68.0167C418.855 65.9808 419.544 64.3151 420.922 63.0195C422.3 61.724 423.907 61.0762 425.744 61.0762H459.636C461.656 61.0762 463.31 61.724 464.596 63.0195C465.881 64.3151 466.524 65.9808 466.524 68.0167V78.5662C471.484 72.4585 477.868 67.554 485.675 63.8524C493.482 60.1508 502.437 58.3 512.54 58.3C523.011 58.3 532.334 60.706 540.508 65.5181C548.683 70.3302 555.112 77.4557 559.796 86.8948C564.48 96.3339 566.823 107.716 566.823 121.042V199.31C566.823 201.16 566.18 202.78 564.894 204.168C563.608 205.556 561.955 206.25 559.934 206.25H523.287C521.266 206.25 519.567 205.602 518.189 204.307C516.811 203.011 516.122 201.345 516.122 199.31V122.708C516.122 114.379 514.148 107.994 510.198 103.552C506.249 99.11 500.508 96.889 492.977 96.889C485.629 96.889 479.842 99.1563 475.617 103.691C471.392 108.225 469.28 114.564 469.28 122.708V140.26C469.28 143.292 466.836 145.75 463.821 145.75H424.314C421.299 145.75 418.855 143.292 418.855 140.26ZM618.9 206.25C616.88 206.25 615.181 205.602 613.803 204.307C612.425 203.011 611.736 201.345 611.736 199.31V98.8324H591.07C589.05 98.8324 587.351 98.1846 585.973 96.889C584.595 95.5935 583.906 93.9278 583.906 91.8919V68.0167C583.906 65.9808 584.595 64.3151 585.973 63.0195C587.351 61.724 589.05 61.0762 591.07 61.0762H611.736V52.7476C611.736 34.2396 617.063 20.8215 627.718 12.4929C638.372 4.16424 653.619 0 673.458 0H695.226C697.247 0 698.946 0.647771 700.324 1.94333C701.701 3.2389 702.39 4.90459 702.39 6.94048V30.8157C702.39 32.8516 701.701 34.5173 700.324 35.8129C698.946 37.1084 697.247 37.7562 695.226 37.7562H675.663C669.784 37.7562 665.605 39.098 663.125 41.7817C660.645 44.4653 659.405 48.5833 659.405 54.1357V61.0762H692.471C694.491 61.0762 696.191 61.724 697.568 63.0195C698.946 64.3151 699.635 65.9808 699.635 68.0167V91.8919C699.635 93.9278 698.946 95.5935 697.568 96.889C696.191 98.1846 694.491 98.8324 692.471 98.8324H659.405V199.31C659.405 201.16 658.763 202.78 657.477 204.168C656.191 205.556 654.537 206.25 652.517 206.25H618.9ZM716.443 140.26V68.2943C716.443 66.2584 717.086 64.5464 718.372 63.1583C719.658 61.7702 721.311 61.0762 723.332 61.0762H756.948C758.969 61.0762 760.668 61.7702 762.046 63.1583C763.423 64.5464 764.112 66.2584 764.112 68.2943V78.8438C769.256 73.1063 775.272 68.7107 782.16 65.6569C789.049 62.6031 796.718 61.0762 805.168 61.0762H817.568C819.589 61.0762 821.242 61.724 822.528 63.0195C823.814 64.3151 824.457 65.9808 824.457 68.0167V98.2771C824.457 100.128 823.814 101.747 822.528 103.135C821.242 104.524 819.589 105.218 817.568 105.218H789.738C782.39 105.218 776.741 107.253 772.792 111.325C768.842 115.397 766.868 121.134 766.868 128.538V140.26C766.868 143.292 764.424 145.75 761.409 145.75H721.902C718.887 145.75 716.443 143.292 716.443 140.26ZM908.757 207.664C886.346 207.664 868.712 201.603 855.853 189.48C842.994 177.357 836.381 159.729 836.014 136.594V127.988C836.749 105.963 843.545 88.7509 856.404 76.3505C869.263 63.9501 886.622 57.75 908.482 57.75C924.28 57.75 937.644 60.9426 948.574 67.3279C959.504 73.7131 967.678 82.5043 973.097 93.7017C978.516 104.899 981.226 117.623 981.226 131.874V138.815C981.226 140.851 980.537 142.563 979.159 143.951C977.781 145.339 976.082 146.033 974.061 146.033H886.714V147.699C886.898 156.027 888.826 162.736 892.5 167.826C896.174 172.916 901.41 175.46 908.206 175.46C912.615 175.46 916.151 174.581 918.815 172.823C921.478 171.065 924.004 168.798 926.392 166.021C928.046 164.171 929.377 163.014 930.388 162.551C931.398 162.088 933.005 161.857 935.21 161.857H971.306C972.959 161.857 974.383 162.366 975.577 163.384C976.771 164.402 977.368 165.651 977.368 167.132C977.368 171.944 974.659 177.589 969.239 184.067C963.82 190.544 955.922 196.097 945.543 200.724C935.164 205.351 922.902 207.664 908.757 207.664ZM930.525 117.716V117.16C930.525 108.277 928.597 101.382 924.739 96.4779C920.881 91.5732 915.462 89.121 908.482 89.121C901.501 89.121 896.128 91.5732 892.363 96.4779C888.597 101.382 886.714 108.277 886.714 117.16V117.716H930.525ZM1062.29 208.05C1044.47 208.05 1030.47 202.406 1020.27 191.116C1010.08 179.827 1004.61 163.726 1003.88 142.813L1003.6 133.097L1003.88 123.103C1004.61 102.93 1010.12 87.0602 1020.41 75.4932C1030.7 63.9262 1044.66 58.1428 1062.29 58.1428C1078.82 58.1428 1092.14 63.5098 1102.24 74.244V8.31517C1102.24 6.27938 1102.93 4.61375 1104.31 3.31825C1105.69 2.02274 1107.29 1.375 1109.13 1.375H1144.67C1146.69 1.375 1148.39 2.02274 1149.77 3.31825C1151.15 4.61375 1151.84 6.27938 1151.84 8.31517V198.334C1151.84 200.37 1151.15 202.036 1149.77 203.331C1148.39 204.627 1146.69 205.274 1144.67 205.274H1111.89C1110.05 205.274 1108.44 204.58 1107.06 203.192C1105.69 201.804 1105 200.185 1105 198.334V189.728C1095.08 201.943 1080.84 208.05 1062.29 208.05ZM1078.27 169.463C1086.17 169.463 1092.05 166.918 1095.91 161.829C1099.76 156.739 1101.88 150.308 1102.24 142.535C1102.61 137.353 1102.79 133.837 1102.79 131.986C1102.79 129.95 1102.61 126.527 1102.24 121.715C1101.88 114.497 1099.72 108.528 1095.77 103.809C1091.82 99.0898 1085.99 96.7301 1078.27 96.7301C1070.01 96.7301 1064.08 99.1823 1060.5 104.087C1056.92 108.991 1054.85 115.792 1054.3 124.491L1054.02 133.097L1054.3 141.702C1054.85 150.401 1056.92 157.202 1060.5 162.107C1064.08 167.011 1070.01 169.463 1078.27 169.463Z" fill="url(#paint0_linear_7_87)"/>
<path d="M761.366 162.25H721.925C718.911 162.25 716.467 164.708 716.467 167.74V200.76C716.467 203.792 718.911 206.25 721.925 206.25H761.366C764.381 206.25 766.825 203.792 766.825 200.76V167.74C766.825 164.708 764.381 162.25 761.366 162.25Z" fill="#118198"/>
<path d="M463.829 162.25H424.306C421.291 162.25 418.847 164.708 418.847 167.74V200.76C418.847 203.792 421.291 206.25 424.306 206.25H463.829C466.843 206.25 469.287 203.792 469.287 200.76V167.74C469.287 164.708 466.843 162.25 463.829 162.25Z" fill="#136990"/>
<path d="M130.454 162.25H93.3337C90.3188 162.25 87.8748 164.708 87.8748 167.74V200.76C87.8748 203.792 90.3188 206.25 93.3337 206.25H130.454C133.469 206.25 135.913 203.792 135.913 200.76V167.74C135.913 164.708 133.469 162.25 130.454 162.25Z" fill="#1C1F75"/>
<path d="M43.085 162.25H5.50052C2.48566 162.25 0.041626 164.708 0.041626 167.74V200.76C0.041626 203.792 2.48566 206.25 5.50052 206.25H43.085C46.0999 206.25 48.5439 203.792 48.5439 200.76V167.74C48.5439 164.708 46.0999 162.25 43.085 162.25Z" fill="#1F0C6E"/>
<path d="M743.98 323.508C737.66 323.508 732.321 322.116 727.965 319.331C723.608 316.547 720.51 312.703 718.669 307.799L729.53 301.534C732.045 308.011 736.985 311.25 744.348 311.25C747.784 311.25 750.361 310.644 752.079 309.434C753.797 308.223 754.656 306.589 754.656 304.53C754.656 302.291 753.643 300.565 751.619 299.355C749.594 298.083 745.974 296.721 740.758 295.268C735.113 293.573 730.665 291.606 727.413 289.366C723.363 286.4 721.338 282.042 721.338 276.291C721.338 270.479 723.394 265.909 727.505 262.58C731.616 259.129 736.616 257.404 742.507 257.404C747.661 257.404 752.232 258.645 756.221 261.127C760.209 263.609 763.308 267.12 765.516 271.66L754.84 277.744C752.263 272.295 748.152 269.571 742.507 269.571C739.93 269.571 737.874 270.177 736.34 271.387C734.806 272.538 734.039 274.051 734.039 275.927C734.039 277.925 734.868 279.56 736.524 280.831C738.365 282.102 741.617 283.434 746.28 284.826L750.698 286.279C751.496 286.521 752.876 287.036 754.84 287.823C756.681 288.489 758.031 289.124 758.89 289.729C761.896 291.546 763.921 293.422 764.964 295.359C766.56 297.902 767.357 300.898 767.357 304.349C767.357 310.221 765.179 314.882 760.822 318.333C756.466 321.783 750.852 323.508 743.98 323.508Z" fill="#0CA7A6"/>
<path d="M817.99 297.448V258.675H830.691V322.237H821.027L793.415 283.373V322.237H780.714V258.675H790.378L817.99 297.448Z" fill="#0CA7A6"/>
<path d="M879.09 288.095H911.395V292.998C911.395 302.079 908.45 309.434 902.559 315.063C896.669 320.693 889.06 323.508 879.734 323.508C869.794 323.508 861.541 320.33 854.976 313.974C848.471 307.557 845.219 299.748 845.219 290.547C845.219 281.285 848.441 273.446 854.883 267.029C861.387 260.612 869.425 257.404 878.997 257.404C884.949 257.404 890.41 258.736 895.38 261.399C900.35 264.063 904.247 267.664 907.069 272.205L896.209 278.379C894.674 275.776 892.343 273.657 889.214 272.023C886.084 270.389 882.648 269.571 878.905 269.571C872.708 269.571 867.646 271.569 863.719 275.564C859.792 279.439 857.829 284.433 857.829 290.547C857.829 296.54 859.823 301.504 863.811 305.438C867.799 309.313 873.138 311.25 879.825 311.25C884.673 311.25 888.722 310.19 891.975 308.072C895.227 305.953 897.436 302.987 898.602 299.173H879.09V288.095Z" fill="#0CA7A6"/>
<path d="M949.523 323.508C942.345 323.508 936.455 321.51 931.852 317.515C927.25 313.52 924.949 308.162 924.949 301.443V258.675H937.559V300.444C937.559 303.834 938.54 306.498 940.504 308.435C942.529 310.311 945.535 311.25 949.523 311.25C953.512 311.25 956.488 310.311 958.451 308.435C960.476 306.498 961.489 303.834 961.489 300.444V258.675H974.19V301.443C974.19 308.162 971.889 313.52 967.287 317.515C962.685 321.51 956.764 323.508 949.523 323.508Z" fill="#0CA7A6"/>
<path d="M1003.86 258.675V310.251H1028.43V322.237H991.154V258.675H1003.86Z" fill="#0CA7A6"/>
<path d="M1098.19 322.237H1084.38L1080.52 310.796H1054.84L1050.97 322.237H1037.26L1059.81 258.675H1075.55L1098.19 322.237ZM1067.72 273.113L1058.89 299.082H1076.56L1067.72 273.113Z" fill="#0CA7A6"/>
<path d="M1159.02 322.237H1145.31L1132.33 300.172H1122.67V322.237H1109.97V258.675H1135.74C1141.69 258.675 1146.75 260.733 1150.92 264.85C1155.1 268.966 1157.18 273.93 1157.18 279.741C1157.18 283.676 1156.05 287.338 1153.78 290.728C1151.51 294.058 1148.5 296.57 1144.76 298.265L1159.02 322.237ZM1135.74 270.389H1122.67V289.185H1135.74C1138.13 289.185 1140.19 288.277 1141.9 286.461C1143.62 284.584 1144.48 282.344 1144.48 279.741C1144.48 277.138 1143.62 274.929 1141.9 273.113C1140.19 271.297 1138.13 270.389 1135.74 270.389Z" fill="#0CA7A6"/>
<path d="M615.168 264.544H624.288V290.156H624.516C624.972 289.548 625.555 288.94 626.264 288.332C626.973 287.673 627.835 287.065 628.848 286.508C629.861 285.951 631.027 285.495 632.344 285.14C633.661 284.785 635.181 284.608 636.904 284.608C639.488 284.608 641.869 285.115 644.048 286.128C646.227 287.091 648.076 288.433 649.596 290.156C651.167 291.879 652.383 293.905 653.244 296.236C654.105 298.567 654.536 301.075 654.536 303.76C654.536 306.445 654.131 308.953 653.32 311.284C652.509 313.615 651.319 315.641 649.748 317.364C648.177 319.087 646.277 320.455 644.048 321.468C641.819 322.431 639.311 322.912 636.524 322.912C633.94 322.912 631.533 322.405 629.304 321.392C627.075 320.379 625.301 318.757 623.984 316.528H623.832V322H615.168V264.544ZM645.416 303.76C645.416 302.341 645.163 300.973 644.656 299.656C644.2 298.339 643.491 297.173 642.528 296.16C641.616 295.147 640.501 294.336 639.184 293.728C637.867 293.12 636.372 292.816 634.7 292.816C633.028 292.816 631.533 293.12 630.216 293.728C628.899 294.336 627.759 295.147 626.796 296.16C625.884 297.173 625.175 298.339 624.668 299.656C624.212 300.973 623.984 302.341 623.984 303.76C623.984 305.179 624.212 306.547 624.668 307.864C625.175 309.181 625.884 310.347 626.796 311.36C627.759 312.373 628.899 313.184 630.216 313.792C631.533 314.4 633.028 314.704 634.7 314.704C636.372 314.704 637.867 314.4 639.184 313.792C640.501 313.184 641.616 312.373 642.528 311.36C643.491 310.347 644.2 309.181 644.656 307.864C645.163 306.547 645.416 305.179 645.416 303.76Z" fill="#0F8E9D"/>
<path d="M653.919 285.52H663.951L674.135 310.828H674.287L683.407 285.52H692.907L675.655 329.828C674.996 331.551 674.262 333.045 673.451 334.312C672.691 335.629 671.779 336.719 670.715 337.58C669.651 338.492 668.384 339.151 666.915 339.556C665.496 340.012 663.774 340.24 661.747 340.24C659.366 340.24 657.035 339.936 654.755 339.328L655.895 331.12C656.604 331.373 657.339 331.576 658.099 331.728C658.91 331.931 659.72 332.032 660.531 332.032C661.646 332.032 662.583 331.931 663.343 331.728C664.103 331.525 664.736 331.196 665.243 330.74C665.8 330.335 666.256 329.777 666.611 329.068C666.966 328.409 667.346 327.599 667.751 326.636L669.499 322.304L653.919 285.52Z" fill="#0F8E9D"/>
<defs>
<linearGradient id="paint0_linear_7_87" x1="0.0278931" y1="104.107" x2="1151.84" y2="104.107" gradientUnits="userSpaceOnUse">
<stop stop-color="#1F066C"/>
<stop offset="1" stop-color="#08C4B0"/>
</linearGradient>
</defs>
</svg>
