<svg width="74" height="22" viewBox="0 0 74 22" fill="none" xmlns="http://www.w3.org/2000/svg">
<path d="M19.9027 5.46501L10.0467 0.0349873L9.98067 0L9.91467 0.0349873L0.117333 5.43702L0.066 5.46501L0 5.5V16.5L0.066 16.535L9.922 21.965L9.988 22L10.054 21.965L19.778 16.612L19.91 16.542L19.976 16.507V5.5L19.9027 5.46501ZM8.998 1.40649L6.58533 5.38804H1.76733L8.998 1.40649ZM6.18933 6.0458L5.06 7.91412L1.672 6.0458H6.18933ZM5.30933 8.8028L9.29133 11L5.30933 13.1972L3.982 11L5.30933 8.8028ZM4.72267 8.48092L3.59333 10.3492L1.32733 6.6126L4.72267 8.48092ZM0.784667 7.01845L3.19733 11L0.784667 14.9816V7.01845ZM3.586 11.6578L4.71533 13.5261L1.32733 15.3944L3.586 11.6578ZM5.06 14.0859L6.18933 15.9542H1.672L5.06 14.0859ZM1.76733 16.612H6.58533L8.998 20.5935L1.76733 16.612ZM9.64333 20.3486L7.38467 16.612H9.64333V20.3486ZM9.64333 15.9542H6.98133L5.654 13.757L9.636 11.5598V15.9542H9.64333ZM9.64333 10.4332L5.66133 8.236L6.98867 6.0388H9.64333V10.4332ZM9.64333 5.38804H7.38467L9.64333 1.6514V5.38804ZM15.246 8.48092L18.634 6.6126L16.3753 10.3492L15.246 8.48092ZM15.9793 11L14.652 13.1972L10.67 11L14.652 8.8028L15.9793 11ZM14.9013 7.91412L13.772 6.0458H18.2893L14.9013 7.91412ZM18.194 5.38804H13.376L10.9707 1.40649L18.194 5.38804ZM10.3253 1.6514L12.584 5.38804H10.3253V1.6514ZM10.3253 6.0458H12.98L14.3073 8.243L10.3253 10.4402V6.0458ZM10.3253 11.5668L14.3073 13.764L12.98 15.9542H10.3253V11.5668ZM10.3253 16.612H12.584L10.3253 20.3486V16.612ZM10.9707 20.5935L13.376 16.612H18.194L10.9707 20.5935ZM13.772 15.9542L14.9013 14.0859L18.2893 15.9542H13.772ZM15.246 13.5191L16.3753 11.6508L18.634 15.3874L15.246 13.5191ZM19.184 14.9816L16.7713 11L19.184 7.01845V14.9816Z" fill="url(#paint0_linear_51_13082)"/>
<path d="M22.616 14.1838H27.324V14.5897H23.1V17.9835H26.928V18.4033H23.1V21.895H22.616V14.1838Z" fill="white"/>
<path d="M28.1453 19.5719C28.1453 18.2424 29.2599 17.1648 30.6753 17.1648C32.0906 17.1648 33.1833 18.2424 33.1833 19.5719C33.1833 20.9014 32.0906 21.986 30.6753 21.986C29.2599 21.986 28.1453 20.9014 28.1453 19.5719ZM32.7066 19.5719C32.7066 18.4243 31.8853 17.5636 30.6753 17.5636C29.4653 17.5636 28.6219 18.4243 28.6219 19.5719C28.6219 20.7195 29.4653 21.5942 30.6753 21.5942C31.8853 21.5942 32.7066 20.7195 32.7066 19.5719Z" fill="white"/>
<path d="M34.4592 20.1877V17.2697H34.9212V20.1177C34.9212 21.0624 35.3832 21.5942 36.3146 21.5942C37.3632 21.5942 38.0966 20.9224 38.0966 19.8588V17.2697H38.5586V21.902H38.0966L38.1112 20.8804C37.7886 21.5732 37.1212 22 36.2706 22C35.1852 22 34.4592 21.3213 34.4592 20.1877Z" fill="white"/>
<path d="M39.8201 17.2697H40.2821L40.2674 18.3053C40.5901 17.6056 41.2647 17.1718 42.1227 17.1718C43.2081 17.1718 43.9267 17.8645 43.9267 19.0121V21.902H43.4647V19.0891C43.4647 18.1374 43.0027 17.5776 42.0641 17.5776C41.0154 17.5776 40.2821 18.2354 40.2821 19.313V21.902H39.8201V17.2697Z" fill="white"/>
<path d="M45.1953 19.5719C45.1953 18.2074 46.2073 17.1648 47.6006 17.1648C48.5906 17.1648 49.302 17.6756 49.654 18.3683V13.708H50.116V21.902H49.654L49.676 20.7475C49.3313 21.4612 48.532 21.993 47.5933 21.993C46.2073 21.986 45.1953 20.9364 45.1953 19.5719ZM49.6906 19.5719C49.6906 18.4243 48.884 17.5636 47.6593 17.5636C46.4566 17.5636 45.6866 18.4243 45.6866 19.5719C45.6866 20.7195 46.4566 21.5942 47.6593 21.5942C48.884 21.5942 49.6906 20.7195 49.6906 19.5719Z" fill="white"/>
<path d="M54.8535 18.9911C54.8535 17.9485 54.3548 17.5496 53.5555 17.5496C52.8148 17.5496 52.3161 17.8435 51.9715 18.3473L51.6415 18.1234C52.0448 17.5216 52.7341 17.1718 53.5701 17.1718C54.5675 17.1718 55.3155 17.7525 55.3155 18.9561V21.909H54.8535L54.8755 21.1953C54.5675 21.6361 54.0321 22 53.1961 22C52.0888 22 51.3628 21.5102 51.3628 20.5795C51.3628 19.6628 52.2061 19.229 53.1375 19.229H54.8535V18.9911ZM53.1961 19.5859C52.4555 19.5859 51.8321 19.8588 51.8321 20.5585C51.8321 21.2653 52.3161 21.5941 53.2475 21.5941C54.0541 21.5941 54.8535 21.1393 54.8535 20.4256V19.5859H53.1961Z" fill="white"/>
<path d="M57.3833 20.6705V17.6406H56.6206V17.2627H57.3833V15.6393H57.8453V17.2627H59.2459V17.6406H57.8453V20.6565C57.8453 21.3352 58.0946 21.5871 58.4979 21.5871C58.9233 21.5871 59.0919 21.4262 59.2679 21.2443L59.5686 21.5172C59.3339 21.7761 59.0479 21.979 58.4979 21.979C57.8819 21.986 57.3833 21.6151 57.3833 20.6705Z" fill="white"/>
<path d="M60.8301 15.2685C60.8301 15.0515 61.0207 14.8906 61.2261 14.8906C61.4314 14.8906 61.6221 15.0515 61.6221 15.2685C61.6221 15.4924 61.4314 15.6393 61.2261 15.6393C61.0207 15.6463 60.8301 15.4994 60.8301 15.2685ZM60.9987 17.2697H61.4607V21.902H60.9987V17.2697Z" fill="white"/>
<path d="M62.854 19.5719C62.854 18.2424 63.9687 17.1648 65.384 17.1648C66.7993 17.1648 67.892 18.2424 67.892 19.5719C67.892 20.9014 66.7993 21.986 65.384 21.986C63.976 21.986 62.854 20.9014 62.854 19.5719ZM67.4227 19.5719C67.4227 18.4243 66.6013 17.5636 65.3913 17.5636C64.1813 17.5636 63.338 18.4243 63.338 19.5719C63.338 20.7195 64.1813 21.5942 65.3913 21.5942C66.6013 21.5942 67.4227 20.7195 67.4227 19.5719Z" fill="white"/>
<path d="M69.2192 17.2697H69.6812L69.6666 18.3053C69.9892 17.6056 70.6639 17.1718 71.5219 17.1718C72.6072 17.1718 73.3259 17.8645 73.3259 19.0121V21.902H72.8639V19.0891C72.8639 18.1374 72.4019 17.5776 71.4632 17.5776C70.4146 17.5776 69.6812 18.2354 69.6812 19.313V21.902H69.2192V17.2697Z" fill="white"/>
<path d="M22.616 5.11515C22.616 2.2182 24.948 0.125961 27.874 0.125961C30.778 0.125961 33.1173 2.2112 33.1173 5.11515C33.1173 8.01209 30.778 10.1043 27.874 10.1043C24.948 10.0973 22.616 8.01209 22.616 5.11515ZM31.4893 5.11515C31.4893 3.0439 29.9933 1.48347 27.8666 1.48347C25.74 1.48347 24.2293 3.0439 24.2293 5.11515C24.2293 7.18639 25.74 8.74683 27.8666 8.74683C29.9933 8.73983 31.4893 7.18639 31.4893 5.11515Z" fill="white"/>
<path d="M34.7527 3.97455H36.278L36.234 5.08715C36.6374 4.34541 37.3854 3.8416 38.4634 3.8416C40.0767 3.8416 41.382 5.14313 41.382 6.95547C41.382 8.76781 40.062 10.0973 38.434 10.0973C37.3854 10.0973 36.6374 9.6145 36.278 8.94274V13.0013H34.7527V3.97455ZM39.8274 6.95547C39.8274 5.87086 39.138 5.12913 38.0454 5.12913C36.938 5.12913 36.2194 5.87086 36.2194 6.95547C36.2194 8.08206 36.938 8.82379 38.0454 8.82379C39.1454 8.83078 39.8274 8.08905 39.8274 6.95547Z" fill="white"/>
<path d="M46.5667 8.88677C47.388 8.88677 47.9893 8.57189 48.3486 8.24301L49.2286 9.13168C48.642 9.69148 47.8353 10.1043 46.5813 10.1043C44.4253 10.1043 43.032 8.77481 43.032 6.97646C43.032 5.19211 44.4987 3.8486 46.3833 3.8486C48.5247 3.8486 49.7346 5.36005 49.632 7.46629H44.572C44.7553 8.32697 45.4153 8.88677 46.5667 8.88677ZM48.114 6.45865C47.982 5.64695 47.454 5.04517 46.4053 5.04517C45.43 5.04517 44.7553 5.55598 44.5793 6.45865H48.114Z" fill="white"/>
<path d="M51.3113 3.97455H52.8219L52.7926 5.08715C53.1813 4.30343 53.9733 3.8416 54.9193 3.8416C56.3126 3.8416 57.2733 4.78625 57.2733 6.40966V9.96437H55.7626V6.52862C55.7626 5.66793 55.3446 5.17111 54.4573 5.17111C53.4673 5.17111 52.8219 5.74491 52.8219 6.71056V9.96437H51.3113V3.97455Z" fill="white"/>
<path d="M58.9233 8.45993L60.214 7.7042C60.5733 8.31998 60.9913 8.74683 61.7393 8.74683C62.59 8.74683 63.1473 8.36197 63.1473 7.23537V0.258911H64.7313V7.25637C64.7313 9.18766 63.5213 10.0973 61.8127 10.0973C60.302 10.0973 59.4073 9.3556 58.9233 8.45993Z" fill="white"/>
<path d="M66.3594 8.08905L67.6647 7.4033C68.1414 8.15903 68.7574 8.76081 69.9967 8.76081C71.0307 8.76081 71.764 8.229 71.764 7.43129C71.764 6.5916 71.1627 6.21373 70.0554 5.7449L69.3807 5.45801C67.8994 4.82824 66.9974 4.1145 66.9974 2.61704C66.9974 1.17557 68.1634 0.14694 69.8574 0.14694C71.2067 0.139942 72.1234 0.629764 72.732 1.67239L71.4927 2.40012C71.104 1.75635 70.6567 1.45546 69.8574 1.45546C69.0507 1.45546 68.5374 1.92429 68.5374 2.58205C68.5374 3.30979 68.97 3.63867 70.004 4.06552L70.664 4.35241C72.402 5.08015 73.326 5.84987 73.326 7.4103C73.326 9.11068 71.9327 10.0973 70.0187 10.0973C68.09 10.0973 66.924 9.18765 66.3594 8.08905Z" fill="white"/>
<defs>
<linearGradient id="paint0_linear_51_13082" x1="2.10946" y1="3.48688" x2="17.1193" y2="19.2172" gradientUnits="userSpaceOnUse">
<stop offset="0.2145" stop-color="white"/>
<stop offset="0.7067" stop-color="white"/>
<stop offset="1" stop-color="white"/>
</linearGradient>
</defs>
</svg>
