<svg width="75" height="22" viewBox="0 0 75 22" fill="none" xmlns="http://www.w3.org/2000/svg">
<g clip-path="url(#clip0_51_13125)">
<path d="M12.8554 0.0916637C15.969 0.52708 18.5165 1.925 20.4271 4.33125C22.3378 6.76041 23.069 9.51041 22.668 12.5354C22.3378 15.0104 21.2291 17.1417 19.3893 18.8833C17.573 20.625 15.3793 21.6562 12.8082 21.9771C12.4308 22.0229 10.5438 22.0458 10.1428 21.9771C9.97767 21.9542 9.83615 21.9542 9.69462 21.9312C8.37369 21.725 7.12353 21.3125 5.96772 20.6708C4.76474 20.0062 3.70328 19.1812 2.83052 18.15C1.86342 17.0271 1.13219 15.7437 0.68402 14.3458C0.188673 12.8333 0.047145 11.275 0.235849 9.69375C0.400964 8.31875 0.825548 7.0125 1.5096 5.79791C2.26441 4.46875 3.25511 3.32291 4.48168 2.38333C5.66108 1.48958 6.95842 0.847914 8.42087 0.435414C8.86904 0.297914 9.3408 0.206247 9.81256 0.137497C9.85973 0.137497 10.4966 -0.0458363 12.8554 0.0916637ZM11.0863 12.3062C11.0863 12.3062 11.0627 12.3062 11.0391 12.3062C10.5674 12.3979 10.072 12.5125 9.60027 12.6042C9.5295 12.6271 9.45874 12.65 9.38797 12.7187C9.22286 12.8792 9.03416 13.0396 8.86904 13.2C8.27934 13.7729 7.66605 14.3687 7.07635 14.9417C6.72254 15.2854 6.36872 15.6292 6.0149 15.9729C5.96772 16.0187 5.92055 16.0646 5.99131 16.1562C6.34513 16.5 6.69895 16.8437 7.05277 17.1646C7.09994 17.2104 7.14712 17.2333 7.21788 17.1875C7.28865 17.1417 7.26506 17.0958 7.24147 17.0271C7.19429 16.8208 7.14712 16.6375 7.09994 16.4312C7.02918 16.1333 7.05277 16.0875 7.33582 15.95C7.87835 15.6979 8.39728 15.4229 8.91622 15.125C9.95409 14.5521 10.9448 13.9104 11.8647 13.1542C11.9355 13.0854 11.9591 13.0396 11.8883 12.9708C11.676 12.7646 11.4637 12.5812 11.275 12.375C11.1807 12.3292 11.1571 12.3062 11.0863 12.3062ZM14.5537 6.7375C14.1292 6.7375 13.8225 6.92083 13.5159 7.08125C13.0913 7.31041 12.7375 7.60833 12.3601 7.90625C11.4165 8.6625 10.591 9.53333 9.69462 10.3354C9.62385 10.4042 9.62385 10.45 9.69462 10.5187C9.90691 10.725 10.1192 10.9312 10.3315 11.1375C10.4494 11.2521 10.4494 11.2521 10.591 11.1375C11.9119 9.85416 13.2092 8.57083 14.5301 7.31041C14.6717 7.17291 14.8132 7.05833 15.0019 7.0125C15.0255 7.0125 15.0727 6.98958 15.0727 6.94375C15.0727 6.89791 15.0255 6.875 15.0019 6.875C14.8368 6.78333 14.6717 6.71458 14.5537 6.7375ZM15.2378 7.24166C15.1198 7.24166 15.0019 7.2875 14.9076 7.35625C14.766 7.47083 14.6009 7.60833 14.483 7.72291C13.2328 8.9375 11.9826 10.1292 10.7325 11.3437C10.6617 11.4125 10.6617 11.4583 10.7325 11.5042C10.8504 11.5958 10.9448 11.7104 11.0391 11.8021C11.1807 11.9396 11.1807 11.9396 11.3222 11.8021C11.8883 11.3208 12.478 10.8167 13.0441 10.3354C13.6338 9.83125 14.2235 9.35 14.7896 8.84583C15.0727 8.61666 15.3557 8.36458 15.6152 8.1125C15.8039 7.95208 15.8039 7.72291 15.7095 7.51666C15.6624 7.33333 15.4737 7.24166 15.2378 7.24166ZM16.8654 7.44791C16.9833 7.44791 17.1484 7.425 17.3135 7.37916C17.4786 7.31041 17.4786 7.2875 17.3607 7.17291C17.0541 6.875 16.7474 6.55416 16.4172 6.25625C16.2521 6.09583 16.2521 6.07291 16.4172 5.9125C16.8418 5.5 17.2664 5.0875 17.6909 4.675C17.8089 4.56041 17.8089 4.5375 17.6673 4.46875C17.1248 4.14791 16.5351 4.10208 15.969 4.4C15.4029 4.69791 15.0963 5.17916 15.0727 5.775C15.0491 6.69166 15.8511 7.44791 16.8654 7.44791ZM15.8039 8.43333C15.8039 8.41041 15.8039 8.3875 15.7803 8.3875C15.7331 8.3875 15.7095 8.41041 15.686 8.43333C15.1198 8.9375 14.5301 9.41875 13.964 9.92291C13.3743 10.4271 12.7846 10.9312 12.1949 11.4354C11.9355 11.6417 11.6996 11.8708 11.4637 12.0771C11.393 12.1458 11.3694 12.2146 11.4637 12.2833C11.6524 12.4667 11.8411 12.65 12.0298 12.8333C12.1006 12.9021 12.1478 12.9021 12.2185 12.8333C12.2893 12.7646 12.3601 12.6958 12.4308 12.6271C13.2092 11.8937 13.9876 11.1604 14.6953 10.3354C15.0963 9.87708 15.4501 9.39583 15.7095 8.82291C15.7567 8.68541 15.8039 8.54791 15.8039 8.43333ZM18.4693 5.9125C18.4693 5.45416 18.3514 5.15625 18.1391 4.83541C18.0683 4.74375 18.0212 4.74375 17.9504 4.8125C17.5494 5.20208 17.1484 5.61458 16.7238 6.00416C16.6531 6.07291 16.6531 6.11875 16.7238 6.1875C17.0305 6.48541 17.3607 6.78333 17.6673 7.10416C17.7381 7.17291 17.7853 7.17291 17.8561 7.10416C18.257 6.76041 18.4693 6.325 18.4693 5.9125ZM6.65177 17.3021C6.67536 17.3021 6.72254 17.325 6.74612 17.3021C6.76971 17.2562 6.72254 17.2333 6.69895 17.2104C6.41589 16.9354 6.10925 16.6375 5.82619 16.3625C5.73184 16.2708 5.68467 16.2937 5.6139 16.3625C5.37802 16.5917 5.16573 16.7979 4.92985 17.0271C4.88268 17.0729 4.8355 17.0958 4.85909 17.1646C4.88268 17.2104 4.95344 17.2104 5.00062 17.2104C5.0242 17.2104 5.04779 17.2104 5.07138 17.2104C5.59031 17.2333 6.10925 17.2792 6.65177 17.3021ZM8.37369 11.7562H8.39728C8.9398 11.6417 9.48233 11.5271 10.0248 11.4125C10.1428 11.3896 10.1428 11.3437 10.0484 11.275C9.85973 11.0917 9.67103 10.9083 9.48233 10.725C9.38798 10.6333 9.3408 10.6562 9.27003 10.725C8.98698 11.0229 8.68034 11.2979 8.37369 11.5958C8.35011 11.6187 8.30293 11.6646 8.27934 11.7104C8.30293 11.7333 8.32652 11.7562 8.37369 11.7562ZM10.0013 12.2604C10.2607 12.2146 10.5202 12.1458 10.8033 12.0771C10.874 12.0542 10.8504 12.0312 10.8268 11.9854C10.7325 11.8937 10.6145 11.7792 10.5202 11.6875C10.473 11.6417 10.4494 11.6417 10.4023 11.6875C10.2371 11.8479 10.072 11.9854 9.9305 12.1458C9.90691 12.1687 9.88332 12.1917 9.90691 12.2375C9.90691 12.2604 9.9305 12.2604 10.0013 12.2604Z" fill="white"/>
<path d="M74.6322 14.3458C74.5379 14.3687 74.4435 14.4375 74.3492 14.4604C74.0897 14.5062 73.8774 14.3687 73.7359 14.0937C73.4056 13.4979 73.099 12.8792 72.7688 12.2833C72.297 11.3896 71.8252 10.4958 71.3299 9.62499C71.3063 9.60208 71.3063 9.57916 71.2827 9.53333C71.2827 9.51041 71.2591 9.51041 71.2356 9.51041C71.212 9.51041 71.212 9.53333 71.1884 9.55624C71.1884 9.60208 71.1884 9.64791 71.1884 9.69374C71.1884 11.1604 71.1884 12.6271 71.1884 14.0708C71.1884 14.3 71.1412 14.3687 70.9525 14.4375C70.7638 14.5062 70.5043 14.4375 70.41 14.3229C70.3628 14.2542 70.3628 14.1854 70.3628 14.1167C70.3628 13.7271 70.3628 13.3375 70.3628 12.925C70.3628 11.2521 70.3628 9.57916 70.3628 7.88333C70.3628 7.56249 70.5751 7.42499 70.8817 7.49374C71.094 7.53958 71.2356 7.69999 71.3535 7.86041C71.495 8.13541 71.6365 8.41041 71.7781 8.66249C72.1319 9.32708 72.4857 9.99166 72.8395 10.6562C73.1226 11.1833 73.3821 11.7104 73.6651 12.2604C73.7123 12.3292 73.7359 12.3979 73.783 12.4667C73.8302 12.4437 73.8066 12.3979 73.8066 12.375C73.8066 10.8854 73.8066 9.41874 73.8066 7.92916C73.8066 7.56249 74.0897 7.37916 74.4435 7.51666C74.5143 7.53958 74.5614 7.56249 74.6086 7.60833C74.6322 9.87708 74.6322 12.1229 74.6322 14.3458Z" fill="white"/>
<path d="M58.899 9.35C58.8518 9.35 58.8518 9.39583 58.8283 9.41875C58.3801 10.2437 57.9555 11.0458 57.5073 11.8708C57.4366 12.0083 57.3658 12.1229 57.2007 12.1458C57.0356 12.1687 56.9412 12.0771 56.8469 11.9396C56.7289 11.7333 56.6346 11.5271 56.5166 11.3208C56.1628 10.6792 55.8326 10.0146 55.4788 9.37291C55.4552 9.35 55.4552 9.32708 55.4316 9.30416C55.3844 9.37291 55.408 9.41875 55.408 9.4875C55.408 11 55.408 12.5125 55.408 14.0479C55.408 14.2083 55.3844 14.3687 55.2193 14.4604C55.0306 14.5521 54.8419 14.5292 54.6768 14.4146C54.5824 14.3687 54.5588 14.2771 54.5588 14.1854C54.5588 13.8417 54.5588 13.4979 54.5588 13.1542C54.5588 11.4354 54.5588 9.73958 54.5588 8.02083C54.5588 7.76875 54.6532 7.60833 54.8655 7.58541C55.1014 7.5625 55.3137 7.60833 55.4788 7.79166C55.5259 7.86041 55.5731 7.90625 55.6203 7.975C55.8562 8.43333 56.1156 8.86875 56.3515 9.32708C56.611 9.80833 56.8705 10.2896 57.1299 10.7708C57.1535 10.7937 57.1535 10.8396 57.2007 10.8396C57.2479 10.8396 57.2479 10.7937 57.2715 10.7708C57.7432 9.87708 58.2386 9.00625 58.7103 8.1125C58.8047 7.92916 58.899 7.76875 59.0877 7.65416C59.1349 7.63125 59.1821 7.60833 59.2293 7.58541C59.5831 7.49375 59.819 7.60833 59.819 7.99791C59.819 10.0375 59.819 12.0771 59.819 14.0937C59.819 14.4146 59.6067 14.5062 59.3472 14.4833C59.0405 14.4604 58.9698 14.3687 58.9698 14.0708C58.9698 12.5583 58.9698 11.0458 58.9698 9.53333C58.9226 9.46458 58.9462 9.39583 58.899 9.35Z" fill="white"/>
<path d="M37.7406 11.0229C37.7406 11.5042 37.7406 11.9854 37.7406 12.4667C37.7406 12.8333 37.6934 13.1771 37.5283 13.5208C37.316 13.9792 36.915 14.2542 36.4433 14.3917C35.6649 14.6438 34.9336 14.5521 34.226 14.1396C33.8014 13.8875 33.6127 13.475 33.542 13.0167C33.4948 12.7646 33.4712 12.4896 33.4712 12.2375C33.4712 11.3896 33.4712 10.5646 33.4712 9.71667C33.4712 9.46458 33.4948 9.2125 33.542 8.96042C33.6599 8.41042 33.943 7.99792 34.4855 7.74583C35.2875 7.40208 36.0659 7.425 36.8443 7.81458C37.3396 8.06667 37.5755 8.50208 37.6698 9.00625C37.717 9.25833 37.717 9.51042 37.717 9.7625C37.7406 10.1979 37.7406 10.6104 37.7406 11.0229ZM36.8679 11.0458C36.8679 10.5188 36.8914 9.99167 36.8679 9.44167C36.8443 8.84583 36.5376 8.43333 35.9715 8.29583C35.8064 8.25 35.6649 8.25 35.4998 8.27292C34.7449 8.31875 34.3675 8.84583 34.3675 9.44167C34.3439 10.5188 34.3675 11.5729 34.3675 12.65C34.3675 12.8563 34.4147 13.0625 34.5326 13.2458C34.8629 13.7042 35.3346 13.8188 35.8772 13.7271C36.514 13.6125 36.8679 13.1771 36.8679 12.5583C36.8679 12.0542 36.8679 11.55 36.8679 11.0458Z" fill="white"/>
<path d="M65.0554 7.53958C65.3857 7.53958 65.5036 7.60833 65.598 7.92916C66.2348 9.92291 66.8717 11.9167 67.5086 13.9104C67.6265 14.3 67.485 14.4833 67.0604 14.4833C66.8245 14.4833 66.7538 14.4375 66.683 14.1625C66.5887 13.8187 66.4707 13.4979 66.3764 13.1542C66.3056 12.925 66.3056 12.925 66.0461 12.925C65.3385 12.925 64.6545 12.925 63.9468 12.925C63.8289 12.925 63.7581 12.9708 63.7345 13.0854C63.6402 13.4521 63.5222 13.8187 63.4043 14.1854C63.3571 14.3229 63.3099 14.4833 63.1212 14.5292C62.9325 14.5521 62.7438 14.4833 62.6023 14.3458C62.5315 14.2771 62.5315 14.1854 62.5551 14.0937C62.6731 13.75 62.7674 13.3833 62.8854 13.0396C63.4279 11.3667 63.9468 9.69375 64.4893 8.02083C64.6309 7.60833 64.7016 7.53958 65.0554 7.53958ZM65.0554 8.8C65.0319 8.84583 65.0083 8.89166 65.0083 8.91458C64.678 9.96875 64.3478 11.0229 64.0412 12.0771C63.994 12.1917 64.0412 12.2375 64.1591 12.2375C64.7724 12.2375 65.3621 12.2375 65.9754 12.2375C66.1405 12.2375 66.1405 12.2146 66.0933 12.0771C65.7867 11.1146 65.5036 10.1292 65.197 9.16666C65.1498 9.05208 65.1498 8.9375 65.0554 8.8Z" fill="white"/>
<path d="M26.4185 10.9771C26.4185 9.94584 26.4185 8.89167 26.4185 7.86042C26.4185 7.60834 26.4892 7.51667 26.7251 7.51667C27.5035 7.51667 28.2819 7.44792 29.0603 7.5625C30.051 7.7 30.6171 8.34167 30.6643 9.32709C30.6879 9.64792 30.6879 9.96875 30.6171 10.2896C30.4756 11.0458 29.9802 11.4813 29.2726 11.6875C28.9895 11.7792 28.7065 11.8021 28.3998 11.8021C28.0696 11.8021 27.7158 11.825 27.3856 11.7792C27.2912 11.7563 27.2676 11.825 27.2676 11.8938C27.2676 12.1458 27.2676 12.3979 27.2676 12.65C27.2676 13.1313 27.2676 13.6125 27.2676 14.0938C27.2676 14.3 27.2204 14.3917 27.0317 14.4604C26.843 14.5292 26.56 14.4833 26.4656 14.3688C26.4185 14.3 26.4185 14.2313 26.4185 14.1396C26.4185 13.0625 26.4185 12.0313 26.4185 10.9771ZM28.0696 8.27292C27.8337 8.27292 27.645 8.27292 27.4563 8.27292C27.3148 8.27292 27.2676 8.31875 27.2676 8.43334C27.2676 8.84584 27.2676 9.25834 27.244 9.69375C27.2204 10.1063 27.244 10.4958 27.244 10.9083C27.244 11.0229 27.2912 11.0458 27.4092 11.0458C27.5035 11.0458 27.5743 11.0229 27.6686 11.0458C28.0224 11.0688 28.3763 11.0688 28.7301 11.0458C29.2726 11 29.6972 10.6104 29.8151 10.1063C29.8623 9.87709 29.8623 9.64792 29.8387 9.41875C29.7915 8.86875 29.367 8.43334 28.8008 8.34167C28.5414 8.27292 28.2819 8.29584 28.0696 8.27292Z" fill="white"/>
<path d="M42.6943 14.575C42.0338 14.575 41.4205 14.4375 40.9016 14.0021C40.76 13.8875 40.6421 13.7729 40.5949 13.5896C40.5242 13.3833 40.6421 13.1542 40.8072 13.0625C40.9252 12.9938 41.0431 13.0396 41.1374 13.1083C41.2082 13.1771 41.279 13.2688 41.3733 13.3375C41.9158 13.7729 42.5291 13.9333 43.2132 13.6813C44.1803 13.3375 44.1331 12.2146 43.5198 11.7104C43.166 11.4354 42.765 11.275 42.3404 11.1146C41.9866 10.9771 41.6328 10.8625 41.3497 10.6104C40.8308 10.1521 40.6893 9.60208 40.7836 8.96042C40.9016 8.31875 41.279 7.88333 41.9158 7.67708C42.6707 7.425 43.4255 7.47083 44.1803 7.72292C44.2746 7.74583 44.369 7.81458 44.4633 7.88333C44.7464 8.08958 44.6049 8.50208 44.369 8.61667C44.2982 8.6625 44.2275 8.63958 44.1567 8.59375C43.9444 8.50208 43.7321 8.43333 43.4962 8.36458C43.0717 8.25 42.6471 8.25 42.2461 8.41042C41.6328 8.61667 41.4441 9.25833 41.8215 9.78542C41.9866 10.0146 42.2225 10.175 42.482 10.2667C42.8358 10.4042 43.1896 10.5417 43.5198 10.6792C44.4869 11.0917 44.8879 11.8938 44.7936 12.8563C44.77 13.2 44.6756 13.5208 44.4869 13.7958C44.1567 14.2542 43.7085 14.4604 43.166 14.575C43.0245 14.575 42.8594 14.575 42.6943 14.575Z" fill="white"/>
<path d="M49.9356 11.3208C49.9356 12.2375 49.9356 13.1771 49.9356 14.0937C49.9356 14.3687 49.8177 14.4604 49.5346 14.4833C49.228 14.4833 49.0865 14.3687 49.0865 14.0937C49.0865 12.2375 49.0865 10.3812 49.0865 8.50208C49.0865 8.29583 49.0865 8.29583 48.8742 8.29583C48.4732 8.29583 48.0486 8.29583 47.6476 8.29583C47.3174 8.29583 47.1287 7.99791 47.2702 7.7C47.341 7.5625 47.4589 7.51666 47.6004 7.51666C47.9071 7.51666 48.2137 7.51666 48.544 7.51666C49.4875 7.51666 50.431 7.51666 51.3745 7.51666C51.6811 7.51666 51.8463 7.74583 51.7755 8.04375C51.7283 8.22708 51.6104 8.29583 51.4217 8.31875C50.9971 8.31875 50.5725 8.31875 50.1243 8.31875C49.9356 8.31875 49.9356 8.31875 49.9356 8.50208C49.9356 9.41875 49.9356 10.3583 49.9356 11.3208Z" fill="white"/>
<path d="M18.1864 5.88958C18.1864 6.05 18.1392 6.16458 18.0684 6.27916C18.0212 6.34791 17.9269 6.39375 17.8561 6.34791C17.7618 6.30208 17.7854 6.21041 17.8325 6.16458C17.9033 6.02708 17.9269 5.86666 17.8797 5.70625C17.8561 5.6375 17.8797 5.56875 17.9505 5.52291C18.0448 5.5 18.092 5.54583 18.1392 5.61458C18.1628 5.68333 18.1864 5.775 18.1864 5.88958Z" fill="white"/>
</g>
<defs>
<clipPath id="clip0_51_13125">
<rect width="74.6087" height="22" fill="white"/>
</clipPath>
</defs>
</svg>
