<svg width="88" height="22" viewBox="0 0 88 22" fill="none" xmlns="http://www.w3.org/2000/svg">
<g clip-path="url(#clip0_51_13107)">
<path d="M28.1848 17.2362L29.2804 14.7417C30.4643 15.6079 32.037 16.0583 33.592 16.0583C34.7406 16.0583 35.4651 15.6252 35.4651 14.9669C35.4475 13.1307 28.5912 14.5685 28.5382 9.96063C28.5206 7.62205 30.641 5.82048 33.6451 5.82048C35.4298 5.82048 37.2145 6.25355 38.4868 7.24095L37.4619 9.78741C36.2957 9.05985 34.8467 8.54016 33.4683 8.54016C32.5318 8.54016 31.9133 8.97323 31.9133 9.52756C31.931 11.3291 38.8402 10.3417 38.9109 14.7417C38.9109 17.1323 36.8434 18.8126 33.8748 18.8126C31.7013 18.8126 29.7045 18.3102 28.1848 17.2362ZM70.2234 13.8409C69.6756 14.7764 68.6507 15.4173 67.4667 15.4173C65.7173 15.4173 64.3037 14.0315 64.3037 12.3165C64.3037 10.6016 65.7173 9.21575 67.4667 9.21575C68.6507 9.21575 69.6756 9.8567 70.2234 10.7921L73.2451 9.14646C72.1141 7.17166 69.9406 5.82048 67.4667 5.82048C63.8089 5.82048 60.8402 8.73071 60.8402 12.3165C60.8402 15.9024 63.8089 18.8126 67.4667 18.8126C69.9583 18.8126 72.1141 17.4787 73.2451 15.4866L70.2234 13.8409ZM40.4306 0.433075H44.2121V18.5701H40.4306V0.433075ZM74.7294 0.433075V18.5701H78.5109V13.1307L82.9993 18.5701H87.841L82.1334 12.1087L87.4169 6.08032H82.7872L78.5109 11.0866V0.433075H74.7294ZM55.4507 13.8756C54.9029 14.7591 53.772 15.4173 52.4997 15.4173C50.7503 15.4173 49.3366 14.0315 49.3366 12.3165C49.3366 10.6016 50.7503 9.21575 52.4997 9.21575C53.772 9.21575 54.9029 9.90867 55.4507 10.8095V13.8756ZM55.4507 6.08032V7.55276C54.8322 6.53071 53.2949 5.82048 51.6868 5.82048C48.3647 5.82048 45.7495 8.69607 45.7495 12.2992C45.7495 15.9024 48.3647 18.8126 51.6868 18.8126C53.2949 18.8126 54.8322 18.1024 55.4507 17.0803V18.5528H59.2322V6.08032H55.4507Z" fill="white"/>
<path d="M4.80691 13.8583C4.80691 15.1228 3.76434 16.1449 2.47438 16.1449C1.18442 16.1449 0.141846 15.1228 0.141846 13.8583C0.141846 12.5937 1.18442 11.5717 2.47438 11.5717H4.80691V13.8583ZM5.97317 13.8583C5.97317 12.5937 7.01574 11.5717 8.3057 11.5717C9.59566 11.5717 10.6382 12.5937 10.6382 13.8583V19.5748C10.6382 20.8394 9.59566 21.8614 8.3057 21.8614C7.01574 21.8614 5.97317 20.8394 5.97317 19.5748V13.8583Z" fill="white"/>
<path d="M8.3053 4.67717C7.01535 4.67717 5.97277 3.65512 5.97277 2.39056C5.97277 1.12599 7.01535 0.103943 8.3053 0.103943C9.59526 0.103943 10.6378 1.12599 10.6378 2.39056V4.67717H8.3053ZM8.3053 5.8378C9.59526 5.8378 10.6378 6.85985 10.6378 8.12442C10.6378 9.38898 9.59526 10.411 8.3053 10.411H2.45631C1.16635 10.411 0.123779 9.38898 0.123779 8.12442C0.123779 6.85985 1.16635 5.8378 2.45631 5.8378H8.3053Z" fill="white"/>
<path d="M17.6531 8.12442C17.6531 6.85985 18.6957 5.8378 19.9856 5.8378C21.2756 5.8378 22.3182 6.85985 22.3182 8.12442C22.3182 9.38898 21.2756 10.411 19.9856 10.411H17.6531V8.12442ZM16.4868 8.12442C16.4868 9.38898 15.4443 10.411 14.1543 10.411C12.8643 10.411 11.8218 9.38898 11.8218 8.12442V2.39056C11.8218 1.12599 12.8643 0.103943 14.1543 0.103943C15.4443 0.103943 16.4868 1.12599 16.4868 2.39056V8.12442Z" fill="white"/>
<path d="M14.1543 17.2882C15.4443 17.2882 16.4868 18.3102 16.4868 19.5748C16.4868 20.8394 15.4443 21.8614 14.1543 21.8614C12.8643 21.8614 11.8218 20.8394 11.8218 19.5748V17.2882H14.1543ZM14.1543 16.1449C12.8643 16.1449 11.8218 15.1228 11.8218 13.8583C11.8218 12.5937 12.8643 11.5717 14.1543 11.5717H20.0033C21.2933 11.5717 22.3358 12.5937 22.3358 13.8583C22.3358 15.1228 21.2933 16.1449 20.0033 16.1449H14.1543Z" fill="white"/>
</g>
<defs>
<clipPath id="clip0_51_13107">
<rect width="88" height="22" fill="white"/>
</clipPath>
</defs>
</svg>
