<svg width="16" height="17" viewBox="0 0 16 17" fill="none" xmlns="http://www.w3.org/2000/svg">
<g clip-path="url(#clip0_51_13149)">
<path d="M9.66675 7.16683C9.11341 7.16683 8.66675 6.72016 8.66675 6.16683V2.8335C8.66675 2.28016 9.11341 1.8335 9.66675 1.8335C10.2201 1.8335 10.6667 2.28016 10.6667 2.8335V6.16683C10.6667 6.72016 10.2201 7.16683 9.66675 7.16683Z" stroke="white" stroke-width="2" stroke-miterlimit="10" stroke-linecap="round" stroke-linejoin="round"/>
<path d="M13.6667 7.1665H12.6667V6.1665C12.6667 5.61317 13.1134 5.1665 13.6667 5.1665C14.2201 5.1665 14.6667 5.61317 14.6667 6.1665C14.6667 6.71984 14.2201 7.1665 13.6667 7.1665Z" stroke="white" stroke-width="2" stroke-miterlimit="10" stroke-linecap="round" stroke-linejoin="round"/>
<path d="M6.33325 9.8335C6.88659 9.8335 7.33325 10.2802 7.33325 10.8335V14.1668C7.33325 14.7202 6.88659 15.1668 6.33325 15.1668C5.77992 15.1668 5.33325 14.7202 5.33325 14.1668V10.8335C5.33325 10.2802 5.77992 9.8335 6.33325 9.8335Z" stroke="white" stroke-width="2" stroke-miterlimit="10" stroke-linecap="round" stroke-linejoin="round"/>
<path d="M2.33325 9.8335H3.33325V10.8335C3.33325 11.3868 2.88659 11.8335 2.33325 11.8335C1.77992 11.8335 1.33325 11.3868 1.33325 10.8335C1.33325 10.2802 1.77992 9.8335 2.33325 9.8335Z" stroke="white" stroke-width="2" stroke-miterlimit="10" stroke-linecap="round" stroke-linejoin="round"/>
<path d="M9.33325 10.1665C9.33325 9.61317 9.77992 9.1665 10.3333 9.1665H13.6666C14.2199 9.1665 14.6666 9.61317 14.6666 10.1665C14.6666 10.7198 14.2199 11.1665 13.6666 11.1665H10.3333C9.77992 11.1665 9.33325 10.7198 9.33325 10.1665Z" stroke="white" stroke-width="2" stroke-miterlimit="10" stroke-linecap="round" stroke-linejoin="round"/>
<path d="M10.3333 13.1665H9.33325V14.1665C9.33325 14.7198 9.77992 15.1665 10.3333 15.1665C10.8866 15.1665 11.3333 14.7198 11.3333 14.1665C11.3333 13.6132 10.8866 13.1665 10.3333 13.1665Z" stroke="white" stroke-width="2" stroke-miterlimit="10" stroke-linecap="round" stroke-linejoin="round"/>
<path d="M6.66658 6.8335C6.66658 6.28016 6.21992 5.8335 5.66659 5.8335H2.33325C1.77992 5.8335 1.33325 6.28016 1.33325 6.8335C1.33325 7.38683 1.77992 7.8335 2.33325 7.8335H5.66659C6.21992 7.8335 6.66658 7.38683 6.66658 6.8335Z" stroke="white" stroke-width="2" stroke-miterlimit="10" stroke-linecap="round" stroke-linejoin="round"/>
<path d="M5.66675 3.8335H6.66675V2.8335C6.66675 2.28016 6.22008 1.8335 5.66675 1.8335C5.11341 1.8335 4.66675 2.28016 4.66675 2.8335C4.66675 3.38683 5.11341 3.8335 5.66675 3.8335Z" stroke="white" stroke-width="2" stroke-miterlimit="10" stroke-linecap="round" stroke-linejoin="round"/>
</g>
<defs>
<clipPath id="clip0_51_13149">
<rect width="16" height="16" fill="white" transform="translate(0 0.5)"/>
</clipPath>
</defs>
</svg>
