<svg width="194" height="49" viewBox="0 0 194 49" fill="none" xmlns="http://www.w3.org/2000/svg">
<g clip-path="url(#clip0_51_13021)">
<path d="M62.1345 38.3898L64.5498 32.8339C67.1598 34.763 70.6269 35.7662 74.055 35.7662C76.5871 35.7662 78.1843 34.8016 78.1843 33.3355C78.1454 29.2457 63.0305 32.4481 62.9136 22.1851C62.8747 16.9764 67.5494 12.9638 74.1719 12.9638C78.1064 12.9638 82.0409 13.9284 84.8458 16.1276L82.5863 21.7992C80.0152 20.1788 76.8209 19.0213 73.7823 19.0213C71.7177 19.0213 70.3542 19.9859 70.3542 21.2205C70.3932 25.2331 85.6249 23.0339 85.7807 32.8339C85.7807 38.1583 81.2229 41.9008 74.6783 41.9008C69.8867 41.9008 65.4847 40.7819 62.1345 38.3898ZM154.81 30.8276C153.603 32.9111 151.343 34.3386 148.733 34.3386C144.877 34.3386 141.76 31.252 141.76 27.4323C141.76 23.6126 144.877 20.526 148.733 20.526C151.343 20.526 153.603 21.9536 154.81 24.037L161.472 20.3717C158.979 15.9733 154.187 12.9638 148.733 12.9638C140.669 12.9638 134.125 19.4457 134.125 27.4323C134.125 35.4189 140.669 41.9008 148.733 41.9008C154.226 41.9008 158.979 38.93 161.472 34.4929L154.81 30.8276ZM89.1309 0.9646H97.4675V41.3607H89.1309V0.9646ZM164.744 0.9646V41.3607H173.081V29.2457L182.975 41.3607H193.649L181.067 26.9693L192.714 13.5426H182.508L173.081 24.6929V0.9646H164.744ZM122.243 30.9048C121.036 32.8725 118.543 34.3386 115.738 34.3386C111.881 34.3386 108.765 31.252 108.765 27.4323C108.765 23.6126 111.881 20.526 115.738 20.526C118.543 20.526 121.036 22.0693 122.243 24.0756V30.9048ZM122.243 13.5426V16.8221C120.88 14.5457 117.491 12.9638 113.946 12.9638C106.622 12.9638 100.857 19.3685 100.857 27.3937C100.857 35.4189 106.622 41.9008 113.946 41.9008C117.491 41.9008 120.88 40.3189 122.243 38.0426V41.3221H130.58V13.5426H122.243Z" fill="black"/>
<path d="M10.5961 30.8661C10.5961 33.6826 8.29771 35.959 5.45394 35.959C2.61016 35.959 0.311768 33.6826 0.311768 30.8661C0.311768 28.0496 2.61016 25.7732 5.45394 25.7732H10.5961V30.8661ZM13.1672 30.8661C13.1672 28.0496 15.4656 25.7732 18.3094 25.7732C21.1531 25.7732 23.4515 28.0496 23.4515 30.8661V43.5984C23.4515 46.4149 21.1531 48.6913 18.3094 48.6913C15.4656 48.6913 13.1672 46.4149 13.1672 43.5984V30.8661Z" fill="#E01E5A"/>
<path d="M18.3092 10.4173C15.4655 10.4173 13.1671 8.14089 13.1671 5.32436C13.1671 2.50782 15.4655 0.231445 18.3092 0.231445C21.153 0.231445 23.4514 2.50782 23.4514 5.32436V10.4173H18.3092ZM18.3092 13.0023C21.153 13.0023 23.4514 15.2787 23.4514 18.0952C23.4514 20.9118 21.153 23.1881 18.3092 23.1881H5.41487C2.5711 23.1881 0.272705 20.9118 0.272705 18.0952C0.272705 15.2787 2.5711 13.0023 5.41487 13.0023H18.3092Z" fill="#36C5F0"/>
<path d="M38.9169 18.0952C38.9169 15.2787 41.2153 13.0023 44.0591 13.0023C46.9029 13.0023 49.2013 15.2787 49.2013 18.0952C49.2013 20.9118 46.9029 23.1881 44.0591 23.1881H38.9169V18.0952ZM36.3459 18.0952C36.3459 20.9118 34.0475 23.1881 31.2037 23.1881C28.3599 23.1881 26.0615 20.9118 26.0615 18.0952V5.32436C26.0615 2.50782 28.3599 0.231445 31.2037 0.231445C34.0475 0.231445 36.3459 2.50782 36.3459 5.32436V18.0952Z" fill="#2EB67D"/>
<path d="M31.2037 38.5055C34.0475 38.5055 36.3459 40.7819 36.3459 43.5984C36.3459 46.4149 34.0475 48.6913 31.2037 48.6913C28.3599 48.6913 26.0615 46.4149 26.0615 43.5984V38.5055H31.2037ZM31.2037 35.959C28.3599 35.959 26.0615 33.6826 26.0615 30.8661C26.0615 28.0496 28.3599 25.7732 31.2037 25.7732H44.0981C46.9418 25.7732 49.2402 28.0496 49.2402 30.8661C49.2402 33.6826 46.9418 35.959 44.0981 35.959H31.2037Z" fill="#ECB22E"/>
</g>
<defs>
<clipPath id="clip0_51_13021">
<rect width="194" height="49" fill="white"/>
</clipPath>
</defs>
</svg>
