<?xml version="1.0" encoding="UTF-8"?>
<!-- Generator: Adobe Illustrator 25.4.1, SVG Export Plug-In . SVG Version: 6.00 Build 0)  -->
<svg xmlns="http://www.w3.org/2000/svg" xmlns:xlink="http://www.w3.org/1999/xlink" version="1.1" id="Capa_1" x="0px" y="0px" viewBox="0 0 512 512" style="enable-background:new 0 0 512 512;" xml:space="preserve" width="512" height="512">
<g>
	<path style="fill:#FF185B;" d="M107.789,323.368c0,29.762-24.133,53.895-53.895,53.895C24.133,377.263,0,353.13,0,323.368   s24.133-53.895,53.895-53.895h53.895V323.368z"/>
	<path style="fill:#FF185B;" d="M134.737,323.368c0-29.762,24.133-53.895,53.895-53.895s53.895,24.133,53.895,53.895v134.737   c0,29.762-24.133,53.895-53.895,53.895s-53.895-24.133-53.895-53.895V323.368z"/>
	<path style="fill:#00C5F1;" d="M188.632,107.789c-29.762,0-53.895-24.133-53.895-53.895C134.737,24.133,158.87,0,188.632,0   s53.895,24.133,53.895,53.895v53.895H188.632z"/>
	<path style="fill:#00C5F1;" d="M188.632,134.737c29.762,0,53.895,24.133,53.895,53.895s-24.133,53.895-53.895,53.895H53.895   C24.133,242.526,0,218.393,0,188.632s24.133-53.895,53.895-53.895H188.632z"/>
	<path style="fill:#00B67B;" d="M404.211,188.632c0-29.762,24.133-53.895,53.895-53.895c29.762,0,53.895,24.133,53.895,53.895   s-24.133,53.895-53.895,53.895h-53.895V188.632z"/>
	<path style="fill:#00B67B;" d="M377.263,188.632c0,29.762-24.133,53.895-53.895,53.895s-53.895-24.133-53.895-53.895V53.895   C269.474,24.133,293.607,0,323.368,0s53.895,24.133,53.895,53.895V188.632z"/>
	<path style="fill:#FFB20F;" d="M323.368,404.211c29.762,0,53.895,24.133,53.895,53.895c0,29.762-24.133,53.895-53.895,53.895   s-53.895-24.133-53.895-53.895v-53.895H323.368z"/>
	<path style="fill:#FFB20F;" d="M323.368,377.263c-29.762,0-53.895-24.133-53.895-53.895s24.133-53.895,53.895-53.895h134.737   c29.762,0,53.895,24.133,53.895,53.895s-24.133,53.895-53.895,53.895H323.368z"/>
</g>















</svg>
