<svg width="87" height="22" viewBox="0 0 87 22" fill="none" xmlns="http://www.w3.org/2000/svg">
<g clip-path="url(#clip0_51_13114)">
<path fill-rule="evenodd" clip-rule="evenodd" d="M31.1414 19.9879C28.7296 19.9879 27.4245 18.8145 27.4245 16.6247V10.2031H26.5835C26.1824 10.1985 25.7957 10.0414 25.5154 9.76881C25.235 9.49624 25.0804 9.13128 25.09 8.75245C25.1094 7.99017 25.7715 7.38035 26.5835 7.37573H27.4245V5.46311C27.497 4.61306 28.2511 3.95242 29.1597 3.95242C30.0684 3.95242 30.8272 4.60844 30.8949 5.46311V7.37573H32.2483C32.6347 7.38643 33.0019 7.53952 33.2731 7.80298C33.5442 8.06644 33.6983 8.41988 33.7031 8.78941C33.6983 9.15894 33.5442 9.51238 33.2731 9.77584C33.0019 10.0393 32.6347 10.1924 32.2483 10.2031H30.8949V15.7561C30.8949 16.7263 31.5474 17.1051 32.0888 17.1051H32.3884C33.3648 17.1051 33.9109 17.715 33.9109 18.5096C33.9109 19.3042 33.3938 19.9879 31.1414 19.9879Z" fill="white"/>
<path d="M41.9922 19.9879C37.6809 19.9879 35.0757 17.0312 35.0757 13.5155C35.0757 10.0275 37.6857 7.07081 41.9922 7.07081C46.3326 7.07081 48.9378 10.0275 48.9378 13.5155C48.9668 14.3872 48.8056 15.2551 48.4645 16.064C48.1234 16.8729 47.6098 17.6051 46.9565 18.2139C46.3032 18.8227 45.5244 19.2949 44.6697 19.6003C43.815 19.9057 42.9032 20.0377 41.9922 19.9879ZM41.9922 9.94898C39.8462 9.94898 38.6572 11.6029 38.6572 13.5155C38.6572 15.4281 39.8511 17.1144 41.9922 17.1144C44.1334 17.1144 45.3563 15.4605 45.3563 13.5155C45.3563 11.6029 44.1334 9.94898 41.9922 9.94898ZM61.1131 19.8355H60.8424C60.5717 19.8355 59.3489 19.6322 59.3489 18.4079C58.4547 19.4012 56.9129 19.9879 55.2018 19.9879C53.1138 19.9879 50.644 18.662 50.644 15.9086C50.644 13.0304 53.1138 11.9355 55.2018 11.9355C56.9419 11.9355 58.4837 12.4714 59.3489 13.437V11.7784C59.3489 10.5311 58.2082 9.71337 56.473 9.71337C55.4363 9.69277 54.4166 9.9678 53.544 10.5034C53.3554 10.6128 53.1409 10.6748 52.9205 10.6835C52.1955 10.6743 51.6155 10.1153 51.6155 9.43618C51.6194 9.21163 51.6843 8.99191 51.804 8.79864C52.616 7.57438 55.545 7.06619 57.0627 7.06619C60.0449 7.06619 62.7854 8.18882 62.7854 11.7276V18.2277C62.7902 19.1055 62.0411 19.8262 61.1034 19.8308L61.1131 19.8355ZM59.3489 15.1971C58.7785 14.4857 57.6959 14.1253 56.5842 14.1253C55.226 14.1253 54.1143 14.7813 54.1143 15.9871C54.1143 17.1328 55.226 17.7981 56.5842 17.7981C57.6959 17.7981 58.7785 17.4424 59.3489 16.7263V15.1971Z" fill="white"/>
<path fill-rule="evenodd" clip-rule="evenodd" d="M70.9346 19.9879C69.2285 19.9879 66.4879 19.452 65.6759 18.3525C65.5164 18.1538 65.4294 17.9136 65.4343 17.6641C65.4443 17.3054 65.5995 16.9643 65.8672 16.7127C66.1349 16.4611 66.4943 16.3186 66.8698 16.3151C67.1211 16.3151 67.3628 16.3798 67.5755 16.5046C68.605 17.0636 69.9631 17.4978 71.099 17.4978C72.5925 17.4978 73.2982 16.9388 73.2982 16.1719C73.2982 14.1346 65.5116 15.7885 65.5116 10.9469C65.5116 8.88181 67.4401 7.07544 70.8815 7.07544C72.5877 7.07544 74.9222 7.58825 75.6569 8.5769C75.7975 8.75886 75.8737 8.97897 75.8744 9.2052C75.8502 9.88893 75.2509 10.4341 74.521 10.4295C74.2938 10.4299 74.0699 10.3776 73.8685 10.277C72.9629 9.79344 71.943 9.539 70.9057 9.53782C69.6586 9.53782 68.8466 10.0737 68.8466 10.7621C68.8466 12.5962 76.6042 11.067 76.6042 16.0333C76.6042 18.2786 74.5693 19.9879 70.9346 19.9879ZM83.5449 19.9879C81.1331 19.9879 79.8281 18.8145 79.8281 16.6247V10.2031H78.987C78.5859 10.1985 78.1992 10.0414 77.9189 9.76882C77.6385 9.49625 77.4839 9.13128 77.4935 8.75245C77.5129 7.99017 78.175 7.38035 78.987 7.37573H79.8281V5.46312C79.8679 5.04975 80.068 4.66556 80.389 4.38603C80.7101 4.10649 81.1289 3.95183 81.5632 3.95242C82.4719 3.95242 83.2307 4.60844 83.2984 5.46312V7.37573H84.6566C85.0431 7.38643 85.4103 7.53952 85.6814 7.80298C85.9525 8.06644 86.1066 8.41988 86.1114 8.78941C86.1066 9.15894 85.9525 9.51238 85.6814 9.77584C85.4103 10.0393 85.0431 10.1924 84.6566 10.2031H83.2984V15.7561C83.2984 16.7263 83.9509 17.1051 84.4923 17.1051H84.7919C85.7683 17.1051 86.3096 17.715 86.3096 18.5096C86.3096 19.3042 85.8021 19.9879 83.5449 19.9879Z" fill="white"/>
<path d="M22.8811 14.9246C22.9004 13.5617 22.8376 12.1989 22.6926 10.8452C22.5862 9.93051 22.2624 8.75707 21.2232 8.51683C21.3572 8.54929 21.4981 8.54448 21.6292 8.50298C22.8328 7.90239 22.7409 6.41942 22.3156 5.34762C21.7549 3.94318 20.4257 2.9453 19.1062 2.28466C16.6591 1.11832 13.9455 0.555918 11.2127 0.648715C8.47996 0.741512 5.81495 1.48656 3.46059 2.81594C2.26675 3.51816 0.894071 4.89025 1.49824 6.41942C1.66204 6.79999 1.90358 7.14551 2.20875 7.43579L2.66309 7.88854C2.04925 8.68315 1.59974 9.40385 1.30974 10.3694C0.439734 13.2799 0.584735 15.1509 0.82157 17.4886C0.971405 18.9346 1.46924 21.0874 3.21409 21.3277C4.6351 21.5171 6.17695 21.069 7.59796 20.9073C9.16397 20.7317 10.7445 20.4545 12.3298 20.4961C14.5628 20.5515 16.7765 21.0551 19.0144 21.0782C20.1937 21.0874 22.1561 21.1983 22.5089 19.7107C22.8424 18.2971 22.8569 16.8279 22.8569 15.3866C22.8763 15.2341 22.8762 15.077 22.8762 14.9292L22.8811 14.9246ZM20.3291 17.3685C19.7732 18.565 18.2024 18.431 17.1052 18.3433L12.1993 17.7843C10.7397 17.7427 9.29447 18.006 7.87346 18.3063C6.81012 18.528 5.32627 19.1148 4.36443 18.334C3.29626 17.4701 3.10776 15.9964 3.09326 14.7536C3.11333 13.6315 3.22972 12.5128 3.44126 11.4089C3.57176 10.7251 3.78443 10.0599 4.06476 9.42233C4.4466 8.49836 5.0121 7.93935 5.0411 7.96707C4.75594 7.68526 4.41277 7.53281 4.21943 7.14936C3.48959 5.69411 5.31177 4.46061 6.30745 4.0402C9.79231 2.55261 14.6643 2.70044 17.9559 4.60844C18.9806 5.2044 20.9719 7.251 19.1111 8.27198C20.2566 8.78941 20.5514 10.3509 20.6771 11.4597C20.8781 13.2405 20.8195 15.0394 20.5031 16.8048C20.4689 16.9992 20.4136 17.1887 20.3291 17.3685Z" fill="white"/>
</g>
<defs>
<clipPath id="clip0_51_13114">
<rect width="86.9524" height="22" fill="white"/>
</clipPath>
</defs>
</svg>
