<svg width="182" height="48" viewBox="0 0 182 48" fill="none" xmlns="http://www.w3.org/2000/svg">
<rect width="182" height="48" fill="white"/>
<path fill-rule="evenodd" clip-rule="evenodd" d="M65.1822 43.6101C60.1339 43.6101 57.4024 41.0499 57.4024 36.2721V22.2613H55.6421C54.8024 22.2513 53.9931 21.9085 53.4063 21.3138C52.8195 20.7191 52.4958 19.9229 52.516 19.0963C52.5565 17.4332 53.9425 16.1027 55.6421 16.0926H57.4024V11.9196C57.5542 10.0649 59.1324 8.62354 61.0343 8.62354C62.9363 8.62354 64.5246 10.0548 64.6662 11.9196V16.0926H67.4989C68.3078 16.1159 69.0764 16.4499 69.6439 17.0247C70.2114 17.5996 70.5339 18.3707 70.544 19.177C70.5339 19.9832 70.2114 20.7543 69.6439 21.3292C69.0764 21.904 68.3078 22.238 67.4989 22.2613H64.6662V34.3771C64.6662 36.4938 66.032 37.3204 67.1651 37.3204H67.7923C69.8359 37.3204 70.9791 38.6509 70.9791 40.3846C70.9791 42.1183 69.8966 43.6101 65.1822 43.6101Z" fill="#FF4C00"/>
<path d="M87.8943 43.6101C78.8702 43.6101 73.4172 37.1591 73.4172 29.4885C73.4172 21.8783 78.8803 15.4273 87.8943 15.4273C96.9791 15.4273 102.432 21.8783 102.432 29.4885C102.493 31.3904 102.155 33.284 101.441 35.0489C100.727 36.8138 99.6524 38.4112 98.2849 39.7396C96.9175 41.0679 95.2874 42.098 93.4985 42.7644C91.7096 43.4308 89.801 43.7188 87.8943 43.6101ZM87.8943 21.707C83.4024 21.707 80.9137 25.3155 80.9137 29.4885C80.9137 33.6614 83.4126 37.3405 87.8943 37.3405C92.376 37.3405 94.9355 33.732 94.9355 29.4885C94.9355 25.3155 92.376 21.707 87.8943 21.707ZM127.916 43.2775H127.35C126.783 43.2775 124.223 42.8339 124.223 40.1628C122.352 42.33 119.125 43.6101 115.543 43.6101C111.173 43.6101 106.003 40.7172 106.003 34.7097C106.003 28.4301 111.173 26.0412 115.543 26.0412C119.185 26.0412 122.413 27.2105 124.223 29.3171V25.6985C124.223 22.977 121.836 21.1929 118.204 21.1929C116.034 21.148 113.9 21.748 112.073 22.9165C111.679 23.1554 111.23 23.2906 110.768 23.3096C109.251 23.2895 108.037 22.0698 108.037 20.5881C108.045 20.0982 108.181 19.6188 108.431 19.1971C110.131 16.526 116.262 15.4172 119.438 15.4172C125.68 15.4172 131.416 17.8666 131.416 25.5876V39.7697C131.427 41.6849 129.858 43.2573 127.896 43.2674L127.916 43.2775ZM124.223 33.1575C123.03 31.6052 120.764 30.819 118.437 30.819C115.594 30.819 113.267 32.2503 113.267 34.8811C113.267 37.3808 115.594 38.8323 118.437 38.8323C120.764 38.8323 123.03 38.0562 124.223 36.4938V33.1575Z" fill="#FF4C00"/>
<path fill-rule="evenodd" clip-rule="evenodd" d="M148.473 43.6101C144.902 43.6101 139.166 42.4408 137.466 40.0419C137.132 39.6085 136.95 39.0843 136.96 38.54C136.981 37.7573 137.306 37.0132 137.867 36.4642C138.427 35.9153 139.179 35.6043 139.965 35.5968C140.491 35.5968 140.997 35.7379 141.442 36.01C143.597 37.2297 146.44 38.1771 148.817 38.1771C151.943 38.1771 153.42 36.9575 153.42 35.2843C153.42 30.8391 137.122 34.4477 137.122 23.8842C137.122 19.3786 141.159 15.4374 148.362 15.4374C151.933 15.4374 156.82 16.5562 158.357 18.7133C158.652 19.1103 158.811 19.5906 158.812 20.0841C158.762 21.5759 157.507 22.7653 155.98 22.7552C155.504 22.7563 155.036 22.6421 154.614 22.4226C152.718 21.3676 150.584 20.8124 148.413 20.8099C145.802 20.8099 144.103 21.9791 144.103 23.481C144.103 27.4826 160.34 24.1462 160.34 34.9819C160.34 39.8806 156.081 43.6101 148.473 43.6101ZM174.868 43.6101C169.82 43.6101 167.088 41.0499 167.088 36.2721V22.2613H165.328C164.488 22.2513 163.679 21.9086 163.092 21.3138C162.505 20.7191 162.181 19.9229 162.202 19.0963C162.242 17.4332 163.628 16.1027 165.328 16.0926H167.088V11.9196C167.171 11.0177 167.59 10.1795 168.262 9.56958C168.934 8.95969 169.811 8.62224 170.72 8.62354C172.622 8.62354 174.21 10.0549 174.352 11.9196V16.0926H177.195C178.004 16.1159 178.772 16.4499 179.34 17.0247C179.907 17.5996 180.23 18.3707 180.24 19.177C180.23 19.9832 179.907 20.7543 179.34 21.3292C178.772 21.904 178.004 22.238 177.195 22.2613H174.352V34.3771C174.352 36.4938 175.718 37.3204 176.851 37.3204H177.478C179.521 37.3204 180.655 38.6509 180.655 40.3846C180.655 42.1183 179.592 43.6101 174.868 43.6101Z" fill="#FF4C00"/>
<path d="M47.8926 32.5627C47.9331 29.5892 47.8016 26.6157 47.4981 23.6623C47.2755 21.6665 46.5977 19.1063 44.4226 18.5822C44.7029 18.653 44.9978 18.6425 45.2724 18.5519C47.7914 17.2416 47.5992 14.006 46.709 11.6675C45.5354 8.60328 42.7533 6.42607 39.9914 4.98467C34.8694 2.43993 29.1895 1.21288 23.4696 1.41535C17.7496 1.61781 12.1715 3.24336 7.24358 6.14384C4.74475 7.67595 1.8716 10.6696 3.13619 14.006C3.47903 14.8363 3.98461 15.5902 4.62335 16.2235L5.57432 17.2113C4.2895 18.945 3.34864 20.5175 2.74164 22.6241C0.920624 28.9743 1.22413 33.0566 1.71985 38.1569C2.03346 41.3118 3.07549 46.0089 6.72763 46.5331C9.70195 46.9464 12.9292 45.9686 15.9035 45.6158C19.1813 45.2328 22.4895 44.628 25.8078 44.7188C30.4817 44.8397 35.1152 45.9384 39.7992 45.9888C42.2677 46.0089 46.3751 46.2509 47.1136 43.0052C47.8117 39.9208 47.842 36.7155 47.842 33.5706C47.8825 33.238 47.8825 32.8953 47.8825 32.5727L47.8926 32.5627ZM42.551 37.8948C41.3876 40.5054 38.0996 40.2131 35.8031 40.0216L25.5346 38.802C22.4794 38.7113 19.4545 39.2858 16.4802 39.941C14.2545 40.4248 11.1486 41.7049 9.13541 40.0015C6.89961 38.1166 6.50506 34.9011 6.47471 32.1897C6.51672 29.7414 6.76034 27.3006 7.20311 24.892C7.47627 23.4002 7.9214 21.9488 8.50817 20.5578C9.3074 18.5418 10.4911 17.3222 10.5518 17.3827C9.95487 16.7678 9.23658 16.4352 8.83191 15.5986C7.30428 12.4235 11.1183 9.7322 13.2023 8.81495C20.4965 5.56929 30.6942 5.89184 37.5837 10.0547C39.7284 11.355 43.8965 15.8203 40.0016 18.0479C42.3992 19.1769 43.0163 22.5838 43.2794 25.0029C43.7001 28.8884 43.5775 32.8132 42.9152 36.6651C42.8436 37.0892 42.7279 37.5025 42.551 37.8948Z" fill="#FF4C00"/>
</svg>
