<svg width="16" height="17" viewBox="0 0 16 17" fill="none" xmlns="http://www.w3.org/2000/svg">
<g clip-path="url(#clip0_51_13152)">
<path d="M15.3334 2.49987C14.695 2.95019 13.9882 3.29461 13.2401 3.51987C12.8386 3.05821 12.305 2.731 11.7114 2.58249C11.1179 2.43397 10.4931 2.47133 9.92147 2.6895C9.34986 2.90768 8.85904 3.29614 8.5154 3.80235C8.17176 4.30856 7.99188 4.90809 8.00008 5.51987V6.18653C6.8285 6.21691 5.6676 5.95708 4.62075 5.43017C3.57391 4.90325 2.67363 4.12562 2.00008 3.16653C2.00008 3.16653 -0.666585 9.16653 5.33341 11.8332C3.96043 12.7652 2.32485 13.2325 0.666748 13.1665C6.66675 16.4999 14.0001 13.1665 14.0001 5.49987C13.9995 5.31417 13.9816 5.12893 13.9467 4.94653C14.6271 4.27553 15.1073 3.42834 15.3334 2.49987Z" stroke="white" stroke-width="2" stroke-linecap="round" stroke-linejoin="round"/>
</g>
<defs>
<clipPath id="clip0_51_13152">
<rect width="16" height="16" fill="white" transform="translate(0 0.5)"/>
</clipPath>
</defs>
</svg>
