<?xml version="1.0" standalone="no"?>
<!DOCTYPE svg PUBLIC "-//W3C//DTD SVG 20010904//EN"
 "http://www.w3.org/TR/2001/REC-SVG-20010904/DTD/svg10.dtd">
<svg version="1.0" xmlns="http://www.w3.org/2000/svg"
 width="587.000000pt" height="140.000000pt" viewBox="0 0 587.000000 140.000000"
 preserveAspectRatio="xMidYMid meet">

<g transform="translate(0.000000,140.000000) scale(0.100000,-0.100000)"
fill="#fff" stroke="none">
<path d="M1910 1310 l0 -90 110 0 110 0 0 90 0 90 -110 0 -110 0 0 -90z"/>
<path d="M2870 1199 l0 -201 -46 41 c-62 55 -126 75 -223 69 -160 -10 -275
-115 -316 -290 -49 -209 32 -440 183 -517 127 -65 329 -36 390 57 l17 26 5
-49 5 -50 103 -3 102 -3 0 561 0 560 -110 0 -110 0 0 -201z m-130 -259 c74
-20 126 -103 137 -213 10 -118 -28 -231 -93 -273 -33 -22 -112 -29 -157 -15
-46 16 -103 79 -119 133 -18 64 -16 194 5 249 37 98 130 146 227 119z"/>
<path d="M5072 843 l3 -558 108 -3 107 -3 0 139 0 138 45 44 c24 24 46 42 49
39 2 -2 47 -76 101 -164 54 -88 105 -168 114 -178 15 -15 33 -17 144 -15 l127
3 -165 248 c-91 137 -165 254 -165 259 0 6 66 75 148 154 l147 143 -132 1
-131 0 -133 -140 c-73 -77 -136 -140 -141 -140 -4 0 -8 133 -8 295 l0 295
-110 0 -110 0 2 -557z"/>
<path d="M270 1096 c-130 -37 -205 -111 -225 -218 l-7 -38 111 0 110 0 11 40
c17 65 88 95 186 80 61 -9 94 -44 94 -99 0 -65 -33 -83 -205 -105 -148 -20
-208 -39 -257 -84 -53 -48 -68 -86 -68 -169 1 -158 93 -237 275 -236 100 1
170 20 223 60 36 27 48 23 54 -17 3 -25 4 -25 117 -28 105 -2 113 -1 106 15
-17 42 -24 164 -25 395 0 149 -4 258 -11 275 -17 45 -69 91 -128 115 -70 27
-288 35 -361 14z m280 -493 c-1 -94 -24 -144 -82 -172 -76 -36 -191 -22 -217
27 -14 26 -14 87 -1 113 17 31 80 57 170 69 47 6 91 16 100 20 27 16 30 11 30
-57z"/>
<path d="M1275 1086 c-28 -12 -65 -39 -83 -60 l-32 -37 0 51 0 50 -105 0 -105
0 0 -545 0 -545 110 0 110 0 0 190 0 191 35 -35 c46 -47 78 -62 153 -76 110
-20 235 20 303 97 116 133 141 370 58 549 -34 72 -112 146 -182 172 -82 31
-194 30 -262 -2z m178 -172 c60 -39 91 -116 91 -224 0 -130 -31 -203 -104
-240 -81 -41 -187 -15 -237 58 -68 102 -50 318 33 396 56 52 147 56 217 10z"/>
<path d="M3493 1091 c-194 -72 -298 -259 -265 -481 34 -238 226 -375 473 -340
40 6 91 19 115 29 63 28 129 95 164 165 l31 61 -95 3 -95 3 -37 -40 c-69 -77
-210 -83 -287 -13 -24 23 -57 102 -57 139 0 10 57 13 289 13 335 0 307 -11
291 115 -19 152 -108 284 -227 337 -70 31 -228 36 -300 9z m180 -150 c48 -11
84 -43 108 -96 36 -78 42 -76 -158 -73 l-178 3 3 30 c7 63 59 120 123 135 46
11 58 11 102 1z"/>
<path d="M4415 1096 c-71 -22 -119 -53 -168 -105 -61 -65 -93 -135 -109 -234
-47 -303 170 -529 469 -487 169 23 276 122 317 293 l6 27 -109 0 -108 0 -6
-27 c-17 -83 -89 -136 -179 -130 -96 6 -146 61 -169 183 -29 158 41 307 156
328 77 15 168 -37 181 -103 l7 -31 108 0 109 0 0 29 c0 16 -15 58 -33 92 -60
118 -180 180 -345 178 -48 0 -105 -6 -127 -13z"/>
<path d="M1910 685 l0 -405 110 0 110 0 0 405 0 405 -110 0 -110 0 0 -405z"/>
</g>
</svg>
