<?xml version="1.0" standalone="no"?>
<!DOCTYPE svg PUBLIC "-//W3C//DTD SVG 20010904//EN"
 "http://www.w3.org/TR/2001/REC-SVG-20010904/DTD/svg10.dtd">
<svg version="1.0" xmlns="http://www.w3.org/2000/svg"
 width="549.000000pt" height="131.000000pt" viewBox="0 0 549.000000 131.000000"
 preserveAspectRatio="xMidYMid meet">

<g transform="translate(0.000000,131.000000) scale(0.100000,-0.100000)"
fill="#000000" stroke="none">
<path d="M1790 1225 l0 -85 100 0 100 0 0 85 0 85 -100 0 -100 0 0 -85z"/>
<path d="M2680 1124 l0 -186 -41 36 c-117 99 -307 84 -413 -35 -145 -160 -133
-471 24 -612 61 -55 122 -77 209 -77 91 0 136 15 186 61 l44 40 3 -38 3 -38
98 -3 97 -3 0 521 0 520 -105 0 -105 0 0 -186z m-89 -255 c32 -16 78 -80 90
-121 17 -66 7 -204 -19 -255 -55 -106 -194 -125 -271 -37 -84 95 -78 309 11
391 42 39 136 50 189 22z"/>
<path d="M4740 790 l0 -520 105 0 105 0 0 128 0 128 41 39 c33 33 42 37 49 25
5 -8 51 -82 102 -165 l93 -150 123 -3 c67 -1 122 0 122 2 0 3 -67 108 -150
232 -82 125 -150 230 -150 234 0 4 62 69 138 144 l137 136 -122 0 -121 0 -123
-130 c-68 -71 -126 -130 -131 -130 -4 0 -8 124 -8 275 l0 275 -105 0 -105 0 0
-520z"/>
<path d="M255 1025 c-27 -8 -53 -14 -56 -15 -3 0 -27 -14 -52 -31 -52 -34 -92
-93 -102 -151 l-7 -38 101 0 c88 0 102 2 107 18 24 75 59 96 156 90 79 -4 105
-23 115 -80 4 -30 1 -41 -19 -61 -26 -26 -60 -35 -208 -56 -149 -20 -224 -61
-256 -138 -8 -18 -14 -60 -14 -95 0 -142 89 -218 254 -218 84 0 158 19 210 55
20 14 38 25 40 25 2 0 6 -13 10 -30 l6 -30 101 0 101 0 -7 27 c-4 16 -10 159
-13 319 l-7 291 -27 35 c-50 66 -152 99 -302 97 -44 0 -103 -7 -131 -14z m262
-472 c-6 -81 -19 -109 -71 -147 -32 -25 -138 -29 -178 -7 -68 36 -60 139 14
174 18 8 69 21 113 27 44 7 87 16 95 21 29 17 33 8 27 -68z"/>
<path d="M1229 1031 c-43 -14 -72 -32 -111 -69 l-38 -36 0 47 0 47 -95 0 -95
0 0 -510 0 -510 100 0 100 0 0 175 c0 96 3 175 8 175 4 0 22 -16 41 -35 49
-49 115 -68 211 -63 92 5 145 32 209 104 59 67 83 138 89 261 3 84 0 114 -16
170 -38 125 -113 208 -216 238 -53 16 -144 18 -187 6z m128 -172 c66 -41 106
-181 83 -292 -25 -121 -106 -183 -215 -163 -50 10 -110 70 -125 126 -20 73
-15 189 10 249 44 102 154 137 247 80z"/>
<path d="M3283 1026 c-143 -46 -239 -161 -264 -315 -30 -182 58 -365 209 -433
39 -19 66 -22 167 -22 137 -1 180 12 255 80 33 30 100 136 100 159 0 3 -40 5
-88 5 -87 0 -89 0 -111 -31 -49 -66 -160 -88 -241 -47 -50 26 -76 63 -86 126
l-7 42 273 0 273 0 -5 88 c-4 72 -11 101 -37 154 -64 135 -163 200 -311 205
-53 2 -101 -2 -127 -11z m151 -145 c21 -5 51 -22 67 -37 28 -26 63 -107 51
-118 -3 -3 -79 -6 -169 -6 -182 0 -176 -3 -147 70 18 44 59 79 108 90 43 11
46 11 90 1z"/>
<path d="M4113 1019 c-211 -67 -312 -354 -203 -575 36 -73 91 -126 169 -163
50 -23 67 -26 171 -26 133 0 178 15 253 84 42 39 86 119 101 184 l6 27 -97 0
-98 0 -25 -52 c-31 -65 -64 -89 -127 -95 -63 -6 -122 22 -153 72 -33 53 -47
151 -33 231 21 120 81 178 181 177 65 0 99 -22 127 -81 l20 -41 99 -1 99 0 -6
36 c-30 184 -265 293 -484 223z"/>
<path d="M1790 645 l0 -375 100 0 100 0 0 375 0 375 -100 0 -100 0 0 -375z"/>
</g>
</svg>
