<?xml version="1.0" encoding="UTF-8"?><svg id="Layer_2" xmlns="http://www.w3.org/2000/svg" viewBox="0 0 525.93 196.26"><defs><style>.cls-1{fill:#1d1d1b;}</style></defs><g id="Layer_1-2"><rect class="cls-1" x="63.31" y="6.33" width="6.33" height="6.33"/><polygon class="cls-1" points="75.97 12.66 82.3 12.66 88.63 12.66 88.63 6.33 82.3 6.33 82.3 0 75.97 0 69.64 0 69.64 6.33 75.97 6.33 75.97 12.66"/><polygon class="cls-1" points="94.96 12.66 101.3 12.66 107.63 12.66 107.63 6.33 101.3 6.33 101.3 0 94.96 0 88.63 0 88.63 6.33 94.96 6.33 94.96 12.66"/><polygon class="cls-1" points="113.96 12.66 120.29 12.66 126.62 12.66 126.62 6.33 120.29 6.33 120.29 0 113.96 0 107.63 0 107.63 6.33 113.96 6.33 113.96 12.66"/><polygon class="cls-1" points="132.95 12.66 139.28 12.66 139.28 18.99 145.61 18.99 151.94 18.99 158.28 18.99 158.28 12.66 164.61 12.66 164.61 6.33 158.28 6.33 158.28 0 151.94 0 145.61 0 145.61 6.33 151.94 6.33 151.94 12.66 145.61 12.66 145.61 6.33 139.28 6.33 139.28 0 132.95 0 126.62 0 126.62 6.33 132.95 6.33 132.95 12.66"/><polygon class="cls-1" points="170.94 12.66 177.27 12.66 183.6 12.66 183.6 18.99 189.93 18.99 196.26 18.99 196.26 12.66 189.93 12.66 189.93 6.33 183.6 6.33 177.27 6.33 177.27 0 170.94 0 164.61 0 164.61 6.33 170.94 6.33 170.94 12.66"/><rect class="cls-1" x="69.64" y="12.66" width="6.33" height="6.33"/><rect class="cls-1" x="88.63" y="12.66" width="6.33" height="6.33"/><rect class="cls-1" x="107.63" y="12.66" width="6.33" height="6.33"/><rect class="cls-1" x="126.62" y="12.66" width="6.33" height="6.33"/><rect class="cls-1" x="164.61" y="12.66" width="6.33" height="6.33"/><polygon class="cls-1" points="63.31 63.31 69.64 63.31 75.97 63.31 82.3 63.31 88.63 63.31 94.96 63.31 101.3 63.31 107.63 63.31 113.96 63.31 120.29 63.31 126.62 63.31 126.62 56.98 120.29 56.98 113.96 56.98 107.63 56.98 101.3 56.98 94.96 56.98 88.63 56.98 82.3 56.98 75.97 56.98 69.64 56.98 63.31 56.98 63.31 63.31"/><polygon class="cls-1" points="107.63 82.3 101.3 82.3 94.96 82.3 88.63 82.3 82.3 82.3 75.97 82.3 69.64 82.3 63.31 82.3 56.98 82.3 50.65 82.3 50.65 88.63 56.98 88.63 63.31 88.63 69.64 88.63 75.97 88.63 82.3 88.63 88.63 88.63 94.96 88.63 101.3 88.63 107.63 88.63 113.96 88.63 120.29 88.63 120.29 82.3 113.96 82.3 107.63 82.3"/><polygon class="cls-1" points="69.64 164.61 75.97 164.61 82.3 164.61 88.63 164.61 94.96 164.61 101.3 164.61 107.63 164.61 113.96 164.61 120.29 164.61 126.62 164.61 132.95 164.61 139.28 164.61 145.61 164.61 151.94 164.61 158.28 164.61 164.61 164.61 170.94 164.61 177.27 164.61 177.27 158.27 170.94 158.27 164.61 158.27 158.28 158.27 151.94 158.27 145.61 158.27 139.28 158.27 132.95 158.27 126.62 158.27 120.29 158.27 113.96 158.27 107.63 158.27 101.3 158.27 94.96 158.27 88.63 158.27 82.3 158.27 75.97 158.27 69.64 158.27 69.64 151.94 69.64 145.61 75.97 145.61 82.3 145.61 88.63 145.61 94.96 145.61 101.3 145.61 107.63 145.61 113.96 145.61 120.29 145.61 126.62 145.61 126.62 139.28 132.95 139.28 139.28 139.28 145.61 139.28 151.94 139.28 158.28 139.28 164.61 139.28 170.94 139.28 177.27 139.28 177.27 132.95 170.94 132.95 164.61 132.95 158.28 132.95 151.94 132.95 145.61 132.95 139.28 132.95 132.95 132.95 132.95 126.62 132.95 120.29 139.28 120.29 139.28 113.96 145.61 113.96 151.94 113.96 158.28 113.96 164.61 113.96 170.94 113.96 177.27 113.96 177.27 107.63 170.94 107.63 164.61 107.63 158.28 107.63 151.94 107.63 145.61 107.63 145.61 101.3 145.61 94.96 151.94 94.96 151.94 88.63 158.28 88.63 164.61 88.63 170.94 88.63 177.27 88.63 177.27 82.3 170.94 82.3 164.61 82.3 158.28 82.3 158.28 75.97 158.28 69.64 164.61 69.64 164.61 63.31 170.94 63.31 177.27 63.31 177.27 56.98 170.94 56.98 170.94 50.65 177.27 50.65 177.27 44.32 177.27 37.99 177.27 31.65 183.6 31.65 183.6 25.32 183.6 18.99 177.27 18.99 170.94 18.99 170.94 25.32 170.94 31.65 164.61 31.65 164.61 37.99 164.61 44.32 158.28 44.32 158.28 50.65 158.28 56.98 151.94 56.98 151.94 63.31 151.94 69.64 145.61 69.64 145.61 75.97 145.61 82.3 139.28 82.3 139.28 88.63 139.28 94.96 132.95 94.96 132.95 101.3 132.95 107.63 126.62 107.63 126.62 113.96 126.62 120.29 120.29 120.29 120.29 126.62 120.29 132.95 113.96 132.95 107.63 132.95 101.3 132.95 94.96 132.95 88.63 132.95 82.3 132.95 75.97 132.95 69.64 132.95 63.31 132.95 56.98 132.95 50.65 132.95 44.32 132.95 37.99 132.95 31.66 132.95 25.32 132.95 18.99 132.95 12.66 132.95 12.66 126.62 12.66 120.29 12.66 113.96 18.99 113.96 18.99 107.63 18.99 101.3 25.32 101.3 25.32 94.96 25.32 88.63 31.66 88.63 31.66 82.3 31.66 75.97 37.99 75.97 37.99 69.64 37.99 63.31 44.32 63.31 44.32 56.98 44.32 50.65 50.65 50.65 50.65 44.32 50.65 37.99 56.98 37.99 56.98 31.65 56.98 25.32 63.31 25.32 63.31 18.99 63.31 12.66 56.98 12.66 50.65 12.66 50.65 18.99 50.65 25.32 44.32 25.32 44.32 31.65 44.32 37.99 37.99 37.99 37.99 44.32 37.99 50.65 31.66 50.65 31.66 56.98 31.66 63.31 25.32 63.31 25.32 69.64 25.32 75.97 18.99 75.97 18.99 82.3 18.99 88.63 12.66 88.63 12.66 94.96 12.66 101.3 6.33 101.3 6.33 107.63 6.33 113.96 0 113.96 0 120.29 0 126.62 0 132.95 0 139.28 6.33 139.28 12.66 139.28 12.66 145.61 18.99 145.61 25.32 145.61 31.66 145.61 37.99 145.61 44.32 145.61 50.65 145.61 56.98 145.61 56.98 151.94 56.98 158.27 56.98 164.61 56.98 170.94 56.98 177.27 63.31 177.27 69.64 177.27 69.64 170.94 69.64 164.61"/><polygon class="cls-1" points="202.59 18.99 196.26 18.99 196.26 25.32 196.26 31.65 196.26 37.99 196.26 44.32 196.26 50.65 196.26 56.98 196.26 63.31 196.26 69.64 196.26 75.97 196.26 82.3 196.26 88.63 196.26 94.96 196.26 101.3 196.26 107.63 196.26 113.96 196.26 120.29 196.26 126.62 196.26 132.95 196.26 139.28 196.26 145.61 196.26 151.94 196.26 158.27 196.26 164.61 196.26 170.94 196.26 177.27 189.93 177.27 189.93 183.6 183.6 183.6 177.27 183.6 170.94 183.6 164.61 183.6 158.28 183.6 151.94 183.6 145.61 183.6 139.28 183.6 132.95 183.6 126.62 183.6 120.29 183.6 113.96 183.6 107.63 183.6 101.3 183.6 94.96 183.6 88.63 183.6 82.3 183.6 82.3 177.27 75.97 177.27 69.64 177.27 69.64 183.6 69.64 189.93 75.97 189.93 82.3 189.93 82.3 196.26 88.63 196.26 94.96 196.26 101.3 196.26 107.63 196.26 113.96 196.26 120.29 196.26 126.62 196.26 132.95 196.26 139.28 196.26 145.61 196.26 151.94 196.26 158.28 196.26 164.61 196.26 170.94 196.26 177.27 196.26 183.6 196.26 189.93 196.26 189.93 189.93 196.26 189.93 202.59 189.93 202.59 183.6 202.59 177.27 208.92 177.27 208.92 170.94 208.92 164.61 208.92 158.27 208.92 151.94 208.92 145.61 208.92 139.28 208.92 132.95 208.92 126.62 208.92 120.29 208.92 113.96 208.92 107.63 208.92 101.3 208.92 94.96 208.92 88.63 208.92 82.3 208.92 75.97 208.92 69.64 208.92 63.31 208.92 56.98 208.92 50.65 208.92 44.32 208.92 37.99 208.92 31.65 208.92 25.32 208.92 18.99 202.59 18.99"/><path class="cls-1" d="M251.73,164.06v-15.3h15.3v15.3h-15.3Z"/><path class="cls-1" d="M293.89,164.06v-91.93h-30.64v-15.35h76.58v15.35h-30.64v91.93h-15.3Z"/><path class="cls-1" d="M352.43,164.06v-22.94h7.65v-7.7h7.65v-7.65h7.65v-7.65h7.7v-15.35h-7.7v-7.65h-7.65v-7.65h-7.65v-7.7h-7.65v-23h15.3v15.35h7.65v7.65h7.7v7.7h7.65v7.65h7.65v-7.65h7.7v-7.7h7.65v-7.65h7.65v-15.35h15.35v23h-7.7v7.7h-7.65v7.65h-7.65v7.65h-7.65v15.35h7.65v7.65h7.65v7.65h7.65v7.7h7.7v22.94h-15.35v-15.3h-7.65v-7.65h-7.65v-7.7h-7.7v-7.65h-7.65v7.65h-7.65v7.7h-7.7v7.65h-7.65v15.3h-15.3Z"/><path class="cls-1" d="M479.99,164.06v-91.93h-30.64v-15.35h76.58v15.35h-30.64v91.93h-15.3Z"/></g></svg>