<svg id="Logotype_without_strapline" data-name="Logotype without strapline" xmlns="http://www.w3.org/2000/svg" viewBox="0 0 1026.34 608.27"><defs><style>.cls-1{fill:#84bd00;}.cls-2{fill:#fff;}</style></defs><title>endjin_LTSolo_Lg_White-out-Block</title><rect class="cls-1" x="80.67" y="79.07" width="865.85" height="450.2"/><path class="cls-2" d="M276.38,306.59H184.59c-.29,34.82,21.49,54,54.6,54,23.53,0,35.73-7.54,40.08-7.54,3.2,0,4.65,1.74,4.65,6.38l-.29,6.38c-.29,3.49-1.74,6.09-5.23,7.54a107.81,107.81,0,0,1-42.41,9c-50.54.58-77.55-31.34-77.55-77.77,0-44.68,27.3-74,68.25-74,34.86,0,58.68,24.66,56.65,69.64C282.77,304.27,280.45,306.59,276.38,306.59Zm-53.45-56.87c-18.58,0-36,13.34-37.76,38.59l72-.29C257.5,264.23,243.56,249.72,222.93,249.72ZM415.5,379.43c-4.36,0-6.68-2.32-6.68-6.68V303.4c0-5.8-.29-12.77-.58-17.7-1.46-19.15-10.75-32.2-31.67-32.2-11,0-24.39,4.64-35.72,16.54V372.75c0,4.35-2.32,6.68-6.68,6.68H321.1c-4.35,0-6.68-2.32-6.68-6.68V241c0-4.06,2.33-6.67,6.1-7l11.32-1.16c4.36-.29,6.68,1.74,7,5.81l.29,12.19c13.07-14.8,28.17-20,45-20,22.07,0,38,9.87,45.6,27.57,4.93,11.32,5.52,26.11,5.52,41.49v72.83c0,4.35-2.33,6.68-6.39,6.68Zm161.75.58c-4.07.58-6.68-1.45-7-5.22L570,362.31c-12.78,14.8-29,20.31-45.31,20.31-33.69,0-61-24.67-61-72.55s29-79.21,77.84-79.21a90.72,90.72,0,0,1,27,3.77V163.54c0-4.06,2.32-6.09,6.39-6.67L588,155.71c4.36-.58,7,1.74,7,6.09V372.17c0,4.07-2,6.39-6.1,6.68Zm-8.72-122.75A80.86,80.86,0,0,0,540.64,252C510.16,252,491,271.19,491,306.59c0,37.73,19.75,53.69,39.79,53.69,12.49,0,25.28-4.06,37.76-17.7ZM656,358.82c0,45-10.17,62.1-38.93,87.92-3.48,2.9-6.68,2.32-9.29-.58l-6.39-6.68c-2.9-2.9-2.61-6.09,0-9.28,24.11-25.54,28.17-36.85,28.17-74.29V242.47c0-3.77,2.32-6.1,6.1-6.67L649,234.63c4.36-.29,7,1.74,7,6.1Zm4.65-174.1c0,10.45-7.84,17.41-18,17.41-11,0-17.72-7-17.72-17.7,0-10.44,7.55-17.12,18-17.12S660.61,174.28,660.61,184.72Zm59.26,0c0,10.45-7.84,17.41-18,17.41-11,0-17.72-7-17.72-17.7,0-10.44,7.55-17.12,18-17.12S719.86,174.28,719.86,184.72ZM708.54,379.43c4.35,0,6.68-2.32,6.68-6.68v-132c0-4.35-2.61-6.38-7-6.1l-13.36,1.16c-3.78.58-6.1,2.9-6.1,6.67V372.75c0,4.35,2.33,6.68,6.68,6.68Zm140,0c-4.36,0-6.68-2.32-6.68-6.68V303.4c0-5.8-.29-12.77-.58-17.7-1.45-19.15-10.75-32.2-31.66-32.2-11,0-24.39,4.64-35.73,16.54V372.75c0,4.35-2.32,6.68-6.68,6.68H754.13c-4.36,0-6.68-2.32-6.68-6.68V241c0-4.06,2.32-6.67,6.1-7l11.33-1.16c4.36-.29,6.69,1.74,7,5.81l.29,12.19c13.08-14.8,28.17-20,45-20,22.07,0,38,9.87,45.6,27.57,4.93,11.32,5.52,26.11,5.52,41.49v72.83c0,4.35-2.32,6.68-6.39,6.68Z"/></svg>