<svg width="816" height="133" viewBox="0 0 816 133" fill="none" xmlns="http://www.w3.org/2000/svg">
<path fill-rule="evenodd" clip-rule="evenodd" d="M35.8184 12.0106C28.1818 11.2319 21.3599 16.7913 20.5811 24.4279L13.249 96.3298C12.4703 103.966 18.0297 110.788 25.6663 111.567L64.3827 115.515C72.0193 116.294 78.8413 110.735 79.62 103.098L86.9521 31.196C87.7309 23.5594 82.1714 16.7374 74.5348 15.9587L35.8184 12.0106ZM58.2513 46.5631L47.0982 80.0256L42.1363 79.5766L53.2895 46.1142L58.2513 46.5631ZM59.4194 58.1594L65.8848 58.7445L71.3881 65.9427L64.6821 72.0362L58.2167 71.4512L64.9527 65.3604L59.4194 58.1594ZM28.4486 62.0571L33.9518 69.2554L40.4172 69.8404L34.884 62.6394L41.62 56.5487L35.1545 55.9636L28.4486 62.0571Z" fill="#6750A4"/>
<path d="M15.5621 20.9894H14.085C6.40883 20.9894 0.186035 27.2122 0.186035 34.8884V107.163C0.186035 114.839 6.40883 121.062 14.085 121.062H53.0022C54.5058 121.062 55.9537 120.823 57.3099 120.382L25.1037 117.098C14.4125 116.007 6.62933 106.457 7.71956 95.7653L15.0516 23.8634C15.152 22.8792 15.3241 21.9196 15.5621 20.9894Z" fill="#6750A4"/>
<line x1="152.645" y1="18.7581" x2="152.645" y2="114.242" stroke="white" stroke-width="6.82028"/>
<path d="M232.15 35.613V98H216.953V35.613H232.15ZM288.043 35.613V47.7883H271.513V98H256.316V47.7883H239.786V35.613H288.043ZM355.116 35.613V47.7883H329.699V60.9411H348.717V72.7608H329.699V98H314.502V35.613H355.116ZM378.3 32.236V98H363.103V32.236H378.3ZM386.291 73.1163C386.291 68.0211 387.239 63.5479 389.135 59.6969C391.09 55.8459 393.727 52.8835 397.045 50.8099C400.363 48.7362 404.066 47.6994 408.154 47.6994C411.649 47.6994 414.7 48.4104 417.307 49.8323C419.973 51.2542 422.017 53.1205 423.439 55.4311V48.4104H438.636V98H423.439V90.9792C421.958 93.2899 419.884 95.1562 417.218 96.5781C414.612 98 411.56 98.711 408.065 98.711C404.036 98.711 400.363 97.6741 397.045 95.6005C393.727 93.4676 391.09 90.4756 389.135 86.6246C387.239 82.7143 386.291 78.2115 386.291 73.1163ZM423.439 73.2052C423.439 69.4134 422.373 66.4214 420.24 64.2293C418.166 62.0371 415.619 60.9411 412.597 60.9411C409.576 60.9411 406.998 62.0371 404.865 64.2293C402.792 66.3622 401.755 69.3245 401.755 73.1163C401.755 76.9081 402.792 79.9297 404.865 82.1811C406.998 84.3732 409.576 85.4693 412.597 85.4693C415.619 85.4693 418.166 84.3732 420.24 82.1811C422.373 79.989 423.439 76.997 423.439 73.2052ZM469.804 98.711C465.479 98.711 461.628 97.9704 458.251 96.4892C454.874 95.008 452.208 92.9936 450.252 90.446C448.297 87.8392 447.201 84.9361 446.964 81.7367H461.983C462.161 83.4549 462.961 84.8472 464.383 85.9136C465.805 86.9801 467.553 87.5133 469.626 87.5133C471.522 87.5133 472.974 87.1578 473.981 86.4469C475.047 85.6767 475.58 84.6991 475.58 83.5141C475.58 82.0922 474.84 81.0554 473.359 80.4037C471.878 79.6927 469.478 78.9225 466.16 78.0931C462.605 77.2636 459.643 76.4045 457.273 75.5158C454.903 74.5679 452.859 73.1163 451.141 71.1612C449.423 69.1468 448.564 66.451 448.564 63.074C448.564 60.2301 449.334 57.6529 450.875 55.3423C452.474 52.9724 454.785 51.1061 457.806 49.7434C460.887 48.3807 464.531 47.6994 468.737 47.6994C474.958 47.6994 479.846 49.2398 483.401 52.3207C487.015 55.4015 489.089 59.4895 489.622 64.5848H475.58C475.343 62.8666 474.573 61.5039 473.27 60.4967C472.026 59.4895 470.367 58.9859 468.293 58.9859C466.516 58.9859 465.153 59.3414 464.205 60.0524C463.257 60.7041 462.783 61.6224 462.783 62.8074C462.783 64.2293 463.524 65.2957 465.005 66.0067C466.545 66.7177 468.915 67.4286 472.115 68.1396C475.788 69.0875 478.78 70.0355 481.09 70.9834C483.401 71.8721 485.415 73.3533 487.134 75.4269C488.911 77.4413 489.829 80.1667 489.889 83.603C489.889 86.5061 489.059 89.113 487.4 91.4236C485.801 93.675 483.46 95.4524 480.379 96.7558C477.358 98.0592 473.833 98.711 469.804 98.711ZM529.668 47.8771C535.356 47.8771 539.918 49.773 543.354 53.5648C546.791 57.2974 548.509 62.4519 548.509 69.0283V98H533.401V71.0723C533.401 67.7545 532.542 65.1772 530.824 63.3406C529.106 61.5039 526.795 60.5856 523.892 60.5856C520.989 60.5856 518.678 61.5039 516.96 63.3406C515.242 65.1772 514.383 67.7545 514.383 71.0723V98H499.186V32.236H514.383V55.0756C515.923 52.8835 518.026 51.1357 520.693 49.8323C523.359 48.5289 526.351 47.8771 529.668 47.8771ZM556.048 73.2052C556.048 68.0507 557.084 63.5479 559.158 59.6969C561.291 55.8459 564.224 52.8835 567.956 50.8099C571.748 48.7362 576.073 47.6994 580.931 47.6994C587.152 47.6994 592.336 49.3287 596.484 52.5873C600.69 55.8459 603.445 60.4375 604.749 66.3622H588.574C587.212 62.5704 584.575 60.6745 580.665 60.6745C577.88 60.6745 575.658 61.7705 573.999 63.9627C572.341 66.0956 571.511 69.1764 571.511 73.2052C571.511 77.234 572.341 80.3444 573.999 82.5366C575.658 84.6695 577.88 85.7359 580.665 85.7359C584.575 85.7359 587.212 83.84 588.574 80.0482H604.749C603.445 85.8544 600.69 90.4164 596.484 93.7342C592.277 97.0521 587.093 98.711 580.931 98.711C576.073 98.711 571.748 97.6741 567.956 95.6005C564.224 93.5269 561.291 90.5645 559.158 86.7135C557.084 82.8624 556.048 78.3597 556.048 73.2052ZM609.856 73.1163C609.856 68.0211 610.804 63.5479 612.7 59.6969C614.655 55.8459 617.291 52.8835 620.609 50.8099C623.927 48.7362 627.63 47.6994 631.718 47.6994C635.214 47.6994 638.265 48.4104 640.872 49.8323C643.538 51.2542 645.582 53.1205 647.004 55.4311V48.4104H662.2V98H647.004V90.9792C645.522 93.2899 643.449 95.1562 640.783 96.5781C638.176 98 635.125 98.711 631.629 98.711C627.6 98.711 623.927 97.6741 620.609 95.6005C617.291 93.4676 614.655 90.4756 612.7 86.6246C610.804 82.7143 609.856 78.2115 609.856 73.1163ZM647.004 73.2052C647.004 69.4134 645.937 66.4214 643.804 64.2293C641.731 62.0371 639.183 60.9411 636.161 60.9411C633.14 60.9411 630.563 62.0371 628.43 64.2293C626.356 66.3622 625.319 69.3245 625.319 73.1163C625.319 76.9081 626.356 79.9297 628.43 82.1811C630.563 84.3732 633.14 85.4693 636.161 85.4693C639.183 85.4693 641.731 84.3732 643.804 82.1811C645.937 79.989 647.004 76.997 647.004 73.2052ZM688.392 56.6753C690.169 53.95 692.391 51.8171 695.057 50.2766C697.723 48.677 700.685 47.8771 703.944 47.8771V63.9627H699.767C695.975 63.9627 693.131 64.7921 691.235 66.451C689.339 68.0507 688.392 70.8946 688.392 74.9826V98H673.195V48.4104H688.392V56.6753ZM708.186 73.1163C708.186 68.0211 709.134 63.5479 711.03 59.6969C712.985 55.8459 715.621 52.8835 718.939 50.8099C722.257 48.7362 725.96 47.6994 730.048 47.6994C733.307 47.6994 736.269 48.3807 738.935 49.7434C741.66 51.1061 743.793 52.9428 745.334 55.2534V32.236H760.531V98H745.334V90.8904C743.912 93.2603 741.868 95.1562 739.202 96.5781C736.595 98 733.544 98.711 730.048 98.711C725.96 98.711 722.257 97.6741 718.939 95.6005C715.621 93.4676 712.985 90.4756 711.03 86.6246C709.134 82.7143 708.186 78.2115 708.186 73.1163ZM745.334 73.2052C745.334 69.4134 744.267 66.4214 742.134 64.2293C740.061 62.0371 737.513 60.9411 734.492 60.9411C731.47 60.9411 728.893 62.0371 726.76 64.2293C724.686 66.3622 723.649 69.3245 723.649 73.1163C723.649 76.9081 724.686 79.9297 726.76 82.1811C728.893 84.3732 731.47 85.4693 734.492 85.4693C737.513 85.4693 740.061 84.3732 742.134 82.1811C744.267 79.989 745.334 76.997 745.334 73.2052ZM791.698 98.711C787.373 98.711 783.522 97.9704 780.145 96.4892C776.768 95.008 774.102 92.9936 772.147 90.446C770.192 87.8392 769.096 84.9361 768.859 81.7367H783.878C784.056 83.4549 784.855 84.8472 786.277 85.9136C787.699 86.9801 789.447 87.5133 791.521 87.5133C793.417 87.5133 794.868 87.1578 795.875 86.4469C796.942 85.6767 797.475 84.6991 797.475 83.5141C797.475 82.0922 796.734 81.0554 795.253 80.4037C793.772 79.6927 791.373 78.9225 788.055 78.0931C784.5 77.2636 781.538 76.4045 779.168 75.5158C776.798 74.5679 774.754 73.1163 773.036 71.1612C771.317 69.1468 770.458 66.451 770.458 63.074C770.458 60.2301 771.229 57.6529 772.769 55.3423C774.369 52.9724 776.679 51.1061 779.701 49.7434C782.782 48.3807 786.425 47.6994 790.632 47.6994C796.853 47.6994 801.741 49.2398 805.296 52.3207C808.91 55.4015 810.983 59.4895 811.516 64.5848H797.475C797.238 62.8666 796.468 61.5039 795.164 60.4967C793.92 59.4895 792.261 58.9859 790.188 58.9859C788.41 58.9859 787.048 59.3414 786.1 60.0524C785.152 60.7041 784.678 61.6224 784.678 62.8074C784.678 64.2293 785.418 65.2957 786.899 66.0067C788.44 66.7177 790.81 67.4286 794.009 68.1396C797.682 69.0875 800.674 70.0355 802.985 70.9834C805.296 71.8721 807.31 73.3533 809.028 75.4269C810.806 77.4413 811.724 80.1667 811.783 83.603C811.783 86.5061 810.954 89.113 809.295 91.4236C807.695 93.675 805.355 95.4524 802.274 96.7558C799.252 98.0592 795.727 98.711 791.698 98.711Z" fill="white"/>
</svg>
