<svg width="816" height="133" viewBox="0 0 816 133" fill="none" xmlns="http://www.w3.org/2000/svg">
<path fill-rule="evenodd" clip-rule="evenodd" d="M35.8189 12.0106C28.1823 11.2319 21.3604 16.7913 20.5816 24.4279L13.2495 96.3298C12.4708 103.966 18.0302 110.788 25.6668 111.567L64.3832 115.515C72.0198 116.294 78.8418 110.735 79.6205 103.098L86.9526 31.196C87.7313 23.5594 82.1719 16.7374 74.5353 15.9587L35.8189 12.0106ZM58.2518 46.5631L47.0987 80.0256L42.1368 79.5766L53.29 46.1142L58.2518 46.5631ZM59.4199 58.1594L65.8853 58.7445L71.3886 65.9427L64.6826 72.0362L58.2171 71.4512L64.9532 65.3604L59.4199 58.1594ZM28.4491 62.0571L33.9523 69.2554L40.4177 69.8404L34.8844 62.6394L41.6205 56.5487L35.155 55.9636L28.4491 62.0571Z" fill="#6750A4"/>
<path d="M15.5624 20.9894H14.0853C6.40907 20.9894 0.186279 27.2122 0.186279 34.8884V107.163C0.186279 114.839 6.40907 121.062 14.0853 121.062H53.0025C54.5061 121.062 55.9539 120.823 57.3101 120.382L25.104 117.098C14.4127 116.007 6.62958 106.457 7.7198 95.7653L15.0519 23.8634C15.1523 22.8792 15.3243 21.9196 15.5624 20.9894Z" fill="#6750A4"/>
<line x1="152.645" y1="18.7581" x2="152.645" y2="114.242" stroke="#131313" stroke-width="6.82028"/>
<path d="M232.151 35.613V98H216.954V35.613H232.151ZM288.043 35.613V47.7883H271.513V98H256.316V47.7883H239.787V35.613H288.043ZM355.117 35.613V47.7883H329.7V60.9411H348.718V72.7608H329.7V98H314.503V35.613H355.117ZM378.301 32.236V98H363.104V32.236H378.301ZM386.292 73.1163C386.292 68.0211 387.24 63.5479 389.136 59.6969C391.091 55.8459 393.727 52.8835 397.045 50.8099C400.363 48.7362 404.066 47.6994 408.154 47.6994C411.65 47.6994 414.701 48.4104 417.308 49.8323C419.974 51.2542 422.018 53.1205 423.44 55.4311V48.4104H438.637V98H423.44V90.9792C421.959 93.2899 419.885 95.1562 417.219 96.5781C414.612 98 411.561 98.711 408.065 98.711C404.036 98.711 400.363 97.6741 397.045 95.6005C393.727 93.4676 391.091 90.4756 389.136 86.6246C387.24 82.7143 386.292 78.2115 386.292 73.1163ZM423.44 73.2052C423.44 69.4134 422.373 66.4214 420.24 64.2293C418.167 62.0371 415.619 60.9411 412.598 60.9411C409.576 60.9411 406.999 62.0371 404.866 64.2293C402.792 66.3622 401.755 69.3245 401.755 73.1163C401.755 76.9081 402.792 79.9297 404.866 82.1811C406.999 84.3732 409.576 85.4693 412.598 85.4693C415.619 85.4693 418.167 84.3732 420.24 82.1811C422.373 79.989 423.44 76.997 423.44 73.2052ZM469.804 98.711C465.479 98.711 461.628 97.9704 458.251 96.4892C454.874 95.008 452.208 92.9936 450.253 90.446C448.298 87.8392 447.202 84.9361 446.965 81.7367H461.984C462.162 83.4549 462.961 84.8472 464.383 85.9136C465.805 86.9801 467.553 87.5133 469.627 87.5133C471.523 87.5133 472.974 87.1578 473.981 86.4469C475.048 85.6767 475.581 84.6991 475.581 83.5141C475.581 82.0922 474.84 81.0554 473.359 80.4037C471.878 79.6927 469.479 78.9225 466.161 78.0931C462.606 77.2636 459.644 76.4045 457.274 75.5158C454.904 74.5679 452.86 73.1163 451.142 71.1612C449.423 69.1468 448.564 66.451 448.564 63.074C448.564 60.2301 449.335 57.6529 450.875 55.3423C452.475 52.9724 454.785 51.1061 457.807 49.7434C460.888 48.3807 464.531 47.6994 468.738 47.6994C474.959 47.6994 479.847 49.2398 483.402 52.3207C487.016 55.4015 489.089 59.4895 489.622 64.5848H475.581C475.344 62.8666 474.574 61.5039 473.27 60.4967C472.026 59.4895 470.367 58.9859 468.294 58.9859C466.516 58.9859 465.154 59.3414 464.206 60.0524C463.258 60.7041 462.784 61.6224 462.784 62.8074C462.784 64.2293 463.524 65.2957 465.005 66.0067C466.546 66.7177 468.916 67.4286 472.115 68.1396C475.788 69.0875 478.78 70.0355 481.091 70.9834C483.402 71.8721 485.416 73.3533 487.134 75.4269C488.912 77.4413 489.83 80.1667 489.889 83.603C489.889 86.5061 489.06 89.113 487.401 91.4236C485.801 93.675 483.461 95.4524 480.38 96.7558C477.358 98.0592 473.833 98.711 469.804 98.711ZM529.669 47.8771C535.357 47.8771 539.919 49.773 543.355 53.5648C546.791 57.2974 548.509 62.4519 548.509 69.0283V98H533.402V71.0723C533.402 67.7545 532.542 65.1772 530.824 63.3406C529.106 61.5039 526.795 60.5856 523.892 60.5856C520.989 60.5856 518.679 61.5039 516.961 63.3406C515.242 65.1772 514.383 67.7545 514.383 71.0723V98H499.186V32.236H514.383V55.0756C515.924 52.8835 518.027 51.1357 520.693 49.8323C523.359 48.5289 526.351 47.8771 529.669 47.8771ZM556.048 73.2052C556.048 68.0507 557.085 63.5479 559.159 59.6969C561.292 55.8459 564.224 52.8835 567.957 50.8099C571.749 48.7362 576.074 47.6994 580.932 47.6994C587.153 47.6994 592.337 49.3287 596.484 52.5873C600.691 55.8459 603.446 60.4375 604.749 66.3622H588.575C587.212 62.5704 584.576 60.6745 580.665 60.6745C577.881 60.6745 575.659 61.7705 574 63.9627C572.341 66.0956 571.512 69.1764 571.512 73.2052C571.512 77.234 572.341 80.3444 574 82.5366C575.659 84.6695 577.881 85.7359 580.665 85.7359C584.576 85.7359 587.212 83.84 588.575 80.0482H604.749C603.446 85.8544 600.691 90.4164 596.484 93.7342C592.278 97.0521 587.094 98.711 580.932 98.711C576.074 98.711 571.749 97.6741 567.957 95.6005C564.224 93.5269 561.292 90.5645 559.159 86.7135C557.085 82.8624 556.048 78.3597 556.048 73.2052ZM609.856 73.1163C609.856 68.0211 610.804 63.5479 612.7 59.6969C614.655 55.8459 617.292 52.8835 620.61 50.8099C623.927 48.7362 627.63 47.6994 631.718 47.6994C635.214 47.6994 638.265 48.4104 640.872 49.8323C643.538 51.2542 645.582 53.1205 647.004 55.4311V48.4104H662.201V98H647.004V90.9792C645.523 93.2899 643.449 95.1562 640.783 96.5781C638.176 98 635.125 98.711 631.63 98.711C627.601 98.711 623.927 97.6741 620.61 95.6005C617.292 93.4676 614.655 90.4756 612.7 86.6246C610.804 82.7143 609.856 78.2115 609.856 73.1163ZM647.004 73.2052C647.004 69.4134 645.938 66.4214 643.805 64.2293C641.731 62.0371 639.184 60.9411 636.162 60.9411C633.14 60.9411 630.563 62.0371 628.43 64.2293C626.357 66.3622 625.32 69.3245 625.32 73.1163C625.32 76.9081 626.357 79.9297 628.43 82.1811C630.563 84.3732 633.14 85.4693 636.162 85.4693C639.184 85.4693 641.731 84.3732 643.805 82.1811C645.938 79.989 647.004 76.997 647.004 73.2052ZM688.392 56.6753C690.169 53.95 692.391 51.8171 695.057 50.2766C697.723 48.677 700.686 47.8771 703.944 47.8771V63.9627H699.767C695.976 63.9627 693.132 64.7921 691.236 66.451C689.34 68.0507 688.392 70.8946 688.392 74.9826V98H673.195V48.4104H688.392V56.6753ZM708.186 73.1163C708.186 68.0211 709.134 63.5479 711.03 59.6969C712.985 55.8459 715.622 52.8835 718.94 50.8099C722.258 48.7362 725.961 47.6994 730.049 47.6994C733.307 47.6994 736.27 48.3807 738.936 49.7434C741.661 51.1061 743.794 52.9428 745.334 55.2534V32.236H760.531V98H745.334V90.8904C743.912 93.2603 741.868 95.1562 739.202 96.5781C736.595 98 733.544 98.711 730.049 98.711C725.961 98.711 722.258 97.6741 718.94 95.6005C715.622 93.4676 712.985 90.4756 711.03 86.6246C709.134 82.7143 708.186 78.2115 708.186 73.1163ZM745.334 73.2052C745.334 69.4134 744.268 66.4214 742.135 64.2293C740.061 62.0371 737.514 60.9411 734.492 60.9411C731.471 60.9411 728.893 62.0371 726.76 64.2293C724.687 66.3622 723.65 69.3245 723.65 73.1163C723.65 76.9081 724.687 79.9297 726.76 82.1811C728.893 84.3732 731.471 85.4693 734.492 85.4693C737.514 85.4693 740.061 84.3732 742.135 82.1811C744.268 79.989 745.334 76.997 745.334 73.2052ZM791.699 98.711C787.374 98.711 783.523 97.9704 780.146 96.4892C776.769 95.008 774.103 92.9936 772.147 90.446C770.192 87.8392 769.096 84.9361 768.859 81.7367H783.878C784.056 83.4549 784.856 84.8472 786.278 85.9136C787.7 86.9801 789.448 87.5133 791.521 87.5133C793.417 87.5133 794.869 87.1578 795.876 86.4469C796.942 85.6767 797.475 84.6991 797.475 83.5141C797.475 82.0922 796.735 81.0554 795.254 80.4037C793.773 79.6927 791.373 78.9225 788.055 78.0931C784.5 77.2636 781.538 76.4045 779.168 75.5158C776.798 74.5679 774.754 73.1163 773.036 71.1612C771.318 69.1468 770.459 66.451 770.459 63.074C770.459 60.2301 771.229 57.6529 772.77 55.3423C774.369 52.9724 776.68 51.1061 779.701 49.7434C782.782 48.3807 786.426 47.6994 790.632 47.6994C796.853 47.6994 801.741 49.2398 805.296 52.3207C808.91 55.4015 810.984 59.4895 811.517 64.5848H797.475C797.238 62.8666 796.468 61.5039 795.165 60.4967C793.921 59.4895 792.262 58.9859 790.188 58.9859C788.411 58.9859 787.048 59.3414 786.1 60.0524C785.152 60.7041 784.678 61.6224 784.678 62.8074C784.678 64.2293 785.419 65.2957 786.9 66.0067C788.44 66.7177 790.81 67.4286 794.01 68.1396C797.683 69.0875 800.675 70.0355 802.985 70.9834C805.296 71.8721 807.31 73.3533 809.029 75.4269C810.806 77.4413 811.724 80.1667 811.784 83.603C811.784 86.5061 810.954 89.113 809.295 91.4236C807.696 93.675 805.355 95.4524 802.274 96.7558C799.253 98.0592 795.728 98.711 791.699 98.711Z" fill="#131313"/>
</svg>
