<svg xmlns="http://www.w3.org/2000/svg" xml:space="preserve" viewBox="0 0 600 100"><g fill="#C7CFE9"><path d="M471.9 7.03c-2.11.52-4.21 1.08-6.31 1.77-2.43.79-4.78 1.69-7.09 2.67-.16 2.16-.27 4.34-.27 6.55 0 2.55.13 5.07.35 7.56 2.01.82 4.05 1.6 6.14 2.28 2.43.79 4.86 1.44 7.3 2.01 1.4-1.66 2.77-3.35 4.07-5.14 1.5-2.06 2.87-4.18 4.16-6.32a86.114 86.114 0 0 0-3.63-5.46c-1.5-2.06-3.09-4.02-4.72-5.92zM22.07 17.98v57.14H9.86V17.98h12.21zM72.97 60.05h12.14C82.33 70.76 71.9 75.83 56.33 75.83s-28.42-6.29-28.42-21.71 12.07-21.79 29.14-21.79c16 0 28.78 5.5 28.78 24.64H40.4c1.36 6.71 7.79 8.93 15.93 8.93s13.57-1.57 16.64-5.86v.01zM40.83 49.19h31.93c-2.07-5.93-8.07-7.57-15.79-7.57-8.36 0-14.21 1.64-16.14 7.57zM148.5 33.05V68.4c0 17.14-11.5 24.57-27.43 24.57-12.21 0-22.29-2.29-26.36-3.36v-9.86c4.93.93 14.36 3 23.64 3 12.64 0 17.36-4.86 17.85-15.64-4.28 4.71-11.36 7.5-21.28 7.5-14.43 0-24.71-6.28-24.71-21.14s10.28-21.14 24.71-21.14c10 0 17.07 2.79 21.28 7.5v-6.78H148.5zm-12.29 20.43c0-7.72-5.36-10.93-16.86-10.93s-16.93 3.21-16.93 10.93 5.43 10.93 16.93 10.93 16.86-3.21 16.86-10.93zM211.26 53.91v21.21h-12.28v-5.21c-7.43 3.64-15.64 5.93-25.57 5.93-11.78 0-19.14-3.79-19.14-13.29 0-10.93 12-14.36 25.36-14.36 7.21 0 13.86 1.14 19.35 3 0-8-10.28-8.64-16-8.64s-12.21.5-20.86 3.07l-4.36-8.93c8.57-2.79 17-4.36 25.79-4.36 17.57 0 27.57 5.64 27.71 21.57v.01zm-12.28 4.86c-4.28-1.36-10.07-2.57-17.86-2.57-9.14 0-14.64 1.57-14.64 5.86s4.07 4.79 10.43 4.79 15.78-2.07 22.07-4.79V58.77zM228.89 60.34c0 4.5 4.64 6.21 18.28 6.21s15.36-.86 15.36-4.14-2-3.43-16.78-4.36c-18.5-1.07-27.57-2.5-27.57-12.64 0-11 12.86-13.07 27.85-13.07 15.86 0 27.36 2.07 27.36 13.64H261.1c0-3.5-4.43-4.36-15.78-4.36s-14.86.86-14.86 3.28c0 2.64 2.22 3.07 16.71 4.14 16.43 1.22 27.64 1.64 27.64 12.86 0 11.86-10.71 13.93-26.93 13.93s-31.21-2.07-31.21-15.5h12.21l.01.01zM291.41 60.34c0 4.5 4.64 6.21 18.28 6.21s15.36-.86 15.36-4.14-2-3.43-16.78-4.36c-18.5-1.07-27.57-2.5-27.57-12.64 0-11 12.86-13.07 27.85-13.07 15.86 0 27.36 2.07 27.36 13.64h-12.29c0-3.5-4.43-4.36-15.78-4.36s-14.86.86-14.86 3.28c0 2.64 2.22 3.07 16.71 4.14 16.43 1.22 27.64 1.64 27.64 12.86 0 11.86-10.71 13.93-26.93 13.93s-31.21-2.07-31.21-15.5h12.21l.01.01zM386.58 60.05h12.14c-2.78 10.71-13.21 15.78-28.78 15.78s-28.42-6.29-28.42-21.71 12.07-21.79 29.14-21.79c16 0 28.78 5.5 28.78 24.64h-45.43c1.36 6.71 7.79 8.93 15.93 8.93s13.57-1.57 16.64-5.86v.01zm-32.14-10.86h31.93c-2.07-5.93-8.07-7.57-15.78-7.57-8.36 0-14.21 1.64-16.14 7.57h-.01zM425.94 43.27v12.14c0 8.14 1.57 10.22 9 10.22 3.86 0 6 0 10.93-.71v9.86c-4.07.71-8.71 1.07-14.36 1.07-10.86 0-17.86-4.07-17.86-13.36V43.28h-11.07V33.07h11.07v-8.71l12.29-3.5v12.21h19.93v10.21h-19.93v-.01zM458.23 75.12V64.95h2.15v8.31h5.61v1.86h-7.76zM467.29 75.12V64.95h7.81v1.84h-5.67v2.25h4.58v1.85h-4.58v2.37h5.74v1.86h-7.89.01zM476.15 70.01c0-1.54.52-2.8 1.57-3.78s2.4-1.47 4.05-1.47c1.24 0 2.34.29 3.3.86v2.11c-.75-.67-1.73-1-2.95-1-1.11 0-2.02.31-2.72.92-.7.62-1.04 1.42-1.04 2.4s.33 1.76.98 2.37c.65.62 1.5.92 2.53.92.48 0 .97-.08 1.45-.23v-1.83h-1.73v-1.63h3.73v4.78c-1 .58-2.14.87-3.41.87-1.69 0-3.08-.49-4.15-1.47-1.08-.98-1.61-2.26-1.61-3.83v.01zM486.51 75.12l5.13-10.17h.99l5.13 10.17h-2.4l-.78-1.67h-4.88l-.78 1.67h-2.41zm5.62-6.81-1.55 3.3h3.11l-1.55-3.3h-.01zM498.95 75.12V64.95h2.15v8.31h5.61v1.86h-7.76zM510.46 71.69c0-.77.2-1.42.58-1.98.39-.55.92-.94 1.58-1.18 0-1.1.32-1.99.96-2.66.64-.67 1.51-1 2.61-1 .69 0 1.31.15 1.86.45v1.84c-.39-.34-.86-.51-1.41-.51s-1.04.17-1.41.52c-.37.35-.55.8-.55 1.36 0 .49.15.89.45 1.18l1.73 1.64c.2-.66.31-1.36.31-2.11h2.09c0 1.38-.28 2.59-.83 3.6l2.37 2.25h-2.71l-.84-.8c-.81.66-1.76.99-2.86.99s-2.08-.34-2.82-1.01c-.74-.67-1.11-1.54-1.11-2.61v.03zm2.09-.01c0 .52.18.95.54 1.28s.81.5 1.35.5.99-.16 1.39-.49l-2.31-2.19c-.13-.13-.25-.26-.33-.39-.43.25-.64.68-.64 1.29zM526.91 75.12h-2.15V64.95h7.81v1.84h-5.67v2.25h4.58v1.85h-4.58v4.23h.01zM533.93 64.95h2.15v10.17h-2.15V64.95zM538.25 65.06h1.24l6.88 6.36v-6.46h2.09v10.17h-1.22l-6.9-6.38v6.38h-2.09V65.06zM549.79 64.95h9.35v1.84h-3.6v8.32h-2.15v-8.32h-3.6v-1.84zM560.43 75.12V64.95h7.81v1.84h-5.67v2.25h4.58v1.85h-4.58v2.37h5.74v1.86h-7.89.01zM574.84 75.31c-1.63 0-2.95-.49-3.98-1.47-1.03-.98-1.54-2.25-1.54-3.8s.51-2.81 1.54-3.8c1.02-.98 2.35-1.47 3.98-1.47 1.22 0 2.3.3 3.24.89v2.19c-.74-.75-1.73-1.12-2.95-1.12-1.06 0-1.92.31-2.59.92-.67.62-1.01 1.41-1.01 2.39s.33 1.76 1 2.38 1.53.92 2.6.92c1.23 0 2.21-.37 2.95-1.1v2.19c-.94.59-2.02.89-3.24.88zM582.16 75.12h-2.15V64.95h2.15v4.09h5.83v-4.09h2.15v10.17h-2.15v-4.23h-5.83v4.23zM457.92 84.19c0-.97.33-1.71.99-2.22.66-.51 1.61-.76 2.86-.76 1.43 0 2.54.35 3.33 1.03v1.87c-.63-.63-1.64-.94-3.02-.94-.66 0-1.17.08-1.54.25s-.55.4-.55.7c0 .53.7.93 2.11 1.2 1.31.23 2.27.62 2.89 1.16.62.54.93 1.27.93 2.17 0 1-.36 1.76-1.09 2.29-.73.53-1.78.79-3.15.79-1.53 0-2.75-.35-3.65-1.05v-1.87c.75.63 1.87.94 3.34.94.77 0 1.38-.1 1.83-.28.44-.19.67-.45.67-.79 0-.56-.73-.97-2.19-1.23-1.3-.25-2.25-.64-2.85-1.16s-.9-1.22-.91-2.1zM468.57 82.68c1-.98 2.3-1.47 3.89-1.47s2.88.49 3.89 1.47c1.01.98 1.51 2.25 1.51 3.8s-.5 2.82-1.51 3.8-2.3 1.47-3.89 1.47-2.88-.49-3.89-1.47c-1-.98-1.5-2.25-1.5-3.81s.5-2.83 1.5-3.79zm.7 3.8c0 .97.3 1.76.89 2.38.59.62 1.36.92 2.3.92s1.71-.31 2.3-.91c.6-.61.89-1.41.89-2.38s-.3-1.77-.89-2.39c-.59-.62-1.36-.92-2.3-.92s-1.7.31-2.3.92c-.59.62-.89 1.41-.89 2.38zM479.58 91.57V81.4h2.15v8.31h5.61v1.86h-7.76zM488.3 87.03v-5.64h2.16v5.56c0 .83.26 1.51.77 2.03s1.18.78 1.99.78 1.45-.26 1.95-.78c.49-.52.74-1.2.74-2.04v-5.56h2.15v5.64c0 1.39-.45 2.53-1.34 3.4-.9.88-2.06 1.32-3.5 1.32s-2.64-.44-3.55-1.32c-.92-.88-1.37-2.02-1.37-3.39zM499.32 81.4h9.35v1.84h-3.6v8.32h-2.15v-8.32h-3.6V81.4zM509.99 81.4h2.15v10.17h-2.15V81.4zM515.38 82.68c1-.98 2.3-1.47 3.89-1.47s2.89.49 3.89 1.47c1.01.98 1.51 2.25 1.51 3.8s-.5 2.82-1.51 3.8-2.3 1.47-3.89 1.47-2.88-.49-3.89-1.47c-1-.98-1.5-2.25-1.5-3.81s.5-2.83 1.5-3.79zm.7 3.8c0 .97.3 1.76.89 2.38.59.62 1.36.92 2.3.92s1.71-.31 2.3-.91c.6-.61.89-1.41.89-2.38s-.3-1.77-.89-2.39c-.59-.62-1.36-.92-2.3-.92s-1.7.31-2.3.92c-.59.62-.89 1.41-.89 2.38zM526.39 81.5h1.24l6.88 6.36V81.4h2.09v10.17h-1.22l-6.9-6.38v6.38h-2.09V81.5zM538.45 84.19c0-.97.33-1.71.99-2.22.66-.51 1.61-.76 2.86-.76 1.43 0 2.54.35 3.33 1.03v1.87c-.63-.63-1.64-.94-3.02-.94-.66 0-1.17.08-1.54.25s-.55.4-.55.7c0 .53.7.93 2.11 1.2 1.31.23 2.27.62 2.89 1.16.62.54.93 1.27.93 2.17 0 1-.36 1.76-1.09 2.29-.73.53-1.78.79-3.15.79-1.53 0-2.75-.35-3.65-1.05v-1.87c.75.63 1.87.94 3.34.94.77 0 1.38-.1 1.83-.28.44-.19.67-.45.67-.79 0-.56-.73-.97-2.19-1.23-1.3-.25-2.25-.64-2.85-1.16s-.9-1.22-.91-2.1z"></path></g></svg>