<svg xmlns="http://www.w3.org/2000/svg" x="500" y="100" viewBox="0 0 500 100" style="enable-background:new 0 0 500 100" xml:space="preserve"><path style="fill:#252a30" d="M491.1 4.1c-2.2.6-4.5 1.2-6.7 1.9-2.6.8-5.1 1.8-7.5 2.8-.2 2.3-.3 4.6-.3 7 0 2.7.1 5.4.4 8 2.1.9 4.3 1.7 6.5 2.4 2.6.8 5.2 1.5 7.8 2.1 1.5-1.8 2.9-3.6 4.3-5.5 1.6-2.2 3-4.4 4.4-6.7-1.2-2-2.5-3.9-3.9-5.8-1.5-2.1-3.2-4.2-5-6.2zM13 15.8v60.7H0V15.8h13zm54.1 44.7H80c-3 11.4-14.1 16.8-30.6 16.8s-30.2-6.7-30.2-23.1S32 31 50.2 31c17 0 30.6 5.8 30.6 26.2H32.5c1.4 7.1 8.3 9.5 16.9 9.5s14.4-1.7 17.7-6.2zM32.9 48.9h33.9c-2.2-6.3-8.6-8-16.8-8-8.8 0-15 1.7-17.1 8zm114.5-17.1v37.6c0 18.2-12.2 26.1-29.2 26.1-13 0-23.7-2.4-28-3.6V81.4c5.2 1 15.2 3.2 25.1 3.2 13.4 0 18.4-5.2 19-16.6-4.6 5-12.1 8-22.6 8-15.3 0-26.3-6.7-26.3-22.5S96.3 31 111.7 31c10.6 0 18.1 3 22.6 8v-7.2h13.1zm-13.1 21.7c0-8.2-5.7-11.6-17.9-11.6s-18 3.4-18 11.6 5.8 11.6 18 11.6 17.9-3.4 17.9-11.6zm79.8.4v22.5H201v-5.6c-7.9 3.9-16.6 6.3-27.2 6.3-12.5 0-20.3-4-20.3-14.1 0-11.6 12.8-15.2 26.9-15.2 7.7 0 14.7 1.2 20.6 3.2 0-8.5-10.9-9.2-17-9.2s-13 .5-22.2 3.3l-4.6-9.5c9.1-3 18.1-4.6 27.4-4.6 18.7 0 29.3 6 29.5 22.9zM201 59.1c-4.6-1.4-10.7-2.7-19-2.7-9.7 0-15.6 1.7-15.6 6.2s4.3 5.1 11.1 5.1 16.8-2.2 23.5-5.1v-3.5zm31.8 1.7c0 4.8 4.9 6.6 19.4 6.6s16.3-.9 16.3-4.4-2.1-3.6-17.8-4.6c-19.7-1.1-29.3-2.7-29.3-13.4 0-11.7 13.7-13.9 29.6-13.9 16.9 0 29.1 2.2 29.1 14.5H267c0-3.7-4.7-4.6-16.8-4.6-12.1 0-15.8.9-15.8 3.5 0 2.8 2.4 3.3 17.8 4.4 17.5 1.3 29.4 1.7 29.4 13.7 0 12.6-11.4 14.8-28.6 14.8s-33.2-2.2-33.2-16.5l13-.1zm66.4 0c0 4.8 4.9 6.6 19.4 6.6S335 66.5 335 63c0-3.5-2.1-3.6-17.8-4.6-19.7-1.1-29.3-2.7-29.3-13.4 0-11.7 13.7-13.9 29.6-13.9 16.9 0 29.1 2.2 29.1 14.5h-13.1c0-3.7-4.7-4.6-16.8-4.6-12.1 0-15.8.9-15.8 3.5 0 2.8 2.4 3.3 17.8 4.4 17.5 1.3 29.4 1.7 29.4 13.7 0 12.6-11.4 14.8-28.6 14.8s-33.2-2.2-33.2-16.5l12.9-.1zm101.2-.3h12.9c-3 11.4-14 16.8-30.6 16.8s-30.2-6.7-30.2-23.1 12.8-23.2 31-23.2c17 0 30.6 5.8 30.6 26.2h-48.3c1.4 7.1 8.3 9.5 16.9 9.5 8.7 0 14.5-1.7 17.7-6.2zm-34.2-11.6h33.9c-2.2-6.3-8.6-8-16.8-8-8.8 0-15 1.7-17.1 8zm76-6.3v12.9c0 8.7 1.7 10.9 9.6 10.9 4.1 0 6.4 0 11.6-.8v10.5c-4.3.8-9.3 1.1-15.2 1.1-11.5 0-19-4.3-19-14.2V42.6h-11.8V31.8h11.8v-9.3l13.1-3.7v13h21.2v10.9l-21.3-.1z"/></svg>