<?xml version="1.0" encoding="UTF-8" standalone="no"?><!DOCTYPE svg PUBLIC "-//W3C//DTD SVG 1.1//EN" "http://www.w3.org/Graphics/SVG/1.1/DTD/svg11.dtd"><svg xmlns="http://www.w3.org/2000/svg" xmlns:xlink="http://www.w3.org/1999/xlink" version="1.1" width="323" height="72" viewBox="0 0 323 72">
<desc>Created with SVGMaker Editor 2.2.3</desc>
<defs>
</defs>
<g transform="matrix(1 0 0 1 60.3726 36)">
<linearGradient id="SVGID_119" gradientUnits="userSpaceOnUse" gradientTransform="matrix(1 0 0 1 0 0)" x1="46.8514" y1="13.5038" x2="82.8453" y2="49.5602">
<stop offset="0%" style="stop-color:rgb(25,169,229);stop-opacity: 1"/>
<stop offset="100%" style="stop-color:rgb(19,118,192);stop-opacity: 1"/>
</linearGradient>
<path transform=" translate(-60.3726, -36)" style="fill: url(#SVGID_119); fill-rule: evenodd" stroke-linecap="round" d="M 60.3725 18.359 L 42.7009 36 L 60.3725 53.641 L 78.0441 36 L 60.3725 18.359 Z M 24.3162 36 L 60.3725 71.9939 L 96.4289 36 L 60.3725 0.0061 L 24.3162 36 Z"/>
</g>
<g transform="matrix(1 0 0 1 36.3726 36)">
<linearGradient id="SVGID_120" gradientUnits="userSpaceOnUse" gradientTransform="matrix(1 0 0 1 0 0)" x1="22.8514" y1="13.5038" x2="58.8453" y2="49.5602">
<stop offset="0%" style="stop-color:rgb(255,230,0);stop-opacity: 1"/>
<stop offset="100%" style="stop-color:rgb(255,184,0);stop-opacity: 1"/>
</linearGradient>
<path transform=" translate(-36.3725, -36)" style="fill: url(#SVGID_120); fill-rule: evenodd" stroke-linecap="round" d="M 36.3725 18.359 L 18.7009 36 L 36.3725 53.641 L 54.0441 36 L 36.3725 18.359 Z M 0.3162 36 L 36.3725 71.9939 L 72.4289 36 L 36.3725 0.0061 L 0.3162 36 Z"/>
</g>
<g transform="matrix(1 0 0 1 48.3726 50.8439)">
<linearGradient id="SVGID_121" gradientUnits="userSpaceOnUse" gradientTransform="matrix(1 0 0 1 0 0)" x1="43.0563" y1="44.9004" x2="54.0171" y2="55.5604">
<stop offset="0%" style="stop-color:rgb(23,149,215);stop-opacity: 1"/>
<stop offset="100%" style="stop-color:rgb(21,134,203);stop-opacity: 1"/>
</linearGradient>
<path transform=" translate(-48.3726, -50.8439)" style="fill: url(#SVGID_121); fill-rule: evenodd" stroke-linecap="round" d="M 39.1802 50.8438 L 48.3726 60.0203 L 57.565 50.8438 L 48.3726 41.6674 L 39.1802 50.8438 Z"/>
</g>
<g transform="matrix(1 0 0 1 42.362 56.8438)">
<linearGradient id="SVGID_122" gradientUnits="userSpaceOnUse" gradientTransform="matrix(1 0 0 1 0 0)" x1="42.1987" y1="59.3797" x2="45.7853" y2="55.7869">
<stop offset="0%" style="stop-color:rgb(191,172,0);stop-opacity: 0"/>
<stop offset="100%" style="stop-color:rgb(26,27,3);stop-opacity: 1"/>
</linearGradient>
<path transform=" translate(-42.362, -56.8438)" style="fill: url(#SVGID_122)" stroke-linecap="round" d="M 36.3516 53.6674 L 39.18 50.8438 L 48.3724 60.0203 L 45.544 62.8438 L 36.3516 53.6674 Z"/>
</g>
<g transform="matrix(1 0 0 1 42.383 27.1594)">
<linearGradient id="SVGID_123" gradientUnits="userSpaceOnUse" gradientTransform="matrix(1 0 0 1 0 0)" x1="42.2197" y1="29.6953" x2="45.8063" y2="26.1024">
<stop offset="0%" style="stop-color:rgb(191,172,0);stop-opacity: 0"/>
<stop offset="100%" style="stop-color:rgb(26,27,3);stop-opacity: 1"/>
</linearGradient>
<path transform=" translate(-42.383, -27.1594)" style="fill: url(#SVGID_123)" stroke-linecap="round" d="M 36.3726 23.9829 L 39.201 21.1594 L 48.3934 30.3358 L 45.5649 33.1594 L 36.3726 23.9829 Z"/>
</g>
<g transform="matrix(1 0 0 1 36.3319 36)">
<linearGradient id="SVGID_124" gradientUnits="userSpaceOnUse" gradientTransform="matrix(1 0 0 1 0 0)" x1="0.26953" y1="36" x2="72.3944" y2="36">
<stop offset="0%" style="stop-color:rgb(255,199,0);stop-opacity: 1"/>
<stop offset="100%" style="stop-color:rgb(255,229,0);stop-opacity: 1"/>
</linearGradient>
<path transform=" translate(-36.332, -36)" style="fill: url(#SVGID_124); fill-rule: evenodd" stroke-linecap="round" d="M 0.2695 36 L 36.332 0 L 48.3529 12 L 48.423 11.93 L 48.7785 12.281 L 49.1341 12.632 L 49.06 12.7059 L 72.3944 36 L 57.5452 50.8235 L 56.8381 50.1176 L 70.9802 36 L 36.332 1.4118 L 1.6837 36 L 36.332 70.5882 L 47.5778 59.3619 L 48.2888 60.0638 L 36.332 72 L 0.2695 36 Z"/>
</g>
<g transform="matrix(1 0 0 1 60.3785 36)">
<linearGradient id="SVGID_125" gradientUnits="userSpaceOnUse" gradientTransform="matrix(1 0 0 1 0 0)" x1="51.3629" y1="71.9999" x2="51.3629" y2="-0.0000357276">
<stop offset="0%" style="stop-color:rgb(25,169,229);stop-opacity: 1"/>
<stop offset="100%" style="stop-color:rgb(19,118,192);stop-opacity: 1"/>
</linearGradient>
<path transform=" translate(-60.3785, -36)" style="fill: url(#SVGID_125); fill-rule: evenodd" stroke-linecap="round" d="M 96.4409 36 L 60.3785 72 L 48.3575 60 L 48.2874 60.07 L 47.9319 59.719 L 47.5764 59.368 L 47.6504 59.2941 L 24.316 36 L 39.1653 21.1765 L 39.8724 21.8824 L 25.7302 36 L 60.3785 70.5882 L 95.0267 36 L 60.3785 1.4118 L 49.1326 12.6381 L 48.4216 11.9362 L 60.3785 0 L 96.4409 36 Z"/>
</g>
<path transform="translate(0,0)" style="fill: rgb(1,1,1)" stroke-linecap="round" d="M 118.605 6.6788 L 118.605 32.5873 C 118.605 33.4231 118.814 34.0499 119.232 34.4678 C 119.65 34.8857 120.277 35.0946 121.321 35.0946 L 133.23 35.0946 L 133.648 40.9449 C 130.305 41.3628 125.291 41.5717 119.023 41.5717 C 116.307 41.5717 114.427 40.9449 112.964 39.4823 C 111.711 38.2287 111.084 36.3482 111.084 34.0499 L 111.084 6.6788 L 118.605 6.6788 L 118.605 6.6788 Z M 145.348 41.3628 L 137.826 41.3628 L 137.826 6.6788 L 145.348 6.6788 L 145.348 41.3628 Z M 178.149 12.947 L 167.911 12.947 L 167.911 41.3628 L 160.181 41.3628 L 160.181 12.947 L 149.944 12.947 L 149.944 6.6788 L 178.358 6.6788 L 178.358 12.947 L 178.149 12.947 Z M 195.281 28.1996 L 188.386 25.6923 C 185.879 24.8566 183.999 23.394 182.954 21.9314 C 181.909 20.2599 181.283 18.1705 181.283 15.6632 C 181.283 11.9023 182.118 9.395 183.999 7.9325 C 185.879 6.6788 189.222 6.052 193.818 6.052 C 198.206 6.052 201.966 6.4699 205.1 7.3056 L 204.682 12.5291 C 201.757 12.5291 198.206 12.3202 193.818 12.3202 C 191.729 12.3202 190.475 12.5291 189.849 12.947 C 189.222 13.3649 188.804 14.2006 188.804 15.6632 C 188.804 16.7079 189.013 17.5437 189.64 18.1705 C 190.057 18.5884 191.102 19.2152 192.565 19.6331 L 199.041 21.9314 C 201.757 22.7672 203.638 24.2297 204.682 25.6923 C 205.727 27.3638 206.354 29.4532 206.354 31.9605 C 206.354 35.9303 205.518 38.4376 203.638 39.9002 C 201.757 41.3628 198.414 41.9896 193.609 41.9896 C 189.64 41.9896 185.67 41.5717 181.701 40.736 L 182.118 35.3035 C 189.222 35.5125 192.982 35.5125 193.609 35.5125 C 195.698 35.5125 196.952 35.3035 197.788 34.8857 C 198.414 34.4678 198.832 33.632 198.832 32.1694 C 198.832 30.9158 198.623 30.08 198.206 29.6622 C 197.37 29.0353 196.534 28.6175 195.281 28.1996 L 195.281 28.1996 Z M 219.098 6.6788 L 219.098 32.5873 C 219.098 33.4231 219.307 34.0499 219.725 34.4678 C 220.143 34.8857 220.769 35.0946 221.814 35.0946 L 233.723 35.0946 L 234.141 40.9449 C 230.798 41.3628 225.784 41.5717 219.516 41.5717 C 216.8 41.5717 214.92 40.9449 213.457 39.4823 C 211.995 38.0197 211.577 36.3482 211.577 34.0499 L 211.577 6.6788 L 219.098 6.6788 L 219.098 6.6788 Z M 246.049 41.3628 L 238.528 41.3628 L 238.528 6.6788 L 246.049 6.6788 L 246.049 41.3628 Z M 282.193 6.6788 L 282.193 38.4376 C 282.193 40.3181 281.358 41.1538 279.477 41.1538 L 274.672 41.1538 C 273.836 41.1538 273.209 40.9449 272.792 40.527 C 272.374 40.1091 271.956 39.6913 271.538 38.8555 L 262.554 20.4688 C 261.51 17.9616 260.674 16.29 260.465 15.0364 L 259.838 15.0364 C 260.047 16.7079 260.256 18.5884 260.256 20.4688 L 260.256 41.3628 L 252.944 41.3628 L 252.944 9.604 C 252.944 7.7235 253.779 6.8878 255.66 6.8878 L 260.256 6.8878 C 261.092 6.8878 261.719 7.0967 262.136 7.5146 C 262.554 7.9325 262.972 8.3503 263.39 9.1861 L 272.165 27.1549 C 273.001 28.8264 273.836 30.7069 274.672 32.7963 L 275.09 32.7963 C 274.881 30.289 274.881 28.1996 274.881 26.946 L 274.881 6.6788 L 282.193 6.6788 L 282.193 6.6788 Z M 299.325 26.1102 L 296.4 26.1102 C 296.609 27.3638 296.818 28.6175 296.818 29.4532 L 296.818 41.3628 L 289.297 41.3628 L 289.297 6.6788 L 296.818 6.6788 L 296.818 16.499 C 296.818 17.9616 296.609 19.4241 296.4 20.6778 L 299.325 20.6778 L 308.1 6.8878 L 316.457 6.8878 L 307.473 20.6778 C 306.846 21.7225 306.011 22.5582 304.966 23.394 L 304.966 23.6029 C 306.22 24.4387 307.055 25.4834 307.891 26.737 L 317.084 41.5717 L 308.518 41.5717 L 299.325 26.1102 L 299.325 26.1102 Z"/>
<path transform="translate(0,0)" style="fill: rgb(1,1,1)" stroke-linecap="round" d="M 111.084 45.9827 L 317.084 45.9827 L 317.084 47.9792 L 111.084 47.9792 L 111.084 45.9827 Z"/>
<path transform="translate(0,0)" style="fill: rgb(1,1,1)" stroke-linecap="round" d="M 115.273 61.6956 L 113.126 61.1937 C 112.395 61.0264 111.872 60.7266 111.557 60.2944 C 111.242 59.8622 111.084 59.2697 111.084 58.5168 C 111.084 57.9591 111.147 57.5106 111.272 57.1713 C 111.397 56.8321 111.612 56.5765 111.917 56.4045 C 112.222 56.2326 112.563 56.1187 112.938 56.0629 C 113.313 56.0072 113.816 55.9793 114.447 55.9793 C 115.668 55.9979 116.694 56.0908 117.524 56.2581 L 117.434 57.1504 C 116.464 57.1039 115.488 57.0807 114.507 57.0807 C 114.067 57.0807 113.741 57.09 113.531 57.1086 C 113.321 57.1272 113.116 57.183 112.916 57.2759 C 112.715 57.3689 112.583 57.5152 112.518 57.7151 C 112.453 57.9149 112.42 58.1914 112.42 58.5447 C 112.42 59.0559 112.518 59.4184 112.713 59.6321 C 112.908 59.8459 113.246 60.0086 113.726 60.1201 L 115.828 60.6081 C 116.599 60.7847 117.139 61.0868 117.449 61.5144 C 117.76 61.9419 117.915 62.5414 117.915 63.3129 C 117.915 64.3725 117.657 65.0743 117.142 65.4182 C 116.626 65.7621 115.728 65.9341 114.447 65.9341 C 113.356 65.9341 112.285 65.8458 111.234 65.6692 L 111.324 64.7629 C 113.006 64.8187 114.062 64.8419 114.492 64.8326 C 115.313 64.8326 115.866 64.735 116.151 64.5398 C 116.436 64.3446 116.579 63.9264 116.579 63.285 C 116.579 62.7552 116.481 62.3857 116.286 62.1766 C 116.091 61.9675 115.753 61.8071 115.273 61.6956 Z M 129.402 57.2341 L 126.054 57.2341 L 126.054 65.7667 L 124.733 65.7667 L 124.733 57.2341 L 121.4 57.2341 L 121.4 56.1466 L 129.402 56.1466 L 129.402 57.2341 Z M 138.036 62.7552 L 133.773 62.7552 L 132.752 65.7667 L 131.386 65.7667 L 134.718 56.4812 C 134.779 56.2581 134.944 56.1466 135.214 56.1466 L 136.595 56.1466 C 136.865 56.1466 137.03 56.2581 137.091 56.4812 L 140.423 65.7667 L 139.057 65.7667 L 138.036 62.7552 Z M 137.676 61.6956 L 136.37 57.8754 C 136.28 57.6338 136.195 57.3735 136.115 57.0947 L 135.694 57.0947 L 135.439 57.8754 L 134.133 61.6956 L 137.676 61.6956 Z M 151.535 65.7667 L 150.124 65.7667 L 149.208 62.7552 C 149.078 62.3927 148.903 62.1348 148.683 61.9814 C 148.462 61.8281 148.177 61.7514 147.827 61.7514 C 147.477 61.7514 147.049 61.7491 146.543 61.7444 C 146.038 61.7398 145.705 61.7374 145.545 61.7374 L 145.545 65.7667 L 144.239 65.7667 L 144.239 56.1466 C 145.079 56.0629 146.27 56.0211 147.812 56.0211 C 149.043 56.0211 149.909 56.2186 150.409 56.6136 C 150.909 57.0087 151.16 57.736 151.16 58.7956 C 151.16 59.5857 151.012 60.1759 150.717 60.5663 C 150.422 60.9567 149.934 61.1937 149.253 61.2773 L 149.253 61.347 C 149.533 61.4121 149.788 61.5632 150.019 61.8002 C 150.249 62.0372 150.419 62.3462 150.529 62.7273 L 151.535 65.7667 Z M 145.545 60.6918 L 147.782 60.6918 C 148.562 60.6825 149.098 60.5523 149.388 60.3014 C 149.678 60.0504 149.824 59.5717 149.824 58.8653 C 149.824 58.1682 149.678 57.6965 149.388 57.4502 C 149.098 57.2039 148.562 57.0807 147.782 57.0807 C 146.681 57.0807 145.935 57.0854 145.545 57.0947 L 145.545 60.6918 Z M 162.767 57.2341 L 159.419 57.2341 L 159.419 65.7667 L 158.098 65.7667 L 158.098 57.2341 L 154.765 57.2341 L 154.765 56.1466 L 162.767 56.1466 L 162.767 57.2341 Z M 174.254 56.1466 L 174.254 62.086 C 174.254 63.4895 173.973 64.4841 173.413 65.0696 C 172.852 65.6552 171.897 65.948 170.546 65.948 C 169.144 65.948 168.156 65.6552 167.581 65.0696 C 167.005 64.4841 166.717 63.4895 166.717 62.086 L 166.717 56.1466 L 168.038 56.1466 L 168.038 62.086 C 168.038 63.1177 168.219 63.8357 168.579 64.2401 C 168.939 64.6444 169.575 64.8466 170.485 64.8466 C 171.386 64.8466 172.019 64.6444 172.385 64.2401 C 172.75 63.8357 172.933 63.1177 172.933 62.086 L 172.933 56.1466 L 174.254 56.1466 Z M 179.15 65.7667 L 179.15 56.1466 C 179.991 56.0629 181.177 56.0211 182.708 56.0211 C 183.969 56.0211 184.84 56.2326 185.32 56.6555 C 185.801 57.0784 186.041 57.8708 186.041 59.0326 C 186.041 60.1945 185.808 60.9869 185.343 61.4098 C 184.877 61.8327 184.049 62.0442 182.858 62.0442 C 182.038 62.0442 181.242 62.0023 180.471 61.9187 L 180.471 65.7667 L 179.15 65.7667 Z M 180.471 60.9846 L 182.693 60.9846 C 183.464 60.9753 183.992 60.8382 184.277 60.5733 C 184.562 60.3083 184.705 59.7948 184.705 59.0326 C 184.705 58.2705 184.56 57.7546 184.269 57.485 C 183.979 57.2155 183.454 57.0807 182.693 57.0807 C 181.602 57.0807 180.861 57.0854 180.471 57.0947 L 180.471 60.9846 Z M 194.075 61.6956 L 191.928 61.1937 C 191.197 61.0264 190.675 60.7266 190.359 60.2944 C 190.044 59.8622 189.886 59.2697 189.886 58.5168 C 189.886 57.9591 189.949 57.5106 190.074 57.1713 C 190.199 56.8321 190.414 56.5765 190.72 56.4045 C 191.025 56.2326 191.365 56.1187 191.74 56.0629 C 192.116 56.0072 192.619 55.9793 193.249 55.9793 C 194.47 55.9979 195.496 56.0908 196.327 56.2581 L 196.237 57.1504 C 195.266 57.1039 194.29 57.0807 193.309 57.0807 C 192.869 57.0807 192.544 57.09 192.333 57.1086 C 192.123 57.1272 191.918 57.183 191.718 57.2759 C 191.518 57.3689 191.385 57.5152 191.32 57.7151 C 191.255 57.9149 191.222 58.1914 191.222 58.5447 C 191.222 59.0559 191.32 59.4184 191.515 59.6321 C 191.71 59.8459 192.048 60.0086 192.529 60.1201 L 194.63 60.6081 C 195.401 60.7847 195.942 61.0868 196.252 61.5144 C 196.562 61.9419 196.717 62.5414 196.717 63.3129 C 196.717 64.3725 196.459 65.0743 195.944 65.4182 C 195.429 65.7621 194.53 65.9341 193.249 65.9341 C 192.158 65.9341 191.087 65.8458 190.036 65.6692 L 190.127 64.7629 C 191.808 64.8187 192.864 64.8419 193.294 64.8326 C 194.115 64.8326 194.668 64.735 194.953 64.5398 C 195.238 64.3446 195.381 63.9264 195.381 63.285 C 195.381 62.7552 195.283 62.3857 195.088 62.1766 C 194.893 61.9675 194.555 61.8071 194.075 61.6956 Z M 208.131 56.1466 L 208.131 63.8148 C 208.131 64.4283 208.467 64.735 209.137 64.735 L 212.875 64.735 L 212.935 65.6831 C 212.065 65.7482 210.728 65.7807 208.927 65.7807 C 207.526 65.7807 206.825 65.1765 206.825 63.9682 L 206.825 56.1466 L 208.131 56.1466 Z M 222.426 62.7552 L 218.162 62.7552 L 217.141 65.7667 L 215.775 65.7667 L 219.108 56.4812 C 219.168 56.2581 219.333 56.1466 219.603 56.1466 L 220.984 56.1466 C 221.255 56.1466 221.42 56.2581 221.48 56.4812 L 224.813 65.7667 L 223.446 65.7667 L 222.426 62.7552 Z M 222.065 61.6956 L 220.759 57.8754 C 220.669 57.6338 220.584 57.3735 220.504 57.0947 L 220.084 57.0947 L 219.828 57.8754 L 218.522 61.6956 L 222.065 61.6956 Z M 233.687 60.7475 L 233.687 60.8033 C 234.438 60.8684 234.971 61.1124 235.286 61.5353 C 235.602 61.9582 235.759 62.5693 235.759 63.3687 C 235.759 64.3353 235.514 64.9953 235.024 65.3485 C 234.533 65.7017 233.677 65.8783 232.456 65.8783 C 230.795 65.8783 229.519 65.8411 228.628 65.7667 L 228.628 56.1466 C 229.419 56.0722 230.54 56.035 231.991 56.035 C 233.282 56.035 234.18 56.2093 234.686 56.5579 C 235.191 56.9064 235.444 57.5687 235.444 58.5447 C 235.444 59.2418 235.304 59.7692 235.024 60.1271 C 234.743 60.485 234.298 60.6918 233.687 60.7475 Z M 229.919 60.3153 L 232.141 60.3153 C 232.912 60.306 233.442 60.1898 233.732 59.9668 C 234.023 59.7437 234.168 59.3161 234.168 58.6841 C 234.168 58.0427 234.01 57.6152 233.695 57.4014 C 233.38 57.1876 232.792 57.0807 231.931 57.0807 L 229.919 57.0807 L 229.919 60.3153 Z M 229.919 61.2495 L 229.919 64.8187 C 230.33 64.828 231.105 64.8326 232.246 64.8326 C 233.087 64.8326 233.66 64.7211 233.965 64.498 C 234.27 64.2749 234.423 63.8288 234.423 63.1595 C 234.423 62.4252 234.26 61.928 233.935 61.6677 C 233.61 61.4075 233.017 61.268 232.156 61.2495 L 229.919 61.2495 Z M 244.003 55.9653 C 245.525 55.9653 246.586 56.3302 247.186 57.0598 C 247.787 57.7895 248.087 59.0884 248.087 60.9567 C 248.087 62.8249 247.787 64.1239 247.186 64.8535 C 246.586 65.5832 245.525 65.948 244.003 65.948 C 242.482 65.948 241.419 65.5832 240.813 64.8535 C 240.208 64.1239 239.905 62.8249 239.905 60.9567 C 239.905 59.0884 240.208 57.7895 240.813 57.0598 C 241.419 56.3302 242.482 55.9653 244.003 55.9653 Z M 244.003 57.0668 C 242.982 57.0668 242.277 57.3479 241.887 57.9103 C 241.496 58.4726 241.301 59.4881 241.301 60.9567 C 241.301 62.4253 241.496 63.4407 241.887 64.0031 C 242.277 64.5654 242.982 64.8466 244.003 64.8466 C 245.024 64.8466 245.73 64.5654 246.12 64.0031 C 246.51 63.4407 246.706 62.4253 246.706 60.9567 C 246.706 59.4881 246.51 58.4726 246.12 57.9103 C 245.73 57.3479 245.024 57.0668 244.003 57.0668 Z M 259.979 65.7667 L 258.568 65.7667 L 257.652 62.7552 C 257.522 62.3927 257.347 62.1348 257.127 61.9814 C 256.907 61.8281 256.621 61.7514 256.271 61.7514 C 255.921 61.7514 255.493 61.7491 254.987 61.7444 C 254.482 61.7398 254.149 61.7374 253.989 61.7374 L 253.989 65.7667 L 252.683 65.7667 L 252.683 56.1466 C 253.524 56.0629 254.715 56.0211 256.256 56.0211 C 257.487 56.0211 258.353 56.2186 258.853 56.6136 C 259.354 57.0087 259.604 57.736 259.604 58.7956 C 259.604 59.5857 259.456 60.1759 259.161 60.5663 C 258.866 60.9567 258.378 61.1937 257.697 61.2773 L 257.697 61.347 C 257.977 61.4121 258.233 61.5632 258.463 61.8002 C 258.693 62.0372 258.863 62.3462 258.973 62.7273 L 259.979 65.7667 Z M 253.989 60.6918 L 256.226 60.6918 C 257.007 60.6825 257.542 60.5523 257.832 60.3014 C 258.123 60.0504 258.268 59.5717 258.268 58.8653 C 258.268 58.1682 258.123 57.6965 257.832 57.4502 C 257.542 57.2039 257.007 57.0807 256.226 57.0807 C 255.125 57.0807 254.379 57.0854 253.989 57.0947 L 253.989 60.6918 Z M 269.815 62.7552 L 265.551 62.7552 L 264.53 65.7667 L 263.164 65.7667 L 266.497 56.4812 C 266.557 56.2581 266.722 56.1466 266.992 56.1466 L 268.373 56.1466 C 268.644 56.1466 268.809 56.2581 268.869 56.4812 L 272.202 65.7667 L 270.836 65.7667 L 269.815 62.7552 Z M 269.454 61.6956 L 268.148 57.8754 C 268.058 57.6338 267.973 57.3735 267.893 57.0947 L 267.473 57.0947 L 267.217 57.8754 L 265.911 61.6956 L 269.454 61.6956 Z M 282.187 57.2341 L 278.84 57.2341 L 278.84 65.7667 L 277.518 65.7667 L 277.518 57.2341 L 274.186 57.2341 L 274.186 56.1466 L 282.187 56.1466 L 282.187 57.2341 Z M 289.711 55.9653 C 291.232 55.9653 292.293 56.3302 292.894 57.0598 C 293.494 57.7895 293.794 59.0884 293.794 60.9567 C 293.794 62.8249 293.494 64.1239 292.894 64.8535 C 292.293 65.5832 291.232 65.948 289.711 65.948 C 288.19 65.948 287.126 65.5832 286.521 64.8535 C 285.915 64.1239 285.612 62.8249 285.612 60.9567 C 285.612 59.0884 285.915 57.7895 286.521 57.0598 C 287.126 56.3302 288.19 55.9653 289.711 55.9653 Z M 289.711 57.0668 C 288.69 57.0668 287.985 57.3479 287.594 57.9103 C 287.204 58.4726 287.009 59.4881 287.009 60.9567 C 287.009 62.4253 287.204 63.4407 287.594 64.0031 C 287.985 64.5654 288.69 64.8466 289.711 64.8466 C 290.732 64.8466 291.437 64.5654 291.828 64.0031 C 292.218 63.4407 292.413 62.4253 292.413 60.9567 C 292.413 59.4881 292.218 58.4726 291.828 57.9103 C 291.437 57.3479 290.732 57.0668 289.711 57.0668 Z M 305.687 65.7667 L 304.276 65.7667 L 303.36 62.7552 C 303.23 62.3927 303.055 62.1348 302.834 61.9814 C 302.614 61.8281 302.329 61.7514 301.979 61.7514 C 301.628 61.7514 301.2 61.7491 300.695 61.7444 C 300.19 61.7398 299.857 61.7374 299.697 61.7374 L 299.697 65.7667 L 298.391 65.7667 L 298.391 56.1466 C 299.231 56.0629 300.422 56.0211 301.964 56.0211 C 303.195 56.0211 304.06 56.2186 304.561 56.6136 C 305.061 57.0087 305.311 57.736 305.311 58.7956 C 305.311 59.5857 305.164 60.1759 304.869 60.5663 C 304.573 60.9567 304.085 61.1937 303.405 61.2773 L 303.405 61.347 C 303.685 61.4121 303.94 61.5632 304.17 61.8002 C 304.401 62.0372 304.571 62.3462 304.681 62.7273 L 305.687 65.7667 Z M 299.697 60.6918 L 301.934 60.6918 C 302.714 60.6825 303.25 60.5523 303.54 60.3014 C 303.83 60.0504 303.975 59.5717 303.975 58.8653 C 303.975 58.1682 303.83 57.6965 303.54 57.4502 C 303.25 57.2039 302.714 57.0807 301.934 57.0807 C 300.833 57.0807 300.087 57.0854 299.697 57.0947 L 299.697 60.6918 Z M 313.646 62.3927 L 313.646 65.7667 L 312.325 65.7667 L 312.325 62.3788 L 308.887 56.1466 L 310.298 56.1466 L 312.475 60.2038 C 312.595 60.4269 312.75 60.7894 312.94 61.2913 L 313.045 61.2913 C 313.205 60.8823 313.36 60.5245 313.511 60.2177 L 315.688 56.1466 L 317.084 56.1466 L 313.646 62.3927 Z"/>
</svg>