<?xml version="1.0" encoding="utf-8"?>
<!-- Generator: Adobe Illustrator 15.1.0, SVG Export Plug-In . SVG Version: 6.00 Build 0)  -->
<!DOCTYPE svg PUBLIC "-//W3C//DTD SVG 1.1//EN" "http://www.w3.org/Graphics/SVG/1.1/DTD/svg11.dtd">
<svg version="1.1" id="Layer_1" xmlns="http://www.w3.org/2000/svg" xmlns:xlink="http://www.w3.org/1999/xlink" x="0px" y="0px"
	 width="293px" height="84.22px" viewBox="0 0 293 84.22" enable-background="new 0 0 293 84.22" xml:space="preserve">
<g>
	<g>
		<path fill="#FFFFFF" d="M134.011,71.817c-2.079,0.795-4.211,1.383-6.395,1.765c-2.186,0.382-4.439,0.573-6.762,0.573
			c-7.272,0-12.875-1.972-16.8-5.913c-3.928-3.942-5.891-9.702-5.891-17.282c0-3.636,0.565-6.937,1.695-9.901
			c1.131-2.964,2.721-5.501,4.767-7.61c2.049-2.109,4.493-3.735,7.335-4.882c2.843-1.146,5.975-1.719,9.398-1.719
			c2.383,0,4.614,0.167,6.693,0.505c2.078,0.335,4.064,0.886,5.959,1.649v7.61c-1.987-1.039-4.011-1.795-6.074-2.27
			c-2.063-0.473-4.195-0.71-6.395-0.71c-2.048,0-3.981,0.39-5.799,1.168c-1.818,0.78-3.417,1.904-4.791,3.37
			c-1.375,1.468-2.46,3.256-3.255,5.363c-0.794,2.109-1.191,4.492-1.191,7.15c0,5.563,1.352,9.727,4.057,12.492
			c2.704,2.767,6.455,4.15,11.253,4.15c2.169,0,4.27-0.245,6.303-0.734c2.032-0.489,3.996-1.223,5.891-2.2V71.817z"/>
		<path fill="#FFFFFF" d="M186.957,72.872c-1.803,0.458-3.667,0.787-5.593,0.985c-1.924,0.199-3.88,0.298-5.867,0.298
			c-5.775,0-10.086-1.306-12.926-3.919c-2.844-2.613-4.265-6.624-4.265-12.032V34.182h-12.881v-6.693h12.881V14.837l7.978-2.062
			v14.714h20.674v6.693h-20.674v23.379c0,3.3,0.878,5.769,2.634,7.402c1.758,1.636,4.349,2.454,7.772,2.454
			c1.466,0,3.07-0.115,4.811-0.344c1.744-0.23,3.562-0.588,5.457-1.078V72.872z"/>
		<path fill="#FFFFFF" d="M238.48,73.513h-7.151l-0.274-7.426c-1.377,1.59-2.682,2.91-3.92,3.966
			c-1.236,1.053-2.468,1.901-3.689,2.543c-1.223,0.642-2.453,1.093-3.69,1.351c-1.238,0.26-2.545,0.391-3.919,0.391
			c-4.738,0-8.313-1.39-10.727-4.172c-2.415-2.781-3.622-6.982-3.622-12.605V27.489h7.977v29.431c0,7.059,2.659,10.59,7.976,10.59
			c0.978,0,1.932-0.145,2.866-0.437c0.931-0.291,1.908-0.795,2.933-1.513c1.023-0.718,2.123-1.689,3.301-2.912
			c1.176-1.221,2.499-2.764,3.966-4.629V27.489h7.975V73.513z"/>
		<path fill="#FFFFFF" d="M291.977,48.073c0,1.13-0.016,2.077-0.046,2.841c-0.029,0.764-0.076,1.483-0.137,2.155h-32.318
			c0,4.707,1.315,8.32,3.943,10.841s6.418,3.783,11.369,3.783c1.344,0,2.688-0.053,4.034-0.162c1.344-0.105,2.642-0.25,3.896-0.435
			c1.252-0.184,2.451-0.39,3.597-0.619c1.147-0.229,2.208-0.482,3.187-0.757v6.556c-2.17,0.611-4.624,1.108-7.358,1.49
			c-2.734,0.382-5.569,0.573-8.503,0.573c-3.942,0-7.334-0.535-10.177-1.605c-2.842-1.069-5.172-2.62-6.992-4.652
			c-1.817-2.032-3.161-4.522-4.033-7.472c-0.871-2.948-1.307-6.286-1.307-10.016c0-3.238,0.465-6.303,1.398-9.191
			c0.933-2.887,2.292-5.424,4.08-7.609c1.787-2.185,3.979-3.92,6.578-5.203c2.597-1.284,5.547-1.926,8.848-1.926
			c3.208,0,6.051,0.506,8.526,1.513c2.477,1.01,4.561,2.438,6.257,4.287s2.979,4.096,3.851,6.738
			C291.542,41.846,291.977,44.801,291.977,48.073z M283.68,46.927c0.093-2.048-0.107-3.92-0.596-5.617
			c-0.489-1.695-1.246-3.154-2.269-4.377c-1.023-1.223-2.3-2.177-3.827-2.866c-1.529-0.687-3.301-1.03-5.318-1.03
			c-1.743,0-3.331,0.335-4.767,1.007c-1.438,0.672-2.675,1.621-3.714,2.844c-1.039,1.221-1.879,2.688-2.52,4.398
			c-0.645,1.712-1.04,3.592-1.194,5.64H283.68z"/>
	</g>
	<path fill="#FFFFFF" d="M31.93,83.783c-0.719,0-1.449-0.122-2.163-0.378C12.56,77.223,1,60.785,1,42.5
		C1,24.039,12.711,7.549,30.142,1.468c3.336-1.166,6.986,0.596,8.149,3.934c1.165,3.335-0.597,6.984-3.933,8.148
		C22.06,17.841,13.797,29.475,13.797,42.5c0,12.901,8.156,24.5,20.297,28.86c3.326,1.195,5.053,4.859,3.857,8.185
		C37.014,82.156,34.553,83.783,31.93,83.783z"/>
	<path fill="#FFFFFF" d="M56.663,83.892c-2.646,0-5.121-1.652-6.042-4.292c-1.164-3.336,0.597-6.985,3.934-8.148
		C66.854,67.16,75.117,55.525,75.117,42.5c0-13.152-8.369-24.822-20.827-29.039c-3.347-1.133-5.142-4.765-4.008-8.113
		c1.133-3.348,4.766-5.144,8.111-4.008C76.05,7.317,87.914,23.857,87.914,42.5c0,18.462-11.711,34.953-29.143,41.034
		C58.073,83.777,57.361,83.892,56.663,83.892z"/>
</g>
</svg>
