<svg version="1.1" id="Layer_1" xmlns:x="ns_extend;" xmlns:i="ns_ai;" xmlns:graph="ns_graphs;" xmlns="http://www.w3.org/2000/svg" xmlns:xlink="http://www.w3.org/1999/xlink" x="0px" y="0px" viewBox="0 0 196 42" style="enable-background:new 0 0 196 42;" xml:space="preserve">
 <metadata>
  <sfw xmlns="ns_sfw;">
   <slices>
   </slices>
   <sliceSourceBounds bottomLeftOrigin="true" height="42" width="196" x="102.3" y="-221.2">
   </sliceSourceBounds>
  </sfw>
 </metadata>
 <g>
  <path d="M0,3.8C0,1.7,1.7,0,3.8,0h15.1c2.1,0,3.8,1.7,3.8,3.8v3c0,1.1-0.9,1.9-1.9,1.9H1.9C0.9,8.8,0,7.9,0,6.8V3.8z">
  </path>
  <path d="M0,15.9C0,14.9,0.9,14,1.9,14h36.2c2.1,0,3.8,1.7,3.8,3.8v10c0,1.1-0.9,1.9-1.9,1.9H3.8C1.7,29.8,0,28,0,25.9V15.9z">
  </path>
  <path d="M19.2,36.9c0-1.1,0.9-1.9,1.9-1.9h18.9c1.1,0,1.9,0.9,1.9,1.9v1.2c0,2.1-1.7,3.8-3.8,3.8H23.1c-2.1,0-3.8-1.7-3.8-3.8V36.9
		z">
  </path>
  <path d="M65.8,25.8h4l7.5,12.3h9.2l-8.3-13.1c4.6-1.6,7.3-5.2,7.3-10.3c0-7.2-5.1-11.1-13.2-11.1H57.8v34.6h8V25.8z M65.8,19.2v-9
		h6.1c3.8,0,5.7,1.6,5.7,4.5c0,2.8-1.9,4.5-5.7,4.5H65.8z">
  </path>
  <path d="M100.4,38.6c5.1,0,9.7-2.6,11.6-7.4l-6.5-2.1c-0.7,2.2-2.6,3.4-5,3.4c-2.9,0-5-2-5.5-5.4h17.2v-2c0-7.2-4.2-12.9-11.9-12.9
		c-7.3,0-12.7,5.7-12.7,13.2C87.5,33.3,92.7,38.6,100.4,38.6z M100.1,18.1c2.8,0,4.3,1.9,4.4,4.2h-9.3C96,19.5,97.8,18.1,100.1,18.1
		z">
  </path>
  <path d="M116.5,31.3c0,5.2,2.7,7,8.2,7c1.8,0,3.3-0.1,4.6-0.3v-6.3c-0.9,0.1-1.3,0.1-2.2,0.1c-1.9,0-3-0.4-3-2.5V19.1h5v-6.4h-5v-7
		h-7.6v7h-3.2v6.4h3.2V31.3z">
  </path>
  <path d="M156.9,25.4c0-7.9-5.2-13.2-12.7-13.2c-7.5,0-12.7,5.3-12.7,13.2s5.2,13.2,12.7,13.2C151.7,38.6,156.9,33.3,156.9,25.4z
		 M139.2,25.4c0-4.4,2-6.9,5.1-6.9c3.1,0,5.1,2.5,5.1,6.9s-2,6.9-5.1,6.9C141.1,32.3,139.2,29.8,139.2,25.4z">
  </path>
  <path d="M184.7,25.4c0-7.9-5.2-13.2-12.7-13.2c-7.5,0-12.7,5.3-12.7,13.2s5.2,13.2,12.7,13.2C179.4,38.6,184.7,33.3,184.7,25.4z
		 M166.9,25.4c0-4.4,2-6.9,5.1-6.9c3.1,0,5.1,2.5,5.1,6.9s-2,6.9-5.1,6.9C168.9,32.3,166.9,29.8,166.9,25.4z">
  </path>
  <path d="M196,3.5h-7.7v34.6h7.7V3.5z">
  </path>
 </g>
</svg>