<?xml version="1.0" encoding="UTF-8"?>
<svg width="3396px" height="846px" viewBox="0 0 3396 846" version="1.1" xmlns="http://www.w3.org/2000/svg" xmlns:xlink="http://www.w3.org/1999/xlink">
    <title>Artboard Copy 4</title>
    <g id="Artboard-Copy-4" stroke="none" stroke-width="1" fill="none" fill-rule="evenodd">
        <g id="logo" transform="translate(147, 121)">
            <g id="Combined-Shape" transform="translate(0, 229)">
                <g id="path-1-link" fill="#000000" fill-rule="nonzero">
                    <polygon id="path-1" points="421.739638 0 473.53209 32.4137784 475 34.7671666 54.4064852 298 0 263.949843"></polygon>
                </g>
                <g id="path-1-link" fill="#FFFFFF">
                    <polygon id="path-1" points="421.739638 0 473.53209 32.4137784 475 34.7671666 54.4064852 298 0 263.949843"></polygon>
                </g>
            </g>
            <g id="Combined-Shape-Copy-5" transform="translate(263.5, 454) scale(-1, 1) translate(-263.5, -454)translate(26, 305)">
                <g id="path-3-link" fill="#000000" fill-rule="nonzero">
                    <polygon id="path-3" points="421.739638 0 473.53209 32.4137784 475 34.7671666 54.4064852 298 0 263.949843"></polygon>
                </g>
                <g id="path-3-link" fill="#FFFFFF">
                    <polygon id="path-3" points="421.739638 0 473.53209 32.4137784 475 34.7671666 54.4064852 298 0 263.949843"></polygon>
                </g>
            </g>
            <g id="Combined-Shape-Copy-4" transform="translate(262.5, 226) scale(-1, 1) translate(-262.5, -226)translate(25, 77)">
                <g id="path-5-link" fill="#000000" fill-rule="nonzero">
                    <polygon id="path-5" points="54.3418934 0 475 263.695975 474.507154 264.481861 421.036881 298 0 34.065122"></polygon>
                </g>
                <g id="path-5-link" fill="#FFFFFF">
                    <polygon id="path-5" points="54.3418934 0 475 263.695975 474.507154 264.481861 421.036881 298 0 34.065122"></polygon>
                </g>
            </g>
            <g id="Combined-Shape">
                <g id="path-7-link" fill="#000000" fill-rule="nonzero">
                    <polygon id="path-7" points="54.3418934 0 475 263.695975 474.507154 264.481861 421.036881 298 0 34.065122"></polygon>
                </g>
                <g id="path-7-link" fill="#FFFFFF">
                    <polygon id="path-7" points="54.3418934 0 475 263.695975 474.507154 264.481861 421.036881 298 0 34.065122"></polygon>
                </g>
            </g>
        </g>
        <text id="Sourcemeta" font-family="SFProDisplay-Semibold, SF Pro Display" font-size="449" font-weight="500" letter-spacing="-9.62142857" fill="#FFFFFF">
            <tspan x="799" y="549">Sourcemeta</tspan>
        </text>
    </g>
</svg>