<svg width="2719" height="523" viewBox="0 0 2719 523" fill="none" xmlns="http://www.w3.org/2000/svg">
<path d="M914.353 165.548V217.562C903.381 210.519 891.935 205.236 880.015 201.714C868.231 198.057 856.379 196.228 844.459 196.228C831.184 196.228 821.16 198.192 814.388 202.12C807.615 205.913 804.229 211.602 804.229 219.188C804.229 230.024 818.722 238.829 847.71 245.601L849.945 246.211L867.012 250.275C888.685 255.422 904.533 263.752 914.556 275.266C924.716 286.644 929.795 302.086 929.795 321.591C929.795 345.025 922.074 362.634 906.632 374.419C891.326 386.068 868.231 391.892 837.347 391.892C823.666 391.892 809.647 390.673 795.289 388.235C780.93 385.932 766.369 382.41 751.605 377.67V325.655C764.744 333.105 778.086 338.794 791.631 342.722C805.312 346.65 818.519 348.615 831.252 348.615C845.204 348.615 855.769 346.583 862.948 342.519C870.127 338.455 873.717 332.563 873.717 324.842C873.717 317.257 871.143 311.432 865.996 307.369C860.984 303.305 848.929 298.97 829.83 294.365L813.372 290.708C790.615 285.56 774.022 277.501 763.592 266.529C753.162 255.557 747.947 240.86 747.947 222.439C747.947 200.495 755.871 183.428 771.72 171.237C787.568 159.046 809.85 152.95 838.566 152.95C851.435 152.95 864.235 154.034 876.968 156.201C889.836 158.233 902.298 161.349 914.353 165.548ZM996.236 306.556V158.436H1055.77V297.413C1055.77 313.803 1058.07 325.52 1062.68 332.563C1067.28 339.607 1074.93 343.129 1085.64 343.129C1096.34 343.129 1104.67 338.388 1110.63 328.906C1116.72 319.424 1119.77 306.15 1119.77 289.082V158.436H1179.3V386H1119.77V352.272C1115.57 364.869 1108.39 374.622 1098.23 381.53C1088.21 388.438 1076.09 391.892 1061.86 391.892C1040.19 391.892 1023.8 384.713 1012.69 370.355C1001.72 355.997 996.236 334.73 996.236 306.556ZM1304.26 353.897V472.555H1244.93V158.436H1304.26V192.571C1310.49 179.432 1318.69 169.544 1328.84 162.906C1339 156.269 1350.92 152.95 1364.6 152.95C1390.61 152.95 1410.79 163.38 1425.15 184.24C1439.51 205.1 1446.69 234.494 1446.69 272.421C1446.69 310.89 1439.38 340.42 1424.75 361.009C1410.25 381.598 1389.53 391.892 1362.57 391.892C1350.38 391.892 1339.41 388.777 1329.66 382.546C1320.04 376.18 1311.57 366.63 1304.26 353.897ZM1387.16 272.015C1387.16 250.071 1383.5 232.869 1376.19 220.407C1368.87 207.945 1358.78 201.714 1345.91 201.714C1333.04 201.714 1322.88 207.945 1315.43 220.407C1307.98 232.869 1304.26 250.071 1304.26 272.015C1304.26 293.959 1307.98 311.161 1315.43 323.623C1322.88 336.085 1333.04 342.316 1345.91 342.316C1358.78 342.316 1368.87 336.085 1376.19 323.623C1383.5 311.161 1387.16 293.959 1387.16 272.015ZM1607.41 279.126C1585.19 279.126 1569.68 281.971 1560.88 287.66C1552.07 293.349 1547.67 303.102 1547.67 316.918C1547.67 327.213 1550.72 335.408 1556.81 341.503C1562.91 347.599 1571.17 350.646 1581.6 350.646C1597.32 350.646 1609.51 344.754 1618.18 332.97C1626.84 321.05 1631.18 304.456 1631.18 283.19V279.126H1607.41ZM1690.3 256.167V386H1631.18V360.602C1624 370.626 1614.79 378.347 1603.55 383.765C1592.3 389.183 1579.91 391.892 1566.36 391.892C1540.49 391.892 1520.31 385.052 1505.82 371.371C1491.46 357.69 1484.28 338.591 1484.28 314.074C1484.28 287.525 1492.88 267.951 1510.08 255.354C1527.29 242.621 1553.9 236.255 1589.93 236.255H1631.18V226.299C1631.18 216.682 1627.66 209.435 1620.61 204.559C1613.71 199.547 1603.48 197.041 1589.93 197.041C1575.71 197.041 1561.89 198.87 1548.48 202.527C1535.21 206.049 1521.33 211.738 1506.83 219.594V168.799C1519.97 163.38 1533.31 159.384 1546.86 156.811C1560.4 154.237 1574.76 152.95 1589.93 152.95C1626.91 152.95 1652.85 160.468 1667.75 175.504C1682.79 190.539 1690.3 217.427 1690.3 256.167ZM1876.62 190.742V69.849H1935.95V386H1876.62V352.272C1870.26 365.411 1861.99 375.299 1851.83 381.936C1841.81 388.574 1829.96 391.892 1816.28 391.892C1790.27 391.892 1770.09 381.462 1755.73 360.602C1741.37 339.742 1734.19 310.349 1734.19 272.421C1734.19 233.952 1741.44 204.423 1755.93 183.834C1770.56 163.245 1791.35 152.95 1818.31 152.95C1830.5 152.95 1841.4 156.134 1851.02 162.5C1860.77 168.731 1869.31 178.145 1876.62 190.742ZM1793.72 272.828C1793.72 294.771 1797.38 311.974 1804.7 324.436C1812.01 336.898 1822.1 343.129 1834.97 343.129C1847.84 343.129 1858 336.898 1865.45 324.436C1872.9 311.974 1876.62 294.771 1876.62 272.828C1876.62 250.884 1872.9 233.681 1865.45 221.22C1858 208.758 1847.84 202.527 1834.97 202.527C1822.1 202.527 1812.01 208.758 1804.7 221.22C1797.38 233.681 1793.72 250.884 1793.72 272.828ZM2108.86 279.126C2086.64 279.126 2071.14 281.971 2062.33 287.66C2053.53 293.349 2049.12 303.102 2049.12 316.918C2049.12 327.213 2052.17 335.408 2058.27 341.503C2064.36 347.599 2072.63 350.646 2083.06 350.646C2098.77 350.646 2110.96 344.754 2119.63 332.97C2128.3 321.05 2132.63 304.456 2132.63 283.19V279.126H2108.86ZM2191.76 256.167V386H2132.63V360.602C2125.45 370.626 2116.24 378.347 2105 383.765C2093.76 389.183 2081.36 391.892 2067.82 391.892C2041.94 391.892 2021.76 385.052 2007.27 371.371C1992.91 357.69 1985.73 338.591 1985.73 314.074C1985.73 287.525 1994.33 267.951 2011.54 255.354C2028.74 242.621 2055.35 236.255 2091.39 236.255H2132.63V226.299C2132.63 216.682 2129.11 209.435 2122.07 204.559C2115.16 199.547 2104.93 197.041 2091.39 197.041C2077.16 197.041 2063.35 198.87 2049.94 202.527C2036.66 206.049 2022.78 211.738 2008.28 219.594V168.799C2021.42 163.38 2034.77 159.384 2048.31 156.811C2061.86 154.237 2076.21 152.95 2091.39 152.95C2128.36 152.95 2154.3 160.468 2169.2 175.504C2184.24 190.539 2191.76 217.427 2191.76 256.167ZM2357.55 93.8245V158.436H2435.37V204.152H2357.55V311.839C2357.55 321.998 2359.99 329.312 2364.87 333.782C2369.88 338.117 2378.14 340.284 2389.66 340.284H2435.37V386H2385.39C2351.26 386 2328.16 380.582 2316.1 369.745C2304.05 358.774 2298.02 338.523 2298.02 308.994V204.152H2239.91V158.436H2298.02V93.8245H2357.55ZM2610.31 279.126C2588.1 279.126 2572.59 281.971 2563.78 287.66C2554.98 293.349 2550.58 303.102 2550.58 316.918C2550.58 327.213 2553.62 335.408 2559.72 341.503C2565.82 347.599 2574.08 350.646 2584.51 350.646C2600.22 350.646 2612.41 344.754 2621.08 332.97C2629.75 321.05 2634.08 304.456 2634.08 283.19V279.126H2610.31ZM2693.21 256.167V386H2634.08V360.602C2626.91 370.626 2617.69 378.347 2606.45 383.765C2595.21 389.183 2582.81 391.892 2569.27 391.892C2543.4 391.892 2523.21 385.052 2508.72 371.371C2494.36 357.69 2487.18 338.591 2487.18 314.074C2487.18 287.525 2495.79 267.951 2512.99 255.354C2530.19 242.621 2556.81 236.255 2592.84 236.255H2634.08V226.299C2634.08 216.682 2630.56 209.435 2623.52 204.559C2616.61 199.547 2606.38 197.041 2592.84 197.041C2578.62 197.041 2564.8 198.87 2551.39 202.527C2538.11 206.049 2524.23 211.738 2509.74 219.594V168.799C2522.88 163.38 2536.22 159.384 2549.76 156.811C2563.31 154.237 2577.67 152.95 2592.84 152.95C2629.82 152.95 2655.76 160.468 2670.66 175.504C2685.69 190.539 2693.21 217.427 2693.21 256.167Z" fill="black"/>
<g clip-path="url(#clip0_23_11)">
<rect y="11" width="512" height="512" rx="100" fill="black"/>
<rect x="0.346863" y="10.9597" width="512" height="512" rx="100" fill="black"/>
<path d="M0 438.475V371.23H94.1431L146.979 173.818H0V107.053H163.79L219.987 -105.73H290.114L233.917 107.053H369.848L428.447 -105.73H498.574L440.936 107.053H521.63V173.818H422.203L369.848 371.23H521.63V438.475H351.115L296.359 639.73H225.271L280.988 438.475H146.979L94.1431 639.73H23.0555L76.3712 438.475H0ZM164.75 371.23H299.241L353.517 173.818H216.145L164.75 371.23Z" fill="white"/>
</g>
<defs>
<clipPath id="clip0_23_11">
<rect y="11" width="512" height="512" rx="100" fill="white"/>
</clipPath>
</defs>
</svg>
