<?xml version="1.0" encoding="UTF-8"?>
<svg version="1.1" xmlns="http://www.w3.org/2000/svg" width="2513" height="299">
<path d="M0 0 C12.21 0 24.42 0 37 0 C42.50582014 23.30920364 47.71227842 46.67387597 52.82476807 70.07202148 C53.86278287 74.82048167 54.90318913 79.56841785 55.94335938 84.31640625 C57.96450352 93.54377627 59.9831196 102.77169716 62 112 C64.14234363 106.51470938 65.89627289 101.07250577 67.37255859 95.37524414 C67.58929733 94.55282227 67.80603607 93.73040039 68.02934265 92.88305664 C68.73951672 90.18474117 69.4439049 87.48494963 70.1484375 84.78515625 C70.64740255 82.88664003 71.14681018 80.98824009 71.64663696 79.08995056 C72.96008968 74.09811389 74.26898622 69.1050955 75.57647705 64.11169434 C77.66052146 56.15368085 79.74940557 48.19694479 81.84224319 40.24123955 C82.56499856 37.48986626 83.28453329 34.73766592 84.00375366 31.98536682 C84.45859549 30.25331409 84.91355604 28.52129253 85.36865234 26.78930664 C85.56102982 26.04948044 85.75340729 25.30965424 85.95161438 24.54740906 C88.12395959 16.30580906 90.5915018 8.18889389 93 0 C107.19 0 121.38 0 136 0 C136.84296631 3.37710205 137.68593262 6.7542041 138.55444336 10.23364258 C141.33536375 21.37387127 144.1175634 32.51378024 146.90042782 43.65352345 C148.58814797 50.40956252 150.27542662 57.16571129 151.96166992 63.92211914 C153.58805294 70.43867466 155.21566091 76.95492308 156.84402657 83.47098351 C157.46602786 85.96084074 158.08761401 88.45080173 158.7087841 90.94086647 C159.57682136 94.42024197 160.44631504 97.89925041 161.31616211 101.37817383 C161.57438751 102.41467072 161.83261292 103.4511676 162.09866333 104.51907349 C162.33563431 105.46558273 162.57260529 106.41209198 162.8167572 107.38728333 C163.02231704 108.21044446 163.22787687 109.03360559 163.43966579 109.88171101 C163.89578328 111.60601881 164.43597158 113.30791475 165 115 C165.19188227 114.12920775 165.19188227 114.12920775 165.38764095 113.24082375 C168.49770791 99.12771456 171.61070264 85.01525356 174.72697353 70.90351295 C176.23389535 64.07922198 177.73981854 57.25471349 179.2434082 50.4296875 C180.69338508 43.84803148 182.14612153 37.26699026 183.60057259 30.68632126 C184.1561102 28.17062089 184.7107094 25.65471311 185.26437187 23.1385994 C186.03764481 19.62521823 186.81419611 16.11257718 187.59155273 12.60009766 C187.82172592 11.55065475 188.05189911 10.50121185 188.28904724 9.41996765 C188.50077576 8.46641891 188.71250427 7.51287018 188.9306488 6.53042603 C189.20580401 5.28324012 189.20580401 5.28324012 189.48651791 4.01085854 C190 2 190 2 191 0 C202.88 0 214.76 0 227 0 C223.893319 14.24136107 220.5156791 28.40355434 217.0546875 42.5625 C216.47882326 44.92475818 215.90315423 47.28706395 215.32766724 49.64941406 C213.81731888 55.84772326 212.30500567 62.04555108 210.79205322 68.2432251 C208.39961842 78.04400741 206.00901801 87.84523648 203.62036896 97.64694214 C203.03638845 100.04293394 202.45217636 102.43886931 201.86772919 104.83474731 C198.85708572 117.17868447 195.86302751 129.525974 192.93847656 141.890625 C192.70188639 142.89007141 192.46529621 143.88951782 192.22153664 144.91925049 C191.12114873 149.57149754 190.02544464 154.22477442 188.93722534 158.87988281 C188.55734595 160.49285612 188.17739655 162.10581294 187.79736328 163.71875 C187.62788807 164.45111877 187.45841286 165.18348755 187.28380203 165.93804932 C186.1132187 170.8867813 186.1132187 170.8867813 185 172 C182.1883662 172.08861992 179.40141745 172.11522355 176.58984375 172.09765625 C175.74780899 172.0962413 174.90577423 172.09482635 174.03822327 172.09336853 C171.33794665 172.08775263 168.63775172 172.07519748 165.9375 172.0625 C164.11132932 172.05748705 162.28515734 172.05292379 160.45898438 172.04882812 C155.97262458 172.03777804 151.48632616 172.02050279 147 172 C140.06283477 147.20456537 133.46516596 122.31977937 126.8616333 97.43389893 C125.40747067 91.95501135 123.95170532 86.47654965 122.49609375 80.99804688 C119.66253556 70.33243639 116.83068976 59.66637211 114 49 C111.81797736 54.57742538 110.05379472 60.11851369 108.55151367 65.91259766 C108.32662766 66.76600235 108.10174164 67.61940704 107.87004089 68.49867249 C107.13211194 71.30279306 106.40005626 74.10841176 105.66796875 76.9140625 C105.14893884 78.8902709 104.62950715 80.86637381 104.10969543 82.84237671 C102.74225745 88.04434292 101.3796485 93.24756136 100.01824951 98.45111084 C97.85201359 106.72724296 95.67792968 115.001318 93.50481606 123.27564621 C92.75593201 126.12952601 92.0087812 128.98385441 91.26200867 131.83828735 C88.78018255 141.31427511 86.26658558 150.7812521 83.7043457 160.23583984 C83.44867671 161.18438654 83.19300772 162.13293324 82.92959118 163.11022377 C82.69169526 163.9838777 82.45379934 164.85753162 82.20869446 165.75765991 C81.99903707 166.53028357 81.78937967 167.30290722 81.57336903 168.09894371 C81 170 81 170 80 172 C67.13 172 54.26 172 41 172 C32.76709212 138.55369367 24.6677602 105.07702184 16.66894531 71.57397461 C15.14941011 65.2096545 13.62686533 58.84605829 12.10360527 52.48262882 C10.91156401 47.50118204 9.7212334 42.51932769 8.5314064 37.53735161 C7.96983537 35.18701084 7.40770176 32.83680441 6.84496689 30.48674202 C6.06658582 27.2351523 5.29056477 23.98300792 4.51513672 20.73071289 C4.28870987 19.7870134 4.06228302 18.8433139 3.82899475 17.87101746 C3.61640518 16.97728424 3.40381561 16.08355103 3.18478394 15.16273499 C3.00310606 14.40229417 2.82142818 13.64185335 2.63424492 12.85836887 C1.68649333 8.58711094 0.85803616 4.2901808 0 0 Z " fill="#4C71F1" transform="translate(27,53)"/>
<path d="M0 0 C102.23529412 0 102.23529412 0 119 15 C119.66515625 15.57234375 120.3303125 16.1446875 121.015625 16.734375 C138.07823251 32.45347011 143.90300034 55.49234232 145.1640625 77.91748047 C146.19985709 104.57624362 142.44868305 131.73893029 124.30859375 152.6015625 C113.23578631 164.10529138 99.49602182 169.4173297 84 172 C56.28 172 28.56 172 0 172 C0 115.24 0 58.48 0 0 Z M35 30 C35 67.29 35 104.58 35 143 C66.83527356 145.20728109 66.83527356 145.20728109 96.21875 133.94140625 C102.97265031 126.58024736 105.3248571 116.58085326 107 107 C107.18433594 105.98292969 107.36867188 104.96585937 107.55859375 103.91796875 C109.96692953 82.5413246 109.83361909 58.57586733 96.6875 40.5625 C80.39579546 25.02854916 55.19797751 30 35 30 Z " fill="#4D71F1" transform="translate(613,53)"/>
<path d="M0 0 C5.89931778 5.15019806 5.89931778 5.15019806 7.2734375 7.8984375 C7.6034375 2.9484375 7.9334375 -2.0015625 8.2734375 -7.1015625 C18.8334375 -7.1015625 29.3934375 -7.1015625 40.2734375 -7.1015625 C40.31881103 8.34672961 40.35555743 23.79498805 40.37706184 39.24332905 C40.38731785 46.41834737 40.40126772 53.59332096 40.42431641 60.76831055 C40.44442613 67.03146355 40.45719501 73.29458412 40.46161449 79.55776852 C40.46419256 82.86551146 40.47122557 86.17314154 40.48489761 89.48085976 C40.68171827 139.11982742 40.68171827 139.11982742 25.79296875 156.640625 C15.20575709 167.14618721 -2.46937797 169.10675167 -16.57006836 169.2277832 C-17.69421143 169.22222412 -18.81835449 169.21666504 -19.9765625 169.2109375 C-21.15806885 169.20602295 -22.3395752 169.2011084 -23.55688477 169.19604492 C-40.49561487 168.96979296 -56.9631509 166.55461971 -69.59765625 154.28515625 C-75.08792505 148.13001086 -78.19463174 141.1813594 -78.7265625 132.8984375 C-78.44308224 130.55852415 -78.11866138 128.22261779 -77.7265625 125.8984375 C-72.71623647 126.1279785 -67.7251148 126.49548319 -62.7265625 126.8984375 C-61.28941895 127.00381836 -61.28941895 127.00381836 -59.82324219 127.11132812 C-56.72339972 127.35364184 -53.63290715 127.65191831 -50.5390625 127.9609375 C-49.53544678 128.0328833 -48.53183105 128.1048291 -47.49780273 128.17895508 C-40.48647661 128.95190871 -40.48647661 128.95190871 -38.2512207 131.73608398 C-37.203125 133.8984375 -37.203125 133.8984375 -36.45947266 136.02734375 C-35.79947172 138.17324395 -35.79947172 138.17324395 -33.2890625 139.8359375 C-23.67195708 143.82351779 -12.26269087 142.48162346 -2.7265625 138.8984375 C1.86422376 135.40943994 3.59083828 131.97750017 4.81640625 126.44921875 C5.45778499 121.46619928 5.37802289 116.54131054 5.3359375 111.5234375 C5.33142578 110.50121094 5.32691406 109.47898437 5.32226562 108.42578125 C5.3105405 105.91660556 5.29412926 103.4075526 5.2734375 100.8984375 C4.71914062 101.63964844 4.16484375 102.38085938 3.59375 103.14453125 C-2.65942725 110.56623152 -12.20269827 117.24274585 -22.05175781 118.10107422 C-24.77912827 118.24389776 -27.49561929 118.30925231 -30.2265625 118.3359375 C-31.54406494 118.35140625 -31.54406494 118.35140625 -32.88818359 118.3671875 C-45.5809687 118.1968463 -56.06083405 113.47204283 -65.3515625 104.8984375 C-79.49214745 89.93194228 -83.24026399 70.51038781 -82.94140625 50.48046875 C-82.32390976 32.45800912 -77.0974769 16.22512226 -64.7265625 2.8984375 C-46.43682459 -13.07012572 -19.4888836 -15.02151773 0 0 Z M-39.7265625 23.8984375 C-47.90062406 32.82483806 -48.38091206 46.23850098 -48.0078125 57.7421875 C-47.47120832 67.45472325 -45.52569978 76.61574089 -38.7265625 83.8984375 C-32.48752756 89.02181168 -27.21432211 91.30397454 -19.15625 91.171875 C-11.36614601 90.29517519 -4.85880739 85.61256956 0.2734375 79.8984375 C8.14228227 68.24694332 7.75057608 52.33155669 5.65625 38.95703125 C3.44410391 30.66637755 -0.65810623 24.42474719 -7.7421875 19.49609375 C-18.81678715 13.37018331 -30.3809083 15.77099114 -39.7265625 23.8984375 Z " fill="#4C71F1" transform="translate(1194.7265625,107.1015625)"/>
<path d="M0 0 C2.41735277 2.05474985 4.622762 4.21734869 6.796875 6.52734375 C7.126875 1.90734375 7.456875 -2.71265625 7.796875 -7.47265625 C18.356875 -7.47265625 28.916875 -7.47265625 39.796875 -7.47265625 C39.84215761 8.97468411 39.87894282 25.42197061 39.90049934 41.86935616 C39.9107779 49.50749074 39.92477217 57.14558361 39.94775391 64.78369141 C39.96779322 71.4470901 39.98061624 78.11045857 39.98505199 84.77388656 C39.98764167 88.2966441 39.99365568 91.81931521 40.00833511 95.34204483 C40.02465341 99.29070816 40.024848 103.23928972 40.02392578 107.18798828 C40.03111633 108.33454895 40.03830688 109.48110962 40.04571533 110.66241455 C40.00439042 127.14015524 38.10439712 143.23298844 26.11328125 155.44140625 C13.38886971 166.89981394 -3.3935265 168.917554 -19.890625 168.83984375 C-21.12361328 168.8349292 -22.35660156 168.83001465 -23.62695312 168.82495117 C-39.88930842 168.61643202 -56.91072319 166.65160475 -69.2265625 154.91796875 C-74.82827052 148.1427804 -78.35985796 140.10350891 -78.265625 131.33984375 C-78.25660156 130.25316406 -78.24757813 129.16648438 -78.23828125 128.046875 C-78.22667969 127.21542969 -78.21507812 126.38398438 -78.203125 125.52734375 C-65.09122086 126.07922361 -52.19340668 127.71232411 -39.203125 129.52734375 C-38.91961182 130.35987671 -38.91961182 130.35987671 -38.63037109 131.20922852 C-38.37336426 131.93424561 -38.11635742 132.6592627 -37.8515625 133.40625 C-37.60067871 134.12627197 -37.34979492 134.84629395 -37.09130859 135.58813477 C-35.76656755 138.48049819 -34.09893264 139.35523113 -31.203125 140.52734375 C-21.59246691 142.80566336 -10.57697519 142.36082839 -1.765625 137.71484375 C2.41768987 134.1437213 3.94166361 130.87084374 4.796875 125.52734375 C4.87519174 123.61591012 4.90476125 121.70207254 4.89453125 119.7890625 C4.89130859 118.72236328 4.88808594 117.65566406 4.88476562 116.55664062 C4.87638672 115.45384766 4.86800781 114.35105469 4.859375 113.21484375 C4.85486328 112.09271484 4.85035156 110.97058594 4.84570312 109.81445312 C4.83394813 107.05202865 4.81751577 104.28971377 4.796875 101.52734375 C4.34884521 101.99495117 3.90081543 102.46255859 3.43920898 102.94433594 C0.11850726 106.3485968 -2.99619595 109.37757452 -7.140625 111.77734375 C-7.91277344 112.23625 -8.68492188 112.69515625 -9.48046875 113.16796875 C-16.60072587 116.72298952 -22.46152722 118.05700147 -30.453125 117.96484375 C-31.84301636 117.95239624 -31.84301636 117.95239624 -33.26098633 117.93969727 C-47.15326037 117.598074 -57.61150607 112.49550196 -67.328125 102.58984375 C-82.3002005 84.7326827 -83.69154265 62.89142045 -82.203125 40.52734375 C-80.31207614 24.05460535 -73.32296755 10.68818102 -61.203125 -0.47265625 C-43.22170808 -14.26475667 -17.65255489 -13.87490815 0 0 Z M-37.3515625 21.7265625 C-46.05817807 30.19438904 -48.03363707 41.23010527 -48.578125 53.02734375 C-48.01906564 65.64263967 -45.66221951 76.5975195 -36.265625 85.40234375 C-31.06881526 89.65868606 -26.2979375 91.00509269 -19.640625 90.84765625 C-13.26247066 90.00950135 -6.64090172 87.21166362 -2.203125 82.52734375 C6.35456958 71.18291273 8.17255167 57.83345484 6.328125 44.015625 C4.57268812 34.35027315 1.71570127 26.05995865 -6.390625 20.02734375 C-16.67547173 13.942863 -28.09589126 14.0012114 -37.3515625 21.7265625 Z " fill="#000000" transform="translate(1703.203125,107.47265625)"/>
<path d="M0 0 C12.54 0 25.08 0 38 0 C42.4999649 8.9999298 42.4999649 8.9999298 43.96542358 12.69203186 C44.30089549 13.53216922 44.6363674 14.37230658 44.98200512 15.23790264 C45.33518464 16.13271752 45.68836416 17.02753241 46.05224609 17.94946289 C46.43727201 18.91661382 46.82229792 19.88376474 47.21899128 20.88022327 C48.49045866 24.07639313 49.75693717 27.27451529 51.0234375 30.47265625 C51.92267536 32.73573453 52.82224358 34.99868156 53.72212219 37.26150513 C56.11730945 43.28674131 58.50834848 49.31361544 60.89858627 55.3408165 C63.35249877 61.52756789 65.81084335 67.71255911 68.26879883 73.89770508 C69.24568548 76.35600133 70.22256843 78.81429905 71.19944763 81.27259827 C71.67981413 82.48141222 72.16018063 83.69022617 72.65510368 84.93567085 C74.101692 88.57643221 75.5477985 92.21738462 76.99378967 95.85838318 C82.2251792 109.0295183 87.46666775 122.19647178 92.73828125 135.3515625 C93.14505348 136.36683045 93.14505348 136.36683045 93.56004333 137.40260887 C96.15605061 143.88126577 98.75611005 150.35828821 101.35888672 156.83422852 C102.13901206 158.77880271 102.91912389 160.72338233 103.69921875 162.66796875 C104.04390701 163.52294952 104.38859528 164.3779303 104.74372864 165.25881958 C107 170.88700581 107 170.88700581 107 172 C94.13 172 81.26 172 68 172 C62.76238507 159.42972417 57.88850488 146.71011269 53 134 C19.34 133.505 19.34 133.505 -15 133 C-15.66 135.97 -16.32 138.94 -17 142 C-17.81800275 144.49712052 -18.68476391 146.9788426 -19.6015625 149.44140625 C-20.04322754 150.63709229 -20.48489258 151.83277832 -20.93994141 153.06469727 C-21.49601074 154.54897217 -22.05208008 156.03324707 -22.625 157.5625 C-24.39875 162.326875 -26.1725 167.09125 -28 172 C-40.54 172 -53.08 172 -66 172 C-65.19592702 167.17556214 -64.10130155 163.27270728 -62.2890625 158.82421875 C-62.00962296 158.12359818 -61.73018341 157.4229776 -61.442276 156.7011261 C-60.83141729 155.1709178 -60.21793197 153.64175604 -59.60214233 152.11352539 C-57.88715633 147.85559954 -56.19308668 143.58934006 -54.49609375 139.32421875 C-54.13322769 138.41364716 -53.77036163 137.50307556 -53.39649963 136.56491089 C-49.08781149 125.73802321 -44.88967443 114.86855643 -40.6875 104 C-27.25249867 69.28325577 -13.66076999 34.62846345 0 0 Z M18 43 C15.27876156 50.51028612 12.55793414 58.02072096 9.83763218 65.53134632 C8.57449299 69.01877365 7.31121196 72.50614946 6.04760742 75.9934082 C4.82830415 79.35842187 3.60937263 82.72356998 2.39069939 86.08881187 C1.92554923 87.37307219 1.46026485 88.6572839 0.99484444 89.9414463 C0.34329487 91.73923739 -0.30773447 93.537217 -0.95874023 95.33520508 C-1.32958237 96.35890701 -1.7004245 97.38260895 -2.08250427 98.43733215 C-2.74360103 100.28384909 -3.37978442 102.13935325 -4 104 C11.18 104 26.36 104 42 104 C37.39854768 90.47173018 32.59570878 77.03728531 27.57525635 63.65975952 C26.94078175 61.96733143 26.3087485 60.27398613 25.67913818 58.57974243 C24.78548714 56.17798559 23.88242231 53.77998691 22.9765625 51.3828125 C22.5707193 50.28589836 22.5707193 50.28589836 22.15667725 49.16682434 C20.9373103 45.38186366 20.9373103 45.38186366 18 43 Z " fill="#000000" transform="translate(1504,53)"/>
<path d="M0 0 C11.22 0 22.44 0 34 0 C34.33 19.47 34.66 38.94 35 59 C37.64 56.69 40.28 54.38 43 52 C55.32752734 44.22829798 67.70675415 42.54024085 81.875 45.0625 C89.13864611 46.73203086 94.8834555 49.8130239 101 54 C101.60457031 54.40089844 102.20914063 54.80179688 102.83203125 55.21484375 C107.66450908 58.79776267 110.82394987 63.99131458 114 69 C114.39316406 69.61488281 114.78632812 70.22976562 115.19140625 70.86328125 C125.8040993 89.63318151 124.87516873 116.15023002 119.47558594 136.33935547 C117.05998954 144.52685252 113.3270936 151.27919005 108 158 C107.47921875 158.66386719 106.9584375 159.32773438 106.421875 160.01171875 C99.68884243 167.57787909 87.94134707 174.20115017 77.86181641 175.21508789 C62.76519195 176.01534802 50.94263722 173.84632324 39 164 C36.88861374 162.07019296 34.94675328 160.10044433 33 158 C32.67 162.62 32.34 167.24 32 172 C21.44 172 10.88 172 0 172 C0 115.24 0 58.48 0 0 Z M42 78 C34.94362987 87.01647294 33.62363852 96.12532942 33.6875 107.25 C33.69313965 108.26980957 33.6987793 109.28961914 33.70458984 110.34033203 C33.90464596 122.74579225 35.95862315 132.62558505 44.734375 141.81640625 C50.85861121 147.43932224 56.76176128 148.55001646 64.96875 148.3671875 C71.90359154 147.52714226 76.43655268 144.03856324 80.875 138.8125 C84.21390765 134.16739931 85.82964548 129.5615247 87 124 C87.226875 122.9275 87.45375 121.855 87.6875 120.75 C88.91769528 105.98765662 88.72975029 90.34631016 79.25 78.1875 C74.6344457 73.18924898 68.84010275 70.48891896 62.0625 69.97265625 C54.2568865 70.07613976 47.77081596 72.72816437 42 78 Z " fill="#4D71F1" transform="translate(398,53)"/>
<path d="M0 0 C15.49742914 -0.55265721 30.02231238 3.26157763 41.94140625 13.40625 C51.11142519 22.16413326 57.28084939 32.57254594 59.81640625 44.96875 C59.98366211 45.75773682 60.15091797 46.54672363 60.32324219 47.35961914 C62.31659004 57.06674574 62.62890625 66.17113426 62.62890625 76.15625 C35.23890625 76.15625 7.84890625 76.15625 -20.37109375 76.15625 C-16.75586708 91.22585638 -16.75586708 91.22585638 -7.43359375 101.53125 C-0.32755908 105.30179901 5.82969069 105.74913064 13.62890625 104.15625 C20.54478267 100.95445536 23.40646792 94.71830623 26.62890625 88.15625 C38.02838049 89.4763526 49.32284893 91.19339283 60.62890625 93.15625 C56.94055006 106.39093985 48.89702491 118.03424382 36.90625 125.0625 C21.04463098 132.68043023 0.36474962 134.02986213 -16.55859375 129.19140625 C-30.99611811 123.8775952 -41.04536823 115.81600894 -48.37109375 102.15625 C-57.42572352 80.69172156 -58.33230345 55.48652699 -49.5859375 33.703125 C-43.11695401 20.14114033 -33.40378725 9.60929058 -19.3515625 3.9375 C-12.79719197 1.62904245 -6.91266194 0.45552962 0 0 Z M-13.37109375 34.15625 C-18.82790837 40.90546808 -19.37109375 46.52921192 -19.37109375 55.15625 C-3.53109375 55.15625 12.30890625 55.15625 28.62890625 55.15625 C27.64555152 45.32270266 26.57737245 38.31112758 19.06640625 31.65625 C8.52263683 23.27967568 -3.95832737 25.21305473 -13.37109375 34.15625 Z " fill="#4C71F1" transform="translate(311.37109375,96.84375)"/>
<path d="M0 0 C14.66931041 14.08159765 19.8966074 32.81405212 20.6875 52.75 C20.6875 56.05 20.6875 59.35 20.6875 62.75 C-6.7025 62.75 -34.0925 62.75 -62.3125 62.75 C-58.8161633 78.29264526 -58.8161633 78.29264526 -48.08203125 88.81640625 C-41.56919217 92.25253989 -35.3810006 92.19364233 -28.3125 90.75 C-21.39662358 87.54820536 -18.53493833 81.31205623 -15.3125 74.75 C-3.91302576 76.0701026 7.38144268 77.78714283 18.6875 79.75 C14.99914381 92.98468985 6.95561866 104.62799382 -5.03515625 111.65625 C-20.89109699 119.2714531 -41.58808135 120.63359818 -58.50390625 115.78125 C-73.89357736 110.13052236 -84.44785957 101.0846631 -91.5234375 86.203125 C-99.83384077 65.58332741 -99.97802224 40.17781418 -91.3125 19.75 C-84.90516428 6.35439679 -75.16261527 -3.92940352 -61.26171875 -9.46484375 C-40.63536339 -16.6827838 -16.95730019 -14.43282993 0 0 Z M-55.3125 20.75 C-60.91663122 27.82890259 -61.3125 32.58693253 -61.3125 41.75 C-45.4725 41.75 -29.6325 41.75 -13.3125 41.75 C-14.29585473 31.91645266 -15.3640338 24.90487758 -22.875 18.25 C-33.40966597 9.88065798 -45.9109768 11.79616838 -55.3125 20.75 Z " fill="#000000" transform="translate(2342.3125,110.25)"/>
<path d="M0 0 C11.39543298 9.36865906 17.55108943 21.24471203 20.58984375 35.45703125 C20.75395752 36.19679199 20.91807129 36.93655273 21.0871582 37.69873047 C22.79823602 46.84682081 22.15234375 55.15014164 22.15234375 64.76953125 C-4.90765625 64.76953125 -31.96765625 64.76953125 -59.84765625 64.76953125 C-55.98839232 81.30317002 -55.98839232 81.30317002 -44.97265625 91.76953125 C-37.18556771 94.26139958 -30.25484409 94.53939226 -22.84765625 90.76953125 C-18.04360522 87.05731 -15.56826246 82.08339615 -12.84765625 76.76953125 C-1.76393371 78.03752104 9.18410679 79.73334865 20.15234375 81.76953125 C18.95592874 92.90434819 12.18542187 101.25639346 4.15234375 108.76953125 C-11.1250489 120.28937748 -29.8954931 121.58888437 -48.33935547 119.48535156 C-61.36105311 117.35177229 -73.65224368 111.30405116 -81.84765625 100.76953125 C-94.67529966 81.88176954 -97.81106927 58.9481415 -93.59765625 36.64453125 C-91.06696105 25.90079283 -87.65228436 17.51407527 -80.84765625 8.76953125 C-80.22375 7.93292969 -79.59984375 7.09632812 -78.95703125 6.234375 C-59.73450676 -16.22750084 -22.97757166 -16.41255119 0 0 Z M-52.84765625 22.76953125 C-58.00402618 28.98596708 -59.84765625 35.78363328 -59.84765625 43.76953125 C-43.67765625 43.76953125 -27.50765625 43.76953125 -10.84765625 43.76953125 C-13.01094379 29.40084899 -13.01094379 29.40084899 -21.7734375 19.0234375 C-32.47810653 12.5522534 -44.02543196 14.08214445 -52.84765625 22.76953125 Z " fill="#000000" transform="translate(1859.84765625,108.23046875)"/>
<path d="M0 0 C14.97099508 12.92139456 20.64030718 28.70720175 22.9375 48.078125 C23.30070485 53.67147971 23.25 59.28549033 23.25 64.890625 C-4.14 64.890625 -31.53 64.890625 -59.75 64.890625 C-56.13477333 79.96023138 -56.13477333 79.96023138 -46.8125 90.265625 C-39.72582098 94.02590366 -33.53176965 94.51280659 -25.75 92.890625 C-18.66527581 89.28385632 -15.54927618 84.02877925 -12.75 76.890625 C-5.13489015 77.52930475 2.34619955 78.65868361 9.875 79.953125 C10.97457031 80.13939453 12.07414063 80.32566406 13.20703125 80.51757812 C15.88854486 80.97226956 18.56949973 81.43000404 21.25 81.890625 C17.03383857 95.29473302 9.96742532 106.59238521 -2.5078125 113.83203125 C-19.17448908 121.70079319 -40.02404917 122.74097006 -57.5546875 117.15234375 C-73.44426847 110.87809601 -82.75226101 101.39731392 -89.5625 85.765625 C-97.46919477 65.64891962 -96.57094434 41.89469054 -88.75 21.890625 C-82.20645788 8.14318329 -70.74866376 -3.09235441 -56.37890625 -8.33203125 C-37.61087295 -13.88156859 -15.82542111 -12.13881733 0 0 Z M-50.95703125 21.04296875 C-57.60102616 27.88961275 -58.75 34.62734083 -58.75 43.890625 C-42.91 43.890625 -27.07 43.890625 -10.75 43.890625 C-11.89075425 32.48308249 -13.12570173 26.42593392 -21.75 19.30078125 C-31.12555183 12.69028474 -42.26672413 13.98317833 -50.95703125 21.04296875 Z " fill="#4D71F1" transform="translate(870.75,108.109375)"/>
<path d="M0 0 C6.39675237 6.42173969 10.03086465 13.1935876 12 22.0078125 C4.82062268 23.74118956 -2.36856695 25.32352798 -9.625 26.6953125 C-10.31142578 26.82655518 -10.99785156 26.95779785 -11.70507812 27.09301758 C-14.52157849 27.61637277 -17.12783363 28.0078125 -20 28.0078125 C-21.2109375 26.3984375 -21.2109375 26.3984375 -22.375 24.2578125 C-25.51632985 18.93448107 -29.07182334 15.88786853 -35 14.0078125 C-37.94157251 13.69732538 -40.85665512 13.68310835 -43.8125 13.6953125 C-44.96588867 13.67114258 -44.96588867 13.67114258 -46.14257812 13.64648438 C-52.14139662 13.64142208 -57.95824769 14.43241879 -62.71020508 18.45581055 C-64.23417389 19.99519975 -64.23417389 19.99519975 -64.25 22.5078125 C-64.07997567 25.13498693 -64.07997567 25.13498693 -63 28.0078125 C-61.19942584 28.95728059 -61.19942584 28.95728059 -58.97900391 29.5534668 C-58.16264465 29.80131927 -57.3462854 30.04917175 -56.50518799 30.30453491 C-52.79335844 31.34655114 -49.0761587 32.34225015 -45.3359375 33.27734375 C-43.70171937 33.69555912 -42.06760816 34.1141925 -40.43359375 34.53320312 C-37.9143437 35.17580927 -35.39447205 35.81543214 -32.87255859 36.44750977 C3.40062983 45.56390037 3.40062983 45.56390037 13 60.0078125 C17.67609322 68.67181919 17.28904795 80.1339847 14.875 89.4453125 C13.12443017 94.37133458 10.43852267 98.11396034 7 102.0078125 C6.43539062 102.6884375 5.87078125 103.3690625 5.2890625 104.0703125 C-3.70209601 114.0857802 -17.31554204 118.15234397 -30.41333008 119.30932617 C-33.88574248 119.44348136 -37.33769069 119.47539639 -40.8125 119.4453125 C-42.03501465 119.43846436 -43.2575293 119.43161621 -44.51708984 119.42456055 C-62.96162022 119.09803292 -77.8903731 114.43943023 -91 101.0078125 C-93.70199768 97.8579699 -95.8301662 94.779121 -97.6875 91.0703125 C-98.10386719 90.25691406 -98.52023437 89.44351563 -98.94921875 88.60546875 C-100.10647938 85.7445828 -100.59578749 83.05939488 -101 80.0078125 C-74.15075344 74.83786772 -74.15075344 74.83786772 -67 75.0078125 C-66.62488281 75.82765625 -66.24976563 76.6475 -65.86328125 77.4921875 C-65.35152344 78.56984375 -64.83976563 79.6475 -64.3125 80.7578125 C-63.81363281 81.82515625 -63.31476562 82.8925 -62.80078125 83.9921875 C-60.36136673 88.0772808 -57.63905306 90.28357975 -53.3125 92.1953125 C-44.06222569 94.46424771 -33.83270394 95.02186508 -24.91015625 91.0859375 C-22.21580389 89.37314627 -20.78050802 87.67857453 -19 85.0078125 C-18.4161804 82.092887 -18.4161804 82.092887 -19 79.0078125 C-22.60501261 74.52723567 -26.08399231 72.97323934 -31.546875 71.76171875 C-32.27634338 71.58325912 -33.00581177 71.4047995 -33.75738525 71.22093201 C-36.08458712 70.65387203 -38.41642478 70.11048746 -40.75 69.5703125 C-50.08435809 67.37065419 -59.29015293 65.07594519 -68.34375 61.88671875 C-69.04417419 61.64031143 -69.74459839 61.39390411 -70.46624756 61.14002991 C-75.4437035 59.3321976 -79.78471561 57.19686273 -84 54.0078125 C-84.86625 53.4509375 -85.7325 52.8940625 -86.625 52.3203125 C-92.86384527 46.24564737 -96.39616941 38.66700008 -97 30.0078125 C-97.11475457 17.64710637 -93.78478308 9.03258712 -85.21875 0.1328125 C-65.7848361 -18.47995011 -19.92882035 -16.92484375 0 0 Z " fill="#4C71F1" transform="translate(1009,108.9921875)"/>
<path d="M0 0 C6.5579986 6.28531675 10.24153514 14.15675919 12.625 22.8125 C5.46643762 24.54085153 -1.71194698 26.14117517 -8.9375 27.5625 C-9.61554687 27.70212158 -10.29359375 27.84174316 -10.9921875 27.9855957 C-17.36109042 29.20688708 -17.36109042 29.20688708 -20.375 27.8125 C-21.375 25.8125 -22.375 23.8125 -23.375 21.8125 C-29.53500284 15.78938611 -35.18768097 14.43961887 -43.625 14.5 C-44.37064209 14.50128906 -45.11628418 14.50257812 -45.88452148 14.50390625 C-51.73915452 14.60545002 -56.9340668 15.56661111 -62.375 17.8125 C-62.601875 19.070625 -62.82875 20.32875 -63.0625 21.625 C-63.25392578 22.68654297 -63.25392578 22.68654297 -63.44921875 23.76953125 C-63.58033857 25.87595514 -63.58033857 25.87595514 -62.12744141 27.32055664 C-54.18098725 34.08578113 -40.85258248 35.34623622 -30.91088867 37.734375 C2.15838624 45.72091687 2.15838624 45.72091687 11.52734375 58.01171875 C17.11018282 67.17075366 18.29903388 77.45803654 15.9296875 87.8671875 C13.89150155 94.0502558 10.89756864 98.93845325 6.625 103.8125 C6.13515625 104.41835937 5.6453125 105.02421875 5.140625 105.6484375 C-3.34260682 115.26556665 -17.4158263 119.02168309 -29.78808594 120.11376953 C-33.26059714 120.24816692 -36.71258344 120.28008482 -40.1875 120.25 C-41.41001465 120.24315186 -42.6325293 120.23630371 -43.89208984 120.22924805 C-62.311877 119.90315846 -77.30997267 115.26179284 -90.375 101.8125 C-95.65597938 95.88556392 -100.375 88.9379489 -100.375 80.8125 C-73.52575344 75.64255522 -73.52575344 75.64255522 -66.375 75.8125 C-66.13265625 76.40417969 -65.8903125 76.99585938 -65.640625 77.60546875 C-62.92607384 84.00554514 -60.71167785 88.87140778 -54.25 92.0625 C-44.24269739 96.07848115 -33.79102122 95.28885907 -23.8125 91.4375 C-21.22891791 89.71511194 -19.79594913 88.57545665 -18.375 85.8125 C-17.70819632 82.85529372 -17.70819632 82.85529372 -18.375 79.8125 C-22.28800763 74.84936986 -25.97157313 73.66329304 -31.8671875 72.34765625 C-32.69018341 72.14700058 -33.51317932 71.94634491 -34.3611145 71.73960876 C-36.9870298 71.10118565 -39.61762822 70.48620715 -42.25 69.875 C-81.67901626 60.61258023 -81.67901626 60.61258023 -91.16015625 46.82421875 C-96.31899217 38.28145187 -97.48927077 29.13175867 -95.6875 19.375 C-93.27728733 9.70090502 -87.42612315 1.68240434 -79.0234375 -3.69140625 C-57.27679708 -15.255096 -19.97015719 -15.98364747 0 0 Z " fill="#000000" transform="translate(2477.375,108.1875)"/>
<path d="M0 0 C10.80689209 -0.45687674 21.65689373 2.07069028 30.58984375 8.2109375 C31.64171875 8.9121875 32.69359375 9.6134375 33.77734375 10.3359375 C41.20101986 16.93246307 44.05640488 27.04073111 44.76926041 36.62256241 C44.83277761 39.07573834 44.83782515 41.5212022 44.81689453 43.97509766 C44.81718658 44.89339355 44.81747864 45.81168945 44.81777954 46.7578125 C44.81640013 49.75530871 44.80090511 52.75254789 44.78515625 55.75 C44.78142117 57.84320948 44.77857654 59.93642071 44.77658081 62.02963257 C44.76898331 67.5106091 44.74936854 72.99147785 44.72717285 78.47241211 C44.70663037 84.07664533 44.6975612 89.68089615 44.6875 95.28515625 C44.66611867 106.26047138 44.63096855 117.23567857 44.58984375 128.2109375 C33.36984375 128.2109375 22.14984375 128.2109375 10.58984375 128.2109375 C10.57526123 125.71345947 10.56067871 123.21598145 10.5456543 120.64282227 C10.49519871 112.36860089 10.42858443 104.09456554 10.35412884 95.82052708 C10.30950156 90.80655605 10.27022869 85.79266485 10.2434082 80.77856445 C10.21729887 75.93491666 10.1768428 71.09157732 10.12665749 66.24812126 C10.11004025 64.40510854 10.09849407 62.56204252 10.09222984 60.71896553 C10.0825325 58.12685333 10.05440722 55.53552114 10.0222168 52.94360352 C10.02365189 52.19049896 10.02508698 51.43739441 10.02656555 50.66146851 C9.90763438 43.83983428 8.56765596 37.59445478 4.15234375 32.2734375 C-0.81880513 28.27226889 -5.36273592 26.8068369 -11.875 27.45703125 C-17.23562056 28.36793369 -21.1717233 29.6468007 -25.41015625 33.2109375 C-25.93480469 33.64792969 -26.45945312 34.08492187 -27 34.53515625 C-34.76870694 42.07593047 -34.70804951 54.5997025 -34.87983418 64.81068611 C-34.90300602 67.1290259 -34.91274528 69.44719112 -34.921875 71.765625 C-34.93876707 73.4047272 -34.95692319 75.04381681 -34.97627258 76.68289185 C-35.02328815 80.9471645 -35.05340802 85.21138611 -35.07971191 89.47583008 C-35.11507146 94.61908099 -35.17194273 99.76213587 -35.22510529 104.90522766 C-35.30304942 112.67377074 -35.35408427 120.44206741 -35.41015625 128.2109375 C-46.63015625 128.2109375 -57.85015625 128.2109375 -69.41015625 128.2109375 C-69.41015625 86.9609375 -69.41015625 45.7109375 -69.41015625 3.2109375 C-59.18015625 3.2109375 -48.95015625 3.2109375 -38.41015625 3.2109375 C-37.91515625 11.1309375 -37.91515625 11.1309375 -37.41015625 19.2109375 C-35.36828125 16.9525 -35.36828125 16.9525 -33.28515625 14.6484375 C-23.99870349 5.38825476 -12.97600815 1.1356636 0 0 Z " fill="#000000" transform="translate(1977.41015625,96.7890625)"/>
<path d="M0 0 C8.04300902 7.15307274 11.40080591 16.87861634 12.17764664 27.40779495 C12.24293474 29.8623447 12.24799348 32.30884862 12.22705078 34.76416016 C12.22734283 35.68245605 12.22763489 36.60075195 12.22793579 37.546875 C12.22655638 40.54437121 12.21106136 43.54161039 12.1953125 46.5390625 C12.19157742 48.63227198 12.18873279 50.72548321 12.18673706 52.81869507 C12.17913956 58.2996716 12.15952479 63.78054035 12.1373291 69.26147461 C12.11678662 74.86570783 12.10771745 80.46995865 12.09765625 86.07421875 C12.07627492 97.04953388 12.0411248 108.02474107 12 119 C1.11 119 -9.78 119 -21 119 C-21.06058594 114.36066406 -21.12117188 109.72132813 -21.18359375 104.94140625 C-21.22418801 101.9654877 -21.26501144 98.98957569 -21.30664062 96.01367188 C-21.37239282 91.31179377 -21.43739168 86.60991547 -21.49731445 81.90795898 C-21.54579212 78.10828993 -21.59813962 74.30869051 -21.65294075 70.50910759 C-21.6729945 69.07460247 -21.69175769 67.64007857 -21.70907402 66.2055378 C-21.80425387 58.39750796 -22.01630818 50.60554014 -22.44165039 42.80834961 C-22.47758773 42.10451676 -22.51352507 41.40068392 -22.55055141 40.6755228 C-22.96265326 33.73201581 -23.96757069 28.44933789 -28.4375 23.0625 C-32.87717394 19.4891039 -36.23934507 18.37774786 -42 18 C-50.71761822 18.97205301 -57.29197705 22.28684631 -62.78125 29.1484375 C-67.28894266 35.99666289 -67.10876095 45.6637582 -67.20532227 53.609375 C-67.21522186 54.32255386 -67.22512146 55.03573273 -67.23532104 55.77052307 C-67.26657656 58.09698315 -67.29154909 60.42346355 -67.31640625 62.75 C-67.33700695 64.37524913 -67.35800417 66.00049329 -67.37937927 67.62573242 C-67.43427847 71.88022804 -67.483828 76.13476939 -67.53222656 80.38934326 C-67.5915658 85.50651494 -67.65761489 90.62360396 -67.72252655 95.7407074 C-67.82013086 103.49375398 -67.90926351 111.24685631 -68 119 C-79.22 119 -90.44 119 -102 119 C-102 77.75 -102 36.5 -102 -6 C-91.44 -6 -80.88 -6 -70 -6 C-69.505 1.425 -69.505 1.425 -69 9 C-67.88625 7.80375 -66.7725 6.6075 -65.625 5.375 C-48.37451227 -11.81463945 -19.98422616 -14.21248805 0 0 Z " fill="#4C71F1" transform="translate(1368,106)"/>
<path d="M0 0 C8.12956652 7.26797144 13.83863685 18.36010997 15.41015625 29.10546875 C11.03236218 29.96234047 6.65410221 30.8167777 2.27539062 31.66894531 C0.78535064 31.95928876 -0.70455913 32.25030133 -2.19433594 32.54199219 C-4.33364661 32.96073875 -6.47341148 33.37709 -8.61328125 33.79296875 C-9.90153809 34.04433594 -11.18979492 34.29570312 -12.51708984 34.5546875 C-15.58984375 35.10546875 -15.58984375 35.10546875 -17.58984375 35.10546875 C-18.04423828 33.87570313 -18.04423828 33.87570313 -18.5078125 32.62109375 C-18.92675781 31.5434375 -19.34570312 30.46578125 -19.77734375 29.35546875 C-20.18339844 28.288125 -20.58945313 27.22078125 -21.0078125 26.12109375 C-23.75910611 20.87665259 -27.98699377 18.49192165 -33.42578125 16.6484375 C-40.99646788 14.74893309 -47.89185367 16.18631422 -54.58984375 20.10546875 C-61.82841123 25.99953683 -63.7050931 33.11869237 -65.27734375 41.98046875 C-66.55968019 55.33814 -66.55152318 70.73761151 -58.58984375 82.10546875 C-54.24262284 86.88044824 -49.85329153 89.77015631 -43.3203125 90.44140625 C-33.2348068 90.66573923 -33.2348068 90.66573923 -24.58984375 86.10546875 C-20.03253106 80.90053794 -18.3018394 74.67996468 -16.58984375 68.10546875 C-8.76323753 68.68417967 -1.12137135 69.76675976 6.59765625 71.16796875 C7.64501953 71.35423828 8.69238281 71.54050781 9.77148438 71.73242188 C12.31847398 72.18599537 14.86463724 72.64372643 17.41015625 73.10546875 C14.91780504 88.12683296 8.50900558 100.55819239 -3.58984375 110.10546875 C-19.14930121 120.09799458 -40.55311064 122.09168984 -58.40234375 118.234375 C-73.53322593 114.17564308 -84.45497652 105.30191428 -92.90234375 92.29296875 C-103.67294554 73.10876667 -103.69126173 48.11397167 -97.90234375 27.41796875 C-93.09075206 13.03606832 -84.50449263 1.68164062 -70.96484375 -5.33203125 C-48.67145174 -16.12400571 -20.14430359 -14.73602902 0 0 Z " fill="#000000" transform="translate(2148.58984375,108.89453125)"/>
<path d="M0 0 C11.22 0 22.44 0 34 0 C34 41.25 34 82.5 34 125 C22.78 125 11.56 125 0 125 C0 83.75 0 42.5 0 0 Z " fill="#000000" transform="translate(2188,100)"/>
<path d="M0 0 C11.22 0 22.44 0 34 0 C34 41.25 34 82.5 34 125 C22.78 125 11.56 125 0 125 C0 83.75 0 42.5 0 0 Z " fill="#4D72F1" transform="translate(1053,100)"/>
<path d="M0 0 C11.22 0 22.44 0 34 0 C34 10.23 34 20.46 34 31 C22.78 31 11.56 31 0 31 C0 20.77 0 10.54 0 0 Z " fill="#000000" transform="translate(2188,53)"/>
<path d="M0 0 C11.22 0 22.44 0 34 0 C34 10.23 34 20.46 34 31 C22.78 31 11.56 31 0 31 C0 20.77 0 10.54 0 0 Z " fill="#4D71F0" transform="translate(1053,53)"/>
</svg>
