<svg width="832" height="602" viewBox="0 0 832 602" fill="none" xmlns="http://www.w3.org/2000/svg">
<path opacity="0.6" d="M529 598.486C694.315 598.486 828.329 465.297 828.329 301C828.329 136.703 694.315 3.51447 529 3.51447C363.684 3.51447 229.67 136.703 229.67 301C229.67 465.297 363.684 598.486 529 598.486Z" fill="url(#paint0_linear_69_1555)" stroke="url(#paint1_linear_69_1555)" stroke-width="2"/>
<mask id="mask0_69_1555" style="mask-type:luminance" maskUnits="userSpaceOnUse" x="229" y="3" width="600" height="596">
<path d="M529 598.486C694.315 598.486 828.329 465.297 828.329 301C828.329 136.703 694.315 3.51447 529 3.51447C363.684 3.51447 229.67 136.703 229.67 301C229.67 465.297 363.684 598.486 529 598.486Z" fill="white"/>
</mask>
<g mask="url(#mask0_69_1555)">
<path d="M709.814 581.322C858.213 581.322 978.515 461.762 978.515 314.277C978.515 166.792 858.213 47.232 709.814 47.232C561.415 47.232 441.114 166.792 441.114 314.277C441.114 461.762 561.415 581.322 709.814 581.322Z" stroke="white" stroke-miterlimit="10"/>
<path d="M709.814 537.332C833.768 537.332 934.252 437.467 934.252 314.277C934.252 191.087 833.768 91.2219 709.814 91.2219C585.861 91.2219 485.377 191.087 485.377 314.277C485.377 437.467 585.861 537.332 709.814 537.332Z" stroke="white" stroke-miterlimit="10"/>
<path d="M709.814 493.36C809.333 493.36 890.008 413.182 890.008 314.277C890.008 215.372 809.333 135.193 709.814 135.193C610.296 135.193 529.621 215.372 529.621 314.277C529.621 413.182 610.296 493.36 709.814 493.36Z" stroke="white" stroke-miterlimit="10"/>
<path d="M709.814 449.389C784.897 449.389 845.764 388.897 845.764 314.277C845.764 239.657 784.897 179.165 709.814 179.165C634.732 179.165 573.865 239.657 573.865 314.277C573.865 388.897 634.732 449.389 709.814 449.389Z" stroke="white" stroke-miterlimit="10"/>
<path d="M709.814 405.399C760.451 405.399 801.501 364.602 801.501 314.277C801.501 263.952 760.451 223.155 709.814 223.155C659.177 223.155 618.128 263.952 618.128 314.277C618.128 364.602 659.177 405.399 709.814 405.399Z" stroke="white" stroke-miterlimit="10"/>
<path d="M709.814 361.427C736.016 361.427 757.257 340.317 757.257 314.277C757.257 288.237 736.016 267.127 709.814 267.127C683.613 267.127 662.372 288.237 662.372 314.277C662.372 340.317 683.613 361.427 709.814 361.427Z" fill="white"/>
<path d="M858.885 182.053C876.084 182.053 890.026 168.197 890.026 151.104C890.026 134.011 876.084 120.155 858.885 120.155C841.687 120.155 827.744 134.011 827.744 151.104C827.744 168.197 841.687 182.053 858.885 182.053Z" fill="white"/>
<path d="M772.078 82.5763C789.277 82.5763 803.219 68.7199 803.219 51.6272C803.219 34.5345 789.277 20.6781 772.078 20.6781C754.879 20.6781 740.937 34.5345 740.937 51.6272C740.937 68.7199 754.879 82.5763 772.078 82.5763Z" fill="white"/>
<path d="M567.597 449.389C584.795 449.389 598.738 435.532 598.738 418.439C598.738 401.347 584.795 387.49 567.597 387.49C550.398 387.49 536.456 401.347 536.456 418.439C536.456 435.532 550.398 449.389 567.597 449.389Z" fill="white"/>
<path d="M586.987 106.333C604.185 106.333 618.128 92.4768 618.128 75.3841C618.128 58.2914 604.185 44.435 586.987 44.435C569.788 44.435 555.846 58.2914 555.846 75.3841C555.846 92.4768 569.788 106.333 586.987 106.333Z" fill="white"/>
<path d="M858.885 568.281C876.084 568.281 890.026 554.424 890.026 537.332C890.026 520.239 876.084 506.383 858.885 506.383C841.687 506.383 827.744 520.239 827.744 537.332C827.744 554.424 841.687 568.281 858.885 568.281Z" fill="white"/>
<path d="M485.377 376.175C502.575 376.175 516.518 362.319 516.518 345.226C516.518 328.133 502.575 314.277 485.377 314.277C468.178 314.277 454.236 328.133 454.236 345.226C454.236 362.319 468.178 376.175 485.377 376.175Z" fill="white"/>
<path d="M454.236 254.086C471.434 254.086 485.376 240.23 485.376 223.137C485.376 206.044 471.434 192.188 454.236 192.188C437.037 192.188 423.095 206.044 423.095 223.137C423.095 240.23 437.037 254.086 454.236 254.086Z" fill="white"/>
<path d="M529.621 212.984C546.819 212.984 560.762 199.128 560.762 182.035C560.762 164.942 546.819 151.086 529.621 151.086C512.422 151.086 498.48 164.942 498.48 182.035C498.48 199.128 512.422 212.984 529.621 212.984Z" fill="white"/>
<path d="M573.865 319.635C591.064 319.635 605.006 305.779 605.006 288.686C605.006 271.593 591.064 257.737 573.865 257.737C556.666 257.737 542.724 271.593 542.724 288.686C542.724 305.779 556.666 319.635 573.865 319.635Z" fill="white"/>
<path d="M555.864 560.344C573.063 560.344 587.005 546.488 587.005 529.395C587.005 512.302 573.063 498.446 555.864 498.446C538.665 498.446 524.723 512.302 524.723 529.395C524.723 546.488 538.665 560.344 555.864 560.344Z" fill="white"/>
<path d="M740.955 568.281C758.154 568.281 772.096 554.424 772.096 537.332C772.096 520.239 758.154 506.383 740.955 506.383C723.757 506.383 709.814 520.239 709.814 537.332C709.814 554.424 723.757 568.281 740.955 568.281Z" fill="white"/>
<path d="M752.359 423.325C769.558 423.325 783.5 409.469 783.5 392.376C783.5 375.283 769.558 361.427 752.359 361.427C735.16 361.427 721.218 375.283 721.218 392.376C721.218 409.469 735.16 423.325 752.359 423.325Z" fill="white"/>
<path d="M694.993 480.338C712.192 480.338 726.134 466.481 726.134 449.389C726.134 432.296 712.192 418.44 694.993 418.44C677.794 418.44 663.852 432.296 663.852 449.389C663.852 466.481 677.794 480.338 694.993 480.338Z" fill="white"/>
<path d="M814.623 267.127C831.821 267.127 845.764 253.27 845.764 236.178C845.764 219.085 831.821 205.228 814.623 205.228C797.424 205.228 783.482 219.085 783.482 236.178C783.482 253.27 797.424 267.127 814.623 267.127Z" fill="white"/>
<path d="M726.134 166.143C743.333 166.143 757.275 152.286 757.275 135.194C757.275 118.101 743.333 104.244 726.134 104.244C708.935 104.244 694.993 118.101 694.993 135.194C694.993 152.286 708.935 166.143 726.134 166.143Z" fill="white"/>
<path d="M662.372 267.127C679.571 267.127 693.513 253.27 693.513 236.178C693.513 219.085 679.571 205.228 662.372 205.228C645.173 205.228 631.231 219.085 631.231 236.178C631.231 253.27 645.173 267.127 662.372 267.127Z" fill="white"/>
</g>
<path d="M503.707 343.028C511.565 335.218 536.419 292.028 521.141 276.117C516.353 271.122 513.447 272.467 513.447 272.467C513.447 272.467 512.917 262.949 506.101 258.118C502.409 255.503 498.919 256.937 498.919 256.937C498.919 256.937 499.503 248.637 490.731 242.498C487.241 240.064 481.849 242.28 481.849 242.28C481.849 242.28 482.325 235.76 477.189 230.22C468.234 220.558 460.888 228.477 459.426 230.293C459.243 230.511 459.133 230.656 459.133 230.656C466.169 241.19 475.398 251.162 453.724 284.072C449.356 290.702 443.38 289.085 438.409 285.689C433.201 282.129 429.089 276.608 429.089 276.608C429.089 276.608 416.315 296.132 419.257 308.973C422.199 321.814 423.88 319.689 422.93 322.268C418.964 333.239 406.336 363.77 363.426 402.91C310.373 451.296 299.17 455.818 299.17 455.818L329.727 490.182C329.727 490.182 358.675 477.595 396.998 444.158C425.964 418.875 459.097 381.006 475.691 363.062C479.547 358.902 495.83 350.838 503.707 343.01V343.028Z" fill="#184FA8" stroke="white" stroke-width="4" stroke-miterlimit="10"/>
<path d="M364.523 494.159C348.514 509.361 305.073 484.642 297.197 476.832C289.32 469.022 281.224 452.821 277.021 448.989C258.965 432.515 220.861 399.568 195.422 370.781C161.759 332.712 146.92 305.159 146.92 305.159L181.496 274.791C181.496 274.791 188.222 284.69 236.907 337.416C276.29 380.062 307.011 392.612 318.049 396.553C320.662 397.48 318.506 395.827 331.426 392.903C344.347 389.979 363.993 402.674 363.993 402.674C363.993 402.674 342.793 418.24 356.463 427.157C389.578 448.716 399.611 439.526 410.211 432.534C410.211 432.534 421.56 440.507 410.649 450.478C405.075 455.582 398.515 455.11 398.515 455.11C398.515 455.11 400.762 460.468 398.295 463.937C392.118 472.655 383.766 472.074 383.766 472.074C383.766 472.074 385.192 475.543 382.579 479.212C377.717 485.986 368.141 486.513 368.141 486.513C368.141 486.513 369.475 489.401 364.468 494.159H364.523Z" fill="#184FA8" stroke="white" stroke-width="4" stroke-miterlimit="10"/>
<path d="M145.896 339.378C130.6 323.467 155.472 280.295 163.331 272.466C171.189 264.657 187.491 256.592 191.347 252.415C207.922 234.47 241.074 196.601 270.04 171.319C308.345 137.863 342.263 124.786 342.263 124.786L372.819 159.15C372.819 159.15 356.664 164.163 303.611 212.548C260.701 251.688 248.073 282.22 244.107 293.19C243.175 295.787 244.838 293.644 247.781 306.485C250.723 319.326 237.948 338.851 237.948 338.851C237.948 338.851 222.287 317.782 213.313 331.368C191.621 364.279 200.868 374.25 207.904 384.784C207.904 384.784 199.881 396.063 189.848 385.22C184.713 379.68 185.188 373.16 185.188 373.16C185.188 373.16 179.797 375.394 176.306 372.942C167.534 366.803 168.119 358.503 168.119 358.503C168.119 358.503 164.628 359.919 160.937 357.322C154.12 352.491 153.59 342.974 153.59 342.974C153.59 342.974 150.684 344.3 145.896 339.323V339.378Z" fill="#184FA8" stroke="white" stroke-width="4" stroke-miterlimit="10"/>
<path d="M453.724 284.072C475.417 251.162 466.169 241.19 459.133 230.656C459.133 230.656 459.243 230.511 459.426 230.293C435.156 205.065 405.167 179.038 389.761 164.98C385.576 161.148 377.461 144.965 369.585 137.137C361.708 129.309 318.268 104.626 302.259 119.81C297.233 124.568 298.586 127.456 298.586 127.456C298.586 127.456 289.009 127.983 284.148 134.758C281.517 138.426 282.96 141.895 282.96 141.895C282.96 141.895 274.609 141.314 268.432 150.032C265.983 153.501 268.212 158.859 268.212 158.859C268.212 158.859 261.651 158.387 256.077 163.491C245.185 173.462 257.576 182.689 257.576 182.689C268.176 175.696 277.149 165.271 310.263 186.83C323.952 195.748 302.606 213.474 302.606 213.474C302.606 213.474 322.38 223.99 335.301 221.066C348.221 218.142 346.083 216.471 348.678 217.416C359.716 221.357 390.437 233.907 429.82 276.553C432.945 279.931 435.778 282.965 438.373 285.689C443.344 289.085 449.301 290.72 453.687 284.072H453.724Z" fill="#184FA8" stroke="white" stroke-width="4" stroke-miterlimit="10"/>
<path d="M503.707 343.028C511.565 335.218 536.419 292.028 521.141 276.117C516.353 271.122 513.447 272.467 513.447 272.467C513.447 272.467 512.917 262.949 506.101 258.118C502.409 255.503 498.919 256.937 498.919 256.937C498.919 256.937 499.503 248.637 490.731 242.498C487.241 240.064 481.849 242.28 481.849 242.28C481.849 242.28 482.325 235.76 477.189 230.22C468.234 220.558 460.888 228.477 459.426 230.293C459.243 230.511 459.133 230.656 459.133 230.656C466.169 241.19 475.398 251.162 453.724 284.072C449.356 290.702 443.38 289.085 438.409 285.689C433.201 282.129 429.089 276.608 429.089 276.608C429.089 276.608 416.315 296.132 419.257 308.973C422.199 321.814 423.88 319.689 422.93 322.268C418.964 333.239 406.336 363.77 363.426 402.91C310.373 451.296 299.17 455.818 299.17 455.818L329.727 490.182C329.727 490.182 358.675 477.595 396.998 444.158C425.964 418.875 459.097 381.006 475.691 363.062C479.547 358.902 495.83 350.838 503.707 343.01V343.028Z" fill="#EFF5FE" stroke="black" stroke-miterlimit="10"/>
<path d="M364.523 494.159C348.514 509.361 305.073 484.642 297.197 476.832C289.32 469.022 281.224 452.821 277.021 448.989C258.965 432.515 220.861 399.568 195.422 370.781C161.759 332.712 146.92 305.159 146.92 305.159L181.496 274.791C181.496 274.791 188.222 284.69 236.907 337.416C276.29 380.062 307.011 392.612 318.049 396.553C320.662 397.48 318.506 395.827 331.426 392.903C344.347 389.979 363.993 402.674 363.993 402.674C363.993 402.674 342.793 418.24 356.463 427.157C389.578 448.716 399.611 439.526 410.211 432.534C410.211 432.534 421.56 440.507 410.649 450.478C405.075 455.582 398.515 455.11 398.515 455.11C398.515 455.11 400.762 460.468 398.295 463.937C392.118 472.655 383.766 472.074 383.766 472.074C383.766 472.074 385.192 475.543 382.579 479.212C377.717 485.986 368.141 486.513 368.141 486.513C368.141 486.513 369.475 489.401 364.468 494.159H364.523Z" fill="#EFF5FE" stroke="black" stroke-miterlimit="10"/>
<path d="M145.896 339.378C130.6 323.467 155.472 280.295 163.331 272.466C171.189 264.657 187.491 256.592 191.347 252.415C207.922 234.47 241.074 196.601 270.04 171.319C308.345 137.863 342.263 124.786 342.263 124.786L372.819 159.15C372.819 159.15 356.664 164.163 303.611 212.548C260.701 251.688 248.073 282.22 244.107 293.19C243.175 295.787 244.838 293.644 247.781 306.485C250.723 319.326 237.948 338.851 237.948 338.851C237.948 338.851 222.287 317.782 213.313 331.368C191.621 364.279 200.868 374.25 207.904 384.784C207.904 384.784 199.881 396.063 189.848 385.22C184.713 379.68 185.188 373.16 185.188 373.16C185.188 373.16 179.797 375.394 176.306 372.942C167.534 366.803 168.119 358.503 168.119 358.503C168.119 358.503 164.628 359.919 160.937 357.322C154.12 352.491 153.59 342.974 153.59 342.974C153.59 342.974 150.684 344.3 145.896 339.323V339.378Z" fill="#EFF5FE" stroke="black" stroke-miterlimit="10"/>
<path d="M453.724 284.072C475.417 251.162 466.169 241.19 459.133 230.656C459.133 230.656 459.243 230.511 459.426 230.293C435.156 205.065 405.167 179.038 389.761 164.98C385.576 161.148 377.461 144.965 369.585 137.137C361.708 129.309 318.268 104.626 302.259 119.81C297.233 124.568 298.586 127.456 298.586 127.456C298.586 127.456 289.009 127.983 284.148 134.758C281.517 138.426 282.96 141.895 282.96 141.895C282.96 141.895 274.609 141.314 268.432 150.032C265.983 153.501 268.212 158.859 268.212 158.859C268.212 158.859 261.651 158.387 256.077 163.491C245.185 173.462 257.576 182.689 257.576 182.689C268.176 175.696 277.149 165.271 310.263 186.83C323.952 195.748 302.606 213.474 302.606 213.474C302.606 213.474 322.38 223.99 335.301 221.066C348.221 218.142 346.083 216.471 348.678 217.416C359.716 221.357 390.437 233.907 429.82 276.553C432.945 279.931 435.778 282.965 438.373 285.689C443.344 289.085 449.301 290.72 453.687 284.072H453.724Z" fill="#EFF5FE" stroke="black" stroke-miterlimit="10"/>
<path d="M234.074 515.936C271.267 515.936 301.418 485.971 301.418 449.007C301.418 412.043 271.267 382.078 234.074 382.078C196.881 382.078 166.73 412.043 166.73 449.007C166.73 485.971 196.881 515.936 234.074 515.936Z" fill="#184FA8" stroke="white" stroke-width="4" stroke-miterlimit="10"/>
<path d="M234.074 515.936C271.267 515.936 301.418 485.971 301.418 449.007C301.418 412.043 271.267 382.078 234.074 382.078C196.881 382.078 166.73 412.043 166.73 449.007C166.73 485.971 196.881 515.936 234.074 515.936Z" fill="white" stroke="#231F20" stroke-miterlimit="10"/>
<path d="M245.076 458.088C254.634 453.875 261.304 444.376 261.304 433.351C261.304 418.44 249.096 406.289 234.074 406.289C219.052 406.289 206.844 418.421 206.844 433.351C206.844 444.376 213.533 453.893 223.073 458.088C210.024 460.214 198.255 466.062 188.825 474.471C200.832 485.187 216.658 491.762 234.074 491.762C251.49 491.762 267.299 485.187 279.305 474.471C269.875 466.062 258.106 460.232 245.058 458.088H245.076Z" fill="black" stroke="white" stroke-width="2" stroke-miterlimit="10"/>
<path d="M251.052 93.2561V253.469C251.052 261.115 244.82 267.308 237.126 267.308H174.68C172.669 267.308 171.354 268.907 171.756 270.868L183.141 326.319C183.543 328.28 182.611 328.825 181.076 327.536L111.85 269.633C110.314 268.344 107.409 267.29 105.398 267.29H44.9257C37.2318 267.29 31 261.097 31 253.45V93.2561C31 85.6096 37.2318 79.4162 44.9257 79.4162H237.126C244.82 79.4162 251.052 85.6096 251.052 93.2561Z" fill="#184FA8"/>
<path d="M251.052 93.2561V253.469C251.052 261.115 244.82 267.308 237.126 267.308H174.68C172.669 267.308 171.354 268.907 171.756 270.868L183.141 326.319C183.543 328.28 182.611 328.825 181.076 327.536L111.85 269.633C110.314 268.344 107.409 267.29 105.398 267.29H44.9257C37.2318 267.29 31 261.097 31 253.45V93.2561C31 85.6096 37.2318 79.4162 44.9257 79.4162H237.126C244.82 79.4162 251.052 85.6096 251.052 93.2561Z" stroke="white" stroke-width="4" stroke-miterlimit="10"/>
<path d="M251.052 93.2561V253.469C251.052 261.115 244.82 267.308 237.126 267.308H174.68C172.669 267.308 171.354 268.907 171.756 270.868L183.141 326.319C183.543 328.28 182.611 328.825 181.076 327.536L111.85 269.633C110.314 268.344 107.409 267.29 105.398 267.29H44.9257C37.2318 267.29 31 261.097 31 253.45V93.2561C31 85.6096 37.2318 79.4162 44.9257 79.4162H237.126C244.82 79.4162 251.052 85.6096 251.052 93.2561Z" fill="white"/>
<path d="M251.052 93.2561V253.469C251.052 261.115 244.82 267.308 237.126 267.308H174.68C172.669 267.308 171.354 268.907 171.756 270.868L183.141 326.319C183.543 328.28 182.611 328.825 181.076 327.536L111.85 269.633C110.314 268.344 107.409 267.29 105.398 267.29H44.9257C37.2318 267.29 31 261.097 31 253.45V93.2561C31 85.6096 37.2318 79.4162 44.9257 79.4162H237.126C244.82 79.4162 251.052 85.6096 251.052 93.2561Z" stroke="#231F20" stroke-miterlimit="10"/>
<path d="M70.6572 114.851C70.6572 110.538 67.1389 107.042 62.7989 107.042C58.4588 107.042 54.9405 110.538 54.9405 114.851C54.9405 119.165 58.4588 122.661 62.7989 122.661C67.1389 122.661 70.6572 119.165 70.6572 114.851Z" fill="#3B82F6"/>
<path d="M142.424 107.042H86.6663C82.3262 107.042 78.8079 110.538 78.8079 114.851C78.8079 119.165 82.3262 122.661 86.6663 122.661H142.424C146.764 122.661 150.282 119.165 150.282 114.851C150.282 110.538 146.764 107.042 142.424 107.042Z" fill="#3B82F6"/>
<path d="M128.005 224.281H117.259C112.919 224.281 109.401 227.778 109.401 232.091C109.401 236.404 112.919 239.901 117.259 239.901H128.005C132.345 239.901 135.863 236.404 135.863 232.091C135.863 227.778 132.345 224.281 128.005 224.281Z" fill="#3B82F6"/>
<path d="M84.784 129.908H62.7989C58.4588 129.908 54.9405 133.405 54.9405 137.718C54.9405 142.031 58.4588 145.528 62.7989 145.528H84.784C89.124 145.528 92.6423 142.031 92.6423 137.718C92.6423 133.405 89.124 129.908 84.784 129.908Z" fill="#3B82F6"/>
<path d="M138.952 129.908H105.453C101.113 129.908 97.5949 133.405 97.5949 137.718C97.5949 142.031 101.113 145.528 105.453 145.528H138.952C143.292 145.528 146.81 142.031 146.81 137.718C146.81 133.405 143.292 129.908 138.952 129.908Z" fill="#3B82F6"/>
<path d="M179.65 129.908H159.164C154.824 129.908 151.306 133.405 151.306 137.718C151.306 142.031 154.824 145.528 159.164 145.528H179.65C183.991 145.528 187.509 142.031 187.509 137.718C187.509 133.405 183.991 129.908 179.65 129.908Z" fill="#3B82F6"/>
<path d="M220.349 129.908H199.863C195.523 129.908 192.005 133.405 192.005 137.718C192.005 142.031 195.523 145.528 199.863 145.528H220.349C224.689 145.528 228.208 142.031 228.208 137.718C228.208 133.405 224.689 129.908 220.349 129.908Z" fill="#3B82F6"/>
<path d="M138.952 199.961H62.7989C58.4588 199.961 54.9405 203.458 54.9405 207.771C54.9405 212.085 58.4588 215.581 62.7989 215.581H138.952C143.292 215.581 146.81 212.085 146.81 207.771C146.81 203.458 143.292 199.961 138.952 199.961Z" fill="#3B82F6"/>
<path d="M95.2008 223.918H61.7023C57.3623 223.918 53.844 227.415 53.844 231.728C53.844 236.041 57.3623 239.538 61.7023 239.538H95.2008C99.5408 239.538 103.059 236.041 103.059 231.728C103.059 227.415 99.5408 223.918 95.2008 223.918Z" fill="#3B82F6"/>
<path d="M179.65 199.961H159.164C154.824 199.961 151.306 203.458 151.306 207.771C151.306 212.085 154.824 215.581 159.164 215.581H179.65C183.991 215.581 187.509 212.085 187.509 207.771C187.509 203.458 183.991 199.961 179.65 199.961Z" fill="#3B82F6"/>
<path d="M220.349 199.961H199.863C195.523 199.961 192.005 203.458 192.005 207.771C192.005 212.085 195.523 215.581 199.863 215.581H220.349C224.689 215.581 228.208 212.085 228.208 207.771C228.208 203.458 224.689 199.961 220.349 199.961Z" fill="#3B82F6"/>
<path d="M101.67 152.775H62.7989C58.4588 152.775 54.9405 156.272 54.9405 160.585C54.9405 164.898 58.4588 168.395 62.7989 168.395H101.67C106.01 168.395 109.529 164.898 109.529 160.585C109.529 156.272 106.01 152.775 101.67 152.775Z" fill="#3B82F6"/>
<path d="M171.555 152.775H124.076C119.736 152.775 116.217 156.272 116.217 160.585C116.217 164.898 119.736 168.395 124.076 168.395H171.555C175.895 168.395 179.413 164.898 179.413 160.585C179.413 156.272 175.895 152.775 171.555 152.775Z" fill="#3B82F6"/>
<path d="M220.349 152.775H193.686C189.346 152.775 185.828 156.272 185.828 160.585C185.828 164.898 189.346 168.395 193.686 168.395H220.349C224.69 168.395 228.208 164.898 228.208 160.585C228.208 156.272 224.69 152.775 220.349 152.775Z" fill="#3B82F6"/>
<path d="M81.8782 175.642H62.7989C58.4588 175.642 54.9405 179.138 54.9405 183.452C54.9405 187.765 58.4588 191.262 62.7989 191.262H81.8782C86.2182 191.262 89.7365 187.765 89.7365 183.452C89.7365 179.138 86.2182 175.642 81.8782 175.642Z" fill="#3B82F6"/>
<path d="M142.442 175.642H102.822C98.4815 175.642 94.9632 179.138 94.9632 183.452C94.9632 187.765 98.4815 191.262 102.822 191.262H142.442C146.782 191.262 150.301 187.765 150.301 183.452C150.301 179.138 146.782 175.642 142.442 175.642Z" fill="#3B82F6"/>
<path d="M186.431 175.642H163.404C159.064 175.642 155.546 179.138 155.546 183.452C155.546 187.765 159.064 191.262 163.404 191.262H186.431C190.771 191.262 194.289 187.765 194.289 183.452C194.289 179.138 190.771 175.642 186.431 175.642Z" fill="#3B82F6"/>
<path d="M220.35 175.642H208.251C203.911 175.642 200.393 179.138 200.393 183.452C200.393 187.765 203.911 191.262 208.251 191.262H220.35C224.69 191.262 228.208 187.765 228.208 183.452C228.208 179.138 224.69 175.642 220.35 175.642Z" fill="#3B82F6"/>
<path d="M448.406 234.87C485.599 234.87 515.75 204.905 515.75 167.941C515.75 130.977 485.599 101.011 448.406 101.011C411.213 101.011 381.062 130.977 381.062 167.941C381.062 204.905 411.213 234.87 448.406 234.87Z" fill="#184FA8" stroke="white" stroke-width="4" stroke-miterlimit="10"/>
<path d="M448.406 234.87C485.599 234.87 515.75 204.905 515.75 167.941C515.75 130.977 485.599 101.011 448.406 101.011C411.213 101.011 381.062 130.977 381.062 167.941C381.062 204.905 411.213 234.87 448.406 234.87Z" fill="white" stroke="#231F20" stroke-miterlimit="10"/>
<path d="M431.794 210.732V139.879" stroke="black" stroke-width="4" stroke-miterlimit="10"/>
<path d="M431.794 176.75C448.406 176.75 480.863 181.853 479.912 144.347L431.794 176.75Z" fill="white"/>
<path d="M431.794 176.75C448.406 176.75 480.863 181.853 479.912 144.347" stroke="black" stroke-width="4" stroke-miterlimit="10"/>
<path d="M431.794 144.347C436.063 144.347 439.524 140.908 439.524 136.665C439.524 132.422 436.063 128.982 431.794 128.982C427.524 128.982 424.063 132.422 424.063 136.665C424.063 140.908 427.524 144.347 431.794 144.347Z" fill="white" stroke="black" stroke-width="4" stroke-miterlimit="10"/>
<path d="M479.894 152.03C484.163 152.03 487.624 148.59 487.624 144.347C487.624 140.104 484.163 136.665 479.894 136.665C475.625 136.665 472.164 140.104 472.164 144.347C472.164 148.59 475.625 152.03 479.894 152.03Z" fill="white" stroke="black" stroke-width="4" stroke-miterlimit="10"/>
<path d="M431.794 219.523C436.063 219.523 439.524 216.083 439.524 211.84C439.524 207.597 436.063 204.157 431.794 204.157C427.524 204.157 424.063 207.597 424.063 211.84C424.063 216.083 427.524 219.523 431.794 219.523Z" fill="white" stroke="black" stroke-width="4" stroke-miterlimit="10"/>
<path d="M735.692 191.843H619.59C611.01 191.843 604.056 198.755 604.056 207.281V362.807C604.056 371.334 611.01 378.246 619.59 378.246H735.692C744.271 378.246 751.226 371.334 751.226 362.807V207.281C751.226 198.755 744.271 191.843 735.692 191.843Z" fill="#184FA8" stroke="white" stroke-width="4" stroke-miterlimit="10"/>
<path d="M735.692 191.843H619.59C611.01 191.843 604.056 198.755 604.056 207.281V362.807C604.056 371.334 611.01 378.246 619.59 378.246H735.692C744.271 378.246 751.226 371.334 751.226 362.807V207.281C751.226 198.755 744.271 191.843 735.692 191.843Z" fill="white" stroke="#231F20" stroke-miterlimit="10"/>
<path d="M620.467 242.262H734.815" stroke="#3B82F6" stroke-width="2" stroke-miterlimit="10" stroke-linecap="round"/>
<path d="M620.467 267.454H734.815" stroke="#3B82F6" stroke-width="2" stroke-miterlimit="10" stroke-linecap="round"/>
<path d="M620.467 254.849H734.815" stroke="#3B82F6" stroke-width="2" stroke-miterlimit="10" stroke-linecap="round"/>
<path d="M620.467 280.04H734.815" stroke="#3B82F6" stroke-width="2" stroke-miterlimit="10" stroke-linecap="round"/>
<path d="M620.467 292.645H734.815" stroke="#3B82F6" stroke-width="2" stroke-miterlimit="10" stroke-linecap="round"/>
<path d="M620.467 317.837H734.815" stroke="#3B82F6" stroke-width="2" stroke-miterlimit="10" stroke-linecap="round"/>
<path d="M620.467 305.232H734.815" stroke="#3B82F6" stroke-width="2" stroke-miterlimit="10" stroke-linecap="round"/>
<path d="M620.467 330.423H734.815" stroke="#3B82F6" stroke-width="2" stroke-miterlimit="10" stroke-linecap="round"/>
<path d="M620.467 343.01H734.815" stroke="#3B82F6" stroke-width="2" stroke-miterlimit="10" stroke-linecap="round"/>
<path d="M620.467 355.615H734.815" stroke="#3B82F6" stroke-width="2" stroke-miterlimit="10" stroke-linecap="round"/>
<path d="M732.074 211.858H625.639C621.299 211.858 617.78 215.354 617.78 219.668C617.78 223.981 621.299 227.478 625.639 227.478H732.074C736.414 227.478 739.932 223.981 739.932 219.668C739.932 215.354 736.414 211.858 732.074 211.858Z" fill="#3B82F6"/>
<path d="M427.444 488.82V491.508C427.444 498.954 431.867 504.984 437.313 504.984H707.329C712.775 504.984 717.198 498.954 717.198 491.508V488.82H427.462H427.444Z" fill="#184FA8" stroke="white" stroke-width="4" stroke-miterlimit="10"/>
<path d="M667.197 481.555H437.276C431.921 481.555 427.28 477.904 426.037 472.728L394.969 342.792C393.251 335.582 398.752 328.662 406.208 328.662H637.682C643.073 328.662 647.752 332.385 648.94 337.616L678.454 467.551C680.081 474.725 674.598 481.555 667.197 481.555Z" fill="#184FA8" stroke="white" stroke-width="4" stroke-miterlimit="10"/>
<path d="M667.508 481.555H437.185C431.922 481.555 427.353 477.959 426.147 472.891L394.988 342.556C393.288 335.473 398.698 328.68 406.026 328.68H637.92C643.22 328.68 647.825 332.331 648.995 337.471L678.601 467.806C680.209 474.853 674.799 481.573 667.526 481.573L667.508 481.555ZM627.485 338.615H420.281C412.916 338.615 407.506 345.481 409.261 352.6L434.736 455.183C435.979 460.214 440.529 463.755 445.756 463.755H651.462C658.772 463.755 664.163 456.999 662.518 449.934L638.541 347.351C637.354 342.248 632.766 338.633 627.485 338.633V338.615Z" fill="white" stroke="#231F20" stroke-miterlimit="10"/>
<path d="M427.444 488.82V491.508C427.444 498.954 431.867 504.984 437.313 504.984H707.329C712.775 504.984 717.198 498.954 717.198 491.508V488.82H427.462H427.444Z" fill="white" stroke="#231F20" stroke-miterlimit="10"/>
<path d="M483.421 400.404C485.779 399.786 487.46 398.896 488.483 397.752C489.507 396.608 490.037 395.246 490.055 393.647C490.073 392.049 489.799 390.287 489.196 388.344L484.591 373.396C483.695 370.49 483.293 368.093 483.403 366.204C483.512 364.315 484.262 362.934 485.651 362.044C487.04 361.154 489.196 360.7 492.102 360.7L489.854 353.381C486.162 353.381 483.202 353.78 480.936 354.58C478.67 355.379 477.043 356.596 476.038 358.248C475.033 359.901 474.594 361.972 474.704 364.496C474.813 367.021 475.398 369.982 476.458 373.432L480.132 385.383C481.393 389.47 481.447 392.376 480.314 394.12C479.181 395.863 476.531 396.735 472.346 396.735L473.68 401.076L473.772 401.367L475.106 405.707C479.291 405.707 482.489 406.579 484.682 408.323C486.893 410.066 488.611 412.972 489.872 417.059L493.546 429.01C494.606 432.443 495.848 435.421 497.292 437.946C498.736 440.471 500.454 442.541 502.464 444.194C504.474 445.847 506.85 447.064 509.61 447.863C512.369 448.662 515.585 449.062 519.259 449.062L517.011 441.742C514.105 441.742 511.675 441.288 509.737 440.38C507.782 439.472 506.192 438.073 504.913 436.221C503.652 434.35 502.573 431.952 501.678 429.046L497.073 414.099C496.47 412.155 495.665 410.393 494.679 408.795C493.673 407.197 492.303 405.835 490.585 404.69C488.849 403.546 486.619 402.656 483.878 402.039C483.531 401.966 483.147 401.893 482.781 401.839L482.434 400.676C482.763 400.604 483.11 400.549 483.403 400.477L483.421 400.404Z" fill="white"/>
<path d="M590.386 400.404C587.645 399.786 585.415 398.896 583.679 397.752C581.943 396.608 580.572 395.246 579.585 393.647C578.58 392.049 577.776 390.287 577.191 388.344L572.586 373.396C571.69 370.49 570.612 368.093 569.333 366.204C568.072 364.315 566.464 362.934 564.508 362.044C562.571 361.154 560.141 360.7 557.235 360.7L554.987 353.381C558.678 353.381 561.895 353.78 564.636 354.58C567.396 355.379 569.772 356.596 571.782 358.248C573.792 359.901 575.51 361.972 576.954 364.496C578.397 367.021 579.64 369.982 580.7 373.432L584.373 385.383C585.634 389.47 587.352 392.376 589.564 394.12C591.775 395.863 594.955 396.735 599.14 396.735L600.474 401.076L600.565 401.367L601.899 405.707C597.714 405.707 595.064 406.579 593.931 408.323C592.798 410.066 592.871 412.972 594.114 417.059L597.787 429.01C598.847 432.443 599.432 435.421 599.542 437.946C599.652 440.471 599.213 442.541 598.208 444.194C597.203 445.847 595.576 447.064 593.31 447.863C591.044 448.662 588.083 449.062 584.392 449.062L582.144 441.742C585.05 441.742 587.206 441.288 588.577 440.38C589.966 439.472 590.715 438.073 590.825 436.221C590.934 434.368 590.55 431.952 589.655 429.046L585.05 414.099C584.447 412.155 584.172 410.393 584.191 408.795C584.209 407.197 584.739 405.835 585.762 404.69C586.786 403.546 588.485 402.656 590.825 402.039C591.117 401.966 591.464 401.893 591.793 401.839L591.446 400.676C591.08 400.604 590.697 400.549 590.349 400.477L590.386 400.404Z" fill="white"/>
<path d="M527.232 427.013C530.132 423.656 528.77 417.768 524.191 413.86C519.611 409.953 513.548 409.506 510.649 412.862C507.749 416.218 509.111 422.107 513.69 426.014C518.27 429.922 524.332 430.369 527.232 427.013Z" fill="white"/>
<path d="M551.203 427.023C554.103 423.667 552.741 417.779 548.162 413.871C543.583 409.963 537.52 409.516 534.62 412.872C531.721 416.229 533.082 422.117 537.662 426.025C542.241 429.933 548.304 430.38 551.203 427.023Z" fill="white"/>
<path d="M575.205 427.002C578.104 423.646 576.743 417.757 572.163 413.849C567.584 409.942 561.521 409.495 558.622 412.851C555.722 416.207 557.084 422.096 561.663 426.003C566.242 429.911 572.305 430.358 575.205 427.002Z" fill="white"/>
<defs>
<linearGradient id="paint0_linear_69_1555" x1="678.692" y1="558.673" x2="382.074" y2="41.7393" gradientUnits="userSpaceOnUse">
<stop stop-color="#DDE1FF"/>
<stop offset="0.44" stop-color="#5468FF"/>
<stop offset="1" stop-color="white"/>
</linearGradient>
<linearGradient id="paint1_linear_69_1555" x1="227.842" y1="301" x2="830.157" y2="301" gradientUnits="userSpaceOnUse">
<stop stop-color="white"/>
<stop offset="1" stop-color="white" stop-opacity="0.13"/>
</linearGradient>
</defs>
</svg>
