<svg width="710" height="517" viewBox="0 0 710 517" fill="none" xmlns="http://www.w3.org/2000/svg">
<g clip-path="url(#clip0_51_12838)">
<path opacity="0.6" d="M430.423 517.372C573.306 517.372 689.135 402.34 689.135 260.44C689.135 118.541 573.306 3.50903 430.423 3.50903C287.541 3.50903 171.711 118.541 171.711 260.44C171.711 402.34 287.541 517.372 430.423 517.372Z" fill="url(#paint0_linear_51_12838)" stroke="url(#paint1_linear_51_12838)" stroke-width="2"/>
<mask id="mask0_51_12838" style="mask-type:luminance" maskUnits="userSpaceOnUse" x="171" y="3" width="519" height="515">
<path d="M430.423 517.372C573.306 517.372 689.135 402.34 689.135 260.44C689.135 118.541 573.306 3.50903 430.423 3.50903C287.541 3.50903 171.711 118.541 171.711 260.44C171.711 402.34 287.541 517.372 430.423 517.372Z" fill="white"/>
</mask>
<g mask="url(#mask0_51_12838)">
<path d="M586.702 502.548C714.964 502.548 818.941 399.287 818.941 271.907C818.941 144.528 714.964 41.2667 586.702 41.2667C458.44 41.2667 354.463 144.528 354.463 271.907C354.463 399.287 458.44 502.548 586.702 502.548Z" stroke="white" stroke-miterlimit="10"/>
<path d="M586.702 464.555C693.836 464.555 780.685 378.304 780.685 271.907C780.685 165.511 693.836 79.2598 586.702 79.2598C479.569 79.2598 392.72 165.511 392.72 271.907C392.72 378.304 479.569 464.555 586.702 464.555Z" stroke="white" stroke-miterlimit="10"/>
<path d="M586.702 426.577C672.716 426.577 742.445 357.329 742.445 271.907C742.445 186.485 672.716 117.237 586.702 117.237C500.688 117.237 430.96 186.485 430.96 271.907C430.96 357.329 500.688 426.577 586.702 426.577Z" stroke="white" stroke-miterlimit="10"/>
<path d="M586.702 388.6C651.597 388.6 704.204 336.355 704.204 271.907C704.204 207.46 651.597 155.214 586.702 155.214C521.808 155.214 469.201 207.46 469.201 271.907C469.201 336.355 521.808 388.6 586.702 388.6Z" stroke="white" stroke-miterlimit="10"/>
<path d="M586.702 350.607C630.468 350.607 665.948 315.372 665.948 271.907C665.948 228.443 630.468 193.208 586.702 193.208C542.936 193.208 507.457 228.443 507.457 271.907C507.457 315.372 542.936 350.607 586.702 350.607Z" stroke="white" stroke-miterlimit="10"/>
<path d="M586.702 312.63C609.349 312.63 627.707 294.398 627.707 271.907C627.707 249.417 609.349 231.185 586.702 231.185C564.056 231.185 545.698 249.417 545.698 271.907C545.698 294.398 564.056 312.63 586.702 312.63Z" fill="white"/>
<path d="M715.545 157.709C730.41 157.709 742.46 145.741 742.46 130.979C742.46 116.216 730.41 104.249 715.545 104.249C700.68 104.249 688.63 116.216 688.63 130.979C688.63 145.741 700.68 157.709 715.545 157.709Z" fill="white"/>
<path d="M640.517 71.7929C655.382 71.7929 667.432 59.8255 667.432 45.0629C667.432 30.3003 655.382 18.3329 640.517 18.3329C625.652 18.3329 613.602 30.3003 613.602 45.0629C613.602 59.8255 625.652 71.7929 640.517 71.7929Z" fill="white"/>
<path d="M463.783 388.6C478.648 388.6 490.698 376.633 490.698 361.87C490.698 347.108 478.648 335.14 463.783 335.14C448.918 335.14 436.868 347.108 436.868 361.87C436.868 376.633 448.918 388.6 463.783 388.6Z" fill="white"/>
<path d="M480.542 92.311C495.407 92.311 507.457 80.3436 507.457 65.581C507.457 50.8184 495.407 38.851 480.542 38.851C465.677 38.851 453.626 50.8184 453.626 65.581C453.626 80.3436 465.677 92.311 480.542 92.311Z" fill="white"/>
<path d="M715.545 491.285C730.41 491.285 742.46 479.317 742.46 464.555C742.46 449.792 730.41 437.825 715.545 437.825C700.68 437.825 688.63 449.792 688.63 464.555C688.63 479.317 700.68 491.285 715.545 491.285Z" fill="white"/>
<path d="M392.72 325.367C407.585 325.367 419.635 313.4 419.635 298.637C419.635 283.875 407.585 271.907 392.72 271.907C377.855 271.907 365.804 283.875 365.804 298.637C365.804 313.4 377.855 325.367 392.72 325.367Z" fill="white"/>
<path d="M365.804 219.922C380.669 219.922 392.72 207.954 392.72 193.192C392.72 178.429 380.669 166.462 365.804 166.462C350.94 166.462 338.889 178.429 338.889 193.192C338.889 207.954 350.94 219.922 365.804 219.922Z" fill="white"/>
<path d="M430.96 184.423C445.825 184.423 457.875 172.455 457.875 157.693C457.875 142.93 445.825 130.963 430.96 130.963C416.095 130.963 404.045 142.93 404.045 157.693C404.045 172.455 416.095 184.423 430.96 184.423Z" fill="white"/>
<path d="M469.201 276.535C484.066 276.535 496.116 264.568 496.116 249.805C496.116 235.042 484.066 223.075 469.201 223.075C454.336 223.075 442.285 235.042 442.285 249.805C442.285 264.568 454.336 276.535 469.201 276.535Z" fill="white"/>
<path d="M453.642 484.43C468.507 484.43 480.558 472.462 480.558 457.7C480.558 442.937 468.507 430.97 453.642 430.97C438.777 430.97 426.727 442.937 426.727 457.7C426.727 472.462 438.777 484.43 453.642 484.43Z" fill="white"/>
<path d="M613.618 491.285C628.483 491.285 640.533 479.317 640.533 464.555C640.533 449.792 628.483 437.825 613.618 437.825C598.753 437.825 586.702 449.792 586.702 464.555C586.702 479.317 598.753 491.285 613.618 491.285Z" fill="white"/>
<path d="M623.474 366.09C638.339 366.09 650.389 354.123 650.389 339.36C650.389 324.597 638.339 312.63 623.474 312.63C608.609 312.63 596.559 324.597 596.559 339.36C596.559 354.123 608.609 366.09 623.474 366.09Z" fill="white"/>
<path d="M573.892 415.33C588.757 415.33 600.808 403.363 600.808 388.6C600.808 373.838 588.757 361.87 573.892 361.87C559.027 361.87 546.977 373.838 546.977 388.6C546.977 403.363 559.027 415.33 573.892 415.33Z" fill="white"/>
<path d="M677.289 231.185C692.153 231.185 704.204 219.217 704.204 204.455C704.204 189.692 692.153 177.725 677.289 177.725C662.424 177.725 650.373 189.692 650.373 204.455C650.373 219.217 662.424 231.185 677.289 231.185Z" fill="white"/>
<path d="M600.808 143.967C615.673 143.967 627.723 132 627.723 117.237C627.723 102.475 615.673 90.5071 600.808 90.5071C585.943 90.5071 573.892 102.475 573.892 117.237C573.892 132 585.943 143.967 600.808 143.967Z" fill="white"/>
<path d="M545.698 231.185C560.563 231.185 572.613 219.217 572.613 204.455C572.613 189.692 560.563 177.725 545.698 177.725C530.833 177.725 518.782 189.692 518.782 204.455C518.782 219.217 530.833 231.185 545.698 231.185Z" fill="white"/>
</g>
<path d="M408.562 296.739C415.354 289.994 436.836 252.691 423.631 238.95C419.493 234.636 416.981 235.797 416.981 235.797C416.981 235.797 416.523 227.577 410.632 223.404C407.441 221.145 404.424 222.385 404.424 222.385C404.424 222.385 404.929 215.216 397.348 209.914C394.331 207.812 389.671 209.726 389.671 209.726C389.671 209.726 390.082 204.094 385.643 199.31C377.904 190.964 371.554 197.804 370.29 199.372C370.132 199.561 370.037 199.686 370.037 199.686C376.119 208.784 384.095 217.396 365.362 245.821C361.587 251.546 356.422 250.15 352.126 247.217C347.624 244.142 344.07 239.373 344.07 239.373C344.07 239.373 333.029 256.236 335.572 267.327C338.115 278.417 339.568 276.582 338.747 278.81C335.319 288.284 324.405 314.654 287.317 348.458C241.463 390.247 231.781 394.153 231.781 394.153L258.191 423.833C258.191 423.833 283.21 412.962 316.333 384.083C341.369 362.247 370.006 329.54 384.348 314.042C387.681 310.45 401.755 303.485 408.562 296.724V296.739Z" fill="#184FA8" stroke="white" stroke-width="4" stroke-miterlimit="10"/>
<path d="M288.265 427.268C274.428 440.398 236.883 419.048 230.075 412.303C223.267 405.558 216.27 391.565 212.637 388.255C197.031 374.027 164.098 345.572 142.111 320.709C113.016 287.829 100.19 264.033 100.19 264.033L130.074 237.805C130.074 237.805 135.887 246.354 177.966 291.892C212.005 328.724 238.557 339.564 248.097 342.968C250.356 343.768 248.492 342.34 259.66 339.815C270.827 337.289 287.807 348.254 287.807 348.254C287.807 348.254 269.484 361.698 281.299 369.4C309.92 388.02 318.592 380.082 327.753 374.043C327.753 374.043 337.562 380.93 328.132 389.541C323.315 393.949 317.644 393.542 317.644 393.542C317.644 393.542 319.587 398.169 317.455 401.165C312.116 408.695 304.897 408.193 304.897 408.193C304.897 408.193 306.129 411.189 303.871 414.358C299.669 420.209 291.392 420.664 291.392 420.664C291.392 420.664 292.545 423.158 288.217 427.268H288.265Z" fill="#184FA8" stroke="white" stroke-width="4" stroke-miterlimit="10"/>
<path d="M99.3053 293.586C86.0845 279.845 107.582 242.558 114.374 235.797C121.166 229.051 135.255 222.087 138.588 218.479C152.915 202.98 181.567 170.274 206.603 148.438C239.71 119.543 269.026 108.249 269.026 108.249L295.436 137.928C295.436 137.928 281.473 142.257 235.619 184.046C198.532 217.851 187.617 244.22 184.189 253.695C183.384 255.938 184.821 254.087 187.364 265.178C189.907 276.268 178.866 293.131 178.866 293.131C178.866 293.131 165.33 274.935 157.574 286.668C138.825 315.093 146.818 323.705 152.899 332.803C152.899 332.803 145.965 342.544 137.293 333.179C132.855 328.395 133.265 322.763 133.265 322.763C133.265 322.763 128.606 324.693 125.589 322.575C118.007 317.273 118.512 310.104 118.512 310.104C118.512 310.104 115.495 311.328 112.305 309.085C106.413 304.912 105.955 296.692 105.955 296.692C105.955 296.692 103.444 297.837 99.3053 293.539V293.586Z" fill="#184FA8" stroke="white" stroke-width="4" stroke-miterlimit="10"/>
<path d="M365.362 245.82C384.111 217.396 376.119 208.784 370.037 199.686C370.037 199.686 370.132 199.561 370.29 199.372C349.314 177.584 323.394 155.105 310.078 142.963C306.461 139.653 299.448 125.677 292.64 118.916C285.832 112.155 248.287 90.8365 234.45 103.951C230.106 108.06 231.275 110.555 231.275 110.555C231.275 110.555 222.999 111.01 218.797 116.861C216.522 120.029 217.77 123.026 217.77 123.026C217.77 123.026 210.552 122.524 205.213 130.053C203.096 133.049 205.023 137.677 205.023 137.677C205.023 137.677 199.353 137.269 194.535 141.677C185.121 150.289 195.831 158.258 195.831 158.258C204.992 152.218 212.747 143.214 241.369 161.834C253.199 169.536 234.75 184.847 234.75 184.847C234.75 184.847 251.841 193.929 263.008 191.404C274.175 188.878 272.327 187.435 274.57 188.251C284.111 191.655 310.663 202.494 344.702 239.326C347.403 242.244 349.851 244.864 352.094 247.217C356.39 250.15 361.54 251.562 365.33 245.82H365.362Z" fill="#184FA8" stroke="white" stroke-width="4" stroke-miterlimit="10"/>
<path d="M408.562 296.739C415.354 289.994 436.836 252.691 423.631 238.95C419.493 234.636 416.981 235.797 416.981 235.797C416.981 235.797 416.523 227.577 410.632 223.404C407.441 221.145 404.424 222.385 404.424 222.385C404.424 222.385 404.929 215.216 397.348 209.914C394.331 207.812 389.671 209.726 389.671 209.726C389.671 209.726 390.082 204.094 385.643 199.31C377.904 190.964 371.554 197.804 370.29 199.372C370.132 199.561 370.037 199.686 370.037 199.686C376.119 208.784 384.095 217.396 365.362 245.821C361.587 251.546 356.422 250.15 352.126 247.217C347.624 244.142 344.07 239.373 344.07 239.373C344.07 239.373 333.029 256.236 335.572 267.327C338.115 278.417 339.568 276.582 338.747 278.81C335.319 288.284 324.405 314.654 287.317 348.458C241.463 390.247 231.781 394.153 231.781 394.153L258.191 423.833C258.191 423.833 283.21 412.962 316.333 384.083C341.369 362.247 370.006 329.54 384.348 314.042C387.681 310.45 401.755 303.485 408.562 296.724V296.739Z" fill="#EFF5FE" stroke="black" stroke-miterlimit="10"/>
<path d="M288.265 427.268C274.428 440.398 236.883 419.048 230.075 412.303C223.267 405.558 216.27 391.565 212.637 388.255C197.031 374.027 164.098 345.572 142.111 320.709C113.016 287.829 100.19 264.033 100.19 264.033L130.074 237.805C130.074 237.805 135.887 246.354 177.966 291.892C212.005 328.724 238.557 339.564 248.097 342.968C250.356 343.768 248.492 342.34 259.66 339.815C270.827 337.289 287.807 348.254 287.807 348.254C287.807 348.254 269.484 361.698 281.299 369.4C309.92 388.02 318.592 380.082 327.753 374.043C327.753 374.043 337.562 380.93 328.132 389.541C323.315 393.949 317.644 393.542 317.644 393.542C317.644 393.542 319.587 398.169 317.455 401.165C312.116 408.695 304.897 408.193 304.897 408.193C304.897 408.193 306.129 411.189 303.871 414.358C299.669 420.209 291.392 420.664 291.392 420.664C291.392 420.664 292.545 423.158 288.217 427.268H288.265Z" fill="#EFF5FE" stroke="black" stroke-miterlimit="10"/>
<path d="M99.3053 293.586C86.0845 279.845 107.582 242.558 114.374 235.797C121.166 229.051 135.255 222.087 138.588 218.479C152.915 202.98 181.567 170.274 206.603 148.438C239.71 119.543 269.026 108.249 269.026 108.249L295.436 137.928C295.436 137.928 281.473 142.257 235.619 184.046C198.532 217.851 187.617 244.22 184.189 253.695C183.384 255.938 184.821 254.087 187.364 265.178C189.907 276.268 178.866 293.131 178.866 293.131C178.866 293.131 165.33 274.935 157.574 286.668C138.825 315.093 146.818 323.705 152.899 332.803C152.899 332.803 145.965 342.544 137.293 333.179C132.855 328.395 133.265 322.763 133.265 322.763C133.265 322.763 128.606 324.693 125.589 322.575C118.007 317.273 118.512 310.104 118.512 310.104C118.512 310.104 115.495 311.328 112.305 309.085C106.413 304.912 105.955 296.692 105.955 296.692C105.955 296.692 103.444 297.837 99.3053 293.539V293.586Z" fill="#EFF5FE" stroke="black" stroke-miterlimit="10"/>
<path d="M365.362 245.82C384.111 217.396 376.119 208.784 370.037 199.686C370.037 199.686 370.132 199.561 370.29 199.372C349.314 177.584 323.394 155.105 310.078 142.963C306.461 139.653 299.448 125.677 292.64 118.916C285.832 112.155 248.287 90.8365 234.45 103.951C230.106 108.06 231.275 110.555 231.275 110.555C231.275 110.555 222.999 111.01 218.797 116.861C216.522 120.029 217.77 123.026 217.77 123.026C217.77 123.026 210.552 122.524 205.213 130.053C203.096 133.049 205.023 137.677 205.023 137.677C205.023 137.677 199.353 137.269 194.535 141.677C185.121 150.289 195.831 158.258 195.831 158.258C204.992 152.218 212.747 143.214 241.369 161.834C253.199 169.536 234.75 184.847 234.75 184.847C234.75 184.847 251.841 193.929 263.008 191.404C274.175 188.878 272.327 187.435 274.57 188.251C284.111 191.655 310.663 202.494 344.702 239.326C347.403 242.244 349.851 244.864 352.094 247.217C356.39 250.15 361.54 251.562 365.33 245.82H365.362Z" fill="#EFF5FE" stroke="black" stroke-miterlimit="10"/>
<path d="M175.518 446.076C207.664 446.076 233.724 420.196 233.724 388.271C233.724 356.346 207.664 330.465 175.518 330.465C143.372 330.465 117.312 356.346 117.312 388.271C117.312 420.196 143.372 446.076 175.518 446.076Z" fill="#184FA8" stroke="white" stroke-width="4" stroke-miterlimit="10"/>
<path d="M175.518 446.076C207.664 446.076 233.724 420.196 233.724 388.271C233.724 356.346 207.664 330.465 175.518 330.465C143.372 330.465 117.312 356.346 117.312 388.271C117.312 420.196 143.372 446.076 175.518 446.076Z" fill="white" stroke="#231F20" stroke-miterlimit="10"/>
<path d="M185.027 396.114C193.288 392.475 199.053 384.271 199.053 374.749C199.053 361.87 188.502 351.376 175.518 351.376C162.534 351.376 151.983 361.854 151.983 374.749C151.983 384.271 157.764 392.49 166.009 396.114C154.731 397.949 144.559 403 136.409 410.263C146.786 419.518 160.465 425.197 175.518 425.197C190.571 425.197 204.234 419.518 214.611 410.263C206.461 403 196.289 397.965 185.011 396.114H185.027Z" fill="black" stroke="white" stroke-width="2" stroke-miterlimit="10"/>
<path d="M190.192 81.0167V219.388C190.192 225.993 184.806 231.342 178.156 231.342H124.183C122.446 231.342 121.308 232.722 121.656 234.416L131.496 282.308C131.844 284.002 131.038 284.472 129.711 283.359L69.8786 233.35C68.5518 232.236 66.0404 231.326 64.3029 231.326H12.0361C5.38621 231.326 0 225.977 0 219.373V81.0167C0 74.4126 5.38621 69.0635 12.0361 69.0635H178.156C184.806 69.0635 190.192 74.4126 190.192 81.0167Z" fill="#184FA8"/>
<path d="M190.192 81.0167V219.388C190.192 225.993 184.806 231.342 178.156 231.342H124.183C122.446 231.342 121.308 232.722 121.656 234.416L131.496 282.308C131.844 284.002 131.038 284.472 129.711 283.359L69.8786 233.35C68.5518 232.236 66.0404 231.326 64.3029 231.326H12.0361C5.38621 231.326 0 225.977 0 219.373V81.0167C0 74.4126 5.38621 69.0635 12.0361 69.0635H178.156C184.806 69.0635 190.192 74.4126 190.192 81.0167Z" stroke="white" stroke-width="4" stroke-miterlimit="10"/>
<path d="M190.192 81.0167V219.388C190.192 225.993 184.806 231.342 178.156 231.342H124.183C122.446 231.342 121.308 232.722 121.656 234.416L131.496 282.308C131.844 284.002 131.038 284.472 129.711 283.359L69.8786 233.35C68.5518 232.236 66.0404 231.326 64.3029 231.326H12.0361C5.38621 231.326 0 225.977 0 219.373V81.0167C0 74.4126 5.38621 69.0635 12.0361 69.0635H178.156C184.806 69.0635 190.192 74.4126 190.192 81.0167Z" fill="white"/>
<path d="M190.192 81.0167V219.388C190.192 225.993 184.806 231.342 178.156 231.342H124.183C122.446 231.342 121.308 232.722 121.656 234.416L131.496 282.308C131.844 284.002 131.038 284.472 129.711 283.359L69.8786 233.35C68.5518 232.236 66.0404 231.326 64.3029 231.326H12.0361C5.38621 231.326 0 225.977 0 219.373V81.0167C0 74.4126 5.38621 69.0635 12.0361 69.0635H178.156C184.806 69.0635 190.192 74.4126 190.192 81.0167Z" stroke="#231F20" stroke-miterlimit="10"/>
<path d="M34.2759 99.6681C34.2759 95.9428 31.235 92.9229 27.4839 92.9229C23.7328 92.9229 20.6919 95.9428 20.6919 99.6681C20.6919 103.393 23.7328 106.413 27.4839 106.413C31.235 106.413 34.2759 103.393 34.2759 99.6681Z" fill="#3B82F6"/>
<path d="M96.3042 92.9229H48.1126C44.3614 92.9229 41.3206 95.9428 41.3206 99.6681C41.3206 103.393 44.3614 106.413 48.1126 106.413H96.3042C100.055 106.413 103.096 103.393 103.096 99.6681C103.096 95.9428 100.055 92.9229 96.3042 92.9229Z" fill="#3B82F6"/>
<path d="M83.8416 194.18H74.554C70.8028 194.18 67.762 197.2 67.762 200.925C67.762 204.65 70.8028 207.67 74.554 207.67H83.8416C87.5927 207.67 90.6336 204.65 90.6336 200.925C90.6336 197.2 87.5927 194.18 83.8416 194.18Z" fill="#3B82F6"/>
<path d="M46.4857 112.672H27.4839C23.7328 112.672 20.6919 115.692 20.6919 119.417C20.6919 123.143 23.7328 126.163 27.4839 126.163H46.4857C50.2368 126.163 53.2777 123.143 53.2777 119.417C53.2777 115.692 50.2368 112.672 46.4857 112.672Z" fill="#3B82F6"/>
<path d="M93.3032 112.672H64.3504C60.5992 112.672 57.5583 115.692 57.5583 119.417C57.5583 123.143 60.5992 126.163 64.3504 126.163H93.3032C97.0543 126.163 100.095 123.143 100.095 119.417C100.095 115.692 97.0543 112.672 93.3032 112.672Z" fill="#3B82F6"/>
<path d="M128.479 112.672H110.773C107.022 112.672 103.981 115.692 103.981 119.417C103.981 123.143 107.022 126.163 110.773 126.163H128.479C132.23 126.163 135.271 123.143 135.271 119.417C135.271 115.692 132.23 112.672 128.479 112.672Z" fill="#3B82F6"/>
<path d="M163.656 112.672H145.949C142.198 112.672 139.157 115.692 139.157 119.417C139.157 123.143 142.198 126.163 145.949 126.163H163.656C167.407 126.163 170.448 123.143 170.448 119.417C170.448 115.692 167.407 112.672 163.656 112.672Z" fill="#3B82F6"/>
<path d="M93.3031 173.176H27.4839C23.7328 173.176 20.6919 176.195 20.6919 179.921C20.6919 183.646 23.7328 186.666 27.4839 186.666H93.3031C97.0542 186.666 100.095 183.646 100.095 179.921C100.095 176.195 97.0542 173.176 93.3031 173.176Z" fill="#3B82F6"/>
<path d="M55.489 193.866H26.5361C22.785 193.866 19.7441 196.886 19.7441 200.611C19.7441 204.337 22.785 207.357 26.5361 207.357H55.489C59.2401 207.357 62.281 204.337 62.281 200.611C62.281 196.886 59.2401 193.866 55.489 193.866Z" fill="#3B82F6"/>
<path d="M128.479 173.176H110.773C107.022 173.176 103.981 176.195 103.981 179.921C103.981 183.646 107.022 186.666 110.773 186.666H128.479C132.23 186.666 135.271 183.646 135.271 179.921C135.271 176.195 132.23 173.176 128.479 173.176Z" fill="#3B82F6"/>
<path d="M163.656 173.176H145.949C142.198 173.176 139.157 176.195 139.157 179.921C139.157 183.646 142.198 186.666 145.949 186.666H163.656C167.407 186.666 170.448 183.646 170.448 179.921C170.448 176.195 167.407 173.176 163.656 173.176Z" fill="#3B82F6"/>
<path d="M61.0806 132.422H27.4839C23.7328 132.422 20.6919 135.442 20.6919 139.167C20.6919 142.892 23.7328 145.912 27.4839 145.912H61.0806C64.8317 145.912 67.8726 142.892 67.8726 139.167C67.8726 135.442 64.8317 132.422 61.0806 132.422Z" fill="#3B82F6"/>
<path d="M121.482 132.422H80.4458C76.6947 132.422 73.6538 135.442 73.6538 139.167C73.6538 142.892 76.6947 145.912 80.4458 145.912H121.482C125.233 145.912 128.274 142.892 128.274 139.167C128.274 135.442 125.233 132.422 121.482 132.422Z" fill="#3B82F6"/>
<path d="M163.656 132.422H140.61C136.859 132.422 133.818 135.442 133.818 139.167C133.818 142.892 136.859 145.912 140.61 145.912H163.656C167.407 145.912 170.448 142.892 170.448 139.167C170.448 135.442 167.407 132.422 163.656 132.422Z" fill="#3B82F6"/>
<path d="M43.9742 152.171H27.4839C23.7328 152.171 20.6919 155.191 20.6919 158.916C20.6919 162.642 23.7328 165.662 27.4839 165.662H43.9742C47.7254 165.662 50.7662 162.642 50.7662 158.916C50.7662 155.191 47.7254 152.171 43.9742 152.171Z" fill="#3B82F6"/>
<path d="M96.32 152.171H62.0757C58.3246 152.171 55.2837 155.191 55.2837 158.916C55.2837 162.642 58.3246 165.662 62.0757 165.662H96.32C100.071 165.662 103.112 162.642 103.112 158.916C103.112 155.191 100.071 152.171 96.32 152.171Z" fill="#3B82F6"/>
<path d="M134.339 152.171H114.437C110.686 152.171 107.645 155.191 107.645 158.916C107.645 162.642 110.686 165.662 114.437 165.662H134.339C138.091 165.662 141.131 162.642 141.131 158.916C141.131 155.191 138.091 152.171 134.339 152.171Z" fill="#3B82F6"/>
<path d="M163.656 152.171H153.199C149.448 152.171 146.407 155.191 146.407 158.916C146.407 162.642 149.448 165.662 153.199 165.662H163.656C167.407 165.662 170.448 162.642 170.448 158.916C170.448 155.191 167.407 152.171 163.656 152.171Z" fill="#3B82F6"/>
<path d="M360.766 203.325C392.912 203.325 418.972 177.445 418.972 145.52C418.972 113.595 392.912 87.7148 360.766 87.7148C328.62 87.7148 302.56 113.595 302.56 145.52C302.56 177.445 328.62 203.325 360.766 203.325Z" fill="#184FA8" stroke="white" stroke-width="4" stroke-miterlimit="10"/>
<path d="M360.766 203.325C392.912 203.325 418.972 177.445 418.972 145.52C418.972 113.595 392.912 87.7148 360.766 87.7148C328.62 87.7148 302.56 113.595 302.56 145.52C302.56 177.445 328.62 203.325 360.766 203.325Z" fill="white" stroke="#231F20" stroke-miterlimit="10"/>
<path d="M346.408 182.478V121.284" stroke="black" stroke-width="4" stroke-miterlimit="10"/>
<path d="M346.408 153.128C360.766 153.128 388.818 157.536 387.997 125.143L346.408 153.128Z" fill="white"/>
<path d="M346.408 153.128C360.766 153.128 388.818 157.536 387.997 125.143" stroke="black" stroke-width="4" stroke-miterlimit="10"/>
<path d="M346.408 125.143C350.098 125.143 353.089 122.172 353.089 118.508C353.089 114.843 350.098 111.872 346.408 111.872C342.718 111.872 339.727 114.843 339.727 118.508C339.727 122.172 342.718 125.143 346.408 125.143Z" fill="white" stroke="black" stroke-width="4" stroke-miterlimit="10"/>
<path d="M387.981 131.779C391.671 131.779 394.663 128.808 394.663 125.143C394.663 121.478 391.671 118.508 387.981 118.508C384.291 118.508 381.3 121.478 381.3 125.143C381.3 128.808 384.291 131.779 387.981 131.779Z" fill="white" stroke="black" stroke-width="4" stroke-miterlimit="10"/>
<path d="M346.408 190.07C350.098 190.07 353.089 187.099 353.089 183.435C353.089 179.77 350.098 176.799 346.408 176.799C342.718 176.799 339.727 179.77 339.727 183.435C339.727 187.099 342.718 190.07 346.408 190.07Z" fill="white" stroke="black" stroke-width="4" stroke-miterlimit="10"/>
<path d="M609.069 166.164H508.721C501.306 166.164 495.295 172.133 495.295 179.497V313.822C495.295 321.186 501.306 327.156 508.721 327.156H609.069C616.484 327.156 622.495 321.186 622.495 313.822V179.497C622.495 172.133 616.484 166.164 609.069 166.164Z" fill="#184FA8" stroke="white" stroke-width="4" stroke-miterlimit="10"/>
<path d="M609.069 166.164H508.721C501.306 166.164 495.295 172.133 495.295 179.497V313.822C495.295 321.186 501.306 327.156 508.721 327.156H609.069C616.484 327.156 622.495 321.186 622.495 313.822V179.497C622.495 172.133 616.484 166.164 609.069 166.164Z" fill="white" stroke="#231F20" stroke-miterlimit="10"/>
<path d="M509.479 209.71H608.311" stroke="#3B82F6" stroke-width="2" stroke-miterlimit="10" stroke-linecap="round"/>
<path d="M509.479 231.467H608.311" stroke="#3B82F6" stroke-width="2" stroke-miterlimit="10" stroke-linecap="round"/>
<path d="M509.479 220.581H608.311" stroke="#3B82F6" stroke-width="2" stroke-miterlimit="10" stroke-linecap="round"/>
<path d="M509.479 242.338H608.311" stroke="#3B82F6" stroke-width="2" stroke-miterlimit="10" stroke-linecap="round"/>
<path d="M509.479 253.225H608.311" stroke="#3B82F6" stroke-width="2" stroke-miterlimit="10" stroke-linecap="round"/>
<path d="M509.479 274.982H608.311" stroke="#3B82F6" stroke-width="2" stroke-miterlimit="10" stroke-linecap="round"/>
<path d="M509.479 264.095H608.311" stroke="#3B82F6" stroke-width="2" stroke-miterlimit="10" stroke-linecap="round"/>
<path d="M509.479 285.853H608.311" stroke="#3B82F6" stroke-width="2" stroke-miterlimit="10" stroke-linecap="round"/>
<path d="M509.479 296.724H608.311" stroke="#3B82F6" stroke-width="2" stroke-miterlimit="10" stroke-linecap="round"/>
<path d="M509.479 307.61H608.311" stroke="#3B82F6" stroke-width="2" stroke-miterlimit="10" stroke-linecap="round"/>
<path d="M605.941 183.45H513.949C510.198 183.45 507.157 186.47 507.157 190.196C507.157 193.921 510.198 196.941 513.949 196.941H605.941C609.692 196.941 612.733 193.921 612.733 190.196C612.733 186.47 609.692 183.45 605.941 183.45Z" fill="#3B82F6"/>
<path d="M342.648 422.656V424.977C342.648 431.409 346.471 436.617 351.178 436.617H584.554C589.261 436.617 593.084 431.409 593.084 424.977V422.656H342.664H342.648Z" fill="#184FA8" stroke="white" stroke-width="4" stroke-miterlimit="10"/>
<path d="M549.868 416.381H351.146C346.518 416.381 342.506 413.228 341.432 408.757L314.58 296.535C313.095 290.308 317.85 284.331 324.294 284.331H524.358C529.018 284.331 533.061 287.547 534.088 292.065L559.598 404.287C561.003 410.483 556.265 416.381 549.868 416.381Z" fill="#184FA8" stroke="white" stroke-width="4" stroke-miterlimit="10"/>
<path d="M550.136 416.381H351.068C346.518 416.381 342.57 413.275 341.527 408.899L314.596 296.332C313.127 290.214 317.803 284.347 324.136 284.347H524.564C529.144 284.347 533.125 287.5 534.136 291.939L559.724 404.507C561.114 410.593 556.439 416.397 550.152 416.397L550.136 416.381ZM515.545 292.928H336.457C330.091 292.928 325.416 298.857 326.932 305.006L348.951 393.604C350.025 397.95 353.958 401.008 358.476 401.008H536.268C542.586 401.008 547.246 395.173 545.824 389.071L525.101 300.473C524.074 296.065 520.109 292.943 515.545 292.943V292.928Z" fill="white" stroke="#231F20" stroke-miterlimit="10"/>
<path d="M342.648 422.656V424.977C342.648 431.409 346.471 436.617 351.178 436.617H584.554C589.261 436.617 593.084 431.409 593.084 424.977V422.656H342.664H342.648Z" fill="white" stroke="#231F20" stroke-miterlimit="10"/>
<path d="M391.029 346.293C393.067 345.76 394.52 344.991 395.405 344.003C396.289 343.015 396.747 341.838 396.763 340.458C396.779 339.078 396.542 337.556 396.021 335.877L392.04 322.967C391.266 320.457 390.919 318.387 391.014 316.755C391.108 315.124 391.756 313.932 392.957 313.163C394.157 312.395 396.021 312.002 398.532 312.002L396.589 305.681C393.399 305.681 390.84 306.026 388.881 306.716C386.923 307.406 385.517 308.457 384.648 309.885C383.779 311.312 383.4 313.1 383.495 315.281C383.59 317.461 384.095 320.018 385.011 322.999L388.186 333.321C389.276 336.85 389.324 339.36 388.344 340.866C387.365 342.372 385.075 343.125 381.458 343.125L382.611 346.874L382.69 347.125L383.843 350.874C387.46 350.874 390.224 351.627 392.119 353.133C394.031 354.639 395.515 357.149 396.605 360.678L399.78 371C400.696 373.965 401.77 376.537 403.018 378.718C404.266 380.898 405.751 382.686 407.488 384.114C409.226 385.541 411.279 386.592 413.664 387.283C416.049 387.973 418.829 388.318 422.004 388.318L420.061 381.996C417.55 381.996 415.449 381.604 413.775 380.82C412.085 380.035 410.711 378.827 409.605 377.227C408.515 375.612 407.583 373.541 406.809 371.031L402.829 358.121C402.307 356.443 401.612 354.921 400.759 353.541C399.891 352.16 398.706 350.984 397.221 349.995C395.721 349.007 393.794 348.238 391.424 347.705C391.124 347.642 390.793 347.58 390.477 347.533L390.177 346.529C390.461 346.466 390.761 346.419 391.014 346.356L391.029 346.293Z" fill="white"/>
<path d="M483.48 346.293C481.11 345.76 479.183 344.991 477.683 344.003C476.182 343.015 474.998 341.838 474.145 340.458C473.276 339.078 472.581 337.556 472.075 335.877L468.095 322.967C467.321 320.457 466.389 318.387 465.283 316.755C464.194 315.124 462.804 313.932 461.113 313.163C459.439 312.395 457.338 312.002 454.827 312.002L452.884 305.681C456.075 305.681 458.855 306.026 461.224 306.716C463.609 307.406 465.662 308.457 467.4 309.885C469.137 311.312 470.622 313.1 471.87 315.281C473.118 317.461 474.192 320.018 475.108 322.999L478.283 333.321C479.373 336.85 480.858 339.36 482.769 340.866C484.68 342.372 487.428 343.125 491.046 343.125L492.199 346.874L492.278 347.125L493.431 350.874C489.814 350.874 487.523 351.627 486.544 353.133C485.565 354.639 485.628 357.149 486.702 360.678L489.877 371C490.793 373.965 491.298 376.537 491.393 378.718C491.488 380.898 491.109 382.686 490.24 384.114C489.371 385.541 487.966 386.592 486.007 387.283C484.048 387.973 481.489 388.318 478.299 388.318L476.356 381.996C478.867 381.996 480.731 381.604 481.916 380.82C483.116 380.035 483.764 378.827 483.859 377.227C483.953 375.627 483.622 373.541 482.848 371.031L478.867 358.121C478.346 356.443 478.109 354.921 478.125 353.541C478.141 352.16 478.599 350.984 479.483 349.995C480.368 349.007 481.837 348.238 483.859 347.705C484.111 347.642 484.412 347.58 484.696 347.533L484.396 346.529C484.08 346.466 483.748 346.419 483.448 346.356L483.48 346.293Z" fill="white"/>
<path d="M428.895 369.275C431.402 366.376 430.225 361.29 426.267 357.915C422.309 354.54 417.069 354.154 414.563 357.053C412.057 359.952 413.233 365.037 417.191 368.412C421.149 371.787 426.389 372.173 428.895 369.275Z" fill="white"/>
<path d="M449.614 369.284C452.12 366.385 450.943 361.299 446.985 357.925C443.027 354.55 437.787 354.164 435.281 357.062C432.775 359.961 433.952 365.047 437.91 368.422C441.868 371.797 447.108 372.183 449.614 369.284Z" fill="white"/>
<path d="M470.359 369.265C472.865 366.367 471.688 361.281 467.73 357.906C463.772 354.531 458.532 354.145 456.026 357.044C453.52 359.942 454.697 365.028 458.654 368.403C462.612 371.778 467.852 372.164 470.359 369.265Z" fill="white"/>
</g>
<defs>
<linearGradient id="paint0_linear_51_12838" x1="559.803" y1="482.987" x2="303.715" y2="36.3623" gradientUnits="userSpaceOnUse">
<stop stop-color="#DDE1FF"/>
<stop offset="0.44" stop-color="#5468FF"/>
<stop offset="1" stop-color="white"/>
</linearGradient>
<linearGradient id="paint1_linear_51_12838" x1="170.132" y1="260.44" x2="690.715" y2="260.44" gradientUnits="userSpaceOnUse">
<stop stop-color="white"/>
<stop offset="1" stop-color="white" stop-opacity="0.13"/>
</linearGradient>
<clipPath id="clip0_51_12838">
<rect width="849" height="517" fill="white"/>
</clipPath>
</defs>
</svg>
