<svg width="191" height="147" viewBox="0 0 191 147" fill="none" xmlns="http://www.w3.org/2000/svg">
<g clip-path="url(#clip0_51_13198)">
<path d="M63.6867 0.428528H10.7289C5.04055 0.428528 0.429199 5.03333 0.429199 10.7136V63.5963C0.429199 69.2766 5.04055 73.8814 10.7289 73.8814H63.6867C69.3751 73.8814 73.9865 69.2766 73.9865 63.5963V10.7136C73.9865 5.03333 69.3751 0.428528 63.6867 0.428528Z" fill="white" stroke="black" stroke-miterlimit="10"/>
<path d="M37.2422 11.6993C23.1659 11.6993 12.8833 15.2562 12.8833 19.6531V26.0127C12.8833 30.401 23.1659 33.9666 37.2422 33.9666C51.3185 33.9666 61.5238 30.4096 61.5238 26.0127V19.6531C61.5238 15.2562 51.3185 11.6993 37.2422 11.6993ZM37.1649 37.1464C25.7494 37.1464 16.1277 34.8065 12.8833 31.5753V40.3262C12.8833 44.7231 23.1659 48.28 37.2422 48.28C51.3185 48.28 61.5238 44.7231 61.5238 40.3262V31.5753C58.2794 34.8065 48.5719 37.1464 37.1649 37.1464ZM37.1649 51.4598C25.7494 51.4598 16.1277 49.12 12.8833 45.8887V54.6396C12.8833 59.0365 23.1659 62.5935 37.2422 62.5935C51.3185 62.5935 61.5238 59.0365 61.5238 54.6396V45.8887C58.2794 49.12 48.5719 51.4598 37.1649 51.4598Z" fill="black"/>
<path d="M122.507 52.4112V43.4031C122.507 39.9491 119.013 37.1464 114.696 37.1464H76.2866" stroke="#231F20" stroke-width="2" stroke-miterlimit="10"/>
<path d="M126.781 51.1684L122.507 58.5651L118.224 51.1684H126.781Z" fill="#231F20"/>
<path d="M181.988 62.0964H81.2822C77.2529 62.0964 73.9866 65.3581 73.9866 69.3817V122.907C73.9866 126.931 77.2529 130.192 81.2822 130.192H181.988C186.017 130.192 189.284 126.931 189.284 122.907V69.3817C189.284 65.3581 186.017 62.0964 181.988 62.0964Z" fill="#184FA8" stroke="white" stroke-width="4" stroke-miterlimit="10"/>
<path d="M181.988 62.0964H81.2822C77.2529 62.0964 73.9866 65.3581 73.9866 69.3817V122.907C73.9866 126.931 77.2529 130.192 81.2822 130.192H181.988C186.017 130.192 189.284 126.931 189.284 122.907V69.3817C189.284 65.3581 186.017 62.0964 181.988 62.0964Z" fill="white" stroke="#231F20" stroke-miterlimit="10"/>
<path d="M174.426 69.6473H73.7205C69.6912 69.6473 66.4248 72.9091 66.4248 76.9326V130.458C66.4248 134.482 69.6912 137.743 73.7205 137.743H174.426C178.455 137.743 181.722 134.482 181.722 130.458V76.9326C181.722 72.9091 178.455 69.6473 174.426 69.6473Z" fill="#184FA8" stroke="white" stroke-width="4" stroke-miterlimit="10"/>
<path d="M174.426 69.6473H73.7205C69.6912 69.6473 66.4248 72.9091 66.4248 76.9326V130.458C66.4248 134.482 69.6912 137.743 73.7205 137.743H174.426C178.455 137.743 181.722 134.482 181.722 130.458V76.9326C181.722 72.9091 178.455 69.6473 174.426 69.6473Z" fill="white" stroke="#231F20" stroke-miterlimit="10"/>
<path d="M37.2078 83.3437V103.743C37.2078 108.868 41.3706 113.025 46.5033 113.025H68.622" stroke="#231F20" stroke-width="2" stroke-miterlimit="10"/>
<path d="M32.9248 84.5951L37.2078 77.1984L41.4822 84.5951H32.9248Z" fill="#231F20"/>
<path d="M166.864 77.1984H66.1587C62.1294 77.1984 58.863 80.4601 58.863 84.4837V138.009C58.863 142.033 62.1294 145.294 66.1587 145.294H166.864C170.894 145.294 174.16 142.033 174.16 138.009V84.4837C174.16 80.4601 170.894 77.1984 166.864 77.1984Z" fill="#184FA8" stroke="white" stroke-width="4" stroke-miterlimit="10"/>
<path d="M166.864 77.1984H66.1587C62.1294 77.1984 58.863 80.4601 58.863 84.4837V138.009C58.863 142.033 62.1294 145.294 66.1587 145.294H166.864C170.894 145.294 174.16 142.033 174.16 138.009V84.4837C174.16 80.4601 170.894 77.1984 166.864 77.1984Z" fill="white" stroke="#231F20" stroke-miterlimit="10"/>
<path d="M102.525 93.0117H70.27C67.6106 93.0117 65.4548 95.1645 65.4548 97.82V130.03C65.4548 132.685 67.6106 134.838 70.27 134.838H102.525C105.185 134.838 107.34 132.685 107.34 130.03V97.82C107.34 95.1645 105.185 93.0117 102.525 93.0117Z" fill="black"/>
<g opacity="0.25">
<path d="M86.4063 113.925L103.195 117.49C101.221 126.756 92.1055 132.661 82.8358 130.698C73.5574 128.727 67.6436 119.625 69.6092 110.368C71.3001 102.431 78.2781 96.7916 86.3978 96.7916V113.933L86.4063 113.925Z" fill="#DFDFDF"/>
</g>
<g opacity="0.75">
<path d="M86.4062 113.925V96.783C95.8906 96.783 103.572 104.454 103.572 113.925C103.572 115.27 103.478 116.17 103.195 117.49L86.4062 113.925Z" fill="white"/>
</g>
<path d="M86.4063 113.925L103.195 117.49C101.221 126.756 92.1055 132.661 82.8358 130.698C73.5574 128.727 67.6436 119.625 69.6092 110.368C71.3001 102.431 78.2781 96.7916 86.3978 96.7916V113.933L86.4063 113.925Z" stroke="white" stroke-miterlimit="10"/>
<path d="M86.4062 113.925V96.783C95.8906 96.783 103.572 104.454 103.572 113.925C103.572 115.27 103.478 116.17 103.195 117.49L86.4062 113.925Z" stroke="white" stroke-miterlimit="10"/>
<path d="M130.034 83.4123H68.313C66.7345 83.4123 65.4548 84.6901 65.4548 86.2664C65.4548 87.8427 66.7345 89.1205 68.313 89.1205H130.034C131.613 89.1205 132.892 87.8427 132.892 86.2664C132.892 84.6901 131.613 83.4123 130.034 83.4123Z" fill="black"/>
<path d="M120.378 95.6173H161.955" stroke="black" stroke-width="2" stroke-miterlimit="10" stroke-linecap="round"/>
<path d="M120.378 104.325H161.955" stroke="black" stroke-width="2" stroke-miterlimit="10" stroke-linecap="round"/>
<path d="M120.378 99.9713H161.955" stroke="black" stroke-width="2" stroke-miterlimit="10" stroke-linecap="round"/>
<path d="M120.378 108.679H161.955" stroke="black" stroke-width="2" stroke-miterlimit="10" stroke-linecap="round"/>
<path d="M120.378 113.033H161.955" stroke="black" stroke-width="2" stroke-miterlimit="10" stroke-linecap="round"/>
<path d="M120.378 134.049H161.955" stroke="black" stroke-width="2" stroke-miterlimit="10" stroke-linecap="round"/>
<path d="M124.369 119.873H157.698" stroke="#999999" stroke-width="2" stroke-miterlimit="10" stroke-linecap="round"/>
<path d="M124.369 123.473H157.698" stroke="#999999" stroke-width="2" stroke-miterlimit="10" stroke-linecap="round"/>
<path d="M124.369 127.064H157.698" stroke="#999999" stroke-width="2" stroke-miterlimit="10" stroke-linecap="round"/>
<path d="M119.443 123.224C120.327 123.224 120.455 122.736 120.455 122.299C120.455 121.947 120.404 121.604 120.352 121.253C120.301 120.902 120.249 120.567 120.249 120.216C120.249 119.067 120.996 118.579 122.06 118.579H122.327V119.264H122.103C121.365 119.264 121.116 119.659 121.116 120.336C121.116 120.619 121.151 120.919 121.202 121.219C121.254 121.527 121.288 121.827 121.288 122.161C121.297 122.959 120.953 123.361 120.387 123.507V123.533C120.945 123.67 121.297 124.09 121.288 124.887C121.288 125.221 121.254 125.538 121.202 125.838C121.151 126.147 121.116 126.438 121.116 126.738C121.116 127.433 121.4 127.827 122.103 127.827H122.327V128.512H122.06C121.022 128.512 120.249 128.067 120.249 126.807C120.249 126.473 120.301 126.121 120.352 125.787C120.404 125.453 120.455 125.11 120.455 124.776C120.455 124.39 120.327 123.85 119.443 123.85V123.216V123.224Z" fill="black"/>
<path d="M162.633 123.867C161.749 123.867 161.62 124.398 161.62 124.793C161.62 125.127 161.672 125.47 161.723 125.804C161.775 126.138 161.826 126.49 161.826 126.824C161.826 128.084 161.036 128.53 160.015 128.53H159.749V127.844H159.964C160.659 127.835 160.959 127.458 160.959 126.755C160.959 126.455 160.908 126.173 160.873 125.856C160.822 125.556 160.77 125.247 160.77 124.904C160.77 124.107 161.122 123.687 161.672 123.55V123.524C161.122 123.379 160.77 122.976 160.77 122.179C160.77 121.844 160.822 121.544 160.873 121.236C160.908 120.936 160.959 120.636 160.959 120.353C160.959 119.676 160.693 119.29 159.972 119.282H159.749V118.596H159.998C161.062 118.596 161.818 119.084 161.818 120.233C161.818 120.584 161.766 120.919 161.715 121.27C161.663 121.621 161.612 121.964 161.612 122.316C161.612 122.753 161.74 123.241 162.624 123.241V123.876L162.633 123.867Z" fill="black"/>
</g>
<defs>
<clipPath id="clip0_51_13198">
<rect width="191" height="147" fill="white"/>
</clipPath>
</defs>
</svg>
